<svg width="568" height="415" viewBox="0 0 568 415" fill="none" xmlns="http://www.w3.org/2000/svg">
<path d="M487.653 406.184C522.237 363.358 542.949 308.86 542.949 249.527C542.949 111.719 431.233 0 293.421 0C155.609 0 43.8975 111.719 43.8975 249.527C43.8975 308.86 64.6095 363.358 99.1927 406.184H487.653Z" fill="#EFEFEF"/>
<path d="M512.658 201.047H480.478V328.938H512.658V201.047Z" fill="#E3E3E3"/>
<path d="M433.913 139.566H430.382V163.784H433.913V139.566Z" fill="#E3E3E3"/>
<path d="M444.043 177.684L435.006 178.597L449.544 322.52L458.581 321.607L444.043 177.684Z" fill="#E3E3E3"/>
<path d="M420.246 177.738L405.708 321.66L414.745 322.573L429.283 178.651L420.246 177.738Z" fill="#E3E3E3"/>
<path d="M432.147 202.49C445.579 202.49 456.467 191.601 456.467 178.17C456.467 164.738 445.579 153.85 432.147 153.85C418.716 153.85 407.827 164.738 407.827 178.17C407.827 191.601 418.716 202.49 432.147 202.49Z" fill="#D8D8D8"/>
<path d="M458.87 178.169C458.87 181.307 458.331 184.314 457.338 187.11H406.961C405.967 184.314 405.428 181.307 405.428 178.169C405.428 175.03 405.967 172.023 406.961 169.227H457.334C458.328 172.023 458.87 175.03 458.87 178.169Z" fill="#E3E3E3"/>
<path d="M445.178 222.502H419.121V226.158H445.178V222.502Z" fill="#E3E3E3"/>
<path d="M445.178 269.158H419.121V272.813H445.178V269.158Z" fill="#E3E3E3"/>
<path d="M500.99 233.191H447.031V244.433H500.99V233.191Z" fill="#C4C4C4"/>
<path d="M503.414 239.41H428.9V338.765H503.414V239.41Z" fill="#D8D8D8"/>
<path d="M523.548 239.41H503.418V338.765H523.548V239.41Z" fill="#C4C4C4"/>
<path d="M494.564 251.756H437.75V254.232H494.564V251.756Z" fill="#C4C4C4"/>
<path d="M494.564 265.746H437.75V268.222H494.564V265.746Z" fill="#C4C4C4"/>
<path d="M494.564 279.734H437.75V282.21H494.564V279.734Z" fill="#C4C4C4"/>
<path d="M494.564 293.722H437.75V296.197H494.564V293.722Z" fill="#C4C4C4"/>
<path d="M494.564 307.709H437.75V310.185H494.564V307.709Z" fill="#C4C4C4"/>
<path d="M494.564 321.701H437.75V324.176H494.564V321.701Z" fill="#C4C4C4"/>
<path d="M397.564 128.124H339.957V324.096H397.564V128.124Z" fill="#E3E3E3"/>
<path d="M371.173 152.411H349.441V158.101H371.173V152.411Z" fill="#EFEFEF"/>
<path d="M371.173 176.731H349.441V182.421H371.173V176.731Z" fill="#EFEFEF"/>
<path d="M371.173 201.047H349.441V206.738H371.173V201.047Z" fill="#EFEFEF"/>
<path d="M371.173 225.368H349.441V231.058H371.173V225.368Z" fill="#EFEFEF"/>
<path d="M371.173 249.687H349.441V255.377H371.173V249.687Z" fill="#EFEFEF"/>
<path d="M371.173 274.007H349.441V279.698H371.173V274.007Z" fill="#EFEFEF"/>
<path d="M360.964 174.459H283.559V351.07H360.964V174.459Z" fill="#D8D8D8"/>
<path d="M347.581 163.37H296.942V174.459H347.581V163.37Z" fill="#C4C4C4"/>
<path d="M298.362 414.145C437.24 414.145 549.823 410.013 549.823 404.916C549.823 399.819 437.24 395.687 298.362 395.687C159.484 395.687 46.9014 399.819 46.9014 404.916C46.9014 410.013 159.484 414.145 298.362 414.145Z" fill="#BABABA"/>
<path d="M165.989 404.862C164.919 405 163.845 404.873 162.804 404.483L50.9972 362.546C48.4523 361.592 46.479 359.149 45.8419 356.171L0.223738 142.661C-0.751974 138.096 1.54896 133.672 5.46273 132.595L81.5355 111.621C96.2586 107.561 111.382 104.503 126.491 102.53C141.596 100.556 157 99.628 172.273 99.77L251.182 100.502C255.241 100.538 258.602 104.223 258.831 108.886L269.593 326.954C269.742 329.994 268.461 332.863 266.247 334.44L168.967 403.679C168.061 404.323 167.06 404.724 165.989 404.862Z" fill="#28478A"/>
<path d="M177.337 372.736C176.256 372.736 175.211 372.47 174.228 371.95L68.7965 315.883C66.3972 314.608 64.7553 311.929 64.5113 308.893L46.934 91.2687C46.559 86.6159 49.4133 82.5274 53.4326 81.9631L131.584 71.0191C146.708 68.9002 162.104 67.8262 177.337 67.8262C192.574 67.8262 207.966 68.9002 223.094 71.0191L301.242 81.9631C305.261 82.5274 308.115 86.6123 307.74 91.2651L290.163 308.896C289.919 311.933 288.273 314.608 285.878 315.886L180.443 371.95C179.463 372.47 178.418 372.736 177.337 372.736Z" fill="#F1894B"/>
<path opacity="0.3" d="M177.337 269.274C204.395 269.274 226.33 247.339 226.33 220.281C226.33 193.223 204.395 171.288 177.337 171.288C150.279 171.288 128.344 193.223 128.344 220.281C128.344 247.339 150.279 269.274 177.337 269.274Z" fill="#FC5D42"/>
<path d="M155.315 271.491L112.38 228.556L126.651 214.285L155.315 242.952L247.119 151.147L261.391 165.419L155.315 271.491Z" fill="white"/>
<path d="M234.493 404.916C252.265 404.916 266.673 390.509 266.673 372.736C266.673 354.963 252.265 340.556 234.493 340.556C216.72 340.556 202.312 354.963 202.312 372.736C202.312 390.509 216.72 404.916 234.493 404.916Z" fill="#25294C"/>
<path d="M339.957 404.916C357.73 404.916 372.137 390.509 372.137 372.736C372.137 354.963 357.73 340.556 339.957 340.556C322.184 340.556 307.777 354.963 307.777 372.736C307.777 390.509 322.184 404.916 339.957 404.916Z" fill="#2D315B"/>
<path d="M328.784 404.916C346.556 404.916 360.964 390.509 360.964 372.736C360.964 354.963 346.556 340.556 328.784 340.556C311.011 340.556 296.604 354.963 296.604 372.736C296.604 390.509 311.011 404.916 328.784 404.916Z" fill="#25294C"/>
<path d="M405.931 404.916C423.703 404.916 438.111 390.509 438.111 372.736C438.111 354.963 423.703 340.556 405.931 340.556C388.158 340.556 373.75 354.963 373.75 372.736C373.75 390.509 388.158 404.916 405.931 404.916Z" fill="#25294C"/>
<path d="M512.658 404.916C530.431 404.916 544.838 390.509 544.838 372.736C544.838 354.963 530.431 340.556 512.658 340.556C494.885 340.556 480.478 354.963 480.478 372.736C480.478 390.509 494.885 404.916 512.658 404.916Z" fill="#2D315B"/>
<path d="M501.488 404.916C519.261 404.916 533.669 390.509 533.669 372.736C533.669 354.963 519.261 340.556 501.488 340.556C483.716 340.556 469.308 354.963 469.308 372.736C469.308 390.509 483.716 404.916 501.488 404.916Z" fill="#25294C"/>
<path d="M567.971 333.704L567.789 335.262L564.174 365.666C563.089 374.75 555.349 381.594 546.16 381.594H192.359C190.083 381.594 187.87 381.103 185.86 380.185C183.111 378.936 180.752 376.894 179.136 374.244C177.523 371.593 176.274 368.247 176.274 364.235C176.274 353 176.973 306.457 190.156 292.167C190.269 292.032 190.389 291.905 190.516 291.781C204.049 277.961 241.789 249.531 258.616 249.531C275.44 249.531 379.062 249.531 379.062 249.531C379.062 249.531 410.044 252.454 452.772 291.781C452.772 291.781 510.761 295.968 545.752 313.637C555.047 318.329 562.721 323.976 567.254 330.748C567.389 330.944 567.502 331.156 567.6 331.367C567.935 332.091 568.062 332.903 567.971 333.704Z" fill="#EEECF1"/>
<path d="M329.574 253.802H376.659C376.721 253.802 376.787 253.809 376.849 253.824C378.946 254.337 415.764 263.657 442.655 290.649C443.146 291.145 442.789 291.989 442.09 291.989H368.588C368.373 291.989 368.173 291.906 368.024 291.749C365.693 289.328 346.048 269.027 329.075 255.189C328.5 254.727 328.835 253.802 329.574 253.802Z" fill="#63669B"/>
<path d="M289.763 254.577L284.826 291.079C284.76 291.563 285.135 291.993 285.623 291.993H348.793C351.058 291.993 352.452 289.502 351.251 287.58C346.689 280.269 335.825 265.394 317.563 254.675C316.569 254.093 315.43 253.798 314.276 253.798H290.644C290.2 253.801 289.821 254.133 289.763 254.577Z" fill="#63669B"/>
<path opacity="0.2" d="M567.786 335.263L564.171 365.666C563.086 374.75 555.345 381.594 546.156 381.594H192.359C190.083 381.594 187.87 381.103 185.86 380.185C183.111 378.937 180.752 376.894 179.136 374.244C177.523 371.593 176.274 368.248 176.274 364.235C176.274 353 176.973 306.457 190.156 292.167C198.115 302.183 215.288 319.236 239.961 319.236C274.905 319.236 398.824 313.36 425.532 330.985C450.628 347.546 532.322 355.625 567.786 335.263Z" fill="#63669B"/>
<path d="M285.463 254.755L280.442 291.268C280.384 291.683 280.031 291.992 279.612 291.992H231.435C230.783 291.992 230.146 291.828 229.574 291.515L222.577 287.667C219.828 286.156 219.369 282.399 221.674 280.269C230.812 271.826 251.604 254.107 265.428 253.805H284.629C285.139 253.801 285.532 254.249 285.463 254.755Z" fill="#63669B"/>
<path d="M260.353 372.737C260.353 375.788 259.891 379.286 259.206 382.126L192.355 381.595C190.08 381.595 187.866 381.103 185.857 380.186C185.376 377.775 185.125 375.289 185.125 372.737C185.125 351.966 201.97 335.125 222.737 335.125C243.518 335.121 260.353 351.966 260.353 372.737Z" fill="#25294C"/>
<path d="M222.741 404.916C240.513 404.916 254.921 390.509 254.921 372.736C254.921 354.963 240.513 340.556 222.741 340.556C204.968 340.556 190.56 354.963 190.56 372.736C190.56 390.509 204.968 404.916 222.741 404.916Z" fill="#2D315B"/>
<path d="M222.741 389.96C232.254 389.96 239.965 382.249 239.965 372.736C239.965 363.223 232.254 355.512 222.741 355.512C213.228 355.512 205.517 363.223 205.517 372.736C205.517 382.249 213.228 389.96 222.741 389.96Z" fill="#25294C"/>
<path d="M432.148 372.736C432.148 375.787 431.882 379.002 431.197 381.842H357.345C356.661 379.002 356.209 375.787 356.209 372.736C356.209 351.77 373.208 334.771 394.182 334.771C415.149 334.771 432.148 351.77 432.148 372.736Z" fill="#25294C"/>
<path d="M431.678 311.369L469.862 314.354C470.415 314.398 470.903 314.736 471.132 315.242L479.302 333.071C479.823 334.207 478.836 335.452 477.613 335.208L434.703 326.692C434.201 326.594 433.782 326.248 433.589 325.775L429.097 314.918C428.365 313.145 429.763 311.219 431.678 311.369Z" fill="#7F84B5"/>
<path d="M567.604 331.367C566.191 333.26 561.389 334.869 557.77 335.852C555.284 336.526 552.662 335.423 551.421 333.165L543.226 318.246C542.73 317.343 542.916 316.214 543.681 315.522L545.756 313.64C555.051 318.333 562.725 323.98 567.258 330.752C567.393 330.941 567.506 331.152 567.604 331.367Z" fill="#7F84B5"/>
<path d="M497.476 353.95H544.525C545.843 353.95 546.797 355.202 546.451 356.473L543.353 367.792C543.117 368.658 542.326 369.263 541.427 369.263H503.222C502.522 369.263 501.874 368.898 501.514 368.298L495.237 357.918C494.185 356.178 495.438 353.95 497.476 353.95Z" fill="#EEECF1"/>
<path d="M394.178 404.916C411.951 404.916 426.359 390.509 426.359 372.736C426.359 354.963 411.951 340.556 394.178 340.556C376.406 340.556 361.998 354.963 361.998 372.736C361.998 390.509 376.406 404.916 394.178 404.916Z" fill="#2D315B"/>
<path d="M394.178 389.96C403.691 389.96 411.403 382.249 411.403 372.736C411.403 363.223 403.691 355.512 394.178 355.512C384.666 355.512 376.954 363.223 376.954 372.736C376.954 382.249 384.666 389.96 394.178 389.96Z" fill="#25294C"/>
<path d="M287.833 320.448H300.077C301.027 320.448 301.657 319.461 301.257 318.599L300.193 316.312C299.979 315.853 299.52 315.559 299.014 315.559H286.77C285.82 315.559 285.19 316.545 285.591 317.408L286.654 319.694C286.868 320.153 287.327 320.448 287.833 320.448Z" fill="#2D315B"/>
<path d="M370.761 63.8432C370.765 63.7849 370.776 63.7303 370.776 63.6721C370.776 61.1782 367.095 59.1576 362.551 59.1576C362.238 59.1576 361.933 59.1685 361.627 59.1867C361.536 54.3591 356.799 50.4708 350.963 50.4708C348.553 50.4708 346.332 51.1334 344.548 52.2511C343.492 46.3641 337.38 41.8496 330 41.8496C322.172 41.8496 315.776 46.9248 315.317 53.3288C313.992 52.7463 312.481 52.4113 310.875 52.4113C305.632 52.4113 301.38 55.9428 301.38 60.2935C301.38 61.5677 301.748 62.7692 302.392 63.8322H370.761V63.8432Z" fill="white"/>
<path d="M480.918 128.123C480.922 128.087 480.929 128.051 480.929 128.014C480.929 126.43 478.588 125.145 475.701 125.145C475.501 125.145 475.308 125.153 475.115 125.164C475.057 122.094 472.046 119.622 468.336 119.622C466.803 119.622 465.391 120.045 464.258 120.755C463.589 117.012 459.7 114.143 455.007 114.143C450.03 114.143 445.964 117.372 445.673 121.443C444.828 121.071 443.87 120.86 442.847 120.86C439.512 120.86 436.811 123.103 436.811 125.873C436.811 126.682 437.044 127.446 437.455 128.123H480.918Z" fill="white"/>
</svg>
