<svg width="181" height="168" viewBox="0 0 181 168" fill="none" xmlns="http://www.w3.org/2000/svg">
<path opacity="0.5" d="M152.955 13.7321L120.974 0.927881L104.992 30.4484C101.23 30.1909 97.4467 30.282 93.6841 30.6192L76.9415 1.43706L45.2897 14.9905L54.855 47.246C52.0144 49.7363 49.3379 52.4113 46.9278 55.3118L14.5345 46.5056L1.73026 78.4876L31.2507 94.4693C30.9933 98.2317 31.0844 102.015 31.4216 105.777L2.23948 122.52L15.793 154.172L48.0484 144.606C50.5388 147.447 53.2136 150.123 56.1141 152.534L47.3081 184.927L79.29 197.731L95.2716 168.21C99.034 168.468 102.817 168.377 106.579 168.04L123.322 197.222L154.974 183.668L145.409 151.413C148.249 148.923 150.926 146.248 153.336 143.347L185.729 152.153L198.533 120.171L169.013 104.19C169.27 100.427 169.179 96.6444 168.842 92.8818L198.024 76.1392L184.471 44.4874L152.215 54.0527C149.725 51.2121 147.05 48.5356 144.149 46.1255L152.955 13.7321ZM130.012 111.292C123.405 127.796 104.672 135.817 88.2407 129.179C71.7372 122.572 63.7158 103.839 70.3538 87.4075C76.9612 70.904 95.6937 62.8826 112.125 69.5207C128.598 76.0562 136.62 94.7889 130.012 111.292Z" stroke="url(#paint0_linear_19_3369)" stroke-opacity="0.6" stroke-width="1.19026" stroke-miterlimit="10" stroke-linecap="round"/>
<defs>
<linearGradient id="paint0_linear_19_3369" x1="61.1156" y1="8.2138" x2="139.148" y2="190.445" gradientUnits="userSpaceOnUse">
<stop stop-color="white"/>
<stop offset="0.520503" stop-color="#999999"/>
</linearGradient>
</defs>
</svg>
