<svg fill="none" height="903" viewBox="0 0 955 903" width="955" xmlns="http://www.w3.org/2000/svg">
  <path clip-rule="evenodd" d="M955 -23.7593C955.003 -23.7641 955.004 -23.7677 953.977 -24.3865C952.95 -25.0052 952.949 -25.004 952.947 -24.9992L952.935 -24.98L952.888 -24.9021C952.845 -24.8313 952.781 -24.7258 952.696 -24.5867C952.525 -24.3061 952.268 -23.8888 951.926 -23.336C951.241 -22.2304 950.215 -20.5888 948.85 -18.4448C946.12 -14.1591 942.036 -7.86963 936.625 0.138182C925.801 16.1526 909.665 39.0369 888.428 66.5018C845.952 121.432 783.073 194.671 701.468 267.91C538.244 414.396 300.197 560.791 0.694824 560.791V563.189C301.011 563.189 539.606 416.396 703.07 269.694C784.806 196.338 847.782 122.985 890.325 67.9684C911.597 40.4602 927.762 17.534 938.611 1.48121C944.036 -6.54579 948.132 -12.8532 950.873 -17.1569C952.243 -19.3081 953.275 -20.9594 953.965 -22.0733C954.309 -22.6297 954.569 -23.0518 954.742 -23.336C954.829 -23.4787 954.894 -23.5855 954.938 -23.6574L954.987 -23.7389L955 -23.7593ZM954.886 152.669C954.889 152.666 954.89 152.665 953.977 151.886C953.065 151.109 953.064 151.11 953.061 151.113L953.05 151.126L953.003 151.181L952.919 151.278L952.811 151.403C952.738 151.488 952.65 151.59 952.546 151.71L952.379 151.902C952.278 152.018 952.166 152.146 952.043 152.287C951.359 153.067 950.334 154.228 948.97 155.744C946.242 158.774 942.161 163.223 936.751 168.886C925.931 180.213 909.8 196.402 888.567 215.83C846.1 254.688 783.228 306.506 701.626 358.324C538.419 461.962 300.319 565.587 0.694824 565.587V567.986C300.89 567.986 539.431 464.161 702.911 360.348C784.651 308.443 847.634 256.535 890.186 217.599C911.462 198.131 927.632 181.905 938.485 170.542C943.912 164.861 948.01 160.395 950.753 157.348C952.124 155.824 953.157 154.655 953.847 153.866C954.193 153.472 954.453 153.172 954.627 152.97C954.713 152.87 954.779 152.794 954.823 152.742L954.873 152.685L954.886 152.669ZM953.977 274.198C954.749 275.115 954.748 275.118 954.745 275.12L954.732 275.131L954.682 275.173L954.552 275.281L954.485 275.336C954.311 275.481 954.05 275.696 953.705 275.979C953.014 276.545 951.98 277.383 950.608 278.476C947.864 280.661 943.765 283.863 938.338 287.935C927.482 296.081 911.311 307.712 890.034 321.667C847.48 349.577 784.499 386.781 702.765 423.982C539.296 498.385 300.806 572.782 0.694824 572.782V570.384C300.403 570.384 538.555 496.088 701.771 421.799C783.38 384.655 846.254 347.512 888.719 319.662C909.951 305.736 926.081 294.135 936.898 286.018C942.307 281.959 946.388 278.771 949.115 276.6C950.478 275.515 951.503 274.682 952.185 274.124C952.332 274.004 952.463 273.896 952.578 273.801C952.731 273.675 952.856 273.572 952.953 273.49C953.038 273.421 953.102 273.367 953.144 273.332L953.191 273.293L953.202 273.283C953.202 273.283 953.203 273.282 953.227 273.309C953.238 273.323 953.255 273.342 953.279 273.37C953.324 273.423 953.396 273.507 953.51 273.643L953.977 274.198ZM954.49 408.386C954.49 408.386 954.491 408.386 954.49 408.383C954.489 408.381 954.487 408.376 954.483 408.365C954.474 408.345 954.455 408.304 954.415 408.22C954.347 408.076 954.219 407.807 953.977 407.302C953.744 406.812 953.615 406.545 953.544 406.399C953.511 406.33 953.491 406.288 953.478 406.262C953.466 406.237 953.461 406.227 953.459 406.224C953.457 406.221 953.457 406.221 953.457 406.221L953.445 406.227L953.398 406.25L953.207 406.34C953.037 406.42 952.781 406.54 952.439 406.7C951.756 407.018 950.731 407.491 949.367 408.109C946.639 409.343 942.558 411.156 937.147 413.464C926.327 418.081 910.194 424.678 888.958 432.596C846.484 448.434 783.596 469.556 701.968 490.68C538.711 532.927 300.492 575.18 0.694824 575.18V577.579C300.717 577.579 539.14 535.294 702.568 493.001C784.283 471.856 847.25 450.708 889.795 434.843C911.068 426.911 927.236 420.3 938.089 415.67C943.515 413.355 947.613 411.535 950.356 410.294C951.727 409.672 952.76 409.195 953.451 408.874C953.797 408.713 954.057 408.591 954.231 408.509L954.427 408.416L954.477 408.392L954.49 408.386ZM953.977 514.025C954.14 514.882 954.184 515.116 954.194 515.179C954.198 515.203 954.197 515.203 954.197 515.203L954.184 515.206L954.135 515.215L953.94 515.253C953.767 515.285 953.508 515.333 953.163 515.396L952.84 515.456L952.443 515.53C952.224 515.569 951.984 515.613 951.723 515.66C951.243 515.748 950.693 515.847 950.074 515.959C947.334 516.452 943.241 517.174 937.818 518.092C926.974 519.93 910.815 522.554 889.552 525.703C847.026 532.001 784.081 540.397 702.391 548.794C539.01 565.585 300.649 582.375 0.694824 582.375V579.977C300.56 579.977 538.839 563.192 702.145 546.407C783.799 538.016 846.708 529.624 889.201 523.331C910.447 520.185 926.589 517.563 937.418 515.727C942.832 514.81 946.918 514.089 949.649 513.599C951.015 513.353 952.042 513.165 952.727 513.038C953.07 512.975 953.327 512.927 953.498 512.895L953.69 512.859L953.738 512.849L953.75 512.847C953.75 512.847 953.751 512.847 953.756 512.87C953.761 512.893 953.769 512.936 953.786 513.021L953.822 513.21C953.856 513.384 953.905 513.643 953.977 514.025ZM953.964 578.778C953.967 578.778 953.968 578.778 953.977 579.977C953.986 581.176 953.985 581.176 953.982 581.176H953.97H953.95L953.922 581.177H953.885H953.841H953.788L953.728 581.179H953.659L953.583 581.18H953.498L953.405 581.181H953.305L953.196 581.182L953.079 581.183L952.954 581.185H952.821L952.681 581.186L952.532 581.187L952.375 581.188L952.21 581.189L952.037 581.19L951.856 581.193L951.668 581.194L951.471 581.195L951.266 581.196L951.053 581.199L950.833 581.2L950.604 581.201L950.367 581.204L950.123 581.205L949.87 581.207L949.61 581.21L949.342 581.211L949.065 581.213L948.781 581.216L948.489 581.218L948.189 581.22L947.881 581.223L947.565 581.225L947.242 581.228L946.91 581.23L946.571 581.232L946.223 581.235L945.868 581.237L945.505 581.24L945.134 581.243L944.755 581.246L944.368 581.249L943.974 581.252L943.571 581.255L943.161 581.258L942.743 581.261L942.317 581.265L941.883 581.267L941.441 581.271L940.992 581.274L940.535 581.278L940.069 581.282L939.597 581.285L939.116 581.289L938.627 581.292L938.131 581.296L937.627 581.3L937.115 581.303L936.596 581.308L936.068 581.312L935.533 581.315L934.99 581.32L934.439 581.324L933.881 581.328L933.315 581.332L932.741 581.337L932.159 581.342L931.57 581.345L930.972 581.35L930.368 581.355L929.755 581.36L929.135 581.364L928.507 581.368L927.871 581.373L927.227 581.379L926.576 581.384L925.917 581.388L925.251 581.393L924.577 581.398L923.895 581.404L923.205 581.409L922.508 581.414L921.803 581.42L921.091 581.424L920.37 581.43L919.643 581.435L918.907 581.441L918.164 581.447L917.413 581.452L916.655 581.458L915.889 581.464L915.115 581.47L914.334 581.476L913.545 581.482L912.748 581.488L911.944 581.494L911.133 581.5L910.313 581.506L909.487 581.512L908.652 581.518L907.81 581.525L906.96 581.531L906.103 581.538L905.239 581.544L904.366 581.55L903.486 581.557L902.599 581.565L901.704 581.571L900.802 581.578L899.892 581.585L898.974 581.591L898.049 581.598L897.116 581.605L896.176 581.613L895.229 581.62L894.274 581.627L893.311 581.634L892.341 581.641L891.363 581.649L890.378 581.656L889.386 581.664L888.386 581.671L887.378 581.679L886.363 581.687L885.341 581.694L884.311 581.703L883.273 581.71L882.229 581.718L881.176 581.725L880.117 581.734L879.049 581.742L877.975 581.75L876.893 581.758L875.804 581.766L874.707 581.774L873.602 581.783L872.491 581.791L871.372 581.8L870.245 581.808L869.112 581.816L867.97 581.826L866.822 581.834L865.666 581.843L864.502 581.851L863.332 581.861L862.154 581.869L860.968 581.879L859.775 581.887L858.575 581.897L857.368 581.905L856.153 581.915L854.931 581.924L853.701 581.933L852.465 581.942L851.22 581.952L849.969 581.962L848.71 581.971L847.444 581.981L846.171 581.99L844.89 582L843.602 582.01L842.307 582.019L841.005 582.029L839.695 582.038L838.378 582.049L837.054 582.059L835.722 582.068L834.383 582.079L833.037 582.089L831.684 582.099L830.323 582.109L828.956 582.12L827.58 582.131L826.198 582.14L824.808 582.151L823.412 582.162L822.008 582.173L820.597 582.183L819.178 582.194L817.753 582.205L816.32 582.216L814.881 582.227L813.433 582.237L811.979 582.248L810.517 582.259L809.048 582.27L807.573 582.282L806.09 582.292L804.6 582.303L803.102 582.315L801.598 582.326L800.086 582.338L798.568 582.349L797.042 582.361L795.509 582.373L793.968 582.384L792.422 582.396L790.868 582.408L789.306 582.42L787.738 582.432L786.162 582.442L784.579 582.454L782.989 582.466L781.392 582.478L779.789 582.492L778.177 582.504L776.56 582.516L774.934 582.528L773.302 582.539L771.663 582.553L770.016 582.565L768.363 582.577L766.702 582.59L765.035 582.602L763.36 582.615L761.679 582.628L759.991 582.64L758.295 582.653L756.593 582.667L754.883 582.679L753.166 582.692L751.442 582.705L749.712 582.718L747.975 582.731L746.23 582.745L744.478 582.758L742.72 582.771L740.954 582.784L739.182 582.797L737.402 582.811L735.616 582.825L733.823 582.838L732.022 582.851L730.215 582.866L728.401 582.879L726.58 582.892L724.752 582.906L722.917 582.92L721.075 582.934L719.226 582.948L717.371 582.962L715.508 582.976L713.638 582.99L711.762 583.005L709.879 583.019L707.99 583.032L706.093 583.047L704.188 583.061L702.277 583.076L700.36 583.09L698.435 583.106L696.503 583.12L694.566 583.134L692.621 583.149L690.669 583.163L688.71 583.179L686.745 583.193L684.773 583.209L682.793 583.223L680.807 583.239L678.814 583.253L676.814 583.269L674.808 583.283L672.795 583.299L670.776 583.314L668.748 583.329L666.715 583.344L664.675 583.36L662.628 583.375L660.574 583.391L658.512 583.406L656.445 583.422L654.371 583.438L652.29 583.453L650.203 583.469L648.108 583.484L646.007 583.501L643.899 583.517L641.785 583.532L639.664 583.548L637.535 583.565L635.401 583.58L633.259 583.597L631.111 583.613L628.956 583.63L626.795 583.645L624.626 583.662L622.452 583.679L620.27 583.695L618.081 583.711L615.887 583.728L613.685 583.745L611.477 583.761L609.262 583.778L607.04 583.795L604.812 583.812L602.577 583.829L600.336 583.845L598.087 583.862L595.833 583.879L593.572 583.897L591.304 583.914L589.03 583.93L586.748 583.948L584.46 583.965L582.166 583.982L579.865 584L577.558 584.017L575.243 584.035L572.922 584.053L570.596 584.07L568.261 584.088L565.921 584.106L563.574 584.122L561.22 584.14L558.86 584.158L556.493 584.176L554.12 584.194L551.741 584.212L549.355 584.23L546.962 584.248L544.562 584.266L542.157 584.284L539.744 584.302L537.326 584.321L534.901 584.339L532.469 584.357L530.03 584.377L527.585 584.395L525.134 584.413L522.676 584.432L520.212 584.45L517.742 584.469L515.265 584.487L512.781 584.506L510.291 584.525L507.794 584.543L505.292 584.562L502.782 584.582L500.266 584.601L497.745 584.62L495.216 584.639L492.681 584.658L490.139 584.678L487.591 584.697L485.037 584.716L482.477 584.735L479.909 584.754L477.336 584.773L474.755 584.793L472.169 584.813L469.577 584.832L466.978 584.851L464.373 584.872L461.761 584.891L459.143 584.911L456.518 584.931L453.888 584.951L451.251 584.97L448.607 584.991L445.957 585.011L443.301 585.03L440.639 585.05L437.97 585.071L435.294 585.091L432.613 585.112L429.926 585.132L427.232 585.152L424.531 585.173L421.825 585.193L419.111 585.214L416.393 585.234L413.668 585.254L410.936 585.275L408.197 585.295L405.454 585.317L402.703 585.337L399.946 585.357L397.184 585.379L394.414 585.399L391.639 585.421L388.857 585.441L386.069 585.463L383.275 585.483L380.474 585.505L377.668 585.527L374.855 585.547L372.036 585.569L369.211 585.59L366.38 585.612L363.543 585.632L360.699 585.654L357.848 585.675L354.992 585.697L352.13 585.718L349.262 585.74L346.387 585.762L343.507 585.783L340.62 585.806L337.726 585.828L334.827 585.849L331.923 585.871L329.01 585.893L326.093 585.915L323.169 585.938L320.24 585.959L317.303 585.981L314.362 586.004L311.413 586.025L308.459 586.048L305.499 586.071L302.533 586.093L299.56 586.115L296.582 586.138L293.597 586.161L290.607 586.182L287.609 586.205L284.606 586.228L281.598 586.251L278.582 586.274L275.562 586.296L272.535 586.319L269.501 586.342L266.463 586.365L263.417 586.389L260.365 586.411L257.309 586.434L254.245 586.457L251.177 586.481L248.101 586.504L245.02 586.527L241.933 586.551L238.839 586.573L235.741 586.597L232.635 586.62L229.525 586.644L226.407 586.668L223.284 586.691L220.155 586.715L217.02 586.739L213.879 586.762L210.732 586.786L207.58 586.81L204.42 586.834L201.256 586.858L198.085 586.882L194.909 586.906L191.727 586.93L188.538 586.954L185.344 586.978L182.143 587.002L178.938 587.025L175.726 587.051L172.508 587.075L169.284 587.099L166.055 587.123L162.819 587.148L159.578 587.172L156.33 587.197L153.077 587.221L149.819 587.246L146.554 587.27L143.283 587.295L140.007 587.319L136.725 587.344L133.436 587.37L130.142 587.394L126.843 587.419L123.537 587.444L120.226 587.469L116.909 587.494L113.586 587.52L110.258 587.545L106.923 587.57L103.582 587.595L100.235 587.62L96.884 587.645L93.5266 587.671L90.163 587.696L86.7936 587.721L83.4181 587.747L80.0379 587.773L76.6517 587.798L73.2593 587.823L69.8611 587.849L66.4581 587.874L63.0479 587.901L59.6328 587.926L56.2118 587.952L52.786 587.978L49.353 588.004L45.9151 588.03L42.4714 588.056L39.0227 588.082L35.567 588.108L32.1063 588.133L28.6398 588.16L25.1672 588.186L21.6898 588.213L18.2064 588.239L14.7171 588.265L11.2229 588.292L7.7215 588.318L4.21533 588.345L0.704407 588.371L0.686401 585.973L4.19739 585.946L7.70355 585.92L11.2049 585.893L14.6991 585.867L18.1884 585.841L21.6718 585.814L25.1492 585.788L28.6218 585.762L32.0884 585.736L35.549 585.71L39.0035 585.684L42.4534 585.657L45.8972 585.632L49.335 585.606L52.768 585.579L56.1938 585.554L59.6149 585.528L63.0298 585.503L66.4401 585.476L69.8431 585.451L73.2413 585.426L76.6337 585.399L80.0199 585.374L83.4001 585.349L86.7756 585.323L90.1451 585.298L93.5085 585.272L96.866 585.247L100.217 585.222L103.564 585.197L106.905 585.172L110.24 585.146L113.568 585.121L116.891 585.096L120.208 585.071L123.52 585.046L126.825 585.021L130.124 584.995L133.418 584.971L136.706 584.946L139.989 584.921L143.265 584.897L146.536 584.872L149.8 584.848L153.059 584.823L156.312 584.799L159.56 584.773L162.801 584.75L166.037 584.724L169.266 584.7L172.49 584.676L175.708 584.652L178.92 584.627L182.125 584.603L185.326 584.579L188.52 584.555L191.709 584.531L194.891 584.507L198.067 584.483L201.238 584.459L204.402 584.435L207.562 584.411L210.714 584.387L213.861 584.363L217.002 584.341L220.137 584.317L223.266 584.293L226.389 584.27L229.507 584.246L232.617 584.222L235.723 584.199L238.821 584.175L241.915 584.152L245.001 584.128L248.083 584.106L251.159 584.083L254.227 584.059L257.291 584.036L260.347 584.013L263.399 583.99L266.444 583.966L269.483 583.944L272.516 583.921L275.544 583.898L278.564 583.875L281.58 583.853L284.588 583.83L287.591 583.807L290.587 583.785L293.579 583.763L296.564 583.74L299.542 583.717L302.515 583.694L305.48 583.673L308.441 583.65L311.395 583.628L314.344 583.606L317.285 583.583L320.222 583.561L323.151 583.54L326.075 583.517L328.992 583.495L331.904 583.472L334.809 583.451L337.708 583.429L340.602 583.408L343.488 583.386L346.369 583.363L349.244 583.342L352.112 583.32L354.974 583.299L357.83 583.277L360.681 583.255L363.524 583.234L366.362 583.213L369.193 583.192L372.018 583.17L374.837 583.149L377.65 583.128L380.456 583.107L383.257 583.085L386.051 583.065L388.839 583.043L391.621 583.023L394.396 583.001L397.166 582.981L399.928 582.959L402.685 582.939L405.436 582.918L408.179 582.897L410.918 582.876L413.65 582.856L416.375 582.836L419.093 582.815L421.807 582.795L424.513 582.775L427.214 582.754L429.908 582.734L432.595 582.713L435.276 582.693L437.952 582.673L440.621 582.652L443.283 582.632L445.939 582.613L448.589 582.592L451.233 582.572L453.87 582.553L456.5 582.532L459.124 582.513L461.743 582.493L464.355 582.474L466.96 582.453L469.559 582.434L472.151 582.415L474.738 582.394L477.318 582.375L479.891 582.356L482.459 582.337L485.019 582.318L487.573 582.299L490.121 582.279L492.663 582.26L495.198 582.241L497.727 582.222L500.248 582.203L502.764 582.183L505.274 582.164L507.776 582.146L510.273 582.127L512.763 582.108L515.247 582.09L517.724 582.071L520.194 582.052L522.658 582.034L525.116 582.014L527.567 581.996L530.012 581.978L532.45 581.959L534.882 581.941L537.308 581.923L539.726 581.904L542.139 581.886L544.544 581.868L546.944 581.85L549.337 581.832L551.723 581.814L554.102 581.796L556.475 581.778L558.842 581.76L561.202 581.742L563.556 581.724L565.902 581.707L568.243 581.689L570.577 581.671L572.904 581.655L575.225 581.637L577.54 581.619L579.847 581.602L582.148 581.584L584.442 581.567L586.73 581.55L589.012 581.532L591.286 581.515L593.554 581.499L595.815 581.481L598.069 581.464L600.318 581.447L602.559 581.43L604.794 581.414L607.022 581.397L609.244 581.38L611.459 581.363L613.667 581.346L615.869 581.33L618.063 581.313L620.252 581.297L622.433 581.28L624.608 581.264L626.776 581.248L628.938 581.231L631.093 581.214L633.241 581.199L635.383 581.182L637.517 581.167L639.645 581.151L641.767 581.134L643.881 581.119L645.989 581.103L648.09 581.086L650.185 581.071L652.272 581.055L654.353 581.039L656.427 581.024L658.494 581.008L660.556 580.993L662.61 580.977L664.657 580.961L666.696 580.946L668.73 580.93L670.758 580.916L672.777 580.9L674.79 580.885L676.796 580.87L678.796 580.855L680.789 580.84L682.775 580.825L684.755 580.81L686.727 580.795L688.692 580.78L690.651 580.766L692.603 580.75L694.548 580.736L696.485 580.722L698.417 580.707L700.342 580.693L702.259 580.677L704.17 580.663L706.073 580.648L707.97 580.634L709.861 580.621L711.744 580.607L713.62 580.592L715.49 580.578L717.352 580.563L719.208 580.55L721.057 580.536L722.899 580.523L724.734 580.508L726.562 580.494L728.383 580.481L730.197 580.467L732.004 580.453L733.805 580.44L735.598 580.427L737.384 580.412L739.164 580.399L740.936 580.386L742.701 580.373L744.46 580.359L746.212 580.346L747.957 580.333L749.694 580.32L751.424 580.307L753.148 580.294L754.865 580.28L756.575 580.268L758.277 580.255L759.973 580.242L761.661 580.23L763.342 580.217L765.017 580.204L766.684 580.192L768.345 580.18L769.998 580.166L771.645 580.154L773.284 580.141L774.916 580.129L776.541 580.117L778.16 580.105L779.77 580.093L781.374 580.08L782.971 580.068L784.561 580.056L786.144 580.044L787.72 580.033L789.288 580.021L790.85 580.009L792.404 579.997L793.95 579.985L795.491 579.975L797.024 579.963L798.55 579.951L800.068 579.94L801.58 579.928L803.084 579.917L804.582 579.905L806.072 579.894L807.554 579.883L809.03 579.871L810.499 579.861L811.961 579.85L813.415 579.839L814.861 579.828L816.302 579.818L817.735 579.807L819.16 579.796L820.579 579.785L821.99 579.774L823.394 579.763L824.79 579.753L826.18 579.742L827.562 579.732L828.938 579.722L830.305 579.712L831.666 579.701L833.019 579.69L834.365 579.681L835.704 579.671L837.035 579.66L838.36 579.651L839.677 579.641L840.987 579.63L842.289 579.621L843.584 579.611L844.872 579.602L846.153 579.592L847.426 579.582L848.692 579.573L849.951 579.563L851.202 579.554L852.446 579.544L853.683 579.534L854.913 579.526L856.135 579.516L857.35 579.507L858.557 579.499L859.757 579.489L860.95 579.481L862.136 579.471L863.314 579.463L864.484 579.453L865.648 579.445L866.804 579.436L867.952 579.428L869.093 579.418L870.227 579.41L871.354 579.401L872.473 579.393L873.584 579.385L874.689 579.376L875.785 579.368L876.875 579.359L877.957 579.352L879.031 579.344L880.098 579.335L881.158 579.327L882.21 579.32L883.255 579.311L884.293 579.304L885.322 579.296L886.345 579.289L887.36 579.28L888.367 579.273L889.368 579.266L890.36 579.259L891.345 579.25L892.323 579.243L893.293 579.236L894.256 579.229L895.211 579.221L896.158 579.214L897.098 579.207L898.031 579.2L898.956 579.193L899.874 579.187L900.784 579.18L901.686 579.172L902.581 579.166L903.468 579.159L904.348 579.152L905.22 579.146L906.085 579.14L906.942 579.133L907.792 579.127L908.634 579.121L909.468 579.114L910.295 579.108L911.115 579.102L911.926 579.096L912.73 579.09L913.527 579.084L914.316 579.078L915.097 579.072L915.871 579.066L916.637 579.06L917.395 579.054L918.146 579.049L918.889 579.043L919.624 579.037L920.352 579.032L921.072 579.026L921.785 579.021L922.49 579.015L923.187 579.01L923.877 579.006L924.559 579L925.233 578.995L925.899 578.99L926.558 578.985L927.209 578.98L927.853 578.976L928.489 578.971L929.117 578.966L929.737 578.961L930.35 578.956L930.954 578.952L931.552 578.947L932.141 578.943L932.723 578.939L933.297 578.934L933.863 578.93L934.421 578.925L934.972 578.922L935.515 578.917L936.05 578.913L936.578 578.91L937.097 578.905L937.609 578.901L938.113 578.898L938.609 578.894L939.098 578.891L939.579 578.887L940.051 578.883L940.516 578.88L940.974 578.876L941.423 578.873L941.865 578.869L942.299 578.867L942.725 578.863L943.143 578.859L943.553 578.857L943.955 578.853L944.35 578.851L944.737 578.847L945.116 578.845L945.487 578.843L945.85 578.839L946.205 578.837L946.553 578.834L946.892 578.832L947.224 578.829L947.547 578.827L947.863 578.825L948.171 578.822L948.471 578.82L948.763 578.817L949.047 578.815L949.324 578.813L949.592 578.811L949.852 578.809L950.105 578.808L950.349 578.805L950.586 578.803L950.814 578.802L951.035 578.801L951.248 578.798L951.453 578.797L951.649 578.796L951.838 578.795L952.019 578.792L952.192 578.791L952.357 578.79L952.514 578.789L952.662 578.787H952.803L952.936 578.786L953.061 578.785L953.178 578.784L953.287 578.783H953.387L953.48 578.781H953.565L953.641 578.78H953.71L953.77 578.779H953.823H953.867H953.904L953.932 578.778H953.952H953.964ZM953.977 901.345C954.749 900.427 954.748 900.426 954.745 900.424L954.732 900.413L954.682 900.371L954.67 900.36L954.564 900.273L954.485 900.207L954.338 900.084L954.171 899.947C954.038 899.837 953.883 899.71 953.705 899.564C953.014 898.998 951.98 898.16 950.608 897.067C947.864 894.881 943.765 891.681 938.338 887.608C927.482 879.462 911.311 867.83 890.034 853.876C847.48 825.966 784.499 788.763 702.765 751.561C539.296 677.157 300.806 602.76 0.694824 602.76V605.159C300.403 605.159 538.555 679.455 701.771 753.743C783.38 790.889 846.254 828.031 888.719 855.881C909.951 869.806 926.081 881.408 936.898 889.526C942.307 893.584 946.388 896.773 949.115 898.943C950.478 900.029 951.503 900.86 952.185 901.419C952.527 901.7 952.783 901.911 952.953 902.052C953.021 902.109 953.076 902.154 953.116 902.188L953.144 902.211L953.191 902.25L953.202 902.26C953.202 902.26 953.204 902.261 953.261 902.194C953.341 902.1 953.529 901.877 953.977 901.345ZM954.49 765.958C954.493 765.959 954.495 765.96 953.977 767.042C953.46 768.123 953.459 768.123 953.457 768.122L953.445 768.116L953.398 768.095L953.207 768.004C953.037 767.923 952.781 767.803 952.439 767.644C952.159 767.513 951.821 767.357 951.425 767.175C951.183 767.063 950.92 766.942 950.636 766.813C950.252 766.638 949.829 766.445 949.367 766.236C946.639 765.001 942.558 763.188 937.147 760.88C926.327 756.264 910.194 749.666 888.958 741.747C846.484 725.909 783.596 704.788 701.968 683.664C538.711 641.417 300.492 599.163 0.694824 599.163V596.765C300.717 596.765 539.14 639.05 702.568 681.342C784.283 702.488 847.25 723.636 889.795 739.5C911.068 747.432 927.236 754.043 938.089 758.674C943.515 760.989 947.613 762.809 950.356 764.051C951.727 764.671 952.76 765.148 953.451 765.47C953.646 765.561 953.813 765.639 953.953 765.705C954.062 765.755 954.155 765.8 954.231 765.836L954.427 765.928L954.477 765.952L954.49 765.958ZM953.977 659.12C954.201 657.942 954.2 657.941 954.197 657.941L954.184 657.939L954.135 657.929L953.94 657.893C953.767 657.861 953.508 657.812 953.163 657.748C952.474 657.621 951.443 657.431 950.074 657.186C947.334 656.693 943.241 655.971 937.818 655.052C926.974 653.215 910.815 650.59 889.552 647.441C847.026 641.144 784.081 632.747 702.391 624.351C539.01 607.559 300.649 590.769 0.694824 590.769V593.167C300.56 593.167 538.839 609.953 702.145 626.737C783.799 635.129 846.708 643.52 889.201 649.813C910.447 652.96 926.589 655.582 937.418 657.417C942.832 658.334 946.918 659.055 949.649 659.545C950.474 659.694 951.175 659.821 951.753 659.927C952.131 659.996 952.456 660.056 952.727 660.107C953.07 660.17 953.327 660.218 953.498 660.249L953.69 660.287L953.738 660.295L953.75 660.297C953.752 660.297 953.754 660.299 953.977 659.12Z" fill="url(#paint0_linear_18_1667)"
        fill-rule="evenodd"
        opacity="0.25"/>
  <defs>
    <linearGradient gradientUnits="userSpaceOnUse" id="paint0_linear_18_1667" x1="15.0827" x2="936.494" y1="426.47"
                    y2="426.47">
      <stop offset="0.0182341" stop-color="white" stop-opacity="0"/>
      <stop offset="0.127609" stop-color="white"/>
      <stop offset="0.563305" stop-color="white" stop-opacity="0.65"/>
      <stop offset="0.943305" stop-color="white" stop-opacity="0"/>
    </linearGradient>
  </defs>
</svg>
