<svg
  fill="none"
  height="27"
  viewBox="0 0 132 27"
  width="132"
  xmlns="http://www.w3.org/2000/svg"
>
  <path
    d="M0.546492 14.4792C1.64265 11.5911 5.75323 9.3649 7.6715 8.6128C16.4408 5.00279 30.5537 3.1976 36.4455 4.1002C42.3374 5.00279 35.8975 6.80769 30.2797 8.61273C24.6619 10.4178 28.7725 11.3203 33.8422 10.4178C38.9119 9.51525 49.4624 8.61273 58.5056 8.16147C67.5489 7.71021 58.3686 6.80769 49.4624 6.80769C40.5561 6.80769 40.6931 5.00272 43.8446 4.1002C46.996 3.19768 54.121 -0.412406 62.4792 0.0388547C70.8374 0.490115 90.5682 1.39264 99.0634 4.55146C107.559 7.71028 125.097 16.2842 129.345 18.9918C133.592 21.6994 133.044 29.3708 125.508 24.8582C117.972 20.3456 102.352 12.2229 68.097 10.8691C33.8422 9.51532 7.8085 17.1868 5.06811 20.3456C2.32772 23.5044 0.409452 23.5044 1.50561 20.7968C2.60176 18.0893 2.87582 17.638 1.77967 18.5405C0.683511 19.4431 -0.823702 18.0893 0.546492 14.4792Z"
    fill="#F2F2F2"
  />
</svg>
