<svg fill="none" height="40" viewBox="0 0 40 40" width="40" xmlns="http://www.w3.org/2000/svg">
  <path
    d="M4.94458 17.4946V25.831C4.94458 30.5466 4.94458 32.9045 6.40905 34.3695C7.87351 35.8346 10.2305 35.8346 14.9446 35.8346H24.9446C29.6586 35.8346 32.0156 35.8346 33.4801 34.3695C34.9446 32.9045 34.9446 30.5466 34.9446 25.831V17.4946"
    stroke="#28478A" stroke-linecap="round" stroke-width="3"/>
  <path d="M24.9453 28.3223C23.8051 29.3343 21.99 29.989 19.9453 29.989C17.9006 29.989 16.0855 29.3343 14.9453 28.3223"
        stroke="#28478A" stroke-linecap="round" stroke-width="3"/>
  <path
    d="M16.8401 14.0307C16.3701 15.7281 14.6609 18.6559 11.4134 19.0803C8.54595 19.4549 6.37117 18.2033 5.81567 17.6799C5.2032 17.2556 3.80734 15.8978 3.4655 15.0491C3.12365 14.2005 3.52247 12.3617 3.80734 11.612L4.94612 8.31474C5.22412 7.48654 5.8749 5.5277 6.54209 4.86515C7.20929 4.2026 8.56009 4.17377 9.11607 4.17377H20.7919C23.7972 4.21624 30.3686 4.14697 31.6676 4.17379C32.9666 4.20059 33.7472 5.28949 33.9751 5.75625C35.9132 10.451 36.6671 13.1396 36.6671 14.2853C36.4141 15.5075 35.3671 17.8121 31.6676 18.8258C27.8226 19.8791 25.6427 17.8301 24.9589 17.0434M15.2591 17.0434C15.8004 17.7083 17.4982 19.0464 19.9594 19.0803C22.4207 19.1143 24.5459 17.3971 25.3007 16.5343C25.5144 16.2797 25.9759 15.5244 26.4546 14.0307"
    stroke="#28478A" stroke-linecap="round" stroke-linejoin="round" stroke-width="3"/>
</svg>
