<svg width="108" height="207" viewBox="0 0 108 207" fill="none" xmlns="http://www.w3.org/2000/svg">
<path d="M133.298 171.413C136.192 176.404 134.469 182.619 129.483 185.152L120.501 189.714C115.515 192.246 109.237 190.096 106.619 184.965L54.424 82.5134L52.0316 77.8176L43.9197 61.8992L63.856 51.7715L72.8376 67.248L75.4859 71.813L133.298 171.413Z" fill="#F1894B"/>
<path d="M73.6703 68.2917L76.3655 72.9036C73.6744 75.8007 70.4257 78.2714 66.667 80.1652C62.9089 82.0609 58.9432 83.2273 54.9298 83.7106L52.4951 78.9665C38.4353 80.7483 23.8231 74.1964 15.7284 61.6043C10.0115 49.1676 11.7964 35.2681 19.5043 25.2694L36.8948 56.9773L63.6201 43.5034L46.2296 11.7956C59.1882 11.374 72.1446 17.8419 79.5923 29.4071C85.8204 42.9404 83.17 58.1942 73.6703 68.2917Z" fill="#CA2A2A"/>
<path d="M78.4643 27.0808C78.8985 27.8736 79.3026 28.6695 79.6713 29.476C85.9059 43.0142 83.2546 58.2785 73.7489 68.3799C71.0765 71.2297 67.8628 73.6616 64.1484 75.533C60.4341 77.4043 56.5228 78.5663 52.5598 79.0614C38.492 80.8441 23.8715 74.2886 15.7721 61.6893C15.2887 60.9404 14.8334 60.1714 14.3974 59.3791C8.53154 48.6843 8.48452 36.6089 13.1964 26.7293C14.5703 23.8507 18.745 23.8696 20.3314 26.762L31.5718 47.2549C33.1102 50.0583 36.6106 51.196 39.3922 49.7932L56.0626 41.3882C58.8424 39.9859 59.8507 36.5768 58.3118 33.7716L47.0714 13.2787C45.4849 10.3863 47.8362 7.0785 51.0864 7.62397C62.2481 9.50322 72.5978 16.3842 78.4643 27.0808Z" fill="#F1894B"/>
</svg>
