<svg width="42" height="42" viewBox="0 0 42 42" fill="none" xmlns="http://www.w3.org/2000/svg">
<path d="M35.6272 23.3742C33.5456 25.4555 29.6289 25.3746 23.6236 25.3746C19.76 25.3746 16.6274 22.2374 16.6254 18.3738C16.6254 12.3725 16.5445 8.45364 18.6261 6.37242C20.7076 4.29121 21.627 4.37547 30.8479 4.37547C31.739 4.37166 32.1876 5.44931 31.5576 6.0794L26.8098 10.8275C25.6048 12.0327 25.6015 13.9866 26.8067 15.1916C28.0119 16.3967 29.966 16.3968 31.1714 15.1919L35.9203 10.445C36.5505 9.81503 37.6283 10.2635 37.6245 11.1544C37.6245 20.3739 37.7088 21.2931 35.6272 23.3742Z" stroke="#CA2A2A" stroke-opacity="0.75" stroke-width="3"/>
<path d="M23.625 25.375L12.8247 36.1753C10.8918 38.1082 7.75775 38.1082 5.82475 36.1753C3.89175 34.2423 3.89175 31.1082 5.82475 29.1753L16.625 18.375" stroke="#CA2A2A" stroke-opacity="0.75" stroke-width="3" stroke-linecap="round"/>
<path d="M9.64001 32.375H9.625" stroke="#CA2A2A" stroke-opacity="0.75" stroke-width="2" stroke-linecap="round" stroke-linejoin="round"/>
</svg>
