<svg width="42" height="48" viewBox="0 0 42 48" fill="none" xmlns="http://www.w3.org/2000/svg">
<path d="M30.9238 21.7933C33.3355 21.4013 35.1923 19.0093 35.1974 16.1113C35.1974 13.2553 33.3978 10.8873 31.0379 10.4393" stroke="#61BA51" stroke-width="3" stroke-linecap="round" stroke-linejoin="round"/>
<path d="M34.1064 28.5007C36.4421 28.9047 38.0723 29.8507 38.0723 31.8007C38.0723 33.1427 37.3047 34.0147 36.0634 34.5627" stroke="#61BA51" stroke-width="3" stroke-linecap="round" stroke-linejoin="round"/>
<path fill-rule="evenodd" clip-rule="evenodd" d="M20.5495 29.3275C14.9931 29.3275 10.2476 30.3015 10.2476 34.1915C10.2476 38.0795 14.9637 39.0815 20.5495 39.0815C26.1059 39.0815 30.8497 38.1175 30.8497 34.2255C30.8497 30.3335 26.1353 29.3275 20.5495 29.3275Z" stroke="#61BA51" stroke-width="3" stroke-linecap="round" stroke-linejoin="round"/>
<path fill-rule="evenodd" clip-rule="evenodd" d="M20.5501 23.7758C24.1962 23.7758 27.1524 20.3578 27.1524 16.1378C27.1524 11.9198 24.1962 8.49982 20.5501 8.49982C16.9041 8.49982 13.9478 11.9198 13.9478 16.1378C13.934 20.3418 16.8678 23.7618 20.5017 23.7758H20.5501Z" stroke="#61BA51" stroke-width="3" stroke-linecap="round" stroke-linejoin="round"/>
<path d="M10.1755 21.7933C7.76205 21.4013 5.90704 19.0093 5.90186 16.1113C5.90186 13.2553 7.70154 10.8873 10.0614 10.4393" stroke="#61BA51" stroke-width="3" stroke-linecap="round" stroke-linejoin="round"/>
<path d="M6.99127 28.5007C4.65565 28.9047 3.02539 29.8507 3.02539 31.8007C3.02539 33.1427 3.79298 34.0147 5.03426 34.5627" stroke="#61BA51" stroke-width="3" stroke-linecap="round" stroke-linejoin="round"/>
</svg>
