<svg width="46" height="48" viewBox="0 0 46 48" fill="none" xmlns="http://www.w3.org/2000/svg">
<path d="M4.93359 24.5L8.68359 26.375" stroke="#364C73" stroke-width="3" stroke-linecap="round" stroke-linejoin="round"/>
<path d="M40.5586 25.4375L36.8086 26.375" stroke="#364C73" stroke-width="3" stroke-linecap="round" stroke-linejoin="round"/>
<path d="M15.2461 34.8125L15.7067 33.6609C16.3917 31.9484 16.7342 31.0921 17.4485 30.6086C18.1627 30.125 19.085 30.125 20.9294 30.125H24.5628C26.4072 30.125 27.3295 30.125 28.0437 30.6086C28.7579 31.0921 29.1005 31.9484 29.7854 33.6609L30.2461 34.8125" stroke="#364C73" stroke-width="3" stroke-linecap="round" stroke-linejoin="round"/>
<path d="M3.99609 33.875V39.2787C3.99609 39.9888 4.4475 40.6381 5.16212 40.9557C5.62581 41.1618 6.06868 41.375 6.60343 41.375H9.82626C10.361 41.375 10.8039 41.1618 11.2676 40.9557C11.9822 40.6381 12.4336 39.9888 12.4336 39.2787V35.75" stroke="#364C73" stroke-width="3" stroke-linecap="round" stroke-linejoin="round"/>
<path d="M33.0586 35.75V39.2787C33.0586 39.9888 33.5101 40.6381 34.2247 40.9557C34.6883 41.1618 35.1312 41.375 35.666 41.375H38.8887C39.4235 41.375 39.8663 41.1618 40.33 40.9557C41.0446 40.6381 41.4961 39.9888 41.4961 39.2787V33.875" stroke="#364C73" stroke-width="3" stroke-linecap="round" stroke-linejoin="round"/>
<path d="M37.7461 17.9375L39.6211 17" stroke="#364C73" stroke-width="3" stroke-linecap="round" stroke-linejoin="round"/>
<path d="M7.74609 17.9375L5.87109 17" stroke="#364C73" stroke-width="3" stroke-linecap="round" stroke-linejoin="round"/>
<path d="M8.68359 18.875L10.7242 12.7533C11.5492 10.2782 11.9617 9.04068 12.9438 8.33285C13.9258 7.625 15.2303 7.625 17.8393 7.625H27.653C30.2618 7.625 31.5663 7.625 32.5484 8.33285C33.5305 9.04068 33.943 10.2782 34.768 12.7533L36.8086 18.875" stroke="#364C73" stroke-width="3" stroke-linejoin="round"/>
<path d="M8.68359 18.875H36.8086C38.6033 20.7753 41.4961 23.4217 41.4961 26.3743V32.8816C41.4961 33.9513 40.7845 34.8515 39.8401 34.9766L33.9961 35.75H11.4961L5.65202 34.9766C4.70775 34.8515 3.99609 33.9513 3.99609 32.8816V26.3743C3.99609 23.4217 6.88882 20.7753 8.68359 18.875Z" stroke="#364C73" stroke-width="3" stroke-linejoin="round"/>
</svg>
