<svg fill="none" height="203" viewBox="0 0 324 203" width="324" xmlns="http://www.w3.org/2000/svg">
  <g opacity="0.4">
    <path d="M323.409 129.805C323.409 135.796 322.576 141.641 320.95 147.205C311.786 179.239 277.791 203.001 237.317 203.001H84.861L118.46 167.931H239.948C257.283 167.931 272.264 159.524 279.59 147.216C282.657 142.079 284.403 136.279 284.403 130.154C284.403 123.645 282.446 117.508 279.034 112.136C276.971 108.955 274.393 106.01 271.378 103.436C264.159 97.3099 254.546 93.2635 243.756 92.5104C242.527 92.4205 241.244 92.3643 239.948 92.3643H91.0756C81.1191 91.3189 73.3574 84.0915 73.3574 75.3467C73.3574 70.5922 75.592 66.3209 79.2811 63.2299C82.9173 60.1389 88.008 58.1943 93.535 58.1943H255.154C255.882 58.3405 256.609 58.4753 257.336 58.6215C273.044 61.8024 287.14 68.6476 298.207 78.0556C309.049 87.3287 317.049 99.0184 320.844 112.136C322.523 117.789 323.409 123.724 323.409 129.805Z"
          fill="#E6ECF2"
          fill-opacity="0.36" opacity="0.8"/>
    <path d="M250.065 128.626C250.065 133.38 247.83 137.651 244.141 140.742C240.505 143.833 235.414 145.778 229.887 145.778H68.268L66.0863 145.351C50.3779 142.17 36.2827 135.325 25.2154 125.917C14.3729 116.655 6.37327 104.954 2.5784 91.8367C0.899134 86.1829 0 80.2369 0 74.156C0 68.165 0.846243 62.3202 2.45939 56.7676C11.6358 24.7333 45.6178 0.97168 86.092 0.97168H238.548L204.95 36.0408H83.474C66.1392 36.0408 51.158 44.4484 43.8328 56.7563C40.7519 61.8931 39.0197 67.6817 39.0197 73.8188C39.0197 80.3268 40.9767 86.4639 44.3881 91.8255C46.464 95.0064 49.0292 97.9513 52.044 100.525C59.2502 106.651 68.8763 110.698 79.6659 111.451C80.8956 111.541 82.1781 111.597 83.474 111.597H232.347C242.29 112.653 250.065 119.881 250.065 128.626Z"
          fill="#E6ECF2"
          fill-opacity="0.36" opacity="0.8"/>
    <path d="M18.8027 166.942L74.1259 167.718L44.2694 201.213L18.8027 166.942Z" fill="#E6ECF2" fill-opacity="0.36"
          opacity="0.8"/>
  </g>
</svg>
