<svg fill="none" height="285" viewBox="0 0 1154 285" width="1154" xmlns="http://www.w3.org/2000/svg">
  <g filter="url(#filter0_d_412_4406)">
    <g clip-path="url(#clip0_412_4406)">
      <rect fill="#28478A" height="212.678" rx="14.1785" width="1082" x="36" y="32.5664"/>
      <circle cx="1081.23" cy="219.103" fill="url(#paint0_linear_412_4406)" opacity="0.15" r="140.456"/>
      <path
        d="M758.601 114.637L757.805 97.7273H763.742L762.945 114.637H758.601ZM757.874 123.533V117.666H763.655V123.533H757.874ZM778.959 123.377C776.212 123.377 773.616 122.795 771.17 121.629L772.814 117.614C775.203 118.549 777.136 119.016 778.612 119.016C779.812 119.016 780.741 118.785 781.399 118.324C782.068 117.85 782.403 117.204 782.403 116.385C782.403 116.12 782.363 115.866 782.282 115.624C782.201 115.37 782.103 115.15 781.988 114.966C781.872 114.77 781.699 114.574 781.468 114.377C781.237 114.17 781.036 114.002 780.862 113.875C780.689 113.737 780.43 113.575 780.084 113.391C779.749 113.206 779.478 113.068 779.27 112.975C779.074 112.872 778.768 112.722 778.353 112.525C777.937 112.318 777.632 112.168 777.436 112.075C775.255 111.014 773.709 109.929 772.797 108.822C771.886 107.702 771.43 106.312 771.43 104.65C771.43 102.354 772.18 100.566 773.68 99.285C775.191 98.0042 777.286 97.3638 779.962 97.3638C781.197 97.3638 782.397 97.5196 783.563 97.8311C784.728 98.1311 786.026 98.5869 787.457 99.1984L785.743 103.283C783.274 102.268 781.37 101.76 780.032 101.76C778.924 101.76 778.076 101.997 777.487 102.47C776.899 102.943 776.605 103.56 776.605 104.322C776.605 104.622 776.645 104.898 776.726 105.152C776.807 105.406 776.945 105.648 777.141 105.879C777.349 106.11 777.539 106.306 777.712 106.468C777.886 106.629 778.151 106.814 778.509 107.022C778.866 107.218 779.149 107.373 779.357 107.489C779.576 107.593 779.916 107.754 780.378 107.973C780.851 108.193 781.191 108.354 781.399 108.458C783.718 109.589 785.328 110.708 786.228 111.816C787.128 112.924 787.578 114.274 787.578 115.866C787.578 118.162 786.822 119.991 785.311 121.352C783.799 122.702 781.682 123.377 778.959 123.377ZM790.219 123.031V97.7273H798.925C801.925 97.7273 804.123 98.385 805.519 99.7003C806.915 101.016 807.613 103.023 807.613 105.723C807.613 108.458 806.91 110.523 805.502 111.92C804.094 113.316 801.902 114.014 798.925 114.014H795.533V123.031H790.219ZM795.533 109.67H798.683C800.067 109.67 801.008 109.358 801.504 108.735C802.011 108.1 802.265 107.097 802.265 105.723C802.265 104.408 802.006 103.473 801.486 102.92C800.979 102.354 799.998 102.072 798.544 102.072H795.533V109.67ZM815.222 123.031V102.106H808.368V97.7273H827.407V102.106H820.553V123.031H815.222ZM841.845 123.031C839.099 123.031 837.004 122.368 835.562 121.041C834.12 119.714 833.399 117.868 833.399 115.502C833.399 114.337 833.589 113.304 833.97 112.404C834.362 111.493 834.852 110.766 835.441 110.223C836.041 109.681 836.733 109.237 837.518 108.891C838.314 108.533 839.076 108.291 839.802 108.164C840.541 108.037 841.279 107.973 842.018 107.973C843.599 107.973 844.989 108.141 846.189 108.475C847.389 108.81 848.566 109.26 849.72 109.825V118.652H852.074C852.154 118.652 852.218 118.687 852.264 118.756C852.368 118.906 852.42 119.599 852.42 120.833C852.42 122.045 852.391 122.72 852.333 122.858C852.287 122.974 852.201 123.031 852.074 123.031H841.845ZM836.947 105.1V100.635H841.308V105.1H836.947ZM838.66 115.502C838.66 116.449 838.972 117.21 839.595 117.787C840.218 118.364 841.101 118.652 842.243 118.652H844.476V112.698C843.726 112.387 842.976 112.231 842.226 112.231C841.868 112.231 841.499 112.283 841.118 112.387C840.749 112.491 840.368 112.658 839.976 112.889C839.595 113.108 839.277 113.449 839.024 113.91C838.781 114.36 838.66 114.891 838.66 115.502ZM842.831 105.1V100.635H847.193V105.1H842.831ZM850.301 123.031C850.174 123.031 850.088 122.974 850.042 122.858C849.984 122.72 849.955 122.045 849.955 120.833C849.955 119.599 850.007 118.906 850.111 118.756C850.157 118.687 850.221 118.652 850.301 118.652H853.209V107.973H858.523V111.21C859.746 109.964 861.09 109.006 862.555 108.337C864.021 107.656 865.503 107.316 867.003 107.316C868.042 107.316 869.034 107.477 869.98 107.8C870.926 108.112 871.78 108.573 872.542 109.185C873.303 109.785 873.909 110.581 874.359 111.573C874.821 112.566 875.051 113.685 875.051 114.931C875.051 116.316 874.746 117.556 874.134 118.652H876.938C877.019 118.652 877.082 118.687 877.128 118.756C877.232 118.906 877.284 119.599 877.284 120.833C877.284 122.045 877.255 122.72 877.198 122.858C877.151 122.974 877.065 123.031 876.938 123.031H850.301ZM858.523 118.652H864.338C864.88 118.652 865.44 118.595 866.017 118.479C866.605 118.352 867.188 118.162 867.765 117.908C868.342 117.643 868.815 117.268 869.184 116.783C869.553 116.299 869.738 115.739 869.738 115.104C869.738 114.077 869.386 113.252 868.682 112.629C867.99 112.006 867.026 111.695 865.792 111.695C864.488 111.695 863.138 112.168 861.742 113.114C860.346 114.049 859.273 115.214 858.523 116.61V118.652ZM875.183 123.031C875.056 123.031 874.97 122.974 874.923 122.858C874.866 122.72 874.837 122.045 874.837 120.833C874.837 119.599 874.889 118.906 874.993 118.756C875.039 118.687 875.102 118.652 875.183 118.652H877.035C877.889 118.652 878.512 118.422 878.904 117.96C879.297 117.487 879.493 116.737 879.493 115.71V107.973H884.806V115.589C884.806 116.616 884.945 117.383 885.222 117.891C885.498 118.399 886.006 118.652 886.745 118.652H888.458C888.539 118.652 888.602 118.687 888.648 118.756C888.752 118.906 888.804 119.599 888.804 120.833C888.804 122.045 888.775 122.72 888.718 122.858C888.672 122.974 888.585 123.031 888.458 123.031H887.004C885.447 123.031 884.235 122.454 883.37 121.3C882.377 122.454 880.97 123.031 879.147 123.031H875.183ZM879.597 105.066V100.548H884.72V105.066H879.597ZM897.624 123.031C895.57 123.031 893.84 122.506 892.432 121.456C891.117 122.506 889.415 123.031 887.326 123.031H886.703C886.576 123.031 886.49 122.974 886.443 122.858C886.386 122.72 886.357 122.045 886.357 120.833C886.357 119.599 886.409 118.906 886.513 118.756C886.559 118.687 886.622 118.652 886.703 118.652H887.378C888.07 118.652 888.572 118.491 888.884 118.168C889.195 117.845 889.351 117.302 889.351 116.541V115.364C889.351 114.683 889.449 113.991 889.645 113.287C889.853 112.583 890.182 111.891 890.632 111.21C891.082 110.529 891.624 109.923 892.259 109.393C892.905 108.862 893.713 108.435 894.682 108.112C895.651 107.789 896.707 107.627 897.849 107.627C899.003 107.627 900.059 107.795 901.017 108.129C901.986 108.452 902.794 108.879 903.44 109.41C904.086 109.929 904.634 110.529 905.084 111.21C905.534 111.891 905.857 112.583 906.053 113.287C906.261 113.979 906.365 114.66 906.365 115.329V123.031H897.624ZM895.547 112.993C894.97 113.639 894.682 114.435 894.682 115.381C894.682 116.327 894.988 117.112 895.599 117.735C896.222 118.347 897.059 118.652 898.109 118.652H901.034V115.329C901.034 114.383 900.751 113.593 900.186 112.958C899.632 112.323 898.853 112.006 897.849 112.006C896.903 112.006 896.136 112.335 895.547 112.993ZM939.113 123.031V116.404C939.113 114.928 938.802 113.797 938.181 113.012C937.572 112.227 936.711 111.834 935.597 111.834C935.469 111.834 935.263 111.846 934.982 111.869V126.16H923.627C920.463 126.16 918.031 125.381 916.332 123.822C914.644 122.275 913.801 120.16 913.801 117.477C913.801 116.879 913.918 115.918 914.152 114.594C914.386 113.27 914.668 112.156 914.996 111.254L920.129 112.256C919.824 113.146 919.59 114.113 919.426 115.156C919.273 116.188 919.197 117.049 919.197 117.74C919.197 119.24 919.578 120.277 920.34 120.852C921.113 121.426 922.209 121.713 923.627 121.713H929.568V108.617C931.83 107.797 933.863 107.387 935.668 107.387C938.304 107.387 940.437 108.219 942.066 109.883C943.695 111.547 944.51 113.721 944.51 116.404V118.584H946.285C946.367 118.584 946.431 118.619 946.478 118.689C946.584 118.842 946.636 119.545 946.636 120.799C946.636 122.029 946.607 122.715 946.549 122.855C946.502 122.973 946.414 123.031 946.285 123.031H939.113ZM922.959 133.385V128.85H927.388V133.385H922.959ZM928.935 133.385V128.85H933.365V133.385H928.935ZM944.53 123.031C944.401 123.031 944.313 122.973 944.267 122.855C944.208 122.715 944.179 122.029 944.179 120.799C944.179 119.545 944.231 118.842 944.337 118.689C944.384 118.619 944.448 118.584 944.53 118.584H947.202C946.792 117.564 946.587 116.439 946.587 115.209C946.587 114.037 946.792 112.988 947.202 112.062C947.612 111.137 948.128 110.398 948.749 109.848C949.382 109.297 950.114 108.846 950.946 108.494C951.79 108.131 952.599 107.885 953.372 107.756C954.145 107.627 954.925 107.562 955.71 107.562C958.581 107.562 961.065 108.295 963.163 109.76V123.031H944.53ZM951.913 115.244C951.913 116.275 952.229 117.09 952.862 117.688C953.507 118.285 954.409 118.584 955.569 118.584H957.837V112.449C957.11 112.121 956.36 111.957 955.587 111.957C954.532 111.957 953.653 112.256 952.95 112.854C952.259 113.451 951.913 114.248 951.913 115.244ZM952.651 104.785V100.197H957.854V104.785H952.651ZM985.485 123.031C984.423 123.031 983.442 122.893 982.542 122.616C981.642 122.327 980.875 121.935 980.241 121.439C979.617 120.943 979.092 120.4 978.666 119.812C978.239 119.212 977.904 118.572 977.662 117.891C977.05 118.156 976.606 118.566 976.329 119.12C976.052 119.662 975.966 120.314 976.069 121.075L977.454 130.837H972.123L970.825 121.664C970.525 119.506 971.004 117.654 972.262 116.108C973.519 114.562 975.279 113.61 977.541 113.252C977.76 112.514 978.083 111.822 978.51 111.175C978.948 110.529 979.496 109.935 980.154 109.393C980.812 108.85 981.619 108.423 982.577 108.112C983.535 107.789 984.585 107.627 985.727 107.627C986.869 107.627 987.925 107.795 988.894 108.129C989.864 108.452 990.666 108.879 991.3 109.41C991.946 109.929 992.494 110.529 992.944 111.21C993.394 111.891 993.718 112.583 993.914 113.287C994.121 113.979 994.225 114.66 994.225 115.329V118.652H996.146C996.227 118.652 996.291 118.687 996.337 118.756C996.441 118.906 996.493 119.599 996.493 120.833C996.493 122.045 996.464 122.72 996.406 122.858C996.36 122.974 996.273 123.031 996.146 123.031H985.485ZM983.408 112.993C982.831 113.639 982.542 114.435 982.542 115.381C982.542 116.327 982.854 117.112 983.477 117.735C984.1 118.347 984.937 118.652 985.987 118.652H988.912V115.329C988.912 114.395 988.629 113.61 988.064 112.975C987.498 112.329 986.719 112.006 985.727 112.006C984.769 112.006 983.996 112.335 983.408 112.993ZM994.374 123.031C994.247 123.031 994.161 122.974 994.114 122.858C994.057 122.72 994.028 122.045 994.028 120.833C994.028 119.599 994.08 118.906 994.184 118.756C994.23 118.687 994.293 118.652 994.374 118.652H1008.62C1008.43 117.487 1008.12 116.5 1007.68 115.693C1007.26 114.874 1006.7 114.239 1006.02 113.789C1005.35 113.327 1004.62 112.999 1003.82 112.802C1003.03 112.595 1002.12 112.485 1001.09 112.473H996.901V107.16L1003.34 97.7619L1007.74 100.272L1002.49 107.922C1004.25 107.922 1005.81 108.181 1007.2 108.7C1008.58 109.22 1009.74 109.958 1010.66 110.916C1011.58 111.873 1012.32 112.999 1012.88 114.291C1013.43 115.583 1013.8 117.037 1013.98 118.652H1016.72C1016.8 118.652 1016.86 118.687 1016.91 118.756C1017.01 118.906 1017.06 119.599 1017.06 120.833C1017.06 122.045 1017.04 122.72 1016.98 122.858C1016.93 122.974 1016.85 123.031 1016.72 123.031H994.374ZM1014.96 123.031C1014.84 123.031 1014.75 122.974 1014.7 122.858C1014.65 122.72 1014.62 122.045 1014.62 120.833C1014.62 119.599 1014.67 118.906 1014.77 118.756C1014.82 118.687 1014.88 118.652 1014.96 118.652H1016.82C1017.67 118.652 1018.29 118.422 1018.68 117.96C1019.08 117.487 1019.27 116.737 1019.27 115.71V107.973H1024.59V116.524C1024.59 118.612 1024.1 120.222 1023.12 121.352C1022.13 122.472 1020.74 123.031 1018.93 123.031H1014.96ZM1018.01 131.01V126.493H1023.13V131.01H1018.01ZM1041.07 123.031C1038.33 123.031 1036.25 122.397 1034.82 121.127C1033.4 119.858 1032.69 118.081 1032.69 115.797V110.604H1038V115.139C1038 116.408 1038.29 117.302 1038.87 117.822C1039.45 118.341 1040.38 118.6 1041.67 118.6H1051.28C1052.13 118.6 1052.76 118.393 1053.17 117.977C1053.57 117.55 1053.77 116.847 1053.77 115.866V107.973H1059.08V115.589C1059.08 116.616 1059.22 117.383 1059.5 117.891C1059.78 118.399 1060.28 118.652 1061.02 118.652H1062.74V118.704L1062.77 118.756C1062.87 118.906 1062.93 119.599 1062.93 120.833C1062.93 122.045 1062.9 122.72 1062.84 122.858C1062.82 122.916 1062.78 122.956 1062.74 122.979V123.031H1061.28C1059.66 123.031 1058.41 122.402 1057.54 121.145C1056.36 122.402 1054.56 123.031 1052.14 123.031H1041.07ZM1043.4 130.768V126.25H1048.53V130.768H1043.4ZM1060.88 118.652H1074.01C1074.07 118.191 1074.1 117.758 1074.1 117.354C1074.1 115.67 1073.63 114.36 1072.7 113.425C1071.76 112.479 1070.52 112.006 1068.98 112.006C1067.43 112.006 1065.95 112.341 1064.53 113.01L1062.56 109.116C1063.35 108.781 1064 108.527 1064.49 108.354C1065 108.181 1065.65 108.02 1066.45 107.87C1067.26 107.708 1068.08 107.627 1068.93 107.627C1070.36 107.627 1071.7 107.852 1072.96 108.302C1074.22 108.752 1075.32 109.404 1076.28 110.258C1077.25 111.1 1078.01 112.191 1078.57 113.529C1079.13 114.856 1079.41 116.345 1079.41 117.995C1079.41 119.783 1079.22 121.462 1078.84 123.031H1060.88C1060.75 123.031 1060.66 122.974 1060.62 122.858C1060.56 122.72 1060.53 122.045 1060.53 120.833C1060.53 119.599 1060.58 118.906 1060.69 118.756C1060.73 118.687 1060.8 118.652 1060.88 118.652ZM1077.85 130.837V126.458H1079.08C1080.07 126.458 1080.76 126.141 1081.14 125.506C1081.52 124.872 1081.71 123.949 1081.71 122.737V107.87H1087.04V118.652H1089.27C1089.35 118.652 1089.42 118.687 1089.46 118.756C1089.57 118.906 1089.62 119.599 1089.62 120.833C1089.62 122.045 1089.59 122.72 1089.53 122.858C1089.49 122.974 1089.4 123.031 1089.27 123.031H1087.04V123.1C1087.04 125.42 1086.35 127.289 1084.96 128.708C1083.58 130.127 1081.71 130.837 1079.37 130.837H1077.85ZM1087.52 123.031C1087.39 123.031 1087.3 122.974 1087.26 122.858C1087.2 122.72 1087.17 122.045 1087.17 120.833C1087.17 119.599 1087.22 118.906 1087.33 118.756C1087.37 118.687 1087.44 118.652 1087.52 118.652H1089.37C1090.22 118.652 1090.85 118.422 1091.24 117.96C1091.63 117.487 1091.83 116.737 1091.83 115.71V107.973H1097.14V116.524C1097.14 118.612 1096.65 120.222 1095.67 121.352C1094.69 122.472 1093.29 123.031 1091.48 123.031H1087.52ZM1091.93 105.066V100.548H1097.05V105.066H1091.93Z"
        fill="#FDFCFF"/>
      <path
        d="M750.833 163.21V159.457C750.833 158.736 750.683 158.191 750.384 157.822C750.086 157.447 749.655 157.26 749.092 157.26C748.905 157.26 748.717 157.28 748.53 157.321V164.792H743.239C741.657 164.792 740.441 164.402 739.591 163.623C738.748 162.85 738.326 161.792 738.326 160.45C738.326 160.128 738.387 159.639 738.51 158.982C738.633 158.32 738.783 157.758 738.959 157.295L741.103 157.743C740.939 158.188 740.81 158.681 740.716 159.22C740.628 159.759 740.585 160.201 740.585 160.547C740.585 161.391 740.813 161.997 741.27 162.366C741.727 162.735 742.383 162.92 743.239 162.92H746.262V155.977C747.387 155.584 748.339 155.388 749.119 155.388C750.337 155.388 751.304 155.76 752.019 156.504C752.734 157.248 753.091 158.232 753.091 159.457V161.338H754.12C754.161 161.338 754.193 161.355 754.216 161.391C754.269 161.455 754.295 161.748 754.295 162.27C754.295 162.779 754.281 163.066 754.252 163.131C754.222 163.184 754.178 163.21 754.12 163.21H750.833ZM742.799 168.123V166.137H744.786V168.123H742.799ZM745.594 168.123V166.137H747.581V168.123H745.594ZM754.12 163.21C754.061 163.21 754.017 163.184 753.988 163.131C753.959 163.066 753.944 162.779 753.944 162.27C753.944 161.748 753.97 161.455 754.023 161.391C754.046 161.355 754.079 161.338 754.12 161.338H755.157C755.602 161.338 755.927 161.215 756.132 160.969C756.337 160.723 756.44 160.327 756.44 159.782V155.563H758.708V159.747C758.708 160.269 758.784 160.664 758.936 160.934C759.094 161.203 759.358 161.338 759.727 161.338H760.668C760.703 161.338 760.732 161.355 760.755 161.391C760.808 161.455 760.835 161.748 760.835 162.27C760.835 162.779 760.82 163.066 760.791 163.131C760.761 163.184 760.72 163.21 760.668 163.21H759.833C759.071 163.21 758.482 162.917 758.066 162.331C757.597 162.917 756.915 163.21 756.018 163.21H754.12ZM755.21 154.104V152.118H757.196V154.104H755.21ZM758.004 154.104V152.118H759.991V154.104H758.004ZM760.659 163.21C760.6 163.21 760.556 163.184 760.527 163.131C760.498 163.066 760.483 162.779 760.483 162.27C760.483 161.748 760.509 161.455 760.562 161.391C760.586 161.355 760.618 161.338 760.659 161.338H762.329V150.36H764.587V163.21H760.659ZM766.925 163.21V150.36H769.184V163.21H766.925ZM779.327 163.21C777.979 163.21 776.96 162.888 776.268 162.243C775.583 161.599 775.24 160.708 775.24 159.571V156.979H777.499V159.308C777.499 160.011 777.666 160.521 778 160.837C778.339 161.147 778.864 161.303 779.573 161.303H785.013C785.447 161.303 785.772 161.191 785.989 160.969C786.206 160.746 786.314 160.377 786.314 159.861V155.563H788.582V160.125C788.582 161.145 788.303 161.915 787.747 162.437C787.196 162.952 786.402 163.21 785.365 163.21H779.327ZM779.59 154.104V152.118H781.577V154.104H779.59ZM782.385 154.104V152.118H784.372V154.104H782.385ZM790.919 163.21V150.36H793.178V163.21H790.919ZM793.627 167.174V165.302H794.154C794.47 165.302 794.734 165.246 794.945 165.135C795.162 165.029 795.326 164.871 795.437 164.66C795.554 164.449 795.633 164.215 795.674 163.957C795.721 163.699 795.745 163.392 795.745 163.034V155.484H798.012V163.184C798.012 164.391 797.684 165.357 797.028 166.084C796.378 166.811 795.461 167.174 794.277 167.174H793.627ZM800.605 163.21V150.36H802.864V161.338H804.384C804.425 161.338 804.458 161.355 804.481 161.391C804.534 161.455 804.56 161.748 804.56 162.27C804.56 162.779 804.545 163.066 804.516 163.131C804.493 163.184 804.449 163.21 804.384 163.21H800.605ZM804.393 163.21C804.335 163.21 804.291 163.184 804.261 163.131C804.232 163.066 804.217 162.779 804.217 162.27C804.217 161.748 804.244 161.455 804.296 161.391C804.32 161.355 804.352 161.338 804.393 161.338H805.43C805.876 161.338 806.201 161.215 806.406 160.969C806.611 160.723 806.713 160.327 806.713 159.782V155.563H808.981V159.747C808.981 160.269 809.057 160.664 809.21 160.934C809.368 161.203 809.631 161.338 810.001 161.338H810.941C810.976 161.338 811.005 161.355 811.029 161.391C811.082 161.455 811.108 161.748 811.108 162.27C811.108 162.779 811.093 163.066 811.064 163.131C811.035 163.184 810.994 163.21 810.941 163.21H810.106C809.344 163.21 808.755 162.917 808.339 162.331C807.871 162.917 807.188 163.21 806.292 163.21H804.393ZM804.718 166.98V164.994H806.705V166.98H804.718ZM807.513 166.98V164.994H809.5V166.98H807.513ZM824.88 163.21C824.277 163.21 823.691 163.072 823.123 162.797C822.548 163.336 821.737 163.605 820.688 163.605C819.616 163.605 818.798 163.289 818.236 162.656C817.714 163.025 817.052 163.21 816.25 163.21H810.932C810.874 163.21 810.83 163.184 810.8 163.131C810.771 163.066 810.756 162.779 810.756 162.27C810.756 161.748 810.783 161.455 810.836 161.391C810.859 161.355 810.891 161.338 810.932 161.338H812.549V155.563H814.808V161.338H816.065C816.809 161.338 817.181 160.91 817.181 160.055V155.563H819.44V160.16L819.431 160.38H819.44C819.44 161.282 819.841 161.733 820.644 161.733C821.037 161.733 821.327 161.613 821.514 161.373C821.702 161.127 821.795 160.746 821.795 160.23V155.563H824.063V160.23C824.063 160.582 824.034 160.896 823.975 161.171C824.233 161.282 824.535 161.338 824.88 161.338H825.592C825.633 161.338 825.666 161.355 825.689 161.391C825.742 161.455 825.768 161.748 825.768 162.27C825.768 162.779 825.753 163.066 825.724 163.131C825.695 163.184 825.651 163.21 825.592 163.21H824.88ZM825.592 163.21C825.534 163.21 825.49 163.184 825.461 163.131C825.431 163.066 825.417 162.779 825.417 162.27C825.417 161.748 825.443 161.455 825.496 161.391C825.519 161.355 825.551 161.338 825.592 161.338H827.262V150.36H829.521V163.21H825.592ZM831.859 163.21V150.36H834.118V163.21H831.859ZM838.275 167.174V165.302H838.802C839.119 165.302 839.382 165.246 839.593 165.135C839.81 165.029 839.974 164.871 840.086 164.66C840.203 164.449 840.282 164.215 840.323 163.957C840.37 163.699 840.393 163.392 840.393 163.034V155.484H842.661V163.184C842.661 164.391 842.333 165.357 841.676 166.084C841.026 166.811 840.109 167.174 838.925 167.174H838.275ZM845.253 163.21V150.36H847.512V161.338H849.033C849.074 161.338 849.106 161.355 849.129 161.391C849.182 161.455 849.209 161.748 849.209 162.27C849.209 162.779 849.194 163.066 849.165 163.131C849.141 163.184 849.097 163.21 849.033 163.21H845.253ZM849.042 163.21C848.983 163.21 848.939 163.184 848.91 163.131C848.88 163.066 848.866 162.779 848.866 162.27C848.866 161.748 848.892 161.455 848.945 161.391C848.968 161.355 849.001 161.338 849.042 161.338H850.079C850.524 161.338 850.849 161.215 851.054 160.969C851.259 160.723 851.362 160.327 851.362 159.782V155.563H853.629V159.747C853.629 160.269 853.706 160.664 853.858 160.934C854.016 161.203 854.28 161.338 854.649 161.338H855.589C855.625 161.338 855.654 161.355 855.677 161.391C855.73 161.455 855.756 161.748 855.756 162.27C855.756 162.779 855.742 163.066 855.712 163.131C855.683 163.184 855.642 163.21 855.589 163.21H854.754C853.993 163.21 853.404 162.917 852.988 162.331C852.519 162.917 851.836 163.21 850.94 163.21H849.042ZM849.367 166.98V164.994H851.353V166.98H849.367ZM852.162 166.98V164.994H854.148V166.98H852.162ZM855.581 163.21C855.522 163.21 855.478 163.184 855.449 163.131C855.419 163.066 855.405 162.779 855.405 162.27C855.405 161.748 855.431 161.455 855.484 161.391C855.507 161.355 855.54 161.338 855.581 161.338H857.743C857.356 160.799 857.163 160.131 857.163 159.334C857.163 158.232 857.549 157.301 858.323 156.539C859.102 155.771 860.057 155.388 861.188 155.388C862.383 155.388 863.508 155.66 864.563 156.205L863.737 157.875C862.84 157.43 862.032 157.225 861.311 157.26C860.719 157.283 860.221 157.497 859.817 157.901C859.413 158.3 859.211 158.763 859.211 159.29C859.211 159.501 859.243 159.718 859.307 159.94C859.372 160.157 859.471 160.377 859.606 160.6C859.747 160.816 859.952 160.995 860.221 161.136C860.491 161.271 860.804 161.338 861.162 161.338H864.739V163.21H855.581ZM860.002 154.087V152.083H862.26V154.087H860.002ZM874.89 167.2C874.369 167.2 873.877 167.145 873.414 167.033C872.957 166.928 872.523 166.752 872.113 166.506C871.709 166.266 871.36 165.967 871.067 165.609C870.774 165.258 870.543 164.818 870.373 164.291C870.203 163.77 870.118 163.187 870.118 162.542V161.505H871.55C872.148 161.505 872.754 161.473 873.37 161.408C872.672 160.934 872.04 160.409 871.471 159.835C870.909 159.255 870.449 158.675 870.091 158.095C870.601 157.274 871.357 156.589 872.359 156.038C873.361 155.487 874.363 155.212 875.365 155.212C876.086 155.212 876.748 155.297 877.351 155.467C877.955 155.637 878.453 155.865 878.845 156.152C879.244 156.434 879.551 156.759 879.768 157.128C879.991 157.497 880.102 157.881 880.102 158.279C880.102 159.451 879.51 160.468 878.327 161.329C878.415 161.335 878.549 161.338 878.731 161.338H880.814C880.855 161.338 880.887 161.355 880.911 161.391C880.963 161.455 880.99 161.748 880.99 162.27C880.99 162.779 880.975 163.066 880.946 163.131C880.922 163.184 880.878 163.21 880.814 163.21H878.749C877.747 163.21 876.727 163.014 875.69 162.621C874.542 162.979 873.443 163.172 872.394 163.201C872.593 164.572 873.419 165.281 874.873 165.328C875.5 165.363 876.378 165.205 877.509 164.854L878.089 166.646C876.871 167.016 875.804 167.2 874.89 167.2ZM872.517 158.35C873.332 159.521 874.427 160.356 875.804 160.854C877.175 160.345 877.861 159.624 877.861 158.692C877.861 158.235 877.644 157.831 877.211 157.479C876.783 157.128 876.168 156.952 875.365 156.952C874.82 156.952 874.293 157.087 873.783 157.356C873.273 157.626 872.851 157.957 872.517 158.35ZM880.849 163.21V161.338H882.458V150.36H884.716V157.409C885.349 156.718 886.052 156.182 886.826 155.801C887.599 155.42 888.384 155.229 889.181 155.229C889.849 155.229 890.467 155.379 891.036 155.678C891.604 155.977 892.07 156.428 892.433 157.031C892.796 157.629 892.978 158.323 892.978 159.114C892.978 159.929 892.732 160.67 892.24 161.338H894.358C894.399 161.338 894.431 161.355 894.455 161.391C894.507 161.455 894.534 161.748 894.534 162.27C894.534 162.779 894.519 163.066 894.49 163.131C894.461 163.184 894.417 163.21 894.358 163.21H880.849ZM880.647 162.27C880.647 161.748 880.673 161.455 880.726 161.391C880.75 161.355 880.782 161.338 880.823 161.338V163.21C880.764 163.21 880.72 163.184 880.691 163.131C880.662 163.066 880.647 162.779 880.647 162.27ZM884.716 161.338H888.047C888.727 161.338 889.342 161.124 889.893 160.696C890.444 160.269 890.719 159.773 890.719 159.211C890.719 158.607 890.535 158.106 890.166 157.708C889.802 157.304 889.307 157.102 888.68 157.102C887.954 157.102 887.212 157.365 886.457 157.893C885.701 158.414 885.121 159.062 884.716 159.835V161.338ZM894.358 163.21C894.299 163.21 894.255 163.184 894.226 163.131C894.197 163.066 894.182 162.779 894.182 162.27C894.182 161.748 894.209 161.455 894.261 161.391C894.285 161.355 894.317 161.338 894.358 161.338H895.852C895.542 160.764 895.386 160.09 895.386 159.316C895.386 158.824 895.454 158.376 895.588 157.972C895.729 157.567 895.919 157.23 896.16 156.961C896.4 156.691 896.667 156.457 896.96 156.258C897.253 156.059 897.572 155.906 897.918 155.801C898.263 155.695 898.594 155.619 898.911 155.572C899.227 155.52 899.544 155.493 899.86 155.493C900.633 155.493 901.331 155.599 901.952 155.81C902.573 156.021 903.083 156.264 903.481 156.539V163.21H894.358ZM897.302 154.104V152.118H899.289V154.104H897.302ZM897.619 159.343C897.619 159.958 897.812 160.444 898.199 160.802C898.586 161.159 899.133 161.338 899.842 161.338H901.249V157.673C900.768 157.45 900.288 157.339 899.807 157.339C899.174 157.339 898.65 157.521 898.234 157.884C897.824 158.247 897.619 158.733 897.619 159.343ZM900.097 154.104V152.118H902.084V154.104H900.097ZM921.657 163.21V159.457C921.657 158.736 921.507 158.191 921.209 157.822C920.91 157.447 920.479 157.26 919.917 157.26C919.729 157.26 919.542 157.28 919.354 157.321V164.792H914.063C912.481 164.792 911.265 164.402 910.416 163.623C909.572 162.85 909.15 161.792 909.15 160.45C909.15 160.128 909.211 159.639 909.335 158.982C909.458 158.32 909.607 157.758 909.783 157.295L911.927 157.743C911.763 158.188 911.634 158.681 911.541 159.22C911.453 159.759 911.409 160.201 911.409 160.547C911.409 161.391 911.637 161.997 912.094 162.366C912.551 162.735 913.208 162.92 914.063 162.92H917.086V155.977C918.211 155.584 919.164 155.388 919.943 155.388C921.162 155.388 922.128 155.76 922.843 156.504C923.558 157.248 923.916 158.232 923.916 159.457V161.338H924.944C924.985 161.338 925.017 161.355 925.041 161.391C925.093 161.455 925.12 161.748 925.12 162.27C925.12 162.779 925.105 163.066 925.076 163.131C925.046 163.184 925.003 163.21 924.944 163.21H921.657ZM924.961 163.21C924.903 163.21 924.859 163.184 924.83 163.131C924.8 163.066 924.786 162.779 924.786 162.27C924.786 161.748 924.812 161.455 924.865 161.391C924.888 161.355 924.92 161.338 924.961 161.338H926.631V150.36H928.89V161.338H930.129C930.17 161.338 930.203 161.355 930.226 161.391C930.279 161.455 930.305 161.748 930.305 162.27C930.305 162.779 930.291 163.066 930.261 163.131C930.232 163.184 930.188 163.21 930.129 163.21H924.961ZM930.129 163.21C930.071 163.21 930.027 163.184 929.998 163.131C929.968 163.066 929.954 162.779 929.954 162.27C929.954 161.748 929.98 161.455 930.033 161.391C930.056 161.355 930.088 161.338 930.129 161.338H932.292C931.905 160.799 931.711 160.131 931.711 159.334C931.711 158.232 932.098 157.301 932.872 156.539C933.651 155.771 934.606 155.388 935.737 155.388C936.932 155.388 938.057 155.66 939.112 156.205L938.286 157.875C937.389 157.43 936.581 157.225 935.86 157.26C935.268 157.283 934.77 157.497 934.366 157.901C933.961 158.3 933.759 158.763 933.759 159.29C933.759 159.501 933.792 159.718 933.856 159.94C933.92 160.157 934.02 160.377 934.155 160.6C934.295 160.816 934.501 160.995 934.77 161.136C935.04 161.271 935.353 161.338 935.711 161.338H939.288V163.21H930.129ZM943.041 167.174V165.302H943.568C943.884 165.302 944.148 165.246 944.359 165.135C944.576 165.029 944.74 164.871 944.851 164.66C944.968 164.449 945.047 164.215 945.088 163.957C945.135 163.699 945.159 163.392 945.159 163.034V155.484H947.426V163.184C947.426 164.391 947.098 165.357 946.442 166.084C945.792 166.811 944.875 167.174 943.691 167.174H943.041ZM953.438 167.174C952.905 167.174 952.301 167.106 951.628 166.972C950.96 166.837 950.306 166.629 949.668 166.348L950.274 164.634C950.895 164.88 951.434 165.056 951.891 165.161C952.348 165.272 952.829 165.328 953.333 165.328C953.901 165.328 954.381 165.155 954.774 164.81C955.167 164.464 955.363 164.027 955.363 163.5V163.21H953.79C952.395 163.21 951.332 162.873 950.599 162.199C949.867 161.525 949.501 160.588 949.501 159.387C949.501 158.795 949.591 158.268 949.773 157.805C949.955 157.336 950.186 156.961 950.467 156.68C950.754 156.398 951.088 156.167 951.469 155.985C951.85 155.798 952.219 155.672 952.577 155.607C952.934 155.537 953.294 155.502 953.658 155.502C955.029 155.502 956.344 155.807 957.604 156.416V161.338H958.931C958.972 161.338 959.004 161.355 959.028 161.391C959.081 161.455 959.107 161.748 959.107 162.27C959.107 162.779 959.092 163.066 959.063 163.131C959.04 163.184 958.996 163.21 958.931 163.21H957.604V163.623C957.604 164.092 957.528 164.522 957.376 164.915C957.223 165.313 957.015 165.647 956.752 165.917C956.494 166.192 956.186 166.427 955.829 166.62C955.477 166.813 955.099 166.954 954.695 167.042C954.296 167.13 953.878 167.174 953.438 167.174ZM951.742 159.413C951.742 159.999 951.935 160.468 952.322 160.819C952.709 161.165 953.253 161.338 953.957 161.338H955.363V157.726C954.865 157.515 954.378 157.409 953.904 157.409C953.652 157.409 953.406 157.444 953.166 157.515C952.925 157.585 952.694 157.693 952.471 157.84C952.254 157.986 952.079 158.194 951.944 158.464C951.809 158.733 951.742 159.05 951.742 159.413ZM958.94 163.21C958.881 163.21 958.837 163.184 958.808 163.131C958.779 163.066 958.764 162.779 958.764 162.27C958.764 161.748 958.791 161.455 958.843 161.391C958.867 161.355 958.899 161.338 958.94 161.338H959.977C960.422 161.338 960.748 161.215 960.953 160.969C961.158 160.723 961.26 160.327 961.26 159.782V155.563H963.528V159.747C963.528 160.269 963.604 160.664 963.756 160.934C963.915 161.203 964.178 161.338 964.547 161.338H965.488C965.523 161.338 965.552 161.355 965.576 161.391C965.628 161.455 965.655 161.748 965.655 162.27C965.655 162.779 965.64 163.066 965.611 163.131C965.582 163.184 965.541 163.21 965.488 163.21H964.653C963.891 163.21 963.302 162.917 962.886 162.331C962.418 162.917 961.735 163.21 960.838 163.21H958.94ZM960.003 154.122V152.241H962.025V154.122H960.003ZM961.392 151.661V149.859H963.422V151.661H961.392ZM962.825 154.122V152.241H964.837V154.122H962.825ZM965.251 163.21C965.192 163.21 965.148 163.184 965.119 163.131C965.089 163.066 965.075 162.779 965.075 162.27C965.075 161.748 965.101 161.455 965.154 161.391C965.177 161.355 965.21 161.338 965.251 161.338H968.283C968.669 161.338 969.015 161.326 969.32 161.303C967.984 160.342 966.915 159.22 966.112 157.937C966.616 157.116 967.375 156.434 968.388 155.889C969.402 155.338 970.413 155.062 971.42 155.062C972.129 155.062 972.783 155.147 973.38 155.317C973.978 155.487 974.473 155.716 974.866 156.003C975.264 156.284 975.572 156.609 975.789 156.979C976.011 157.342 976.123 157.723 976.123 158.121C976.123 159.346 975.513 160.415 974.294 161.329C974.406 161.335 974.57 161.338 974.787 161.338H976.958C976.999 161.338 977.031 161.355 977.054 161.391C977.107 161.455 977.133 161.748 977.133 162.27C977.133 162.779 977.119 163.066 977.089 163.131C977.06 163.184 977.016 163.21 976.958 163.21H974.804C973.779 163.21 972.756 163.014 971.737 162.621C970.542 163.014 969.343 163.21 968.142 163.21H965.251ZM968.529 158.209C969.343 159.434 970.421 160.304 971.763 160.819C972.425 160.585 972.944 160.277 973.319 159.896C973.694 159.516 973.881 159.064 973.881 158.543C973.881 158.086 973.668 157.682 973.24 157.33C972.812 156.979 972.206 156.803 971.42 156.803C970.835 156.803 970.287 156.94 969.777 157.216C969.267 157.491 968.851 157.822 968.529 158.209ZM976.975 163.21C976.917 163.21 976.873 163.184 976.843 163.131C976.814 163.066 976.799 162.779 976.799 162.27C976.799 161.748 976.826 161.455 976.878 161.391C976.902 161.355 976.934 161.338 976.975 161.338H978.645V150.36H980.904V161.338H982.143C982.184 161.338 982.216 161.355 982.24 161.391C982.293 161.455 982.319 161.748 982.319 162.27C982.319 162.779 982.304 163.066 982.275 163.131C982.246 163.184 982.202 163.21 982.143 163.21H976.975ZM982.143 163.21C982.085 163.21 982.041 163.184 982.011 163.131C981.982 163.066 981.967 162.779 981.967 162.27C981.967 161.748 981.994 161.455 982.046 161.391C982.07 161.355 982.102 161.338 982.143 161.338H983.813V150.36H986.072V163.21H982.143ZM996.021 163.21C994.627 163.21 993.563 162.873 992.831 162.199C992.098 161.525 991.732 160.588 991.732 159.387C991.732 158.895 991.796 158.446 991.925 158.042C992.06 157.632 992.242 157.292 992.47 157.022C992.699 156.753 992.954 156.521 993.235 156.328C993.522 156.129 993.833 155.977 994.167 155.871C994.501 155.76 994.82 155.681 995.125 155.634C995.429 155.587 995.734 155.563 996.039 155.563C997.304 155.563 998.567 155.868 999.827 156.478V161.338H1001.02C1001.06 161.338 1001.1 161.355 1001.12 161.391C1001.17 161.455 1001.2 161.748 1001.2 162.27C1001.2 162.779 1001.18 163.066 1001.15 163.131C1001.12 163.184 1001.08 163.21 1001.02 163.21H996.021ZM993.692 154.104V152.118H995.678V154.104H993.692ZM993.973 159.396C993.973 159.987 994.164 160.459 994.544 160.811C994.925 161.162 995.47 161.338 996.179 161.338H997.594V157.708C997.096 157.491 996.607 157.383 996.127 157.383C995.875 157.383 995.626 157.421 995.379 157.497C995.139 157.567 994.911 157.679 994.694 157.831C994.477 157.983 994.301 158.194 994.167 158.464C994.038 158.733 993.973 159.044 993.973 159.396ZM996.487 154.104V152.118H998.473V154.104H996.487ZM1001.02 163.21C1000.96 163.21 1000.92 163.184 1000.89 163.131C1000.86 163.066 1000.85 162.779 1000.85 162.27C1000.85 161.748 1000.87 161.455 1000.93 161.391C1000.95 161.355 1000.98 161.338 1001.02 161.338H1002.06C1002.5 161.338 1002.83 161.215 1003.03 160.969C1003.24 160.723 1003.34 160.327 1003.34 159.782V155.563H1005.61V159.747C1005.61 160.269 1005.69 160.664 1005.84 160.934C1006 161.203 1006.26 161.338 1006.63 161.338H1007.57C1007.61 161.338 1007.63 161.355 1007.66 161.391C1007.71 161.455 1007.74 161.748 1007.74 162.27C1007.74 162.779 1007.72 163.066 1007.69 163.131C1007.66 163.184 1007.62 163.21 1007.57 163.21H1006.73C1005.97 163.21 1005.38 162.917 1004.97 162.331C1004.5 162.917 1003.82 163.21 1002.92 163.21H1001.02ZM1001.35 166.98V164.994H1003.33V166.98H1001.35ZM1004.14 166.98V164.994H1006.13V166.98H1004.14ZM1007.56 163.21C1007.5 163.21 1007.46 163.184 1007.43 163.131C1007.4 163.066 1007.39 162.779 1007.39 162.27C1007.39 161.748 1007.41 161.455 1007.46 161.391C1007.49 161.355 1007.52 161.338 1007.56 161.338H1009.23V150.36H1011.49V163.21H1007.56ZM1013.83 163.21V150.36H1016.09V161.338H1017.61C1017.65 161.338 1017.68 161.355 1017.7 161.391C1017.76 161.455 1017.78 161.748 1017.78 162.27C1017.78 162.779 1017.77 163.066 1017.74 163.131C1017.72 163.184 1017.67 163.21 1017.61 163.21H1013.83ZM1017.62 163.21C1017.56 163.21 1017.51 163.184 1017.48 163.131C1017.45 163.066 1017.44 162.779 1017.44 162.27C1017.44 161.748 1017.47 161.455 1017.52 161.391C1017.54 161.355 1017.57 161.338 1017.62 161.338H1018.65C1019.1 161.338 1019.42 161.215 1019.63 160.969C1019.83 160.723 1019.94 160.327 1019.94 159.782V155.563H1022.2V159.747C1022.2 160.269 1022.28 160.664 1022.43 160.934C1022.59 161.203 1022.85 161.338 1023.22 161.338H1024.16C1024.2 161.338 1024.23 161.355 1024.25 161.391C1024.3 161.455 1024.33 161.748 1024.33 162.27C1024.33 162.779 1024.32 163.066 1024.29 163.131C1024.26 163.184 1024.22 163.21 1024.16 163.21H1023.33C1022.57 163.21 1021.98 162.917 1021.56 162.331C1021.09 162.917 1020.41 163.21 1019.51 163.21H1017.62ZM1018.68 154.122V152.241H1020.7V154.122H1018.68ZM1020.07 151.661V149.859H1022.1V151.661H1020.07ZM1021.5 154.122V152.241H1023.51V154.122H1021.5ZM1029.57 163.21C1028.47 163.21 1027.54 162.911 1026.8 162.313C1026.19 162.911 1025.35 163.21 1024.29 163.21H1023.93C1023.87 163.21 1023.82 163.184 1023.79 163.131C1023.77 163.066 1023.75 162.779 1023.75 162.27C1023.75 161.748 1023.78 161.455 1023.83 161.391C1023.85 161.355 1023.89 161.338 1023.93 161.338H1024.31C1024.68 161.338 1024.94 161.244 1025.11 161.057C1025.28 160.869 1025.37 160.562 1025.37 160.134V159.316C1025.37 158.971 1025.42 158.619 1025.52 158.262C1025.62 157.904 1025.79 157.553 1026.01 157.207C1026.24 156.861 1026.51 156.554 1026.84 156.284C1027.16 156.015 1027.56 155.798 1028.04 155.634C1028.53 155.47 1029.06 155.388 1029.63 155.388C1030.2 155.388 1030.73 155.473 1031.21 155.643C1031.7 155.807 1032.1 156.023 1032.43 156.293C1032.75 156.557 1033.03 156.861 1033.25 157.207C1033.48 157.553 1033.64 157.904 1033.74 158.262C1033.85 158.613 1033.9 158.959 1033.9 159.299V161.338H1035.14C1035.18 161.338 1035.21 161.355 1035.24 161.391C1035.29 161.455 1035.32 161.748 1035.32 162.27C1035.32 162.779 1035.3 163.066 1035.27 163.131C1035.24 163.184 1035.2 163.21 1035.14 163.21H1029.57ZM1028.19 157.866C1027.82 158.265 1027.64 158.751 1027.64 159.325C1027.64 159.899 1027.83 160.38 1028.22 160.767C1028.61 161.147 1029.12 161.338 1029.76 161.338H1031.63V159.299C1031.63 158.725 1031.46 158.241 1031.1 157.849C1030.74 157.456 1030.25 157.26 1029.63 157.26C1029.04 157.26 1028.56 157.462 1028.19 157.866ZM1035.14 163.21C1035.08 163.21 1035.04 163.184 1035.01 163.131C1034.98 163.066 1034.97 162.779 1034.97 162.27C1034.97 161.748 1034.99 161.455 1035.04 161.391C1035.07 161.355 1035.1 161.338 1035.14 161.338H1036.81V150.36H1039.07V163.21H1035.14ZM1041.41 163.21V150.36H1043.67V163.21H1041.41ZM1054.25 163.21C1052.66 163.21 1051.44 162.829 1050.6 162.067C1049.76 161.3 1049.34 160.248 1049.34 158.912C1049.34 158.461 1049.43 157.904 1049.61 157.242L1051.76 157.638C1051.64 158.136 1051.59 158.578 1051.59 158.965C1051.59 159.809 1051.81 160.415 1052.27 160.784C1052.73 161.153 1053.39 161.338 1054.25 161.338H1058.75V150.36H1061.02V161.338H1062.4C1062.44 161.338 1062.47 161.355 1062.49 161.391C1062.55 161.455 1062.57 161.748 1062.57 162.27C1062.57 162.779 1062.56 163.066 1062.53 163.131C1062.5 163.184 1062.46 163.21 1062.4 163.21H1054.25ZM1053.84 156.311V155.405H1055.61C1055.59 155.042 1055.39 154.86 1055 154.86H1053.88V153.911L1055.45 152.593L1056.04 153.322L1055.3 153.946C1055.73 154.017 1056.06 154.187 1056.29 154.456C1056.52 154.726 1056.63 155.024 1056.63 155.353C1056.63 155.634 1056.61 155.953 1056.56 156.311H1053.84ZM1062.4 163.21C1062.35 163.21 1062.3 163.184 1062.27 163.131C1062.24 163.066 1062.23 162.779 1062.23 162.27C1062.23 161.748 1062.26 161.455 1062.31 161.391C1062.33 161.355 1062.36 161.338 1062.4 161.338H1063.44C1063.89 161.338 1064.21 161.215 1064.42 160.969C1064.62 160.723 1064.73 160.327 1064.73 159.782V155.563H1066.99V159.747C1066.99 160.269 1067.07 160.664 1067.22 160.934C1067.38 161.203 1067.64 161.338 1068.01 161.338H1068.95C1068.99 161.338 1069.02 161.355 1069.04 161.391C1069.09 161.455 1069.12 161.748 1069.12 162.27C1069.12 162.779 1069.11 163.066 1069.08 163.131C1069.05 163.184 1069.01 163.21 1068.95 163.21H1068.12C1067.36 163.21 1066.77 162.917 1066.35 162.331C1065.88 162.917 1065.2 163.21 1064.3 163.21H1062.4ZM1063.49 154.104V152.118H1065.48V154.104H1063.49ZM1066.29 154.104V152.118H1068.28V154.104H1066.29ZM1079.95 161.338C1079.99 161.338 1080.02 161.355 1080.04 161.391C1080.1 161.455 1080.12 161.748 1080.12 162.27C1080.12 162.779 1080.11 163.066 1080.08 163.131C1080.05 163.184 1080.01 163.21 1079.95 163.21H1078.9V163.922C1078.9 164.848 1078.5 165.621 1077.7 166.242C1076.9 166.863 1075.84 167.174 1074.52 167.174C1073.79 167.174 1073.14 167.086 1072.58 166.91C1072.03 166.734 1071.6 166.491 1071.28 166.181C1070.97 165.876 1070.73 165.539 1070.58 165.17C1070.43 164.807 1070.35 164.411 1070.35 163.983V163.21H1068.94C1068.89 163.21 1068.84 163.184 1068.81 163.131C1068.78 163.066 1068.77 162.779 1068.77 162.27C1068.77 161.748 1068.79 161.455 1068.85 161.391C1068.87 161.355 1068.9 161.338 1068.94 161.338H1070.35V158.868C1070.35 157.708 1070.73 156.779 1071.48 156.082C1072.23 155.379 1073.24 155.027 1074.5 155.027C1075.09 155.027 1075.65 155.112 1076.17 155.282C1076.7 155.446 1077.16 155.684 1077.56 155.994C1077.96 156.305 1078.28 156.703 1078.52 157.189C1078.75 157.67 1078.87 158.203 1078.87 158.789C1078.87 159.756 1078.56 160.605 1077.94 161.338H1079.95ZM1072.58 163.843C1072.58 164.013 1072.61 164.177 1072.68 164.335C1072.74 164.499 1072.85 164.657 1072.99 164.81C1073.13 164.968 1073.34 165.094 1073.63 165.188C1073.92 165.281 1074.26 165.328 1074.65 165.328C1075.25 165.328 1075.73 165.19 1076.11 164.915C1076.49 164.646 1076.68 164.271 1076.68 163.79V163.21V162.551V162.375C1075.71 162.932 1074.53 163.21 1073.16 163.21H1072.58V163.843ZM1072.58 161.338H1073.16C1074.22 161.338 1075.07 161.162 1075.69 160.811C1076.32 160.453 1076.63 159.891 1076.63 159.123C1076.63 158.49 1076.45 157.96 1076.09 157.532C1075.73 157.099 1075.2 156.882 1074.5 156.882C1073.9 156.882 1073.43 157.069 1073.09 157.444C1072.75 157.819 1072.58 158.309 1072.58 158.912V161.338ZM1079.95 161.338H1086.72C1086.78 160.998 1086.81 160.644 1086.81 160.274C1086.81 159.296 1086.56 158.549 1086.07 158.033C1085.57 157.518 1084.87 157.26 1083.98 157.26C1083.19 157.26 1082.41 157.438 1081.64 157.796L1080.8 156.126C1081.37 155.88 1081.9 155.695 1082.37 155.572C1082.85 155.449 1083.38 155.388 1083.96 155.388C1084.95 155.388 1085.82 155.584 1086.59 155.977C1087.36 156.369 1087.97 156.958 1088.41 157.743C1088.86 158.522 1089.08 159.448 1089.08 160.521C1089.08 161.458 1088.97 162.354 1088.75 163.21H1079.95C1079.89 163.21 1079.85 163.184 1079.82 163.131C1079.79 163.066 1079.77 162.779 1079.77 162.27C1079.77 161.748 1079.8 161.455 1079.85 161.391C1079.87 161.355 1079.91 161.338 1079.95 161.338ZM1082.77 166.726V164.722H1085.03V166.726H1082.77ZM1094.45 167.174C1093.92 167.174 1093.31 167.106 1092.64 166.972C1091.97 166.837 1091.32 166.629 1090.68 166.348L1091.29 164.634C1091.91 164.88 1092.45 165.056 1092.9 165.161C1093.36 165.272 1093.84 165.328 1094.34 165.328C1094.91 165.328 1095.39 165.155 1095.79 164.81C1096.18 164.464 1096.37 164.027 1096.37 163.5V163.21H1094.8C1093.41 163.21 1092.34 162.873 1091.61 162.199C1090.88 161.525 1090.51 160.588 1090.51 159.387C1090.51 158.795 1090.6 158.268 1090.78 157.805C1090.97 157.336 1091.2 156.961 1091.48 156.68C1091.77 156.398 1092.1 156.167 1092.48 155.985C1092.86 155.798 1093.23 155.672 1093.59 155.607C1093.95 155.537 1094.31 155.502 1094.67 155.502C1096.04 155.502 1097.36 155.807 1098.62 156.416V163.623C1098.62 164.092 1098.54 164.522 1098.39 164.915C1098.23 165.313 1098.03 165.647 1097.76 165.917C1097.51 166.192 1097.2 166.427 1096.84 166.62C1096.49 166.813 1096.11 166.954 1095.71 167.042C1095.31 167.13 1094.89 167.174 1094.45 167.174ZM1092.75 159.413C1092.75 159.999 1092.95 160.468 1093.33 160.819C1093.72 161.165 1094.27 161.338 1094.97 161.338H1096.37V157.726C1095.88 157.515 1095.39 157.409 1094.92 157.409C1094.66 157.409 1094.42 157.444 1094.18 157.515C1093.94 157.585 1093.71 157.693 1093.48 157.84C1093.27 157.986 1093.09 158.194 1092.96 158.464C1092.82 158.733 1092.75 159.05 1092.75 159.413ZM935.491 186.386V183.925H938.04V186.386H935.491ZM944.394 186.21C943.773 186.21 943.205 186.128 942.689 185.964C942.179 185.794 941.757 185.577 941.423 185.313C941.095 185.05 940.817 184.745 940.588 184.399C940.366 184.048 940.205 183.699 940.105 183.354C940.011 183.008 939.964 182.665 939.964 182.325C939.964 181.974 940.014 181.622 940.114 181.271C940.219 180.913 940.383 180.562 940.606 180.216C940.835 179.864 941.11 179.554 941.432 179.284C941.754 179.015 942.156 178.798 942.636 178.634C943.117 178.47 943.644 178.388 944.218 178.388C944.793 178.388 945.32 178.473 945.8 178.643C946.287 178.807 946.691 179.023 947.013 179.293C947.341 179.557 947.617 179.861 947.839 180.207C948.068 180.553 948.232 180.904 948.332 181.262C948.437 181.613 948.49 181.959 948.49 182.299V184.848C947.986 185.27 947.371 185.604 946.644 185.85C945.923 186.09 945.173 186.21 944.394 186.21ZM941.828 177.104V175.118H943.814V177.104H941.828ZM942.794 180.884C942.414 181.294 942.223 181.769 942.223 182.308C942.223 182.847 942.417 183.318 942.803 183.723C943.19 184.127 943.685 184.329 944.289 184.329C944.974 184.329 945.622 184.098 946.231 183.635V182.299C946.231 181.766 946.038 181.294 945.651 180.884C945.27 180.468 944.795 180.26 944.227 180.26C943.659 180.26 943.181 180.468 942.794 180.884ZM944.623 177.104V175.118H946.609V177.104H944.623ZM950.054 186.21V184.338H951.091C950.869 183.863 950.757 183.333 950.757 182.747C950.757 181.769 951.086 180.963 951.742 180.33C952.398 179.697 953.23 179.381 954.238 179.381C955.211 179.381 956.13 179.63 956.998 180.128L956.189 181.736C955.509 181.391 954.894 181.224 954.343 181.235C953.898 181.241 953.526 181.385 953.227 181.666C952.928 181.947 952.779 182.305 952.779 182.738C952.779 183.236 952.917 183.629 953.192 183.916C953.467 184.197 953.836 184.338 954.299 184.338H957.077V186.21H950.054ZM959.019 186.21V173.36H961.278V184.338H962.798C962.839 184.338 962.872 184.355 962.895 184.391C962.948 184.455 962.974 184.748 962.974 185.27C962.974 185.779 962.96 186.066 962.93 186.131C962.907 186.184 962.863 186.21 962.798 186.21H959.019ZM962.807 186.21C962.749 186.21 962.705 186.184 962.675 186.131C962.646 186.066 962.631 185.779 962.631 185.27C962.631 184.748 962.658 184.455 962.711 184.391C962.734 184.355 962.766 184.338 962.807 184.338H964.301C963.991 183.764 963.836 183.09 963.836 182.316C963.836 181.824 963.903 181.376 964.038 180.972C964.178 180.567 964.369 180.23 964.609 179.961C964.849 179.691 965.116 179.457 965.409 179.258C965.702 179.059 966.021 178.906 966.367 178.801C966.712 178.695 967.044 178.619 967.36 178.572C967.676 178.52 967.993 178.493 968.309 178.493C969.083 178.493 969.78 178.599 970.401 178.81C971.022 179.021 971.532 179.264 971.93 179.539V184.338H973.117C973.158 184.338 973.19 184.355 973.213 184.391C973.266 184.455 973.293 184.748 973.293 185.27C973.293 185.779 973.278 186.066 973.249 186.131C973.225 186.184 973.181 186.21 973.117 186.21H962.807ZM966.068 182.343C966.068 182.958 966.261 183.444 966.648 183.802C967.035 184.159 967.583 184.338 968.292 184.338H969.698V180.673C969.217 180.45 968.737 180.339 968.256 180.339C967.624 180.339 967.099 180.521 966.683 180.884C966.273 181.247 966.068 181.733 966.068 182.343ZM966.991 177.087V175.083H969.25V177.087H966.991ZM973.126 186.21C973.067 186.21 973.023 186.184 972.994 186.131C972.964 186.066 972.95 185.779 972.95 185.27C972.95 184.748 972.976 184.455 973.029 184.391C973.052 184.355 973.085 184.338 973.126 184.338H980.271C980.201 183.623 980.048 183.014 979.814 182.51C979.58 182 979.272 181.602 978.891 181.314C978.516 181.021 978.1 180.811 977.643 180.682C977.192 180.553 976.679 180.485 976.105 180.479H974.294V178.212L977.608 173.369L979.471 174.45L976.676 178.537C977.672 178.537 978.551 178.704 979.313 179.038C980.081 179.372 980.699 179.844 981.168 180.453C981.636 181.062 981.988 181.774 982.222 182.589C982.462 183.403 982.583 184.312 982.583 185.313C982.583 185.472 982.565 185.771 982.53 186.21H973.126ZM987.944 190.174C987.411 190.174 986.807 190.106 986.133 189.972C985.465 189.837 984.812 189.629 984.173 189.348L984.78 187.634C985.401 187.88 985.94 188.056 986.397 188.161C986.854 188.272 987.335 188.328 987.838 188.328C988.407 188.328 988.887 188.155 989.28 187.81C989.672 187.464 989.869 187.027 989.869 186.5V186.21H988.295C986.901 186.21 985.837 185.873 985.105 185.199C984.373 184.525 984.006 183.588 984.006 182.387C984.006 181.795 984.097 181.268 984.279 180.805C984.461 180.336 984.692 179.961 984.973 179.68C985.26 179.398 985.594 179.167 985.975 178.985C986.356 178.798 986.725 178.672 987.083 178.607C987.44 178.537 987.8 178.502 988.164 178.502C989.535 178.502 990.85 178.807 992.11 179.416V186.623C992.11 187.092 992.034 187.522 991.881 187.915C991.729 188.313 991.521 188.647 991.257 188.917C991 189.192 990.692 189.427 990.335 189.62C989.983 189.813 989.605 189.954 989.201 190.042C988.802 190.13 988.383 190.174 987.944 190.174ZM986.248 182.413C986.248 182.999 986.441 183.468 986.828 183.819C987.214 184.165 987.759 184.338 988.462 184.338H989.869V180.726C989.371 180.515 988.884 180.409 988.41 180.409C988.158 180.409 987.912 180.444 987.671 180.515C987.431 180.585 987.2 180.693 986.977 180.84C986.76 180.986 986.585 181.194 986.45 181.464C986.315 181.733 986.248 182.05 986.248 182.413ZM1002.47 186.21C1001.08 186.21 1000.01 185.873 999.282 185.199C998.549 184.525 998.183 183.588 998.183 182.387C998.183 181.895 998.248 181.446 998.377 181.042C998.511 180.632 998.693 180.292 998.921 180.022C999.15 179.753 999.405 179.521 999.686 179.328C999.973 179.129 1000.28 178.977 1000.62 178.871C1000.95 178.76 1001.27 178.681 1001.58 178.634C1001.88 178.587 1002.19 178.563 1002.49 178.563C1003.76 178.563 1005.02 178.868 1006.28 179.478V184.338H1007.47C1007.51 184.338 1007.55 184.355 1007.57 184.391C1007.62 184.455 1007.65 184.748 1007.65 185.27C1007.65 185.779 1007.63 186.066 1007.61 186.131C1007.58 186.184 1007.53 186.21 1007.47 186.21H1002.47ZM1000.14 177.104V175.118H1002.13V177.104H1000.14ZM1000.42 182.396C1000.42 182.987 1000.61 183.459 1001 183.811C1001.38 184.162 1001.92 184.338 1002.63 184.338H1004.05V180.708C1003.55 180.491 1003.06 180.383 1002.58 180.383C1002.33 180.383 1002.08 180.421 1001.83 180.497C1001.59 180.567 1001.36 180.679 1001.15 180.831C1000.93 180.983 1000.75 181.194 1000.62 181.464C1000.49 181.733 1000.42 182.044 1000.42 182.396ZM1002.94 177.104V175.118H1004.92V177.104H1002.94ZM1007.47 186.21C1007.41 186.21 1007.37 186.184 1007.34 186.131C1007.31 186.066 1007.3 185.779 1007.3 185.27C1007.3 184.748 1007.32 184.455 1007.38 184.391C1007.4 184.355 1007.43 184.338 1007.47 184.338H1009.64C1009.25 183.799 1009.06 183.131 1009.06 182.334C1009.06 181.232 1009.44 180.301 1010.22 179.539C1010.99 178.771 1011.95 178.388 1013.08 178.388C1014.28 178.388 1015.4 178.66 1016.46 179.205L1015.63 180.875C1014.73 180.43 1013.92 180.225 1013.2 180.26C1012.61 180.283 1012.11 180.497 1011.71 180.901C1011.31 181.3 1011.1 181.763 1011.1 182.29C1011.1 182.501 1011.14 182.718 1011.2 182.94C1011.26 183.157 1011.36 183.377 1011.5 183.6C1011.64 183.816 1011.84 183.995 1012.11 184.136C1012.38 184.271 1012.7 184.338 1013.05 184.338H1016.63V186.21H1007.47ZM1016.68 190.174V188.302H1017.2C1017.52 188.302 1017.78 188.246 1017.99 188.135C1018.21 188.029 1018.37 187.871 1018.49 187.66C1018.6 187.449 1018.68 187.215 1018.72 186.957C1018.77 186.699 1018.79 186.392 1018.79 186.034V178.484H1021.06V184.338H1022.24C1022.28 184.338 1022.31 184.355 1022.34 184.391C1022.39 184.455 1022.41 184.748 1022.41 185.27C1022.41 185.779 1022.4 186.066 1022.37 186.131C1022.34 186.184 1022.3 186.21 1022.24 186.21H1021.06C1021.06 187.411 1020.72 188.372 1020.07 189.093C1019.42 189.813 1018.5 190.174 1017.33 190.174H1016.68ZM1036.19 186.21C1035.58 186.21 1035 186.072 1034.43 185.797C1033.86 186.336 1033.04 186.605 1031.99 186.605C1030.92 186.605 1030.11 186.289 1029.54 185.656C1029.02 186.025 1028.36 186.21 1027.56 186.21H1022.24C1022.18 186.21 1022.14 186.184 1022.11 186.131C1022.08 186.066 1022.06 185.779 1022.06 185.27C1022.06 184.748 1022.09 184.455 1022.14 184.391C1022.17 184.355 1022.2 184.338 1022.24 184.338H1023.86V178.563H1026.11V184.338H1027.37C1028.12 184.338 1028.49 183.91 1028.49 183.055V178.563H1030.75V183.16L1030.74 183.38H1030.75C1030.75 184.282 1031.15 184.733 1031.95 184.733C1032.34 184.733 1032.63 184.613 1032.82 184.373C1033.01 184.127 1033.1 183.746 1033.1 183.23V178.563H1035.37V183.23C1035.37 183.582 1035.34 183.896 1035.28 184.171C1035.54 184.282 1035.84 184.338 1036.19 184.338H1036.9C1036.94 184.338 1036.97 184.355 1037 184.391C1037.05 184.455 1037.07 184.748 1037.07 185.27C1037.07 185.779 1037.06 186.066 1037.03 186.131C1037 186.184 1036.96 186.21 1036.9 186.21H1036.19ZM1036.9 186.21C1036.84 186.21 1036.8 186.184 1036.77 186.131C1036.74 186.066 1036.72 185.779 1036.72 185.27C1036.72 184.748 1036.75 184.455 1036.8 184.391C1036.83 184.355 1036.86 184.338 1036.9 184.338H1037.94C1038.38 184.338 1038.71 184.215 1038.91 183.969C1039.12 183.723 1039.22 183.327 1039.22 182.782V178.563H1041.49V183.116C1041.49 184.106 1041.25 184.871 1040.78 185.41C1040.32 185.943 1039.65 186.21 1038.8 186.21H1036.9ZM1038.47 189.972V187.968H1040.73V189.972H1038.47ZM1047.54 186.21V173.36H1049.8V184.338H1051.32C1051.36 184.338 1051.4 184.355 1051.42 184.391C1051.47 184.455 1051.5 184.748 1051.5 185.27C1051.5 185.779 1051.48 186.066 1051.45 186.131C1051.43 186.184 1051.39 186.21 1051.32 186.21H1047.54ZM1062.33 184.338C1062.38 184.338 1062.41 184.355 1062.43 184.391C1062.48 184.455 1062.51 184.748 1062.51 185.27C1062.51 185.779 1062.5 186.066 1062.47 186.131C1062.44 186.184 1062.39 186.21 1062.33 186.21H1061.29V186.922C1061.29 187.848 1060.89 188.621 1060.08 189.242C1059.29 189.863 1058.23 190.174 1056.91 190.174C1056.17 190.174 1055.53 190.086 1054.97 189.91C1054.42 189.734 1053.98 189.491 1053.67 189.181C1053.35 188.876 1053.12 188.539 1052.97 188.17C1052.81 187.807 1052.74 187.411 1052.74 186.983V186.21H1051.33C1051.27 186.21 1051.23 186.184 1051.2 186.131C1051.17 186.066 1051.15 185.779 1051.15 185.27C1051.15 184.748 1051.18 184.455 1051.23 184.391C1051.26 184.355 1051.29 184.338 1051.33 184.338H1052.74V181.868C1052.74 180.708 1053.11 179.779 1053.86 179.082C1054.62 178.379 1055.63 178.027 1056.89 178.027C1057.48 178.027 1058.03 178.112 1058.56 178.282C1059.08 178.446 1059.55 178.684 1059.94 178.994C1060.35 179.305 1060.67 179.703 1060.9 180.189C1061.14 180.67 1061.25 181.203 1061.25 181.789C1061.25 182.756 1060.95 183.605 1060.33 184.338H1062.33ZM1054.97 186.843C1054.97 187.013 1055 187.177 1055.07 187.335C1055.13 187.499 1055.23 187.657 1055.37 187.81C1055.51 187.968 1055.73 188.094 1056.02 188.188C1056.3 188.281 1056.64 188.328 1057.03 188.328C1057.63 188.328 1058.12 188.19 1058.49 187.915C1058.87 187.646 1059.07 187.271 1059.07 186.79V186.21V185.551V185.375C1058.09 185.932 1056.92 186.21 1055.55 186.21H1054.97V186.843ZM1054.97 184.338H1055.55C1056.61 184.338 1057.45 184.162 1058.08 183.811C1058.71 183.453 1059.02 182.891 1059.02 182.123C1059.02 181.49 1058.84 180.96 1058.48 180.532C1058.12 180.099 1057.59 179.882 1056.89 179.882C1056.29 179.882 1055.82 180.069 1055.48 180.444C1055.14 180.819 1054.97 181.309 1054.97 181.912V184.338ZM1062.33 184.338H1069.11C1069.17 183.998 1069.2 183.644 1069.2 183.274C1069.2 182.296 1068.95 181.549 1068.45 181.033C1067.95 180.518 1067.26 180.26 1066.37 180.26C1065.58 180.26 1064.8 180.438 1064.03 180.796L1063.19 179.126C1063.76 178.88 1064.29 178.695 1064.76 178.572C1065.23 178.449 1065.76 178.388 1066.34 178.388C1067.33 178.388 1068.21 178.584 1068.98 178.977C1069.75 179.369 1070.35 179.958 1070.8 180.743C1071.24 181.522 1071.47 182.448 1071.47 183.521C1071.47 184.458 1071.36 185.354 1071.14 186.21H1062.33C1062.28 186.21 1062.23 186.184 1062.2 186.131C1062.17 186.066 1062.16 185.779 1062.16 185.27C1062.16 184.748 1062.19 184.455 1062.24 184.391C1062.26 184.355 1062.29 184.338 1062.33 184.338ZM1065.16 189.726V187.722H1067.41V189.726H1065.16ZM1073.42 186.21V173.36H1075.68V184.338H1077.2C1077.24 184.338 1077.27 184.355 1077.29 184.391C1077.35 184.455 1077.37 184.748 1077.37 185.27C1077.37 185.779 1077.36 186.066 1077.33 186.131C1077.31 186.184 1077.26 186.21 1077.2 186.21H1073.42ZM1077.21 186.21C1077.15 186.21 1077.1 186.184 1077.07 186.131C1077.04 186.066 1077.03 185.779 1077.03 185.27C1077.03 184.748 1077.06 184.455 1077.11 184.391C1077.13 184.355 1077.16 184.338 1077.21 184.338H1078.24C1078.69 184.338 1079.01 184.215 1079.22 183.969C1079.42 183.723 1079.53 183.327 1079.53 182.782V178.563H1081.79V182.747C1081.79 183.269 1081.87 183.664 1082.02 183.934C1082.18 184.203 1082.44 184.338 1082.81 184.338H1083.75C1083.79 184.338 1083.82 184.355 1083.84 184.391C1083.89 184.455 1083.92 184.748 1083.92 185.27C1083.92 185.779 1083.91 186.066 1083.88 186.131C1083.85 186.184 1083.81 186.21 1083.75 186.21H1082.92C1082.16 186.21 1081.57 185.917 1081.15 185.331C1080.68 185.917 1080 186.21 1079.1 186.21H1077.21ZM1078.3 177.104V175.118H1080.28V177.104H1078.3ZM1081.09 177.104V175.118H1083.08V177.104H1081.09ZM1083.74 186.21C1083.69 186.21 1083.64 186.184 1083.61 186.131C1083.58 186.066 1083.57 185.779 1083.57 185.27C1083.57 184.748 1083.6 184.455 1083.65 184.391C1083.67 184.355 1083.7 184.338 1083.74 184.338H1090.52C1090.58 183.998 1090.61 183.644 1090.61 183.274C1090.61 182.296 1090.36 181.549 1089.86 181.033C1089.36 180.518 1088.67 180.26 1087.78 180.26C1086.99 180.26 1086.21 180.438 1085.44 180.796L1084.6 179.126C1085.17 178.88 1085.7 178.695 1086.17 178.572C1086.65 178.449 1087.17 178.388 1087.75 178.388C1088.74 178.388 1089.62 178.584 1090.39 178.977C1091.16 179.369 1091.76 179.958 1092.21 180.743C1092.65 181.522 1092.88 182.448 1092.88 183.521C1092.88 183.825 1092.86 184.098 1092.84 184.338H1093.61C1093.66 184.338 1093.69 184.355 1093.71 184.391C1093.76 184.455 1093.79 184.748 1093.79 185.27C1093.79 185.779 1093.78 186.066 1093.75 186.131C1093.72 186.184 1093.68 186.21 1093.61 186.21H1083.74ZM1093.62 186.21C1093.57 186.21 1093.52 186.184 1093.49 186.131C1093.46 186.066 1093.45 185.779 1093.45 185.27C1093.45 184.748 1093.47 184.455 1093.53 184.391C1093.55 184.355 1093.58 184.338 1093.62 184.338H1094.66C1095.11 184.338 1095.43 184.215 1095.64 183.969C1095.84 183.723 1095.94 183.327 1095.94 182.782V178.563H1098.21V183.116C1098.21 184.106 1097.98 184.871 1097.51 185.41C1097.04 185.943 1096.38 186.21 1095.52 186.21H1093.62ZM1094.71 177.104V175.118H1096.7V177.104H1094.71ZM1097.51 177.104V175.118H1099.49V177.104H1097.51Z"
        fill="#F2F2F2"/>
    </g>
  </g>
  <g opacity="0.4">
    <path d="M359.409 165.805C359.409 171.796 358.576 177.641 356.95 183.205C347.786 215.239 313.791 239.001 273.317 239.001H120.861L154.46 203.931H275.948C293.283 203.931 308.264 195.524 315.59 183.216C318.657 178.079 320.403 172.279 320.403 166.154C320.403 159.645 318.446 153.508 315.034 148.136C312.971 144.955 310.393 142.01 307.378 139.436C300.159 133.31 290.546 129.263 279.756 128.51C278.527 128.42 277.244 128.364 275.948 128.364H127.076C117.119 127.319 109.357 120.092 109.357 111.347C109.357 106.592 111.592 102.321 115.281 99.2299C118.917 96.1389 124.008 94.1943 129.535 94.1943H291.154C291.882 94.3405 292.609 94.4753 293.336 94.6215C309.044 97.8024 323.14 104.648 334.207 114.056C345.049 123.329 353.049 135.018 356.844 148.136C358.523 153.789 359.409 159.724 359.409 165.805Z"
          fill="#E6ECF2"
          fill-opacity="0.36" opacity="0.8"/>
    <path d="M286.065 164.626C286.065 169.38 283.83 173.651 280.141 176.742C276.505 179.833 271.414 181.778 265.887 181.778H104.268L102.086 181.351C86.3779 178.17 72.2827 171.325 61.2154 161.917C50.3729 152.655 42.3733 140.954 38.5784 127.837C36.8991 122.183 36 116.237 36 110.156C36 104.165 36.8462 98.3202 38.4594 92.7676C47.6358 60.7333 81.6178 36.9717 122.092 36.9717H274.548L240.95 72.0408H119.474C102.139 72.0408 87.158 80.4484 79.8328 92.7563C76.7519 97.8931 75.0197 103.682 75.0197 109.819C75.0197 116.327 76.9767 122.464 80.3881 127.825C82.464 131.006 85.0292 133.951 88.044 136.525C95.2502 142.651 104.876 146.698 115.666 147.451C116.896 147.541 118.178 147.597 119.474 147.597H268.347C278.29 148.653 286.065 155.881 286.065 164.626Z"
          fill="#E6ECF2"
          fill-opacity="0.36" opacity="0.8"/>
    <path d="M54.8027 202.942L110.126 203.718L80.2694 237.213L54.8027 202.942Z" fill="#E6ECF2" fill-opacity="0.36"
          opacity="0.8"/>
  </g>
  <defs>
    <filter color-interpolation-filters="sRGB" filterUnits="userSpaceOnUse" height="283.57" id="filter0_d_412_4406" width="1152.89"
            x="0.553646" y="0.664688">
      <feFlood flood-opacity="0" result="BackgroundImageFix"/>
      <feColorMatrix in="SourceAlpha" result="hardAlpha" type="matrix"
                     values="0 0 0 0 0 0 0 0 0 0 0 0 0 0 0 0 0 0 127 0"/>
      <feOffset dy="3.54464"/>
      <feGaussianBlur stdDeviation="17.7232"/>
      <feComposite in2="hardAlpha" operator="out"/>
      <feColorMatrix type="matrix" values="0 0 0 0 0.239216 0 0 0 0 0.247059 0 0 0 0 0.396078 0 0 0 0.02 0"/>
      <feBlend in2="BackgroundImageFix" mode="normal" result="effect1_dropShadow_412_4406"/>
      <feBlend in="SourceGraphic" in2="effect1_dropShadow_412_4406" mode="normal" result="shape"/>
    </filter>
    <linearGradient gradientUnits="userSpaceOnUse" id="paint0_linear_412_4406" x1="1191.11" x2="978.431" y1="118.967"
                    y2="298.414">
      <stop stop-color="white"/>
      <stop offset="1" stop-color="white" stop-opacity="0"/>
    </linearGradient>
    <clipPath id="clip0_412_4406">
      <rect fill="white" height="212.678" rx="14.1785" width="1082" x="36" y="32.5664"/>
    </clipPath>
  </defs>
</svg>
