<svg width="40" height="41" viewBox="0 0 40 41" fill="none" xmlns="http://www.w3.org/2000/svg">
  <rect y="0.5" width="40" height="40" rx="20" fill="#ECF3FE"/>
  <path d="M18.4889 28.4973C18.6377 28.7679 18.8564 28.9936 19.1222 29.1508C19.388 29.308 19.6912 29.3909 20 29.3909C20.3088 29.3909 20.612 29.308 20.8778 29.1508C21.1436 28.9936 21.3623 28.7679 21.5111 28.4973M14.6667 16.9417C14.6667 15.5272 15.2286 14.1707 16.2288 13.1705C17.229 12.1703 18.5855 11.6084 20 11.6084C21.4145 11.6084 22.771 12.1703 23.7712 13.1705C24.7714 14.1707 25.3333 15.5272 25.3333 16.9417C25.3333 23.164 28 24.9417 28 24.9417H12C12 24.9417 14.6667 23.164 14.6667 16.9417Z" stroke="#28478A" stroke-width="1.5" stroke-linecap="round" stroke-linejoin="round"/>
  <circle cx="26.5" cy="16" r="3.5" fill="#EE0909"/>
</svg>
