<svg width="79" height="78" viewBox="0 0 79 78" fill="none" xmlns="http://www.w3.org/2000/svg">
<rect x="0.5" width="77.6186" height="77.6186" rx="38.8093" fill="#ECF3FE"/>
<path d="M54.3646 30.4453V38.8094M24.2539 30.4453C24.2539 35.5717 24.2539 46.7957 24.2539 47.4433C24.2539 49.756 27.5086 51.1308 34.018 53.8806C36.6331 54.9852 37.9405 55.5375 39.3092 55.5375V37.7301" stroke="#28478A" stroke-width="2.23042" stroke-linecap="round" stroke-linejoin="round"/>
<path d="M44.3281 50.5194C44.3281 50.5194 45.7918 50.5194 47.2556 53.865C47.2556 53.865 51.905 45.5009 56.0378 43.8281" stroke="#28478A" stroke-width="2.23042" stroke-linecap="round" stroke-linejoin="round"/>
<path d="M33.1632 34.9483L28.2766 32.5837C25.5948 31.286 24.2539 30.6372 24.2539 29.6097C24.2539 28.5822 25.5948 27.9334 28.2766 26.6357L33.1632 24.2711C36.1791 22.8117 37.6871 22.082 39.3092 22.082C40.9314 22.082 42.4394 22.8117 45.4553 24.2711L50.342 26.6357C53.0236 27.9334 54.3646 28.5822 54.3646 29.6097C54.3646 30.6372 53.0236 31.286 50.342 32.5837L45.4553 34.9483C42.4394 36.4077 40.9314 37.1374 39.3092 37.1374C37.6871 37.1374 36.1791 36.4077 33.1632 34.9483Z" stroke="#28478A" stroke-width="2.23042" stroke-linecap="round" stroke-linejoin="round"/>
<path d="M29.2715 38.8086L32.6171 40.4814" stroke="#28478A" stroke-width="2.23042" stroke-linecap="round" stroke-linejoin="round"/>
<path d="M47.6735 25.4258L30.9453 33.7899" stroke="#28478A" stroke-width="2.23042" stroke-linecap="round" stroke-linejoin="round"/>
</svg>
