<svg fill="none" height="15" viewBox="0 0 15 15" width="15" xmlns="http://www.w3.org/2000/svg">
  <g clip-path="url(#clip0_412_4062)">
    <path d="M7.13672 6.1543H7.14558M7.1389 9.69893H7.14777" stroke="#28478A" stroke-linecap="round"
          stroke-linejoin="round" stroke-width="1.22777"/>
    <path d="M4.77734 7.92676H9.50352" stroke="#28478A" stroke-linecap="round" stroke-linejoin="round"
          stroke-width="1.22777"/>
    <path
      d="M10.9799 3.20034C11.4693 3.20034 11.8661 3.59709 11.8661 4.0865C11.8661 4.57591 11.4693 4.97266 10.9799 4.97266C10.4905 4.97266 10.0938 4.57591 10.0938 4.0865C10.0938 3.59709 10.4905 3.20034 10.9799 3.20034Z"
      stroke="#28478A" stroke-linecap="round" stroke-linejoin="round" stroke-width="0.613883"/>
    <path
      d="M2.27771 6.8297C1.68507 7.4916 1.67233 8.49018 2.21623 9.19267C3.29554 10.5867 4.47687 11.768 5.87085 12.8473C6.57332 13.3912 7.5719 13.3784 8.2338 12.7858C10.0308 11.1768 11.6765 9.49527 13.2647 7.64733C13.4217 7.46466 13.5199 7.24076 13.542 7.00085C13.6394 5.94004 13.8397 2.88379 13.0097 2.0538C12.1797 1.22381 9.12345 1.42405 8.06265 1.52153C7.82274 1.54357 7.59884 1.64179 7.41611 1.7988C5.56825 3.38701 3.88672 5.03269 2.27771 6.8297Z"
      stroke="#28478A" stroke-width="1.22777"/>
  </g>
  <defs>
    <clipPath id="clip0_412_4062">
      <rect fill="white" height="14.1785" transform="translate(0.640625 0.24707)" width="14.1785"/>
    </clipPath>
  </defs>
</svg>
