<svg width="105" height="107" viewBox="0 0 105 107" fill="none" xmlns="http://www.w3.org/2000/svg">
<g clip-path="url(#clip0_2404_6805)">
<path d="M105 53.7344C105 24.7394 81.4949 1.23438 52.5 1.23438C23.5051 1.23438 0 24.7394 0 53.7344C0 82.7293 23.5051 106.234 52.5 106.234C81.4949 106.234 105 82.7293 105 53.7344Z" fill="#F2F4F6"/>
<path d="M64.5535 31.8691C66.3558 32.7533 73.69 48.5803 67.4332 62.3647C62.4085 73.4334 49.7947 73.4347 43.4006 69.5342C37.9392 66.201 29.5968 55.6996 38.8323 42.8762C39.2232 42.3894 40.1609 42.4334 39.9493 43.9038C39.7997 44.9478 38.46 52.4431 41.0169 55.6996C42.1846 57.3284 42.458 56.2052 42.458 56.2052C42.458 56.2052 42.2588 45.2987 50.5505 37.0185C55.814 31.9697 63.1136 31.1622 64.5535 31.8691Z" fill="#81B636"/>
</g>
<defs>
<clipPath id="clip0_2404_6805">
<rect width="105" height="106" fill="white" transform="translate(0 0.617188)"/>
</clipPath>
</defs>
</svg>
