<svg fill="none" height="17" viewBox="0 0 16 17" width="16" xmlns="http://www.w3.org/2000/svg">
  <path d="M4.66797 12.5C3.44868 12.7745 2.66797 13.1962 2.66797 13.6691C2.66797 14.4962 5.05578 15.1667 8.0013 15.1667C10.9468 15.1667 13.3346 14.4962 13.3346 13.6691C13.3346 13.1962 12.5539 12.7745 11.3346 12.5" stroke="#05B5B4" stroke-linecap="round" stroke-width="1.2"/>
  <path d="M9.66536 6.4987C9.66536 7.41916 8.91916 8.16536 7.9987 8.16536C7.07823 8.16536 6.33203 7.41916 6.33203 6.4987C6.33203 5.57822 7.07823 4.83203 7.9987 4.83203C8.91916 4.83203 9.66536 5.57822 9.66536 6.4987Z" stroke="#05B5B4" stroke-width="1.2"/>
  <path d="M8.83696 12.1611C8.6121 12.3776 8.31156 12.4987 7.99883 12.4987C7.68603 12.4987 7.3855 12.3776 7.16063 12.1611C5.10156 10.1659 2.34216 7.93703 3.68784 4.70118C4.41543 2.95158 6.16199 1.83203 7.99883 1.83203C9.83563 1.83203 11.5822 2.95158 12.3098 4.70118C13.6538 7.93296 10.9011 10.1728 8.83696 12.1611Z" stroke="#28478A" stroke-width="1.2"/>
</svg>
