<svg fill="none" height="43" viewBox="0 0 144 43" width="144" xmlns="http://www.w3.org/2000/svg">
  <g clip-path="url(#clip0_212_210)">
    <path
      d="M57.9484 27.1015C57.9484 28.3345 57.8011 29.5374 57.5135 30.6825C55.8929 37.2754 49.8804 42.1658 42.7221 42.1658H15.7587L21.7009 34.9482H43.1875C46.2534 34.9482 48.9029 33.2179 50.1985 30.6848C50.741 29.6276 51.0497 28.434 51.0497 27.1732C51.0497 25.8338 50.7036 24.5707 50.1003 23.465C49.7355 22.8103 49.2794 22.2042 48.7463 21.6745C47.4694 20.4137 45.7693 19.5809 43.861 19.4259C43.6435 19.4074 43.4167 19.3959 43.1875 19.3959H16.8578C15.0968 19.1807 13.7241 17.6933 13.7241 15.8935C13.7241 14.915 14.1193 14.0359 14.7718 13.3998C15.4149 12.7636 16.3152 12.3634 17.2927 12.3634H45.8769C46.0055 12.3935 46.1341 12.4212 46.2627 12.4513C49.0409 13.106 51.5338 14.5148 53.4912 16.451C55.4088 18.3595 56.8236 20.7653 57.4948 23.465C57.7918 24.6286 57.9484 25.85 57.9484 27.1015Z"
      fill="#28478A"/>
    <path
      d="M43.8591 19.4237H17.2931C17.1458 19.4237 16.9961 19.4145 16.8582 19.3937H43.1879C43.4147 19.396 43.6416 19.4052 43.8591 19.4237Z"
      fill="#28478A"/>
    <path
      d="M44.9767 26.8587C44.9767 27.8372 44.5814 28.7163 43.929 29.3524C43.2859 29.9886 42.3855 30.3888 41.408 30.3888H12.8239L12.4381 30.3009C9.65988 29.6462 7.16698 28.2374 5.20961 26.3012C3.292 24.395 1.87718 21.9869 1.20602 19.2872C0.909021 18.1236 0.75 16.8999 0.75 15.6484C0.75 14.4154 0.899667 13.2125 1.18497 12.0697C2.80792 5.47679 8.818 0.586456 15.9763 0.586456H42.9398L36.9975 7.80398H15.5133C12.4474 7.80398 9.79785 9.53433 8.50229 12.0674C7.95741 13.1246 7.65106 14.3159 7.65106 15.579C7.65106 16.9184 7.99717 18.1815 8.60051 19.2849C8.96766 19.9396 9.42134 20.5457 9.95453 21.0754C11.229 22.3362 12.9315 23.169 14.8398 23.324C15.0572 23.3425 15.2841 23.354 15.5133 23.354H41.843C43.6016 23.5715 44.9767 25.0589 44.9767 26.8587Z"
      fill="#28478A"/>
    <path
      d="M41.8431 23.3563H15.5133C15.2865 23.3563 15.0573 23.3471 14.8398 23.3262H41.4081C41.5554 23.3262 41.7051 23.3355 41.8431 23.3563Z"
      fill="#28478A"/>
    <path d="M4.07544 34.7447L13.8599 34.9043L8.57949 41.798L4.07544 34.7447Z" fill="#28478A"/>
    <path
      d="M91.3828 1.70609V6.41598H77.424C74.9638 6.41598 73.8741 7.73225 73.8741 9.60835C73.8741 11.2439 74.7206 12.8007 77.9081 12.8007H84.283C91.7055 12.8007 93.4407 16.8721 93.4407 20.7423C93.4407 25.2926 90.9806 28.6446 84.767 28.6446H69.5992V23.9347H84.9284C87.5102 23.9347 88.6794 22.5374 88.6794 20.5827C88.6794 18.8269 87.751 17.2307 84.4022 17.2307H78.0694C70.8082 17.2307 69.1128 13.2009 69.1128 9.44873C69.1128 4.97942 71.5332 1.70609 77.5854 1.70609H91.3828Z"
      fill="#28478A"/>
    <path
      d="M112.601 1.70609C118.732 1.70609 121.354 5.45827 121.354 9.76797C121.354 13.8394 118.973 18.2277 112.601 18.2277H104.128C103.684 18.2277 103.443 18.4267 103.443 18.9055V28.6423H98.6816V17.9895C98.6816 14.9567 99.9725 13.7191 102.959 13.7191H112.762C115.465 13.7191 116.555 11.8846 116.555 10.0085C116.555 8.0538 115.386 6.41598 112.804 6.41598H98.6418V1.70609H112.601Z"
      fill="#28478A"/>
    <path d="M143.75 1.70605V6.41595H135.804V28.6422H131.003V6.41595H123.054V1.70605H143.75Z" fill="#28478A"/>
    <path
      d="M75.2261 38.224C75.3009 38.1522 75.336 38.0204 75.336 37.8307V35.2884C75.336 35.2259 75.3688 35.1935 75.4319 35.1935H76.0446C76.1077 35.1935 76.1405 35.2259 76.1405 35.2884V37.877C76.1405 38.2887 76.0539 38.5895 75.8809 38.7838C75.7078 38.9758 75.4155 39.0729 74.9993 39.0729H70.3876C69.9854 39.0729 69.6978 38.9758 69.5247 38.7838C69.3517 38.5918 69.2651 38.2887 69.2651 37.877V35.8945C69.2651 35.832 69.2979 35.7996 69.361 35.7996H69.9737C70.0369 35.7996 70.0696 35.832 70.0696 35.8945V37.8307C70.0696 38.0204 70.107 38.1522 70.1795 38.224C70.252 38.298 70.3689 38.3327 70.5303 38.3327H74.8636C75.032 38.3327 75.1513 38.298 75.2261 38.224ZM71.8071 34.8141C71.744 34.8141 71.7113 34.7818 71.7113 34.7193V34.0276C71.7113 33.9652 71.744 33.9328 71.8071 33.9328H72.4596C72.5227 33.9328 72.5555 33.9652 72.5555 34.0276V34.7193C72.5555 34.7818 72.5227 34.8141 72.4596 34.8141H71.8071ZM72.9764 34.8141C72.9133 34.8141 72.8805 34.7818 72.8805 34.7193V34.0276C72.8805 33.9652 72.9133 33.9328 72.9764 33.9328H73.6289C73.692 33.9328 73.7247 33.9652 73.7247 34.0276V34.7193C73.7247 34.7818 73.692 34.8141 73.6289 34.8141H72.9764Z"
      fill="#28478A"/>
    <path
      d="M78.1654 38.9781C78.1654 39.0406 78.1327 39.073 78.0696 39.073H77.4545C77.3914 39.073 77.3586 39.0406 77.3586 38.9781V32.7183C77.3586 32.6559 77.3914 32.6235 77.4545 32.6235H78.0672C78.1304 32.6235 78.1631 32.6559 78.1631 32.7183V38.9781H78.1654Z"
      fill="#28478A"/>
    <path
      d="M78.9326 40.9606C78.8694 40.9606 78.8367 40.9282 78.8367 40.8658V40.3152C78.8367 40.2527 78.8694 40.2203 78.9326 40.2203H79.1524C79.6715 40.2203 79.9288 39.952 79.9288 39.413V35.2884C79.9288 35.2259 79.9615 35.1935 80.0247 35.1935H80.6373C80.7005 35.1935 80.7332 35.2259 80.7332 35.2884V39.3945C80.7332 39.9057 80.6023 40.2967 80.3404 40.5604C80.0784 40.8264 79.6949 40.9583 79.1898 40.9583H78.9326V40.9606Z"
      fill="#28478A"/>
    <path
      d="M82.0287 32.7183C82.0287 32.6559 82.0614 32.6235 82.1246 32.6235H82.7373C82.8004 32.6235 82.8332 32.6559 82.8332 32.7183V37.8307C82.8332 38.0204 82.8706 38.1523 82.9431 38.224C83.0156 38.298 83.1325 38.3327 83.2939 38.3327H83.7148C83.9697 38.3327 84.0983 38.4599 84.0983 38.7121C84.0983 38.8694 84.0679 38.9689 84.0071 39.0105C83.9463 39.0522 83.8481 39.073 83.7148 39.073H83.1489C82.7466 39.073 82.459 38.9758 82.2859 38.7838C82.1129 38.5918 82.0264 38.2888 82.0264 37.877V32.7183H82.0287Z"
      fill="#28478A"/>
    <path
      d="M83.7827 39.0729C83.6541 39.0729 83.5582 39.0498 83.495 39.0059C83.4319 38.9619 83.3992 38.874 83.3992 38.7398C83.3992 38.5825 83.4296 38.4738 83.4904 38.4183C83.5512 38.3604 83.6494 38.3327 83.7827 38.3327H84.4351C84.5942 38.3327 84.7111 38.2957 84.7859 38.224C84.8608 38.1522 84.8958 38.0204 84.8958 37.8307V35.2884C84.8958 35.2259 84.9286 35.1935 84.9917 35.1935H85.6044C85.6676 35.1935 85.7003 35.2259 85.7003 35.2884V37.6873C85.7003 37.9024 85.7775 38.0643 85.9342 38.1708C86.0908 38.2772 86.3013 38.3327 86.5632 38.3327H86.6778C86.8064 38.3327 86.9023 38.3604 86.9655 38.4137C87.0286 38.4669 87.0613 38.5571 87.0613 38.6843C87.0613 38.8486 87.0309 38.955 86.9701 39.0012C86.9093 39.0498 86.8111 39.0729 86.6778 39.0729H86.4673C86.2616 39.0729 86.0838 39.0313 85.9295 38.9503C85.7775 38.8694 85.6582 38.7445 85.574 38.5802C85.415 38.9087 85.0829 39.0729 84.5778 39.0729H83.7827ZM84.2714 40.838C84.2083 40.838 84.1756 40.8056 84.1756 40.7432V40.0515C84.1756 39.989 84.2083 39.9566 84.2714 39.9566H84.9239C84.987 39.9566 85.0198 39.989 85.0198 40.0515V40.7432C85.0198 40.8056 84.987 40.838 84.9239 40.838H84.2714ZM85.4407 40.838C85.3776 40.838 85.3448 40.8056 85.3448 40.7432V40.0515C85.3448 39.989 85.3776 39.9566 85.4407 39.9566H86.0932C86.1563 39.9566 86.1891 39.989 86.1891 40.0515V40.7432C86.1891 40.8056 86.1563 40.838 86.0932 40.838H85.4407Z"
      fill="#28478A"/>
    <path
      d="M89.6035 39.073C89.3977 39.073 89.22 39.0314 89.0656 38.9504C88.9113 38.8694 88.7943 38.7445 88.7102 38.5803C88.5511 38.9088 88.2191 39.073 87.7139 39.073H86.678C86.5493 39.073 86.4535 39.0499 86.3903 39.0059C86.3272 38.962 86.2944 38.8741 86.2944 38.7399C86.2944 38.5826 86.3248 38.4739 86.3856 38.4183C86.4464 38.3605 86.5447 38.3327 86.678 38.3327H87.5689C87.728 38.3327 87.8449 38.2957 87.9197 38.224C87.9922 38.1523 88.0296 38.0204 88.0296 37.8308V36.105C88.0296 36.0426 88.0624 36.0102 88.1255 36.0102H88.7382C88.8014 36.0102 88.8341 36.0426 88.8341 36.105V37.6896C88.8341 37.9048 88.9113 38.0667 89.0633 38.1731C89.2176 38.2795 89.4211 38.3351 89.676 38.3351H89.9169C90.0759 38.3351 90.1928 38.298 90.2676 38.2263C90.3401 38.1546 90.3775 38.0228 90.3775 37.8331V36.1073C90.3775 36.0449 90.4103 36.0125 90.4734 36.0125H91.0861C91.1493 36.0125 91.182 36.0449 91.182 36.1073V37.729C91.182 37.9325 91.2615 38.0829 91.4229 38.1847C91.5819 38.2865 91.79 38.3374 92.0449 38.3374H92.2648C92.4238 38.3374 92.5407 38.3004 92.6155 38.2286C92.688 38.1569 92.7254 38.0251 92.7254 37.8354V35.2931C92.7254 35.2306 92.7582 35.1982 92.8213 35.1982H93.434C93.4972 35.1982 93.5299 35.2306 93.5299 35.2931V37.692C93.5299 37.9071 93.6071 38.069 93.7638 38.1754C93.9204 38.2819 94.1309 38.3374 94.3928 38.3374H94.4981C94.6267 38.3374 94.7226 38.3651 94.7857 38.4183C94.8488 38.4715 94.8816 38.5618 94.8816 38.689C94.8816 38.8532 94.8512 38.9597 94.7904 39.0059C94.7296 39.0522 94.6314 39.0776 94.4981 39.0776H94.297C94.0912 39.0776 93.9134 39.036 93.7591 38.955C93.6047 38.8741 93.4878 38.7491 93.4036 38.5849C93.2446 38.9134 92.9125 39.0776 92.4074 39.0776H91.9467C91.7409 39.0776 91.5632 39.036 91.4088 38.955C91.2545 38.8741 91.1376 38.7491 91.0534 38.5849C90.8944 38.9134 90.56 39.0776 90.0572 39.0776H89.6035V39.073Z"
      fill="#28478A"/>
    <path
      d="M94.5024 39.0729C94.3738 39.0729 94.2779 39.0497 94.2148 39.0058C94.1516 38.9618 94.1189 38.8739 94.1189 38.7398C94.1189 38.5824 94.1493 38.4737 94.2101 38.4182C94.2709 38.3604 94.3691 38.3326 94.5024 38.3326H95.1058C95.2648 38.3326 95.3817 38.2956 95.4565 38.2239C95.5314 38.1522 95.5665 38.0203 95.5665 37.8306V32.7182C95.5665 32.6558 95.5992 32.6234 95.6623 32.6234H96.275C96.3382 32.6234 96.3709 32.6558 96.3709 32.7182V37.8769C96.3709 38.2887 96.2844 38.5894 96.1113 38.7837C95.9383 38.9757 95.6506 39.0729 95.2484 39.0729H94.5024Z"
      fill="#28478A"/>
    <path
      d="M98.52 38.9781C98.52 39.0406 98.4873 39.073 98.4242 39.073H97.8115C97.7483 39.073 97.7156 39.0406 97.7156 38.9781V32.7183C97.7156 32.6559 97.7483 32.6235 97.8115 32.6235H98.4242C98.4873 32.6235 98.52 32.6559 98.52 32.7183V38.9781Z"
      fill="#28478A"/>
    <path
      d="M101.588 40.9606C101.525 40.9606 101.492 40.9282 101.492 40.8658V40.3152C101.492 40.2527 101.525 40.2203 101.588 40.2203H101.808C102.327 40.2203 102.585 39.952 102.585 39.413V35.2884C102.585 35.2259 102.617 35.1935 102.68 35.1935H103.293C103.356 35.1935 103.389 35.2259 103.389 35.2884V39.3945C103.389 39.9057 103.258 40.2967 102.996 40.5604C102.734 40.8264 102.351 40.9583 101.846 40.9583H101.588V40.9606Z"
      fill="#28478A"/>
    <path
      d="M104.684 32.7183C104.684 32.6558 104.717 32.6234 104.78 32.6234H105.393C105.456 32.6234 105.489 32.6558 105.489 32.7183V37.8307C105.489 38.0204 105.526 38.1522 105.599 38.224C105.671 38.298 105.788 38.3327 105.95 38.3327H106.371C106.625 38.3327 106.754 38.4599 106.754 38.7121C106.754 38.8694 106.724 38.9688 106.663 39.0105C106.602 39.0521 106.504 39.0729 106.371 39.0729H105.805C105.402 39.0729 105.115 38.9758 104.942 38.7838C104.769 38.5918 104.682 38.2887 104.682 37.877V32.7183H104.684Z"
      fill="#28478A"/>
    <path
      d="M106.438 39.0729C106.31 39.0729 106.214 39.0498 106.151 39.0059C106.088 38.9619 106.055 38.874 106.055 38.7398C106.055 38.5825 106.085 38.4738 106.146 38.4183C106.207 38.3604 106.305 38.3327 106.438 38.3327H107.091C107.25 38.3327 107.367 38.2957 107.442 38.224C107.517 38.1522 107.552 38.0204 107.552 37.8307V35.2884C107.552 35.2259 107.584 35.1935 107.647 35.1935H108.26C108.323 35.1935 108.356 35.2259 108.356 35.2884V37.6873C108.356 37.9024 108.433 38.0643 108.59 38.1708C108.747 38.2772 108.957 38.3327 109.219 38.3327H109.334C109.462 38.3327 109.558 38.3604 109.621 38.4137C109.684 38.4669 109.717 38.5571 109.717 38.6843C109.717 38.8486 109.687 38.955 109.626 39.0012C109.565 39.0498 109.467 39.0729 109.334 39.0729H109.123C108.917 39.0729 108.74 39.0313 108.585 38.9503C108.433 38.8694 108.314 38.7445 108.23 38.5802C108.071 38.9087 107.739 39.0729 107.234 39.0729H106.438ZM106.927 40.838C106.864 40.838 106.831 40.8056 106.831 40.7432V40.0515C106.831 39.989 106.864 39.9566 106.927 39.9566H107.58C107.643 39.9566 107.676 39.989 107.676 40.0515V40.7432C107.676 40.8056 107.643 40.838 107.58 40.838H106.927ZM108.096 40.838C108.033 40.838 108.001 40.8056 108.001 40.7432V40.0515C108.001 39.989 108.033 39.9566 108.096 39.9566H108.749C108.812 39.9566 108.845 39.989 108.845 40.0515V40.7432C108.845 40.8056 108.812 40.838 108.749 40.838H108.096Z"
      fill="#28478A"/>
    <path
      d="M113.753 38.3327C113.816 38.3327 113.849 38.3651 113.849 38.4276V38.9781C113.849 39.0406 113.816 39.073 113.753 39.073H109.333C109.079 39.073 108.95 38.9457 108.95 38.6936C108.95 38.5363 108.98 38.4368 109.041 38.3952C109.102 38.3535 109.2 38.3327 109.333 38.3327H110.428C110.281 38.187 110.157 38.0042 110.054 37.7821C109.951 37.5601 109.899 37.294 109.899 36.9864C109.899 36.7897 109.927 36.5769 109.986 36.3456C110.044 36.1142 110.15 35.9014 110.302 35.7048C110.456 35.5082 110.664 35.3462 110.928 35.2167C111.193 35.0871 111.534 35.0224 111.95 35.0224C112.327 35.0224 112.654 35.0894 112.928 35.2259C113.201 35.3624 113.424 35.5498 113.59 35.7904C113.622 35.8413 113.613 35.8852 113.562 35.9222L113.141 36.2646C113.089 36.3016 113.045 36.2993 113.005 36.2554C112.717 35.9269 112.357 35.7626 111.922 35.7626C111.525 35.7626 111.232 35.8783 111.041 36.1096C110.849 36.3409 110.753 36.6301 110.753 36.9771C110.753 37.2107 110.79 37.4097 110.868 37.5739C110.945 37.7382 111.031 37.8747 111.132 37.9811C111.23 38.0875 111.331 38.1685 111.433 38.224C111.536 38.2772 111.616 38.3142 111.674 38.3327H113.753ZM111.569 34.2543C111.506 34.2543 111.473 34.222 111.473 34.1595V33.4678C111.473 33.4054 111.506 33.373 111.569 33.373H112.222C112.285 33.373 112.317 33.4054 112.317 33.4678V34.1595C112.317 34.222 112.285 34.2543 112.222 34.2543H111.569Z"
      fill="#28478A"/>
    <path
      d="M119.305 35.0223C119.988 35.0223 120.493 35.1542 120.821 35.4202C121.146 35.6862 121.309 36.0471 121.309 36.5005C121.309 36.7041 121.277 36.8938 121.213 37.0696C121.15 37.2477 121.069 37.412 120.968 37.5623C120.87 37.7127 120.755 37.8515 120.627 37.9741C120.498 38.0967 120.374 38.2008 120.252 38.2818C120.323 38.2956 120.393 38.3049 120.463 38.3141C120.533 38.3234 120.601 38.328 120.664 38.328H122.065C122.191 38.328 122.289 38.3512 122.352 38.3951C122.416 38.4391 122.448 38.5293 122.448 38.6611C122.448 38.8184 122.418 38.9272 122.357 38.9827C122.296 39.0405 122.198 39.0683 122.065 39.0683H120.636C120.451 39.0683 120.252 39.0452 120.042 39.0012C119.831 38.9572 119.642 38.8809 119.476 38.7745C119.291 38.8439 119.095 38.9064 118.891 38.9596C118.688 39.0128 118.501 39.0729 118.335 39.1354C118.169 39.1978 118.031 39.2788 117.923 39.3713C117.813 39.4662 117.759 39.5934 117.759 39.7507C117.759 39.9034 117.818 40.0167 117.937 40.0977C118.056 40.1764 118.272 40.2157 118.585 40.2157H119.504C119.567 40.2157 119.6 40.2481 119.6 40.3105V40.8611C119.6 40.9236 119.567 40.9559 119.504 40.9559H118.517C118 40.9559 117.605 40.8634 117.339 40.6807C117.07 40.4979 116.936 40.1879 116.936 39.7507C116.936 39.4777 116.995 39.2533 117.114 39.0775C117.233 38.9017 117.381 38.7583 117.561 38.6496C117.741 38.5408 117.935 38.4576 118.145 38.3974C118.356 38.3373 118.557 38.2887 118.749 38.2494C118.704 37.9972 118.636 37.7775 118.548 37.5947C118.459 37.412 118.356 37.2523 118.241 37.1159C118.127 36.9794 118 36.8591 117.862 36.755C117.724 36.6509 117.586 36.5491 117.446 36.4473C117.388 36.4103 117.353 36.3756 117.336 36.3478C117.32 36.3201 117.313 36.29 117.313 36.2576V35.6885C117.313 35.6006 117.346 35.5359 117.409 35.4988C117.486 35.4549 117.586 35.404 117.71 35.3462C117.834 35.2883 117.979 35.2351 118.143 35.1842C118.307 35.1333 118.487 35.0917 118.686 35.0616C118.88 35.0385 119.088 35.0223 119.305 35.0223ZM119.305 35.7626C119.018 35.7626 118.765 35.7926 118.548 35.8528C118.33 35.9129 118.187 35.9661 118.115 36.0101C118.442 36.1928 118.728 36.4496 118.973 36.7781C119.219 37.1066 119.396 37.4999 119.504 37.9533C119.607 37.8908 119.714 37.8098 119.831 37.7104C119.946 37.6132 120.049 37.5045 120.142 37.3888C120.236 37.2708 120.311 37.1413 120.372 37.0002C120.432 36.8591 120.463 36.711 120.463 36.5583C120.463 36.401 120.432 36.2715 120.372 36.1697C120.311 36.0679 120.229 35.9893 120.126 35.9268C120.023 35.8667 119.902 35.825 119.757 35.7996C119.616 35.7764 119.467 35.7626 119.305 35.7626Z"
      fill="#28478A"/>
    <path
      d="M122.076 39.073C121.948 39.073 121.852 39.0498 121.789 39.0059C121.726 38.9619 121.693 38.874 121.693 38.7399C121.693 38.5826 121.723 38.4738 121.784 38.416C121.845 38.3582 121.943 38.3304 122.076 38.3304H122.68C122.839 38.3304 122.956 38.2934 123.031 38.2217C123.105 38.15 123.14 38.0181 123.14 37.8284V32.716C123.14 32.6535 123.173 32.6212 123.236 32.6212H123.849C123.912 32.6212 123.945 32.6535 123.945 32.716V35.6099C124.258 35.4457 124.607 35.3069 124.99 35.1936C125.374 35.0802 125.767 35.0224 126.169 35.0224C126.616 35.0224 126.987 35.0825 127.282 35.2028C127.577 35.3231 127.811 35.485 127.986 35.6909C128.161 35.8968 128.285 36.1351 128.355 36.408C128.426 36.681 128.461 36.9679 128.461 37.2709C128.461 37.3542 128.458 37.4305 128.456 37.5022C128.454 37.5763 128.451 37.6364 128.451 37.6873C128.451 37.9024 128.531 38.0644 128.687 38.1708C128.844 38.2795 129.052 38.3327 129.314 38.3327H129.419C129.546 38.3327 129.644 38.3605 129.707 38.4137C129.77 38.4669 129.803 38.5571 129.803 38.6843C129.803 38.8486 129.773 38.955 129.712 39.0013C129.651 39.0498 129.553 39.073 129.419 39.073H129.218C128.994 39.073 128.795 39.0221 128.62 38.9203C128.444 38.8185 128.32 38.6728 128.25 38.4854C128.14 38.7005 127.986 38.8532 127.785 38.9411C127.584 39.029 127.326 39.0753 127.013 39.0753H123.791C123.636 39.0753 123.529 39.0336 123.465 38.9527C123.306 39.036 123.091 39.0753 122.822 39.0753H122.076V39.073ZM126.113 35.7626C125.921 35.7626 125.727 35.7811 125.528 35.8158C125.329 35.8505 125.138 35.8968 124.948 35.9523C124.759 36.0102 124.581 36.0726 124.41 36.142C124.242 36.2114 124.085 36.2808 123.945 36.3502V37.877C123.945 38.0343 123.929 38.187 123.898 38.3327H126.737C126.917 38.3327 127.065 38.3165 127.179 38.2864C127.294 38.2541 127.385 38.1985 127.448 38.1199C127.511 38.0412 127.556 37.9302 127.577 37.7891C127.6 37.6457 127.609 37.4652 127.609 37.2431C127.609 37.0095 127.586 36.8013 127.537 36.6162C127.488 36.4335 127.408 36.2785 127.291 36.1513C127.177 36.024 127.022 35.9292 126.831 35.8621C126.641 35.7973 126.4 35.7626 126.113 35.7626Z"
      fill="#28478A"/>
    <path
      d="M131.884 35.0223C132.209 35.0223 132.492 35.064 132.728 35.1496C132.965 35.2352 133.161 35.3531 133.318 35.5058C133.474 35.6585 133.591 35.8389 133.668 36.0518C133.746 36.2646 133.783 36.4959 133.783 36.7481C133.783 37.0696 133.708 37.3703 133.558 37.6479C133.409 37.9255 133.198 38.1569 132.929 38.3396C132.962 38.3327 133.009 38.3304 133.074 38.3304H134.407C134.536 38.3304 134.632 38.3535 134.695 38.3974C134.758 38.4414 134.791 38.5293 134.791 38.6635C134.791 38.8208 134.761 38.9295 134.7 38.985C134.639 39.0429 134.541 39.0706 134.407 39.0706H133.133C132.901 39.0706 132.686 39.0614 132.48 39.0429C132.275 39.0244 132.081 38.9573 131.896 38.8439C131.685 38.9573 131.458 39.0244 131.22 39.0429C130.981 39.0614 130.769 39.0706 130.582 39.0706H129.422C129.167 39.0706 129.038 38.9434 129.038 38.6912C129.038 38.5339 129.068 38.4345 129.129 38.3928C129.19 38.3512 129.288 38.3304 129.422 38.3304H130.832C130.57 38.1476 130.364 37.9186 130.212 37.6433C130.062 37.368 129.988 37.0696 129.988 36.7481C129.988 36.4959 130.025 36.2623 130.102 36.0518C130.179 35.8389 130.296 35.6585 130.453 35.5058C130.61 35.3531 130.806 35.2352 131.042 35.1496C131.278 35.0663 131.559 35.0223 131.884 35.0223ZM131.884 35.7626C131.578 35.7626 131.325 35.8505 131.126 36.0286C130.928 36.2067 130.829 36.4612 130.829 36.7966C130.829 37.139 130.932 37.4235 131.136 37.6549C131.342 37.8862 131.589 38.0574 131.884 38.1731C132.179 38.0597 132.427 37.8862 132.632 37.6549C132.836 37.4235 132.939 37.139 132.939 36.7966C132.939 36.4612 132.841 36.2067 132.642 36.0286C132.445 35.8505 132.193 35.7626 131.884 35.7626ZM130.974 34.2543C130.911 34.2543 130.879 34.2219 130.879 34.1595V33.4678C130.879 33.4053 130.911 33.3729 130.974 33.3729H131.627C131.69 33.3729 131.723 33.4053 131.723 33.4678V34.1595C131.723 34.2219 131.69 34.2543 131.627 34.2543H130.974ZM132.144 34.2543C132.081 34.2543 132.048 34.2219 132.048 34.1595V33.4678C132.048 33.4053 132.081 33.3729 132.144 33.3729H132.796C132.859 33.3729 132.892 33.4053 132.892 33.4678V34.1595C132.892 34.2219 132.859 34.2543 132.796 34.2543H132.144Z"
      fill="#28478A"/>
    <path
      d="M134.407 39.0729C134.279 39.0729 134.183 39.0498 134.12 39.0058C134.057 38.9619 134.024 38.874 134.024 38.7398C134.024 38.5825 134.054 38.4738 134.115 38.4182C134.176 38.3604 134.274 38.3326 134.407 38.3326H135.011C135.17 38.3326 135.287 38.2956 135.362 38.2239C135.436 38.1522 135.471 38.0203 135.471 37.8307V32.7182C135.471 32.6558 135.504 32.6234 135.567 32.6234H136.18C136.243 32.6234 136.276 32.6558 136.276 32.7182V37.8769C136.276 38.2887 136.189 38.5894 136.016 38.7837C135.843 38.9757 135.556 39.0729 135.153 39.0729H134.407Z"
      fill="#28478A"/>
  </g>
  <defs>
    <clipPath id="clip0_212_210">
      <rect fill="white" height="41.5771" transform="translate(0.75 0.586456)" width="143"/>
    </clipPath>
  </defs>
</svg>
