<svg fill="none" height="817" viewBox="0 0 794 817" width="794" xmlns="http://www.w3.org/2000/svg">
  <g opacity="0.4">
    <path
      d="M1114.88 520.999C1114.88 545.226 1112 568.863 1106.4 591.363C1074.81 720.909 957.619 817 818.094 817H292.539L408.361 675.181H827.165C886.922 675.181 938.566 641.181 963.818 591.408C974.393 570.635 980.41 547.181 980.41 522.408C980.41 496.09 973.664 471.272 961.904 449.544C954.793 436.681 945.904 424.771 935.512 414.362C910.624 389.59 877.487 373.226 840.292 370.18C836.053 369.817 831.632 369.589 827.165 369.589H313.962C279.639 365.362 252.883 336.135 252.883 300.771C252.883 281.544 260.586 264.271 273.303 251.771C285.838 239.271 303.387 231.407 322.44 231.407H879.583C882.09 231.998 884.597 232.544 887.104 233.135C941.255 245.998 989.845 273.68 1028 311.726C1065.37 349.226 1092.95 396.499 1106.03 449.544C1111.82 472.408 1114.88 496.408 1114.88 520.999Z"
      fill="#E6ECF2"
      fill-opacity="0.1" opacity="0.8"/>
    <path
      d="M862.04 516.229C862.04 535.456 854.337 552.729 841.619 565.229C829.084 577.729 811.536 585.593 792.482 585.593H235.339L227.818 583.865C173.668 571.002 125.078 543.32 86.9259 505.274C49.5491 467.82 21.9722 420.501 8.89035 367.456C3.1015 344.592 0.00195312 320.546 0.00195312 295.955C0.00195312 271.728 2.91917 248.092 8.48012 225.637C40.1137 96.0912 157.258 0 296.783 0H822.338L706.516 141.819H287.758C228.001 141.819 176.357 175.819 151.105 225.592C140.484 246.364 134.513 269.774 134.513 294.592C134.513 320.91 141.259 345.728 153.019 367.41C160.175 380.274 169.018 392.183 179.411 402.592C204.253 427.365 237.436 443.729 274.631 446.774C278.87 447.138 283.291 447.365 287.758 447.365H800.961C835.238 451.638 862.04 480.865 862.04 516.229Z"
      fill="#E6ECF2"
      fill-opacity="0.1" opacity="0.8"/>
    <path d="M64.8223 671.183L255.535 674.319L152.612 809.774L64.8223 671.183Z" fill="#E6ECF2" fill-opacity="0.1"
          opacity="0.8"/>
  </g>
  <path
    d="M282.795 310.52C283.395 310.52 283.895 311 283.895 311.6C283.895 312.2 283.395 312.7 282.795 312.7C282.195 312.7 281.695 312.2 281.695 311.6C281.695 311 282.195 310.52 282.795 310.52ZM285.855 310.52C286.455 310.52 286.955 311 286.955 311.6C286.955 312.2 286.455 312.7 285.855 312.7C285.255 312.7 284.755 312.2 284.755 311.6C284.755 311 285.255 310.52 285.855 310.52ZM291.675 312.7V320.28C291.675 321.24 290.895 322 289.955 322H280.875C278.715 322 276.935 320.24 276.935 318.1V314.8H278.695V318.1C278.695 319.32 279.655 320.28 280.875 320.28H289.515C289.755 320.28 289.935 320.1 289.935 319.86V312.7H291.675ZM294.769 322V308H296.489V322H294.769ZM303.121 321.8C303.121 324.94 301.181 326.48 298.701 326.7L298.081 325.06C300.121 324.82 301.421 324.1 301.421 321.8V312.68H303.121V321.8ZM310.054 322H309.114C307.514 322 306.214 320.7 306.214 319.08V308H307.934V319.08C307.934 319.74 308.474 320.28 309.134 320.28H310.054V322ZM317.503 320.28C317.963 320.28 318.363 320.64 318.363 321.12C318.363 321.62 317.963 322 317.483 322H316.143C315.123 322 314.243 321.5 313.703 320.76C313.183 321.5 312.323 322 311.343 322H309.843C309.343 322 308.963 321.64 308.963 321.14C308.963 320.64 309.343 320.28 309.843 320.28H311.163C312.023 320.28 312.743 319.56 312.743 318.68V314.36H314.463V318.7C314.523 319.58 315.263 320.28 316.143 320.28H317.503ZM311.903 324C312.503 324 313.003 324.48 313.003 325.08C313.003 325.68 312.503 326.18 311.903 326.18C311.303 326.18 310.803 325.68 310.803 325.08C310.803 324.48 311.303 324 311.903 324ZM315.023 324C315.643 324 316.143 324.48 316.143 325.08C316.143 325.68 315.643 326.18 315.023 326.18C314.443 326.18 313.943 325.68 313.943 325.08C313.943 324.48 314.443 324 315.023 324ZM336.461 320.3C336.921 320.3 337.321 320.68 337.321 321.14C337.321 321.62 336.921 322 336.461 322H335.121C334.101 322 333.221 321.4 332.821 320.6C332.181 321.44 331.121 322 329.941 322C328.521 322 327.461 321.3 326.901 320.34C326.201 321.4 325.121 322 323.741 322C322.881 322 321.701 321.66 320.981 320.62C320.561 321.42 319.701 322 318.701 322H317.421C316.941 322 316.561 321.62 316.561 321.14C316.561 320.68 316.941 320.3 317.421 320.3H318.701C319.381 320.3 319.941 319.74 319.941 319.06V314.56H321.641V318.2C321.641 319.38 322.581 320.3 323.821 320.3C325.141 320.3 326.061 319.34 326.061 318.14V314.56H327.761V318.2C327.761 319.38 328.661 320.28 329.941 320.28C331.261 320.28 332.181 319.34 332.181 318.14V312.66H333.881V319.06C333.881 319.74 334.421 320.3 335.121 320.3H336.461ZM336.366 322C335.906 322 335.526 321.62 335.526 321.14C335.526 320.68 335.906 320.28 336.366 320.28H337.586C338.246 320.28 338.806 319.74 338.806 319.08V308.06H340.506V319.08C340.506 320.7 339.206 322 337.606 322H336.366ZM344.105 322V308H345.825V322H344.105ZM356.949 321.8C356.949 324.94 355.009 326.48 352.529 326.7L351.909 325.06C353.949 324.82 355.249 324.1 355.249 321.8V312.68H356.949V321.8ZM363.882 322H362.942C361.342 322 360.042 320.7 360.042 319.08V308H361.762V319.08C361.762 319.74 362.302 320.28 362.962 320.28H363.882V322ZM371.331 320.28C371.791 320.28 372.191 320.64 372.191 321.12C372.191 321.62 371.791 322 371.311 322H369.971C368.951 322 368.071 321.5 367.531 320.76C367.011 321.5 366.151 322 365.171 322H363.671C363.171 322 362.791 321.64 362.791 321.14C362.791 320.64 363.171 320.28 363.671 320.28H364.991C365.851 320.28 366.571 319.56 366.571 318.68V314.36H368.291V318.7C368.351 319.58 369.091 320.28 369.971 320.28H371.331ZM365.731 324C366.331 324 366.831 324.48 366.831 325.08C366.831 325.68 366.331 326.18 365.731 326.18C365.131 326.18 364.631 325.68 364.631 325.08C364.631 324.48 365.131 324 365.731 324ZM368.851 324C369.471 324 369.971 324.48 369.971 325.08C369.971 325.68 369.471 326.18 368.851 326.18C368.271 326.18 367.771 325.68 367.771 325.08C367.771 324.48 368.271 324 368.851 324ZM376.629 308.68C377.229 308.68 377.729 309.16 377.729 309.76C377.729 310.36 377.229 310.86 376.629 310.86C376.029 310.86 375.529 310.36 375.529 309.76C375.529 309.16 376.029 308.68 376.629 308.68ZM381.349 320.28V322H371.089V320.3H373.709C372.929 319.7 372.409 318.8 372.409 317.74L372.429 316.78C372.509 314.44 374.449 312.58 376.769 312.58C378.629 312.58 380.369 313.84 380.729 315.56L379.449 316.6C379.249 315.38 378.249 314.3 376.769 314.3C375.369 314.3 374.209 315.4 374.149 316.8L374.129 317.72C374.129 319.16 375.309 320.28 376.769 320.28H381.349ZM400.749 320.28V322H392.109C390.909 322 389.969 322.98 389.969 324.16C389.969 325.32 390.909 326.3 392.109 326.3H396.969V328.02H392.109C389.969 328.02 388.229 326.3 388.229 324.16C388.229 321.84 389.869 320.4 391.569 320.32L392.329 320.3L390.229 315.36L390.769 313.78C392.529 312.74 394.529 312.28 396.229 312.62C398.169 313 399.529 314.8 399.329 316.76C399.189 317.9 398.609 319.5 397.209 320.28H400.749ZM392.269 314.94L392.109 315.5L394.209 320.18C396.789 319.82 397.509 317.54 397.609 316.58C397.729 315.5 396.969 314.52 395.909 314.3C394.409 314 392.809 314.7 392.269 314.94ZM416.429 320.28H418.949V322H400.249V320.28H402.929V308.06H404.629V314.48L410.009 312.84C412.229 312.16 414.649 313.04 415.749 314.92C416.209 315.68 416.429 316.56 416.429 317.44V320.28ZM414.309 320.28C414.549 320.28 414.729 320.1 414.729 319.86V317.44C414.729 316.86 414.589 316.28 414.269 315.78C413.589 314.56 412.009 314.04 410.529 314.46L404.629 316.26V320.28H414.309ZM423.53 308.62C424.15 308.62 424.65 309.12 424.65 309.7C424.65 310.32 424.15 310.8 423.53 310.8C422.95 310.8 422.45 310.32 422.45 309.7C422.45 309.12 422.95 308.62 423.53 308.62ZM426.63 308.62C427.25 308.62 427.75 309.12 427.75 309.7C427.75 310.32 427.25 310.8 426.63 310.8C426.05 310.8 425.55 310.32 425.55 309.7C425.55 309.12 426.05 308.62 426.63 308.62ZM424.57 312.6H428.89V320.66C428.89 321.4 428.31 322 427.57 322H418.55V320.28H421.49C420.69 319.7 420.17 318.68 420.17 317.56V316.84C420.17 314.44 422.17 312.6 424.57 312.6ZM427.19 319.96V314.22H424.57C423.07 314.22 421.85 315.44 421.85 316.96V317.62C421.87 319.1 423.09 320.28 424.57 320.28H426.87C427.05 320.28 427.19 320.14 427.19 319.96ZM452.288 320.28C452.748 320.28 453.168 320.62 453.168 321.12C453.168 321.6 452.748 322 452.288 322C451.528 322 450.828 321.92 450.088 321.76C450.468 322.16 450.668 322.72 450.668 323.28C450.668 325.3 449.028 326.92 447.028 326.92H440.808C437.928 326.92 435.588 324.6 435.588 321.72V318.38H437.308V321.72C437.308 323.66 438.888 325.22 440.808 325.22H447.028C448.068 325.22 448.948 324.34 448.948 323.28C448.948 322.38 448.388 321.56 447.488 321.26L444.668 320.12L445.408 318.56C447.088 319.26 447.388 319.4 447.708 319.52C449.168 320.02 450.648 320.28 452.288 320.28ZM458.406 320.28C458.866 320.28 459.266 320.64 459.266 321.12C459.266 321.62 458.866 322 458.386 322H457.786C456.766 322 455.886 321.5 455.346 320.76C454.826 321.5 453.966 322 452.986 322H452.246C451.746 322 451.366 321.64 451.366 321.14C451.366 320.64 451.746 320.28 452.246 320.28H452.806C453.666 320.28 454.386 319.56 454.386 318.68V308.06H456.106V318.7C456.166 319.58 456.906 320.28 457.786 320.28H458.406ZM468.359 320.28V322H458.159V320.3H460.779C459.999 319.82 459.479 318.92 459.479 317.84L459.499 316.8C459.579 314.46 461.519 312.6 463.839 312.6C465.699 312.6 467.439 313.86 467.799 315.58L466.519 316.62C466.319 315.4 465.319 314.32 463.839 314.32C462.439 314.32 461.279 315.42 461.219 316.82L461.199 317.82C461.199 319.28 462.379 320.28 463.839 320.28H468.359ZM479.039 321.8C479.039 324.94 477.099 326.48 474.619 326.7L473.999 325.06C476.039 324.82 477.339 324.1 477.339 321.8V312.68H479.039V321.8ZM491.832 320.28V322H490.072C490.072 323.34 489.612 324.44 488.692 325.28C487.292 326.6 485.632 326.88 482.572 326.88V325.18C484.172 325.18 486.272 325.22 487.552 324.04C487.972 323.64 488.232 323.08 488.292 322.38L488.312 322H485.872C483.292 322 481.332 319.88 481.332 317.28C481.332 314.66 483.292 312.6 485.872 312.6H490.072V320.28H491.832ZM488.352 320.28V314.32H485.872C484.232 314.32 483.032 315.6 483.032 317.28C483.032 318.94 484.232 320.28 485.872 320.28H488.352ZM495.181 307.4C495.781 307.4 496.281 307.9 496.281 308.48C496.281 309.1 495.781 309.58 495.181 309.58C494.581 309.58 494.081 309.1 494.081 308.48C494.081 307.9 494.581 307.4 495.181 307.4ZM493.661 310.22C494.281 310.22 494.781 310.72 494.781 311.3C494.781 311.92 494.281 312.4 493.661 312.4C493.081 312.4 492.581 311.92 492.581 311.3C492.581 310.72 493.081 310.22 493.661 310.22ZM496.721 310.22C497.341 310.22 497.841 310.72 497.841 311.3C497.841 311.92 497.341 312.4 496.721 312.4C496.141 312.4 495.641 311.92 495.641 311.3C495.641 310.72 496.141 310.22 496.721 310.22ZM498.881 320.28C499.341 320.28 499.741 320.64 499.741 321.12C499.741 321.62 499.341 322 498.861 322H497.921C496.901 322 496.021 321.5 495.481 320.76C494.961 321.5 494.101 322 493.121 322H491.621C491.121 322 490.741 321.64 490.741 321.14C490.741 320.64 491.121 320.28 491.621 320.28H492.941C493.801 320.28 494.521 319.56 494.521 318.68V314.5H496.241V318.7C496.301 319.58 497.041 320.28 497.921 320.28H498.881ZM498.748 322V320.28H502.008L499.868 315.36L500.408 313.78C502.168 312.74 504.188 312.28 505.868 312.62C507.808 313 509.168 314.8 508.968 316.76C508.848 317.9 508.268 319.5 506.848 320.28H510.248V321.98L498.748 322ZM501.748 315.5L503.868 320.18C506.448 319.82 507.168 317.54 507.248 316.58C507.368 315.5 506.608 314.52 505.568 314.3C504.068 314 502.468 314.7 501.908 314.94L501.748 315.5ZM516.316 320.28C516.776 320.28 517.176 320.64 517.176 321.12C517.176 321.62 516.776 322 516.296 322H515.696C514.676 322 513.796 321.5 513.256 320.76C512.736 321.5 511.876 322 510.896 322H510.156C509.656 322 509.276 321.64 509.276 321.14C509.276 320.64 509.656 320.28 510.156 320.28H510.716C511.576 320.28 512.296 319.56 512.296 318.68V308.06H514.016V318.7C514.076 319.58 514.816 320.28 515.696 320.28H516.316ZM516.21 322C515.75 322 515.37 321.62 515.37 321.14C515.37 320.68 515.75 320.28 516.21 320.28H517.43C518.09 320.28 518.65 319.74 518.65 319.08V308.06H520.35V319.08C520.35 320.7 519.05 322 517.45 322H516.21ZM531.361 308.74C531.961 308.74 532.461 309.22 532.461 309.82C532.461 310.42 531.961 310.92 531.361 310.92C530.761 310.92 530.261 310.42 530.261 309.82C530.261 309.22 530.761 308.74 531.361 308.74ZM534.421 308.74C535.021 308.74 535.521 309.22 535.521 309.82C535.521 310.42 535.021 310.92 534.421 310.92C533.821 310.92 533.321 310.42 533.321 309.82C533.321 309.22 533.821 308.74 534.421 308.74ZM539.221 320.28C539.701 320.28 540.061 320.66 540.081 321.14C540.081 321.6 539.701 321.98 539.221 322H538.221C537.001 322 535.921 321.28 535.421 320.22C534.721 321.28 533.481 322 532.081 322C529.661 322 527.641 320.06 527.641 317.68V316.94C527.641 314.4 529.561 312.6 532.081 312.6H536.541V318.6C536.541 319.56 537.201 320.28 538.221 320.28H539.221ZM532.081 320.28C533.601 320.28 534.821 319.06 534.821 317.52V314.34L532.081 314.3C530.621 314.3 529.341 315.36 529.341 316.94V317.6C529.341 319.1 530.581 320.28 532.081 320.28ZM546.722 320.28C547.182 320.28 547.582 320.64 547.582 321.12C547.582 321.62 547.182 322 546.702 322H545.362C544.342 322 543.462 321.5 542.922 320.76C542.402 321.5 541.542 322 540.562 322H539.062C538.562 322 538.182 321.64 538.182 321.14C538.182 320.64 538.562 320.28 539.062 320.28H540.382C541.242 320.28 541.962 319.56 541.962 318.68V314.36H543.682V318.7C543.742 319.58 544.482 320.28 545.362 320.28H546.722ZM541.122 324C541.722 324 542.222 324.48 542.222 325.08C542.222 325.68 541.722 326.18 541.122 326.18C540.522 326.18 540.022 325.68 540.022 325.08C540.022 324.48 540.522 324 541.122 324ZM544.242 324C544.862 324 545.362 324.48 545.362 325.08C545.362 325.68 544.862 326.18 544.242 326.18C543.662 326.18 543.162 325.68 543.162 325.08C543.162 324.48 543.662 324 544.242 324ZM546.62 322C546.16 322 545.78 321.62 545.78 321.14C545.78 320.68 546.16 320.28 546.62 320.28H547.84C548.5 320.28 549.06 319.74 549.06 319.08V308.06H550.76V319.08C550.76 320.7 549.46 322 547.86 322H546.62ZM558.199 322H557.259C555.659 322 554.359 320.7 554.359 319.08V308H556.079V319.08C556.079 319.74 556.619 320.28 557.279 320.28H558.199V322ZM561.548 307.4C562.148 307.4 562.648 307.9 562.648 308.48C562.648 309.1 562.148 309.58 561.548 309.58C560.948 309.58 560.448 309.1 560.448 308.48C560.448 307.9 560.948 307.4 561.548 307.4ZM560.028 310.22C560.648 310.22 561.148 310.72 561.148 311.3C561.148 311.92 560.648 312.4 560.028 312.4C559.448 312.4 558.948 311.92 558.948 311.3C558.948 310.72 559.448 310.22 560.028 310.22ZM563.088 310.22C563.708 310.22 564.208 310.72 564.208 311.3C564.208 311.92 563.708 312.4 563.088 312.4C562.508 312.4 562.008 311.92 562.008 311.3C562.008 310.72 562.508 310.22 563.088 310.22ZM565.248 320.28C565.708 320.28 566.108 320.64 566.108 321.12C566.108 321.62 565.708 322 565.228 322H564.288C563.268 322 562.388 321.5 561.848 320.76C561.328 321.5 560.468 322 559.488 322H557.988C557.488 322 557.108 321.64 557.108 321.14C557.108 320.64 557.488 320.28 557.988 320.28H559.308C560.168 320.28 560.888 319.56 560.888 318.68V314.5H562.608V318.7C562.668 319.58 563.408 320.28 564.288 320.28H565.248ZM578.515 320.28C578.995 320.28 579.375 320.66 579.375 321.14C579.375 321.6 578.995 322 578.515 322H577.775C576.595 322 575.615 321.28 575.255 320.28C574.555 321.32 573.355 322 571.995 322C570.515 322 569.315 321.32 568.575 320.22C568.075 321.28 567.015 322 565.775 322H564.995C564.515 321.98 564.135 321.6 564.135 321.14C564.135 320.68 564.515 320.28 564.995 320.28H565.775C566.735 320.28 567.455 319.58 567.455 318.6V312.6H571.995C574.395 312.6 576.355 314.5 576.395 316.9V318.9C576.395 319.66 577.015 320.28 577.775 320.28H578.515ZM574.675 317.58V316.92C574.635 315.42 573.475 314.3 571.855 314.3H569.195V317.64C569.195 319.12 570.415 320.3 571.875 320.28C573.535 320.28 574.675 319.08 574.675 317.58ZM578.319 322C577.859 322 577.479 321.62 577.479 321.14C577.479 320.68 577.859 320.28 578.319 320.28H579.539C580.199 320.28 580.759 319.74 580.759 319.08V308.06H582.459V319.08C582.459 320.7 581.159 322 579.559 322H578.319ZM586.058 322V308H587.778V322H586.058ZM609.343 320.28H611.423V322H599.503C597.103 322 595.163 320.06 595.163 317.68V314.76H596.863V317.68C596.863 319.12 598.063 320.3 599.503 320.3H605.863V320.28H607.163C607.423 320.22 607.643 319.96 607.643 319.68V308.06H609.343V320.28ZM604.223 312.76V313.66H600.423V312.76H601.103C600.903 312.5 600.763 312.16 600.783 311.8C600.863 310.84 601.603 310.12 602.543 310.12C603.403 310.12 604.062 310.7 604.263 311.46L603.523 311.92C603.383 311.4 603.063 311.06 602.543 311.06C602.063 311.06 601.723 311.4 601.723 311.9C601.723 312.28 601.983 312.76 602.543 312.76H604.223ZM613.19 310.2C613.81 310.2 614.31 310.7 614.31 311.28C614.31 311.9 613.81 312.38 613.19 312.38C612.61 312.38 612.11 311.9 612.11 311.28C612.11 310.7 612.61 310.2 613.19 310.2ZM616.25 310.2C616.87 310.2 617.37 310.7 617.37 311.28C617.37 311.9 616.87 312.38 616.25 312.38C615.67 312.38 615.17 311.9 615.17 311.28C615.17 310.7 615.67 310.2 616.25 310.2ZM618.29 320.28C618.75 320.28 619.15 320.64 619.15 321.12C619.15 321.62 618.75 322 618.27 322H617.33C616.33 322 615.43 321.5 614.89 320.76C614.37 321.5 613.51 322 612.53 322H611.21C610.71 322 610.33 321.64 610.33 321.14C610.33 320.64 610.71 320.28 611.21 320.28H612.35C613.21 320.28 613.93 319.56 613.93 318.68V314.5H615.65V318.7C615.71 319.58 616.45 320.28 617.33 320.28H618.29ZM628.682 320.28H631.362V322H629.322V322.36C629.322 324.78 627.502 326.48 624.742 326.48C622.342 326.48 620.362 324.68 620.062 322.36L620.042 322H618.042V320.3H619.982V317.56C619.982 314.98 621.962 312.82 624.402 312.7C625.682 312.64 626.882 313.1 627.822 313.98C628.742 314.86 629.262 316.08 629.262 317.34C629.242 320.04 627.022 322 623.982 322H621.802L621.842 322.32C622.042 323.72 623.262 324.8 624.742 324.8C626.422 324.8 627.642 323.56 627.642 322.02V321.34C627.642 320.74 628.162 320.28 628.682 320.28ZM621.682 317.56V320.3H623.982C625.582 320.3 627.562 319.32 627.562 317.32C627.562 316.52 627.262 315.74 626.662 315.2C626.082 314.62 625.302 314.38 624.482 314.42C622.942 314.48 621.682 315.9 621.682 317.56ZM642.792 322H631.132C630.672 322 630.272 321.62 630.272 321.14C630.272 320.66 630.672 320.28 631.132 320.28H640.352C639.932 320.04 639.632 319.56 639.632 318.98V318.28C639.632 316.84 639.172 315.8 638.332 315.16C636.632 313.84 633.932 314.36 632.792 314.74L632.132 313.18C633.872 312.52 637.112 312.1 639.372 313.8C640.412 314.58 641.312 315.98 641.312 318.2V318.98C641.312 319.74 641.792 320.28 642.492 320.28H642.792V322ZM636.512 323.86C637.132 323.86 637.632 324.36 637.632 324.94C637.632 325.56 637.132 326.04 636.512 326.04C635.932 326.04 635.432 325.56 635.432 324.94C635.432 324.36 635.932 323.86 636.512 323.86ZM653.705 312.6V321.96C653.705 323.32 653.245 324.44 652.325 325.28C650.925 326.6 649.265 326.88 646.205 326.88V325.18C647.805 325.18 649.905 325.22 651.185 324.04C651.605 323.64 651.865 323.08 651.925 322.38L651.945 322H649.505C646.925 322 644.965 319.88 644.965 317.28C644.965 314.66 646.925 312.6 649.505 312.6H653.705ZM649.505 320.28H651.985V314.32H649.505C647.865 314.32 646.665 315.6 646.665 317.28C646.665 318.94 647.865 320.28 649.505 320.28ZM417.925 346.06C417.805 345.4 418.125 344.9 418.785 344.78C419.445 344.66 419.945 344.98 420.065 345.64C420.185 346.3 419.865 346.8 419.205 346.92C418.545 347.06 418.045 346.72 417.925 346.06ZM425.444 333.74C426.044 333.74 426.544 334.22 426.544 334.82C426.544 335.42 426.044 335.92 425.444 335.92C424.844 335.92 424.344 335.42 424.344 334.82C424.344 334.22 424.844 333.74 425.444 333.74ZM428.504 333.74C429.104 333.74 429.604 334.22 429.604 334.82C429.604 335.42 429.104 335.92 428.504 335.92C427.904 335.92 427.404 335.42 427.404 334.82C427.404 334.22 427.904 333.74 428.504 333.74ZM422.524 337.6L426.944 337.58C429.364 337.58 431.244 339.48 431.244 341.86V342.66C431.244 345.06 429.364 346.98 426.944 347C424.484 347.02 422.524 345.22 422.524 342.82V337.6ZM426.944 345.28C428.464 345.28 429.564 344.14 429.564 342.64V341.94C429.564 340.48 428.384 339.3 426.944 339.3H424.224V342.76C424.224 344.4 425.564 345.28 426.944 345.28ZM442.648 345.28V347H433.048V345.3H435.408C434.628 344.7 434.108 343.8 434.108 342.74V342.12C434.108 339.78 436.108 337.9 438.428 337.9C439.588 337.9 440.648 338.4 441.408 339.2C441.868 339.68 442.208 340.26 442.388 340.88L440.908 341.72C440.848 341.3 440.668 340.9 440.408 340.58C439.928 339.96 439.228 339.62 438.428 339.62C437.028 339.62 435.848 340.72 435.848 342.16V342.72C435.848 344.16 437.048 345.28 438.488 345.28H442.648ZM449.781 347H448.841C447.241 347 445.941 345.7 445.941 344.08V333H447.661V344.08C447.661 344.74 448.201 345.28 448.861 345.28H449.781V347ZM455.55 335.8C454.97 335.8 454.47 335.32 454.47 334.7C454.47 334.12 454.97 333.62 455.55 333.62C456.17 333.62 456.67 334.12 456.67 334.7C456.67 335.32 456.17 335.8 455.55 335.8ZM459.59 345.28H461.85V347H449.45V345.28H452.37C451.55 344.7 451.03 343.72 451.03 342.58V341.92C451.03 339.52 453.03 337.58 455.43 337.58C457.81 337.56 459.75 339.54 459.75 341.92V344.76C459.75 344.98 459.69 345.24 459.59 345.28ZM457.73 345.28C457.91 345.28 458.05 345.14 458.05 344.94V341.92C458.05 340.48 456.89 339.3 455.43 339.3C453.93 339.3 452.71 340.48 452.71 342V342.64C452.71 344.12 453.95 345.28 455.43 345.28H457.73ZM469.019 337.58C471.739 337.58 473.959 339.8 473.959 342.54V345.78C473.959 346.44 473.419 347 472.759 347H461.519V345.28H471.819C472.059 345.28 472.259 345.08 472.259 344.84V342.66C472.259 340.8 470.739 339.3 468.899 339.3H464.019L462.779 337.4L466.859 331.74L468.259 332.74L464.739 337.58H469.019ZM484.994 337.6V346.96C484.994 348.32 484.534 349.44 483.614 350.28C482.214 351.6 480.554 351.88 477.494 351.88V350.18C479.094 350.18 481.194 350.22 482.474 349.04C482.894 348.64 483.154 348.08 483.214 347.38L483.234 347H480.794C478.214 347 476.254 344.88 476.254 342.28C476.254 339.66 478.214 337.6 480.794 337.6H484.994ZM480.794 345.28H483.274V339.32H480.794C479.154 339.32 477.954 340.6 477.954 342.28C477.954 343.94 479.154 345.28 480.794 345.28ZM495.501 333.74C496.101 333.74 496.601 334.22 496.601 334.82C496.601 335.42 496.101 335.92 495.501 335.92C494.901 335.92 494.401 335.42 494.401 334.82C494.401 334.22 494.901 333.74 495.501 333.74ZM498.561 333.74C499.161 333.74 499.661 334.22 499.661 334.82C499.661 335.42 499.161 335.92 498.561 335.92C497.961 335.92 497.461 335.42 497.461 334.82C497.461 334.22 497.961 333.74 498.561 333.74ZM503.361 345.28C503.841 345.28 504.201 345.66 504.221 346.14C504.221 346.6 503.841 346.98 503.361 347H502.361C501.141 347 500.061 346.28 499.561 345.22C498.861 346.28 497.621 347 496.221 347C493.801 347 491.781 345.06 491.781 342.68V341.94C491.781 339.4 493.701 337.6 496.221 337.6H500.681V343.6C500.681 344.56 501.341 345.28 502.361 345.28H503.361ZM496.221 345.28C497.741 345.28 498.961 344.06 498.961 342.52V339.34L496.221 339.3C494.761 339.3 493.481 340.36 493.481 341.94V342.6C493.481 344.1 494.721 345.28 496.221 345.28ZM513.223 345.28V347H503.023V345.3H505.643C504.863 344.82 504.343 343.92 504.343 342.84L504.363 341.8C504.443 339.46 506.383 337.6 508.703 337.6C510.563 337.6 512.303 338.86 512.663 340.58L511.383 341.62C511.183 340.4 510.183 339.32 508.703 339.32C507.303 339.32 506.143 340.42 506.083 341.82L506.063 342.82C506.063 344.28 507.243 345.28 508.703 345.28H513.223ZM521.99 345.28C522.47 345.28 522.85 345.66 522.85 346.14C522.85 346.62 522.47 347 521.99 347H521.31C520.47 347 519.69 346.62 519.27 346.04V347.18C519.13 349.98 517.19 351.3 514.99 351.72L514.37 350.1C516.07 349.76 517.57 349.02 517.57 346.8V337.68H519.27V343.26C519.27 344.38 520.19 345.28 521.31 345.28H521.99ZM540.953 345.3C541.413 345.3 541.813 345.68 541.813 346.14C541.813 346.62 541.413 347 540.953 347H539.613C538.593 347 537.713 346.4 537.313 345.6C536.673 346.44 535.613 347 534.433 347C533.013 347 531.953 346.3 531.393 345.34C530.693 346.4 529.613 347 528.233 347C527.373 347 526.193 346.66 525.473 345.62C525.053 346.42 524.193 347 523.193 347H521.913C521.433 347 521.053 346.62 521.053 346.14C521.053 345.68 521.433 345.3 521.913 345.3H523.193C523.873 345.3 524.433 344.74 524.433 344.06V339.56H526.133V343.2C526.133 344.38 527.073 345.3 528.313 345.3C529.633 345.3 530.553 344.34 530.553 343.14V339.56H532.253V343.2C532.253 344.38 533.153 345.28 534.433 345.28C535.753 345.28 536.673 344.34 536.673 343.14V337.66H538.373V344.06C538.373 344.74 538.913 345.3 539.613 345.3H540.953ZM542.558 347H540.898C540.418 347 540.018 346.6 540.018 346.14C540.018 345.64 540.418 345.28 540.898 345.28H542.558C543.298 345.28 543.838 344.72 543.838 344V337.6H545.558V344C545.558 345.64 544.218 347 542.558 347ZM542.098 350.08C542.098 349.48 542.598 349 543.198 349C543.798 349 544.298 349.48 544.298 350.08C544.298 350.68 543.798 351.18 543.198 351.18C542.598 351.18 542.098 350.68 542.098 350.08ZM556.792 347H555.852C554.252 347 552.952 345.7 552.952 344.08V333H554.672V344.08C554.672 344.74 555.212 345.28 555.872 345.28H556.792V347ZM567.042 345.28H569.722V347H567.682V347.36C567.682 349.78 565.862 351.48 563.102 351.48C560.702 351.48 558.722 349.68 558.422 347.36L558.402 347H556.402V345.3H558.342V342.56C558.342 339.98 560.322 337.82 562.762 337.7C564.042 337.64 565.242 338.1 566.182 338.98C567.102 339.86 567.622 341.08 567.622 342.34C567.602 345.04 565.382 347 562.342 347H560.162L560.202 347.32C560.402 348.72 561.622 349.8 563.102 349.8C564.782 349.8 566.002 348.56 566.002 347.02V346.34C566.002 345.74 566.522 345.28 567.042 345.28ZM560.042 342.56V345.3H562.342C563.942 345.3 565.922 344.32 565.922 342.32C565.922 341.52 565.622 340.74 565.022 340.2C564.442 339.62 563.662 339.38 562.842 339.42C561.302 339.48 560.042 340.9 560.042 342.56ZM581.151 347H569.491C569.031 347 568.631 346.62 568.631 346.14C568.631 345.66 569.031 345.28 569.491 345.28H578.711C578.291 345.04 577.991 344.56 577.991 343.98V343.28C577.991 341.84 577.531 340.8 576.691 340.16C574.991 338.84 572.291 339.36 571.151 339.74L570.491 338.18C572.231 337.52 575.471 337.1 577.731 338.8C578.771 339.58 579.671 340.98 579.671 343.2V343.98C579.671 344.74 580.151 345.28 580.851 345.28H581.151V347ZM574.871 348.86C575.491 348.86 575.991 349.36 575.991 349.94C575.991 350.56 575.491 351.04 574.871 351.04C574.291 351.04 573.791 350.56 573.791 349.94C573.791 349.36 574.291 348.86 574.871 348.86ZM587.964 347H587.024C585.424 347 584.124 345.7 584.124 344.08V333H585.844V344.08C585.844 344.74 586.384 345.28 587.044 345.28H587.964V347ZM589.733 335.2C590.353 335.2 590.853 335.7 590.853 336.28C590.853 336.9 590.353 337.38 589.733 337.38C589.153 337.38 588.653 336.9 588.653 336.28C588.653 335.7 589.153 335.2 589.733 335.2ZM592.793 335.2C593.413 335.2 593.913 335.7 593.913 336.28C593.913 336.9 593.413 337.38 592.793 337.38C592.213 337.38 591.713 336.9 591.713 336.28C591.713 335.7 592.213 335.2 592.793 335.2ZM594.833 345.28C595.293 345.28 595.693 345.64 595.693 346.12C595.693 346.62 595.293 347 594.813 347H593.873C592.873 347 591.973 346.5 591.433 345.76C590.913 346.5 590.053 347 589.073 347H587.753C587.253 347 586.873 346.64 586.873 346.14C586.873 345.64 587.253 345.28 587.753 345.28H588.893C589.753 345.28 590.473 344.56 590.473 343.68V339.5H592.193V343.7C592.253 344.58 592.993 345.28 593.873 345.28H594.833ZM607.565 347H594.745C594.285 347 593.885 346.62 593.885 346.14C593.885 345.66 594.285 345.28 594.745 345.28H603.765C603.345 345.04 603.045 344.56 603.045 343.98V343.26C603.045 341.8 602.585 340.76 601.745 340.12C600.065 338.82 597.345 339.32 596.285 339.68L595.685 338.14C597.285 337.46 600.605 337.08 602.785 338.78C603.825 339.56 604.725 340.96 604.725 343.16V343.98C604.725 344.74 605.205 345.28 605.905 345.28H607.565V347ZM609.447 333.68C610.067 333.68 610.567 334.16 610.567 334.76C610.567 335.36 610.067 335.86 609.447 335.86C608.867 335.86 608.367 335.36 608.367 334.76C608.367 334.16 608.867 333.68 609.447 333.68ZM612.507 333.68C613.127 333.68 613.627 334.16 613.627 334.76C613.627 335.36 613.127 335.86 612.507 335.86C611.927 335.86 611.427 335.36 611.427 334.76C611.427 334.16 611.927 333.68 612.507 333.68ZM609.287 347H607.207C606.727 347 606.327 346.6 606.327 346.14C606.327 345.64 606.727 345.28 607.207 345.28H609.307C610.027 345.28 610.587 344.72 610.587 344V337.6H612.307V344C612.307 345.64 610.947 347 609.287 347ZM636.819 345.28C637.279 345.28 637.699 345.62 637.699 346.12C637.699 346.6 637.279 347 636.819 347C636.059 347 635.359 346.92 634.619 346.76C634.999 347.16 635.199 347.72 635.199 348.28C635.199 350.3 633.559 351.92 631.559 351.92H625.339C622.459 351.92 620.119 349.6 620.119 346.72V343.38H621.839V346.72C621.839 348.66 623.419 350.22 625.339 350.22H631.559C632.599 350.22 633.479 349.34 633.479 348.28C633.479 347.38 632.919 346.56 632.019 346.26L629.199 345.12L629.939 343.56C631.619 344.26 631.919 344.4 632.239 344.52C633.699 345.02 635.179 345.28 636.819 345.28ZM626.579 353.3C627.179 353.3 627.679 353.8 627.679 354.38C627.679 355 627.179 355.48 626.579 355.48C625.979 355.48 625.479 355 625.479 354.38C625.479 353.8 625.979 353.3 626.579 353.3ZM629.699 353.3C630.319 353.3 630.819 353.8 630.819 354.38C630.819 355 630.319 355.48 629.699 355.48C629.119 355.48 628.619 355 628.619 354.38C628.619 353.8 629.119 353.3 629.699 353.3ZM638.757 335.2C639.377 335.2 639.877 335.7 639.877 336.28C639.877 336.9 639.377 337.38 638.757 337.38C638.177 337.38 637.677 336.9 637.677 336.28C637.677 335.7 638.177 335.2 638.757 335.2ZM641.817 335.2C642.437 335.2 642.937 335.7 642.937 336.28C642.937 336.9 642.437 337.38 641.817 337.38C641.237 337.38 640.737 336.9 640.737 336.28C640.737 335.7 641.237 335.2 641.817 335.2ZM643.857 345.28C644.317 345.28 644.717 345.64 644.717 346.12C644.717 346.62 644.317 347 643.837 347H642.897C641.897 347 640.997 346.5 640.457 345.76C639.937 346.5 639.077 347 638.097 347H636.777C636.277 347 635.897 346.64 635.897 346.14C635.897 345.64 636.277 345.28 636.777 345.28H637.917C638.777 345.28 639.497 344.56 639.497 343.68V339.5H641.217V343.7C641.277 344.58 642.017 345.28 642.897 345.28H643.857ZM643.749 347C643.289 347 642.909 346.62 642.909 346.14C642.909 345.68 643.289 345.28 643.749 345.28H644.969C645.629 345.28 646.189 344.74 646.189 344.08V333.06H647.889V344.08C647.889 345.7 646.589 347 644.989 347H643.749ZM651.488 347V333H653.208V347H651.488Z"
    fill="#AFAFAF"/>
  <path
    d="M302.355 281.352C299.637 281.352 297.094 280.812 294.727 279.734L296.133 276.289C298.453 277.18 300.428 277.625 302.057 277.625C303.568 277.625 304.734 277.326 305.555 276.729C306.375 276.131 306.785 275.322 306.785 274.303C306.785 274.021 306.756 273.758 306.697 273.512C306.639 273.254 306.533 273.014 306.381 272.791C306.24 272.568 306.105 272.369 305.977 272.193C305.848 272.018 305.648 271.836 305.379 271.648C305.109 271.461 304.887 271.309 304.711 271.191C304.547 271.062 304.283 270.91 303.92 270.734C303.557 270.559 303.281 270.43 303.094 270.348C302.918 270.266 302.613 270.131 302.18 269.943C301.758 269.756 301.465 269.627 301.301 269.557C299.027 268.537 297.41 267.471 296.449 266.357C295.5 265.244 295.025 263.844 295.025 262.156C295.025 259.883 295.781 258.113 297.293 256.848C298.805 255.57 300.891 254.932 303.551 254.932C305.754 254.932 308.209 255.523 310.916 256.707L309.457 260.205C307.02 259.197 305.062 258.693 303.586 258.693C302.273 258.693 301.254 258.98 300.527 259.555C299.801 260.129 299.438 260.896 299.438 261.857C299.438 262.174 299.484 262.473 299.578 262.754C299.672 263.035 299.766 263.275 299.859 263.475C299.965 263.674 300.152 263.891 300.422 264.125C300.691 264.359 300.896 264.541 301.037 264.67C301.189 264.787 301.465 264.951 301.863 265.162C302.273 265.361 302.555 265.502 302.707 265.584C302.859 265.654 303.182 265.801 303.674 266.023C304.178 266.234 304.494 266.369 304.623 266.428C307.084 267.529 308.795 268.631 309.756 269.732C310.717 270.834 311.197 272.205 311.197 273.846C311.197 276.154 310.424 277.982 308.877 279.33C307.342 280.678 305.168 281.352 302.355 281.352ZM315.645 281V255.301H324.047C327.07 255.301 329.273 255.951 330.656 257.252C332.051 258.553 332.748 260.551 332.748 263.246C332.748 265.965 332.045 268.021 330.639 269.416C329.244 270.799 327.047 271.49 324.047 271.49H320.162V281H315.645ZM320.162 267.781H323.73C324.621 267.781 325.359 267.688 325.945 267.5C326.543 267.312 327 267.02 327.316 266.621C327.645 266.211 327.873 265.742 328.002 265.215C328.131 264.688 328.195 264.031 328.195 263.246C328.195 261.723 327.879 260.639 327.246 259.994C326.613 259.338 325.406 259.01 323.625 259.01H320.162V267.781ZM342.557 281V259.045H335.244V255.301H354.422V259.045H347.092V281H342.557ZM372.686 281C369.896 281 367.77 280.326 366.305 278.979C364.84 277.631 364.107 275.756 364.107 273.354C364.107 272.369 364.236 271.473 364.494 270.664C364.764 269.844 365.127 269.164 365.584 268.625C366.041 268.086 366.551 267.623 367.113 267.236C367.688 266.838 368.309 266.533 368.977 266.322C369.645 266.1 370.283 265.941 370.893 265.848C371.502 265.754 372.111 265.707 372.721 265.707C375.252 265.707 377.777 266.316 380.297 267.535V277.256H382.688C382.77 277.256 382.834 277.291 382.881 277.361C382.986 277.49 383.039 278.076 383.039 279.119C383.039 280.139 383.01 280.713 382.951 280.842C382.893 280.947 382.805 281 382.688 281H372.686ZM368.027 262.789V258.816H372V262.789H368.027ZM368.59 273.371C368.59 274.555 368.971 275.498 369.732 276.201C370.494 276.904 371.584 277.256 373.002 277.256H375.832V269.996C374.836 269.562 373.857 269.346 372.896 269.346C372.393 269.346 371.895 269.422 371.402 269.574C370.922 269.715 370.465 269.938 370.031 270.242C369.598 270.547 369.246 270.969 368.977 271.508C368.719 272.047 368.59 272.668 368.59 273.371ZM373.617 262.789V258.816H377.59V262.789H373.617ZM382.688 281C382.57 281 382.482 280.947 382.424 280.842C382.365 280.713 382.336 280.139 382.336 279.119C382.336 278.076 382.389 277.49 382.494 277.361C382.541 277.291 382.605 277.256 382.688 277.256H385.781V265.707H390.299V269.363C391.564 267.992 392.965 266.932 394.5 266.182C396.035 265.42 397.594 265.039 399.176 265.039C400.301 265.039 401.361 265.209 402.357 265.549C403.365 265.877 404.25 266.357 405.012 266.99C405.785 267.623 406.395 268.438 406.84 269.434C407.285 270.418 407.508 271.52 407.508 272.738C407.508 274.461 407.051 275.967 406.137 277.256H409.529C409.611 277.256 409.676 277.291 409.723 277.361C409.828 277.49 409.881 278.076 409.881 279.119C409.881 280.139 409.852 280.713 409.793 280.842C409.746 280.947 409.658 281 409.529 281H382.688ZM390.299 277.256H396.926C397.629 277.256 398.32 277.174 399 277.01C399.691 276.846 400.342 276.605 400.951 276.289C401.561 275.961 402.053 275.504 402.428 274.918C402.803 274.332 402.99 273.664 402.99 272.914C402.99 271.672 402.568 270.676 401.725 269.926C400.893 269.164 399.715 268.783 398.191 268.783C396.75 268.783 395.273 269.299 393.762 270.33C392.262 271.361 391.107 272.639 390.299 274.162V277.256ZM409.547 281C409.43 281 409.342 280.947 409.283 280.842C409.225 280.713 409.195 280.139 409.195 279.119C409.195 278.076 409.248 277.49 409.354 277.361C409.4 277.291 409.465 277.256 409.547 277.256H411.621C412.512 277.256 413.162 277.01 413.572 276.518C413.982 276.025 414.188 275.234 414.188 274.145V265.707H418.723V274.074C418.723 275.117 418.875 275.908 419.18 276.447C419.496 276.986 420.023 277.256 420.762 277.256H422.643C422.713 277.256 422.771 277.291 422.818 277.361C422.924 277.49 422.977 278.076 422.977 279.119C422.977 280.139 422.947 280.713 422.889 280.842C422.83 280.947 422.748 281 422.643 281H420.973C419.449 281 418.271 280.414 417.439 279.242C416.502 280.414 415.137 281 413.344 281H409.547ZM414.205 262.754V258.746H418.723V262.754H414.205ZM433.91 281C431.707 281 429.861 280.402 428.373 279.207C427.154 280.402 425.479 281 423.346 281H422.625C422.508 281 422.42 280.947 422.361 280.842C422.303 280.713 422.273 280.139 422.273 279.119C422.273 278.076 422.326 277.49 422.432 277.361C422.479 277.291 422.543 277.256 422.625 277.256H423.398C424.125 277.256 424.658 277.068 424.998 276.693C425.338 276.318 425.508 275.703 425.508 274.848V273.213C425.508 272.521 425.607 271.818 425.807 271.104C426.018 270.389 426.346 269.686 426.791 268.994C427.248 268.303 427.799 267.688 428.443 267.148C429.088 266.609 429.891 266.176 430.852 265.848C431.824 265.52 432.885 265.355 434.033 265.355C435.182 265.355 436.236 265.525 437.197 265.865C438.17 266.193 438.979 266.627 439.623 267.166C440.279 267.693 440.83 268.303 441.275 268.994C441.732 269.686 442.061 270.389 442.26 271.104C442.471 271.807 442.576 272.498 442.576 273.178V281H433.91ZM431.15 270.312C430.412 271.109 430.043 272.082 430.043 273.23C430.043 274.379 430.43 275.34 431.203 276.113C431.988 276.875 433.02 277.256 434.297 277.256H438.041V273.178C438.041 272.029 437.684 271.062 436.969 270.277C436.254 269.492 435.275 269.1 434.033 269.1C432.861 269.1 431.9 269.504 431.15 270.312ZM478.91 281V273.494C478.91 272.053 478.611 270.963 478.014 270.225C477.416 269.475 476.555 269.1 475.43 269.1C475.055 269.1 474.68 269.141 474.305 269.223V284.164H463.723C460.559 284.164 458.127 283.385 456.428 281.826C454.74 280.279 453.896 278.164 453.896 275.48C453.896 274.836 454.02 273.857 454.266 272.545C454.512 271.221 454.811 270.096 455.162 269.17L459.451 270.066C459.123 270.957 458.865 271.941 458.678 273.02C458.502 274.098 458.414 274.982 458.414 275.674C458.414 277.361 458.871 278.574 459.785 279.312C460.699 280.051 462.012 280.42 463.723 280.42H469.77V266.533C472.02 265.748 473.924 265.355 475.482 265.355C477.92 265.355 479.854 266.1 481.283 267.588C482.713 269.076 483.428 271.045 483.428 273.494V277.256H485.484C485.566 277.256 485.631 277.291 485.678 277.361C485.783 277.49 485.836 278.076 485.836 279.119C485.836 280.139 485.807 280.713 485.748 280.842C485.689 280.947 485.602 281 485.484 281H478.91ZM462.844 290.826V286.854H466.816V290.826H462.844ZM468.434 290.826V286.854H472.406V290.826H468.434ZM485.484 281C485.367 281 485.279 280.947 485.221 280.842C485.162 280.713 485.133 280.139 485.133 279.119C485.133 278.076 485.186 277.49 485.291 277.361C485.338 277.291 485.402 277.256 485.484 277.256H488.473C487.852 276.107 487.541 274.76 487.541 273.213C487.541 272.229 487.676 271.332 487.945 270.523C488.227 269.715 488.607 269.041 489.088 268.502C489.568 267.963 490.102 267.494 490.688 267.096C491.273 266.697 491.912 266.393 492.604 266.182C493.295 265.971 493.957 265.818 494.59 265.725C495.223 265.619 495.855 265.566 496.488 265.566C498.035 265.566 499.43 265.777 500.672 266.199C501.914 266.621 502.934 267.107 503.73 267.658V281H485.484ZM492.006 273.266C492.006 274.496 492.393 275.469 493.166 276.184C493.939 276.898 495.035 277.256 496.453 277.256H499.266V269.926C498.305 269.48 497.344 269.258 496.383 269.258C495.117 269.258 494.068 269.621 493.236 270.348C492.416 271.074 492.006 272.047 492.006 273.266ZM493.852 262.754V258.746H498.369V262.754H493.852ZM529.623 281C528.475 281 527.426 280.842 526.477 280.525C525.527 280.197 524.73 279.758 524.086 279.207C523.441 278.656 522.908 278.059 522.486 277.414C522.076 276.758 521.76 276.061 521.537 275.322C520.799 275.58 520.26 276.02 519.92 276.641C519.592 277.25 519.486 278 519.604 278.891L521.01 288.928H516.475L515.139 279.383C514.846 277.309 515.291 275.539 516.475 274.074C517.658 272.598 519.322 271.701 521.467 271.385C521.666 270.611 521.977 269.879 522.398 269.188C522.832 268.496 523.377 267.857 524.033 267.271C524.701 266.686 525.527 266.223 526.512 265.883C527.496 265.531 528.58 265.355 529.764 265.355C530.912 265.355 531.967 265.525 532.928 265.865C533.9 266.193 534.709 266.627 535.354 267.166C536.01 267.693 536.561 268.303 537.006 268.994C537.463 269.686 537.791 270.389 537.99 271.104C538.201 271.807 538.307 272.498 538.307 273.178V277.256H540.434C540.516 277.256 540.58 277.291 540.627 277.361C540.732 277.49 540.785 278.076 540.785 279.119C540.785 280.139 540.756 280.713 540.697 280.842C540.639 280.947 540.551 281 540.434 281H529.623ZM525.756 273.23C525.756 274.379 526.148 275.34 526.934 276.113C527.719 276.875 528.75 277.256 530.027 277.256H533.789V273.178C533.789 272.029 533.42 271.062 532.682 270.277C531.955 269.492 530.982 269.1 529.764 269.1C528.58 269.1 527.613 269.498 526.863 270.295C526.125 271.092 525.756 272.07 525.756 273.23ZM540.434 281C540.316 281 540.229 280.947 540.17 280.842C540.111 280.713 540.082 280.139 540.082 279.119C540.082 278.076 540.135 277.49 540.24 277.361C540.287 277.291 540.352 277.256 540.434 277.256H554.725C554.584 275.826 554.279 274.607 553.811 273.6C553.342 272.58 552.727 271.783 551.965 271.209C551.215 270.623 550.383 270.201 549.469 269.943C548.566 269.686 547.541 269.551 546.393 269.539H542.771V265.004L549.398 255.318L553.125 257.48L547.535 265.654C549.363 265.654 550.992 265.936 552.422 266.498C553.863 267.061 555.059 267.863 556.008 268.906C556.957 269.938 557.701 271.156 558.24 272.562C558.779 273.957 559.125 275.521 559.277 277.256H561.826C561.908 277.256 561.973 277.291 562.02 277.361C562.125 277.49 562.178 278.076 562.178 279.119C562.178 280.139 562.148 280.713 562.09 280.842C562.043 280.947 561.955 281 561.826 281H540.434ZM561.844 281C561.727 281 561.639 280.947 561.58 280.842C561.521 280.713 561.492 280.139 561.492 279.119C561.492 278.076 561.545 277.49 561.65 277.361C561.697 277.291 561.762 277.256 561.844 277.256H563.918C564.809 277.256 565.459 277.01 565.869 276.518C566.279 276.025 566.484 275.234 566.484 274.145V265.707H571.02V274.812C571.02 276.793 570.551 278.322 569.613 279.4C568.676 280.467 567.352 281 565.641 281H561.844ZM564.99 288.523V284.516H569.508V288.523H564.99ZM591.305 281C588.609 281 586.57 280.355 585.188 279.066C583.816 277.777 583.131 275.996 583.131 273.723V268.537H587.648V273.195C587.648 274.602 587.982 275.621 588.65 276.254C589.33 276.875 590.379 277.186 591.797 277.186H602.678C603.545 277.186 604.195 276.963 604.629 276.518C605.062 276.072 605.279 275.334 605.279 274.303V265.707H609.814V274.672C609.873 275.527 610.055 276.172 610.359 276.605C610.676 277.039 611.168 277.256 611.836 277.256H613.717V277.449C613.799 277.719 613.84 278.275 613.84 279.119C613.84 280.139 613.811 280.713 613.752 280.842L613.717 280.895V281H612.047C610.477 281 609.275 280.379 608.443 279.137C607.354 280.379 605.666 281 603.381 281H591.305ZM594.293 288.154V284.146H598.811V288.154H594.293ZM613.559 277.256H627.111C627.229 276.576 627.287 275.867 627.287 275.129C627.287 273.172 626.789 271.678 625.793 270.646C624.797 269.615 623.408 269.1 621.627 269.1C620.045 269.1 618.486 269.457 616.951 270.172L615.264 266.832C616.412 266.34 617.461 265.971 618.41 265.725C619.359 265.479 620.414 265.355 621.574 265.355C623.555 265.355 625.312 265.748 626.848 266.533C628.383 267.318 629.596 268.496 630.486 270.066C631.377 271.625 631.822 273.477 631.822 275.621C631.822 277.496 631.605 279.289 631.172 281H613.559C613.441 281 613.354 280.947 613.295 280.842C613.236 280.713 613.207 280.139 613.207 279.119C613.207 278.076 613.26 277.49 613.365 277.361C613.412 277.291 613.477 277.256 613.559 277.256ZM631.928 288.928V285.184H632.982C633.615 285.184 634.143 285.072 634.564 284.85C634.998 284.639 635.326 284.322 635.549 283.9C635.783 283.479 635.941 283.01 636.023 282.494C636.117 281.979 636.164 281.363 636.164 280.648V265.549H640.699V277.256H643.055C643.137 277.256 643.201 277.291 643.248 277.361C643.354 277.49 643.406 278.076 643.406 279.119C643.406 280.139 643.377 280.713 643.318 280.842C643.26 280.947 643.172 281 643.055 281H640.699C640.688 283.402 640.025 285.324 638.713 286.766C637.412 288.207 635.584 288.928 633.229 288.928H631.928ZM643.055 281C642.938 281 642.85 280.947 642.791 280.842C642.732 280.713 642.703 280.139 642.703 279.119C642.703 278.076 642.756 277.49 642.861 277.361C642.908 277.291 642.973 277.256 643.055 277.256H645.129C646.02 277.256 646.67 277.01 647.08 276.518C647.49 276.025 647.695 275.234 647.695 274.145V265.707H652.23V274.812C652.23 276.793 651.762 278.322 650.824 279.4C649.887 280.467 648.562 281 646.852 281H643.055ZM647.713 262.754V258.746H652.23V262.754H647.713Z"
    fill="white"/>
  <g clip-path="url(#clip0_284_201)">
    <path
      d="M538.598 74.0378C538.598 75.7254 538.398 77.3719 538.008 78.9392C535.809 87.9631 527.653 94.6566 517.942 94.6566H481.362L489.423 84.7778H518.573C522.732 84.7778 526.327 82.4094 528.084 78.9424C528.82 77.4954 529.239 75.8616 529.239 74.136C529.239 72.3027 528.77 70.5739 527.951 69.0604C527.456 68.1644 526.837 67.3348 526.114 66.6097C524.382 64.8841 522.075 63.7443 519.487 63.5321C519.192 63.5068 518.884 63.491 518.573 63.491H482.853C480.464 63.1965 478.602 61.1606 478.602 58.6972C478.602 57.3579 479.138 56.1547 480.023 55.284C480.895 54.4132 482.117 53.8655 483.443 53.8655H522.221C522.396 53.9066 522.57 53.9446 522.745 53.9858C526.514 54.8819 529.896 56.8101 532.551 59.4603C535.153 62.0725 537.072 65.3654 537.983 69.0604C538.386 70.6531 538.598 72.3249 538.598 74.0378Z"
      fill="white"/>
    <path
      d="M519.484 63.5292H483.444C483.244 63.5292 483.041 63.5165 482.854 63.488H518.574C518.881 63.4912 519.189 63.5039 519.484 63.5292Z"
      fill="white"/>
    <path
      d="M521 73.7055C521 75.0448 520.464 76.248 519.578 77.1187C518.706 77.9894 517.485 78.5372 516.158 78.5372H477.38L476.857 78.4169C473.088 77.5208 469.706 75.5926 467.05 72.9424C464.449 70.3334 462.529 67.0373 461.619 63.3423C461.216 61.7496 461 60.0747 461 58.3617C461 56.6741 461.203 55.0276 461.59 53.4635C463.792 44.4396 471.945 37.7461 481.657 37.7461H518.236L510.175 47.6249H481.028C476.869 47.6249 473.275 49.9932 471.517 53.4603C470.778 54.9073 470.362 56.5379 470.362 58.2667C470.362 60.1 470.832 61.8288 471.65 63.3391C472.148 64.2351 472.764 65.0647 473.487 65.7898C475.216 67.5154 477.526 68.6553 480.115 68.8674C480.41 68.8927 480.718 68.9086 481.028 68.9086H516.749C519.134 69.2062 521 71.2421 521 73.7055Z"
      fill="white"/>
    <path
      d="M516.749 68.9117H481.029C480.721 68.9117 480.41 68.8991 480.115 68.8706H516.159C516.359 68.8706 516.562 68.8833 516.749 68.9117Z"
      fill="white"/>
    <path d="M465.512 84.4993L478.786 84.7177L471.622 94.1532L465.512 84.4993Z" fill="white"/>
    <path
      d="M583.957 39.2786V45.7251H565.019C561.682 45.7251 560.204 47.5267 560.204 50.0946C560.204 52.3331 561.352 54.464 565.676 54.464H574.325C584.394 54.464 586.748 60.0367 586.748 65.3338C586.748 71.5619 583.411 76.1498 574.981 76.1498H554.404V69.7033H575.2C578.703 69.7033 580.289 67.7909 580.289 65.1154C580.289 62.7122 579.03 60.5274 574.486 60.5274H565.895C556.044 60.5274 553.744 55.0118 553.744 49.8761C553.744 43.7588 557.028 39.2786 565.238 39.2786H583.957Z"
      fill="white"/>
    <path
      d="M612.742 39.2786C621.06 39.2786 624.617 44.4143 624.617 50.313C624.617 55.8857 621.387 61.8921 612.742 61.8921H601.248C600.645 61.8921 600.318 62.1644 600.318 62.8198V76.1467H593.859V61.566C593.859 57.415 595.61 55.721 599.661 55.721H612.961C616.628 55.721 618.107 53.2102 618.107 50.6423C618.107 47.9668 616.52 45.7251 613.018 45.7251H593.805V39.2786H612.742Z"
      fill="white"/>
    <path d="M655.001 39.2786V45.7251H644.221V76.1467H637.707V45.7251H626.924V39.2786H655.001Z" fill="white"/>
    <path
      d="M562.038 89.2614C562.14 89.1632 562.187 88.9827 562.187 88.7231V85.2434C562.187 85.1579 562.232 85.1136 562.317 85.1136H563.148C563.234 85.1136 563.279 85.1579 563.279 85.2434V88.7864C563.279 89.35 563.161 89.7617 562.926 90.0276C562.692 90.2904 562.295 90.4234 561.73 90.4234H555.474C554.928 90.4234 554.538 90.2904 554.303 90.0276C554.069 89.7648 553.951 89.35 553.951 88.7864V86.0729C553.951 85.9875 553.996 85.9431 554.081 85.9431H554.912C554.998 85.9431 555.043 85.9875 555.043 86.0729V88.7231C555.043 88.9827 555.093 89.1632 555.192 89.2614C555.29 89.3627 555.449 89.4102 555.668 89.4102H561.546C561.775 89.4102 561.937 89.3627 562.038 89.2614ZM557.4 84.5943C557.314 84.5943 557.27 84.55 557.27 84.4645V83.5178C557.27 83.4323 557.314 83.3879 557.4 83.3879H558.285C558.371 83.3879 558.415 83.4323 558.415 83.5178V84.4645C558.415 84.55 558.371 84.5943 558.285 84.5943H557.4ZM558.986 84.5943C558.9 84.5943 558.856 84.55 558.856 84.4645V83.5178C558.856 83.4323 558.9 83.3879 558.986 83.3879H559.871C559.957 83.3879 560.001 83.4323 560.001 83.5178V84.4645C560.001 84.55 559.957 84.5943 559.871 84.5943H558.986Z"
      fill="white"/>
    <path
      d="M566.026 90.2937C566.026 90.3792 565.982 90.4235 565.896 90.4235H565.062C564.976 90.4235 564.932 90.3792 564.932 90.2937V81.7258C564.932 81.6403 564.976 81.5959 565.062 81.5959H565.893C565.979 81.5959 566.023 81.6403 566.023 81.7258V90.2937H566.026Z"
      fill="white"/>
    <path
      d="M567.066 93.007C566.98 93.007 566.936 92.9627 566.936 92.8772V92.1237C566.936 92.0382 566.98 91.9938 567.066 91.9938H567.364C568.068 91.9938 568.417 91.6265 568.417 90.8888V85.2433C568.417 85.1578 568.462 85.1135 568.547 85.1135H569.378C569.464 85.1135 569.509 85.1578 569.509 85.2433V90.8635C569.509 91.5632 569.331 92.0983 568.976 92.4593C568.62 92.8234 568.1 93.0039 567.415 93.0039H567.066V93.007Z"
      fill="white"/>
    <path
      d="M571.267 81.7258C571.267 81.6403 571.311 81.5959 571.397 81.5959H572.228C572.314 81.5959 572.358 81.6403 572.358 81.7258V88.7232C572.358 88.9829 572.409 89.1633 572.507 89.2615C572.606 89.3628 572.764 89.4103 572.983 89.4103H573.554C573.9 89.4103 574.075 89.5845 574.075 89.9296C574.075 90.1449 574.033 90.281 573.951 90.338C573.868 90.395 573.735 90.4235 573.554 90.4235H572.787C572.241 90.4235 571.851 90.2905 571.616 90.0277C571.381 89.7649 571.264 89.3502 571.264 88.7866V81.7258H571.267Z"
      fill="white"/>
    <path
      d="M573.645 90.4234C573.471 90.4234 573.341 90.3917 573.255 90.3315C573.169 90.2714 573.125 90.1511 573.125 89.9674C573.125 89.7521 573.166 89.6033 573.249 89.5273C573.331 89.4482 573.464 89.4102 573.645 89.4102H574.53C574.746 89.4102 574.905 89.3595 575.006 89.2613C575.108 89.1632 575.155 88.9827 575.155 88.7231V85.2433C575.155 85.1578 575.2 85.1135 575.286 85.1135H576.117C576.202 85.1135 576.247 85.1578 576.247 85.2433V88.5268C576.247 88.8212 576.352 89.0429 576.564 89.1885C576.777 89.3342 577.062 89.4102 577.417 89.4102H577.573C577.747 89.4102 577.878 89.4482 577.963 89.521C578.049 89.5938 578.093 89.7173 578.093 89.8914C578.093 90.1162 578.052 90.2619 577.97 90.3252C577.887 90.3917 577.754 90.4234 577.573 90.4234H577.287C577.008 90.4234 576.767 90.3664 576.558 90.2556C576.352 90.1447 576.19 89.9738 576.075 89.749C575.86 90.1986 575.409 90.4234 574.724 90.4234H573.645ZM574.308 92.8392C574.223 92.8392 574.178 92.7949 574.178 92.7094V91.7627C574.178 91.6772 574.223 91.6329 574.308 91.6329H575.194C575.279 91.6329 575.324 91.6772 575.324 91.7627V92.7094C575.324 92.7949 575.279 92.8392 575.194 92.8392H574.308ZM575.895 92.8392C575.809 92.8392 575.765 92.7949 575.765 92.7094V91.7627C575.765 91.6772 575.809 91.6329 575.895 91.6329H576.78C576.865 91.6329 576.91 91.6772 576.91 91.7627V92.7094C576.91 92.7949 576.865 92.8392 576.78 92.8392H575.895Z"
      fill="white"/>
    <path
      d="M581.542 90.4234C581.263 90.4234 581.022 90.3664 580.812 90.2556C580.603 90.1448 580.444 89.9738 580.33 89.749C580.114 90.1986 579.664 90.4234 578.978 90.4234H577.573C577.399 90.4234 577.268 90.3917 577.183 90.3316C577.097 90.2714 577.053 90.1511 577.053 89.9674C577.053 89.7521 577.094 89.6033 577.176 89.5273C577.259 89.4482 577.392 89.4102 577.573 89.4102H578.782C578.998 89.4102 579.156 89.3595 579.258 89.2614C579.356 89.1632 579.407 88.9827 579.407 88.7231V86.3611C579.407 86.2756 579.451 86.2312 579.537 86.2312H580.368C580.454 86.2312 580.498 86.2756 580.498 86.3611V88.53C580.498 88.8244 580.603 89.0461 580.809 89.1917C581.018 89.3373 581.294 89.4133 581.64 89.4133H581.967C582.183 89.4133 582.341 89.3627 582.443 89.2645C582.541 89.1664 582.592 88.9859 582.592 88.7263V86.3642C582.592 86.2787 582.636 86.2344 582.722 86.2344H583.553C583.639 86.2344 583.683 86.2787 583.683 86.3642V88.5838C583.683 88.8624 583.791 89.0682 584.01 89.2075C584.226 89.3468 584.508 89.4165 584.854 89.4165H585.152C585.368 89.4165 585.527 89.3658 585.628 89.2677C585.727 89.1695 585.777 88.9891 585.777 88.7294V85.2497C585.777 85.1642 585.822 85.1199 585.907 85.1199H586.739C586.824 85.1199 586.869 85.1642 586.869 85.2497V88.5331C586.869 88.8276 586.973 89.0492 587.186 89.1949C587.399 89.3405 587.684 89.4165 588.039 89.4165H588.182C588.357 89.4165 588.487 89.4545 588.572 89.5273C588.658 89.6002 588.702 89.7236 588.702 89.8978C588.702 90.1226 588.661 90.2682 588.579 90.3316C588.496 90.3949 588.363 90.4297 588.182 90.4297H587.909C587.63 90.4297 587.389 90.3727 587.18 90.2619C586.97 90.1511 586.812 89.9801 586.697 89.7553C586.482 90.2049 586.031 90.4297 585.346 90.4297H584.721C584.442 90.4297 584.201 90.3727 583.991 90.2619C583.782 90.1511 583.623 89.9801 583.509 89.7553C583.293 90.2049 582.84 90.4297 582.157 90.4297H581.542V90.4234Z"
      fill="white"/>
    <path
      d="M588.188 90.4233C588.014 90.4233 587.884 90.3916 587.798 90.3315C587.712 90.2713 587.668 90.151 587.668 89.9673C587.668 89.752 587.709 89.6032 587.792 89.5272C587.874 89.4481 588.007 89.4101 588.188 89.4101H589.007C589.223 89.4101 589.381 89.3594 589.483 89.2613C589.584 89.1631 589.632 88.9826 589.632 88.723V81.7255C589.632 81.64 589.676 81.5957 589.762 81.5957H590.593C590.679 81.5957 590.723 81.64 590.723 81.7255V88.7863C590.723 89.3499 590.606 89.7615 590.371 90.0275C590.136 90.2903 589.746 90.4233 589.2 90.4233H588.188Z"
      fill="white"/>
    <path
      d="M593.638 90.2937C593.638 90.3792 593.594 90.4235 593.508 90.4235H592.677C592.591 90.4235 592.547 90.3792 592.547 90.2937V81.7258C592.547 81.6403 592.591 81.5959 592.677 81.5959H593.508C593.594 81.5959 593.638 81.6403 593.638 81.7258V90.2937Z"
      fill="white"/>
    <path
      d="M597.802 93.007C597.716 93.007 597.672 92.9627 597.672 92.8772V92.1237C597.672 92.0382 597.716 91.9938 597.802 91.9938H598.1C598.804 91.9938 599.153 91.6265 599.153 90.8888V85.2433C599.153 85.1578 599.198 85.1135 599.284 85.1135H600.115C600.2 85.1135 600.245 85.1578 600.245 85.2433V90.8635C600.245 91.5632 600.067 92.0983 599.712 92.4593C599.357 92.8234 598.836 93.0039 598.151 93.0039H597.802V93.007Z"
      fill="white"/>
    <path
      d="M602.001 81.7258C602.001 81.6403 602.046 81.5959 602.131 81.5959H602.963C603.048 81.5959 603.093 81.6403 603.093 81.7258V88.7232C603.093 88.9829 603.143 89.1633 603.242 89.2615C603.34 89.3628 603.499 89.4103 603.718 89.4103H604.289C604.634 89.4103 604.809 89.5845 604.809 89.9296C604.809 90.1449 604.768 90.281 604.685 90.338C604.603 90.395 604.469 90.4235 604.289 90.4235H603.521C602.975 90.4235 602.585 90.2905 602.35 90.0277C602.115 89.7649 601.998 89.3502 601.998 88.7866V81.7258H602.001Z"
      fill="white"/>
    <path
      d="M604.382 90.4234C604.207 90.4234 604.077 90.3917 603.991 90.3315C603.906 90.2714 603.861 90.1511 603.861 89.9674C603.861 89.7521 603.903 89.6033 603.985 89.5273C604.068 89.4482 604.201 89.4102 604.382 89.4102H605.267C605.483 89.4102 605.641 89.3595 605.743 89.2613C605.844 89.1632 605.892 88.9827 605.892 88.7231V85.2433C605.892 85.1578 605.936 85.1135 606.022 85.1135H606.853C606.939 85.1135 606.983 85.1578 606.983 85.2433V88.5268C606.983 88.8212 607.088 89.0429 607.3 89.1885C607.513 89.3342 607.798 89.4102 608.154 89.4102H608.309C608.484 89.4102 608.614 89.4482 608.7 89.521C608.785 89.5938 608.83 89.7173 608.83 89.8914C608.83 90.1162 608.788 90.2619 608.706 90.3252C608.623 90.3917 608.49 90.4234 608.309 90.4234H608.024C607.745 90.4234 607.503 90.3664 607.294 90.2556C607.088 90.1447 606.926 89.9738 606.812 89.749C606.596 90.1986 606.146 90.4234 605.46 90.4234H604.382ZM605.045 92.8392C604.959 92.8392 604.915 92.7949 604.915 92.7094V91.7627C604.915 91.6772 604.959 91.6329 605.045 91.6329H605.93C606.016 91.6329 606.06 91.6772 606.06 91.7627V92.7094C606.06 92.7949 606.016 92.8392 605.93 92.8392H605.045ZM606.631 92.8392C606.545 92.8392 606.501 92.7949 606.501 92.7094V91.7627C606.501 91.6772 606.545 91.6329 606.631 91.6329H607.516C607.602 91.6329 607.646 91.6772 607.646 91.7627V92.7094C607.646 92.7949 607.602 92.8392 607.516 92.8392H606.631Z"
      fill="white"/>
    <path
      d="M614.306 89.4101C614.391 89.4101 614.436 89.4544 614.436 89.5399V90.2935C614.436 90.379 614.391 90.4233 614.306 90.4233H608.309C607.964 90.4233 607.789 90.2491 607.789 89.904C607.789 89.6887 607.83 89.5526 607.913 89.4956C607.995 89.4386 608.129 89.4101 608.309 89.4101H609.794C609.594 89.2106 609.426 88.9605 609.287 88.6565C609.147 88.3525 609.077 87.9884 609.077 87.5673C609.077 87.2982 609.115 87.0069 609.195 86.6902C609.274 86.3736 609.417 86.0823 609.623 85.8132C609.832 85.5441 610.115 85.3224 610.473 85.1451C610.832 84.9678 611.295 84.8791 611.859 84.8791C612.37 84.8791 612.814 84.971 613.186 85.1578C613.557 85.3446 613.858 85.601 614.083 85.9303C614.128 86 614.115 86.0602 614.045 86.1108L613.474 86.5794C613.405 86.6301 613.344 86.6269 613.29 86.5668C612.9 86.1172 612.412 85.8923 611.821 85.8923C611.282 85.8923 610.885 86.0507 610.625 86.3673C610.365 86.6839 610.235 87.0797 610.235 87.5546C610.235 87.8744 610.286 88.1467 610.391 88.3715C610.495 88.5963 610.613 88.7832 610.749 88.9288C610.882 89.0744 611.019 89.1853 611.158 89.2613C611.298 89.3341 611.406 89.3847 611.485 89.4101H614.306ZM611.342 83.8279C611.257 83.8279 611.212 83.7836 611.212 83.6981V82.7514C611.212 82.6659 611.257 82.6216 611.342 82.6216H612.228C612.313 82.6216 612.358 82.6659 612.358 82.7514V83.6981C612.358 83.7836 612.313 83.8279 612.228 83.8279H611.342Z"
      fill="white"/>
    <path
      d="M621.837 84.8792C622.763 84.8792 623.449 85.0596 623.893 85.4237C624.334 85.7879 624.556 86.2818 624.556 86.9024C624.556 87.181 624.511 87.4407 624.426 87.6813C624.34 87.9251 624.229 88.1499 624.093 88.3557C623.959 88.5615 623.804 88.7515 623.629 88.9193C623.455 89.0871 623.287 89.2296 623.122 89.3404C623.217 89.3594 623.312 89.3721 623.407 89.3848C623.502 89.3974 623.594 89.4038 623.68 89.4038H625.581C625.752 89.4038 625.885 89.4354 625.971 89.4956C626.056 89.5557 626.101 89.6792 626.101 89.8597C626.101 90.075 626.06 90.2238 625.977 90.2998C625.895 90.379 625.761 90.417 625.581 90.417H623.642C623.391 90.417 623.122 90.3853 622.836 90.3251C622.551 90.265 622.294 90.1605 622.068 90.0148C621.818 90.1098 621.551 90.1953 621.275 90.2682C620.999 90.341 620.746 90.4233 620.52 90.5088C620.295 90.5943 620.108 90.7051 619.962 90.8317C619.813 90.9616 619.74 91.1357 619.74 91.351C619.74 91.56 619.819 91.7151 619.981 91.826C620.143 91.9336 620.435 91.9874 620.86 91.9874H622.107C622.192 91.9874 622.237 92.0318 622.237 92.1173V92.8708C622.237 92.9563 622.192 93.0006 622.107 93.0006H620.768C620.067 93.0006 619.53 92.874 619.169 92.6239C618.804 92.3737 618.623 91.9494 618.623 91.351C618.623 90.9774 618.702 90.6703 618.864 90.4296C619.026 90.189 619.226 89.9927 619.47 89.8439C619.714 89.6951 619.978 89.5811 620.263 89.4987C620.549 89.4164 620.822 89.3499 621.082 89.2961C621.022 88.951 620.93 88.6502 620.809 88.4C620.688 88.1499 620.549 87.9314 620.393 87.7446C620.238 87.5578 620.067 87.3932 619.879 87.2507C619.692 87.1082 619.505 86.9689 619.315 86.8296C619.235 86.7789 619.188 86.7314 619.166 86.6934C619.143 86.6554 619.134 86.6143 619.134 86.5699V85.791C619.134 85.6707 619.178 85.5821 619.264 85.5314C619.369 85.4712 619.505 85.4016 619.673 85.3224C619.841 85.2433 620.038 85.1704 620.26 85.1008C620.482 85.0311 620.726 84.9741 620.996 84.933C621.259 84.9013 621.542 84.8792 621.837 84.8792ZM621.837 85.8924C621.447 85.8924 621.104 85.9335 620.809 86.0158C620.514 86.0982 620.32 86.171 620.222 86.2312C620.666 86.4813 621.053 86.8327 621.386 87.2824C621.719 87.732 621.961 88.2702 622.107 88.8908C622.246 88.8053 622.392 88.6945 622.551 88.5584C622.706 88.4254 622.846 88.2766 622.973 88.1182C623.1 87.9568 623.201 87.7795 623.284 87.5863C623.366 87.3932 623.407 87.1905 623.407 86.9816C623.407 86.7662 623.366 86.5889 623.284 86.4496C623.201 86.3103 623.09 86.2027 622.95 86.1172C622.811 86.0348 622.646 85.9778 622.449 85.943C622.259 85.9114 622.056 85.8924 621.837 85.8924Z"
      fill="white"/>
    <path
      d="M625.596 90.4233C625.422 90.4233 625.292 90.3916 625.206 90.3314C625.121 90.2713 625.076 90.151 625.076 89.9673C625.076 89.752 625.117 89.6032 625.2 89.524C625.282 89.4449 625.416 89.4069 625.596 89.4069H626.415C626.631 89.4069 626.789 89.3562 626.891 89.2581C626.992 89.1599 627.04 88.9795 627.04 88.7198V81.7223C627.04 81.6369 627.084 81.5925 627.17 81.5925H628.001C628.087 81.5925 628.131 81.6369 628.131 81.7223V85.6834C628.556 85.4586 629.029 85.2686 629.55 85.1134C630.07 84.9583 630.603 84.8791 631.148 84.8791C631.754 84.8791 632.259 84.9614 632.659 85.1261C633.058 85.2907 633.376 85.5124 633.614 85.7942C633.852 86.076 634.02 86.4021 634.115 86.7757C634.21 87.1493 634.258 87.542 634.258 87.9567C634.258 88.0707 634.254 88.1752 634.251 88.2734C634.248 88.3747 634.245 88.457 634.245 88.5267C634.245 88.8211 634.353 89.0428 634.565 89.1884C634.778 89.3372 635.06 89.4101 635.416 89.4101H635.558C635.73 89.4101 635.863 89.4481 635.949 89.5209C636.034 89.5937 636.079 89.7172 636.079 89.8913C636.079 90.1161 636.037 90.2618 635.955 90.3251C635.872 90.3916 635.739 90.4233 635.558 90.4233H635.286C634.981 90.4233 634.711 90.3536 634.473 90.2143C634.235 90.075 634.067 89.8755 633.972 89.619C633.823 89.9135 633.614 90.1225 633.341 90.2428C633.068 90.3631 632.719 90.4264 632.294 90.4264H627.922C627.713 90.4264 627.567 90.3694 627.481 90.2586C627.265 90.3726 626.973 90.4264 626.609 90.4264H625.596V90.4233ZM631.072 85.8923C630.812 85.8923 630.549 85.9177 630.279 85.9652C630.01 86.0126 629.749 86.076 629.492 86.152C629.235 86.2311 628.994 86.3166 628.763 86.4116C628.534 86.5066 628.322 86.6016 628.131 86.6966V88.7863C628.131 89.0016 628.109 89.2106 628.068 89.4101H631.919C632.164 89.4101 632.364 89.3879 632.519 89.3467C632.675 89.3024 632.798 89.2264 632.884 89.1188C632.97 89.0111 633.03 88.8591 633.058 88.666C633.09 88.4697 633.103 88.2227 633.103 87.9187C633.103 87.599 633.071 87.314 633.004 87.0607C632.938 86.8106 632.83 86.5984 632.671 86.4243C632.516 86.2501 632.306 86.1203 632.046 86.0285C631.789 85.9398 631.463 85.8923 631.072 85.8923Z"
      fill="white"/>
    <path
      d="M638.902 84.8791C639.343 84.8791 639.727 84.9361 640.047 85.0533C640.368 85.1704 640.634 85.3319 640.847 85.5409C641.059 85.7499 641.218 85.9968 641.323 86.2881C641.427 86.5794 641.478 86.8961 641.478 87.2412C641.478 87.6813 641.377 88.0929 641.174 88.4729C640.971 88.8528 640.685 89.1694 640.32 89.4196C640.365 89.4101 640.428 89.4069 640.517 89.4069H642.325C642.5 89.4069 642.63 89.4386 642.715 89.4987C642.801 89.5589 642.846 89.6792 642.846 89.8629C642.846 90.0782 642.804 90.227 642.722 90.303C642.639 90.3821 642.506 90.4201 642.325 90.4201H640.596C640.282 90.4201 639.99 90.4075 639.711 90.3821C639.432 90.3568 639.169 90.265 638.918 90.1098C638.632 90.265 638.325 90.3568 638.001 90.3821C637.677 90.4075 637.389 90.4201 637.135 90.4201H635.561C635.215 90.4201 635.041 90.246 635.041 89.9008C635.041 89.6855 635.082 89.5494 635.165 89.4924C635.247 89.4354 635.38 89.4069 635.561 89.4069H637.474C637.119 89.1568 636.84 88.8433 636.634 88.4665C636.431 88.0897 636.329 87.6813 636.329 87.2412C636.329 86.8961 636.38 86.5763 636.485 86.2881C636.589 85.9968 636.748 85.7499 636.96 85.5409C637.173 85.3319 637.439 85.1704 637.76 85.0533C638.08 84.9393 638.461 84.8791 638.902 84.8791ZM638.902 85.8923C638.486 85.8923 638.144 86.0127 637.874 86.2565C637.604 86.5003 637.471 86.8486 637.471 87.3077C637.471 87.7763 637.611 88.1657 637.887 88.4824C638.166 88.799 638.502 89.0333 638.902 89.1916C639.302 89.0365 639.638 88.799 639.917 88.4824C640.193 88.1657 640.333 87.7763 640.333 87.3077C640.333 86.8486 640.2 86.5003 639.93 86.2565C639.663 86.0127 639.321 85.8923 638.902 85.8923ZM637.668 83.8279C637.582 83.8279 637.538 83.7836 637.538 83.6981V82.7514C637.538 82.6659 637.582 82.6216 637.668 82.6216H638.553C638.639 82.6216 638.683 82.6659 638.683 82.7514V83.6981C638.683 83.7836 638.639 83.8279 638.553 83.8279H637.668ZM639.254 83.8279C639.169 83.8279 639.124 83.7836 639.124 83.6981V82.7514C639.124 82.6659 639.169 82.6216 639.254 82.6216H640.139C640.225 82.6216 640.269 82.6659 640.269 82.7514V83.6981C640.269 83.7836 640.225 83.8279 640.139 83.8279H639.254Z"
      fill="white"/>
    <path
      d="M642.325 90.4233C642.15 90.4233 642.02 90.3916 641.935 90.3315C641.849 90.2713 641.805 90.151 641.805 89.9673C641.805 89.752 641.846 89.6032 641.928 89.5272C642.011 89.4481 642.144 89.4101 642.325 89.4101H643.144C643.359 89.4101 643.518 89.3594 643.619 89.2613C643.721 89.1631 643.769 88.9826 643.769 88.723V81.7255C643.769 81.64 643.813 81.5957 643.899 81.5957H644.73C644.815 81.5957 644.86 81.64 644.86 81.7255V88.7863C644.86 89.3499 644.742 89.7615 644.508 90.0275C644.273 90.2903 643.883 90.4233 643.337 90.4233H642.325Z"
      fill="white"/>
  </g>
  <defs>
    <clipPath id="clip0_284_201">
      <rect fill="white" height="56.9074" transform="translate(461 37.7461)" width="194"/>
    </clipPath>
  </defs>
</svg>
