<svg fill="none" height="383" viewBox="0 0 390 383" width="390" xmlns="http://www.w3.org/2000/svg">
  <g filter="url(#filter0_d_284_201)">
    <g clip-path="url(#clip0_284_201)">
      <path
        d="M304.4 44.6868C304.4 45.6959 304.28 46.6804 304.047 47.6175C302.732 53.0133 297.855 57.0156 292.048 57.0156H270.176L274.996 51.1087H292.426C294.913 51.1087 297.062 49.6925 298.113 47.6194C298.553 46.7542 298.803 45.7773 298.803 44.7455C298.803 43.6493 298.523 42.6156 298.033 41.7106C297.737 41.1749 297.367 40.6788 296.935 40.2453C295.899 39.2135 294.52 38.5319 292.972 38.4051C292.796 38.3899 292.612 38.3804 292.426 38.3804H271.067C269.639 38.2044 268.525 36.987 268.525 35.5141C268.525 34.7132 268.846 33.9938 269.375 33.4732C269.897 32.9525 270.627 32.625 271.42 32.625H294.607C294.712 32.6496 294.816 32.6723 294.92 32.6969C297.174 33.2327 299.196 34.3857 300.784 35.9703C302.34 37.5323 303.487 39.5012 304.032 41.7106C304.273 42.6629 304.4 43.6626 304.4 44.6868Z"
        fill="white"/>
      <path
        d="M292.969 38.403H271.419C271.3 38.403 271.178 38.3954 271.066 38.3784H292.425C292.609 38.3803 292.793 38.3879 292.969 38.403Z"
        fill="white"/>
      <path
        d="M293.876 44.4878C293.876 45.2886 293.556 46.0081 293.026 46.5287C292.505 47.0494 291.774 47.3769 290.981 47.3769H267.794L267.481 47.3049C265.228 46.7692 263.205 45.6162 261.618 44.0315C260.062 42.4715 258.914 40.5007 258.37 38.2912C258.129 37.339 258 36.3374 258 35.3132C258 34.3041 258.121 33.3196 258.353 32.3844C259.669 26.9886 264.545 22.9863 270.351 22.9863H292.224L287.404 28.8932H269.976C267.489 28.8932 265.34 30.3094 264.289 32.3825C263.847 33.2477 263.598 34.2227 263.598 35.2564C263.598 36.3526 263.879 37.3863 264.368 38.2894C264.666 38.8251 265.034 39.3212 265.467 39.7547C266.5 40.7865 267.882 41.4681 269.429 41.5949C269.606 41.6101 269.79 41.6196 269.976 41.6196H291.334C292.761 41.7975 293.876 43.0149 293.876 44.4878Z"
        fill="white"/>
      <path
        d="M291.332 41.6213H269.974C269.79 41.6213 269.604 41.6137 269.428 41.5967H290.98C291.099 41.5967 291.221 41.6042 291.332 41.6213Z"
        fill="white"/>
      <path d="M260.699 50.9419L268.636 51.0725L264.353 56.7144L260.699 50.9419Z" fill="white"/>
      <path
        d="M331.52 23.9023V27.757H320.197C318.201 27.757 317.317 28.8342 317.317 30.3696C317.317 31.7082 318.004 32.9823 320.59 32.9823H325.761C331.782 32.9823 333.19 36.3144 333.19 39.4818C333.19 43.2058 331.194 45.9491 326.154 45.9491H313.85V42.0945H326.285C328.379 42.0945 329.327 40.9509 329.327 39.3512C329.327 37.9142 328.574 36.6079 325.858 36.6079H320.721C314.83 36.6079 313.455 33.3098 313.455 30.239C313.455 26.5813 315.418 23.9023 320.328 23.9023H331.52Z"
        fill="white"/>
      <path
        d="M348.733 23.9023C353.707 23.9023 355.834 26.9732 355.834 30.5003C355.834 33.8324 353.903 37.4238 348.733 37.4238H341.861C341.5 37.4238 341.305 37.5867 341.305 37.9786V45.9472H337.442V37.2288C337.442 34.7468 338.49 33.7339 340.912 33.7339H348.864C351.057 33.7339 351.941 32.2326 351.941 30.6972C351.941 29.0974 350.993 27.757 348.898 27.757H337.41V23.9023H348.733Z"
        fill="white"/>
      <path d="M373.999 23.9023V27.757H367.553V45.9472H363.659V27.757H357.211V23.9023H373.999Z" fill="white"/>
      <path
        d="M318.412 53.7893C318.472 53.7306 318.501 53.6227 318.501 53.4674V51.3868C318.501 51.3357 318.527 51.3092 318.579 51.3092H319.076C319.127 51.3092 319.153 51.3357 319.153 51.3868V53.5053C319.153 53.8423 319.083 54.0884 318.943 54.2475C318.802 54.4046 318.565 54.4841 318.228 54.4841H314.487C314.16 54.4841 313.927 54.4046 313.787 54.2475C313.646 54.0903 313.576 53.8423 313.576 53.5053V51.8828C313.576 51.8317 313.603 51.8052 313.654 51.8052H314.151C314.202 51.8052 314.229 51.8317 314.229 51.8828V53.4674C314.229 53.6227 314.259 53.7306 314.318 53.7893C314.377 53.8499 314.472 53.8783 314.602 53.8783H318.118C318.254 53.8783 318.351 53.8499 318.412 53.7893ZM315.638 50.9987C315.587 50.9987 315.56 50.9722 315.56 50.921V50.355C315.56 50.3038 315.587 50.2773 315.638 50.2773H316.167C316.219 50.2773 316.245 50.3038 316.245 50.355V50.921C316.245 50.9722 316.219 50.9987 316.167 50.9987H315.638ZM316.587 50.9987C316.536 50.9987 316.509 50.9722 316.509 50.921V50.355C316.509 50.3038 316.536 50.2773 316.587 50.2773H317.116C317.167 50.2773 317.194 50.3038 317.194 50.355V50.921C317.194 50.9722 317.167 50.9987 317.116 50.9987H316.587Z"
        fill="white"/>
      <path
        d="M320.797 54.4068C320.797 54.4579 320.77 54.4844 320.719 54.4844H320.22C320.169 54.4844 320.143 54.4579 320.143 54.4068V49.2837C320.143 49.2326 320.169 49.2061 320.22 49.2061H320.717C320.769 49.2061 320.795 49.2326 320.795 49.2837V54.4068H320.797Z"
        fill="white"/>
      <path
        d="M321.422 56.0289C321.37 56.0289 321.344 56.0024 321.344 55.9513V55.5007C321.344 55.4496 321.37 55.4231 321.422 55.4231H321.6C322.021 55.4231 322.23 55.2035 322.23 54.7623V51.3867C322.23 51.3356 322.256 51.3091 322.307 51.3091H322.804C322.856 51.3091 322.882 51.3356 322.882 51.3867V54.7472C322.882 55.1656 322.776 55.4856 322.564 55.7014C322.351 55.9191 322.04 56.027 321.63 56.027H321.422V56.0289Z"
        fill="white"/>
      <path
        d="M323.932 49.2837C323.932 49.2326 323.958 49.2061 324.009 49.2061H324.506C324.558 49.2061 324.584 49.2326 324.584 49.2837V53.4677C324.584 53.623 324.615 53.7309 324.673 53.7896C324.732 53.8502 324.827 53.8786 324.958 53.8786H325.299C325.506 53.8786 325.61 53.9827 325.61 54.1891C325.61 54.3178 325.586 54.3992 325.536 54.4333C325.487 54.4674 325.407 54.4844 325.299 54.4844H324.84C324.514 54.4844 324.281 54.4049 324.14 54.2477C324 54.0906 323.93 53.8426 323.93 53.5056V49.2837H323.932Z"
        fill="white"/>
      <path
        d="M325.354 54.484C325.25 54.484 325.172 54.4651 325.121 54.4291C325.07 54.3932 325.043 54.3212 325.043 54.2114C325.043 54.0827 325.068 53.9937 325.117 53.9483C325.166 53.9009 325.246 53.8782 325.354 53.8782H325.883C326.012 53.8782 326.107 53.8479 326.168 53.7892C326.229 53.7305 326.257 53.6226 326.257 53.4674V51.3867C326.257 51.3356 326.284 51.3091 326.335 51.3091H326.832C326.883 51.3091 326.91 51.3356 326.91 51.3867V53.35C326.91 53.5261 326.972 53.6586 327.099 53.7457C327.226 53.8328 327.397 53.8782 327.61 53.8782H327.703C327.807 53.8782 327.885 53.9009 327.936 53.9445C327.987 53.988 328.014 54.0618 328.014 54.166C328.014 54.3004 327.989 54.3875 327.94 54.4253C327.89 54.4651 327.811 54.484 327.703 54.484H327.532C327.365 54.484 327.221 54.45 327.096 54.3837C326.972 54.3174 326.875 54.2152 326.807 54.0808C326.678 54.3496 326.409 54.484 325.999 54.484H325.354ZM325.751 55.9286C325.699 55.9286 325.673 55.9021 325.673 55.851V55.2849C325.673 55.2338 325.699 55.2073 325.751 55.2073H326.28C326.331 55.2073 326.358 55.2338 326.358 55.2849V55.851C326.358 55.9021 326.331 55.9286 326.28 55.9286H325.751ZM326.699 55.9286C326.648 55.9286 326.621 55.9021 326.621 55.851V55.2849C326.621 55.2338 326.648 55.2073 326.699 55.2073H327.228C327.28 55.2073 327.306 55.2338 327.306 55.2849V55.851C327.306 55.9021 327.28 55.9286 327.228 55.9286H326.699Z"
        fill="white"/>
      <path
        d="M330.077 54.4842C329.91 54.4842 329.766 54.4501 329.641 54.3838C329.515 54.3176 329.42 54.2153 329.352 54.0809C329.223 54.3497 328.954 54.4842 328.544 54.4842H327.704C327.599 54.4842 327.522 54.4652 327.47 54.4293C327.419 54.3933 327.393 54.3213 327.393 54.2115C327.393 54.0828 327.417 53.9938 327.467 53.9484C327.516 53.901 327.596 53.8783 327.704 53.8783H328.426C328.555 53.8783 328.65 53.848 328.711 53.7893C328.77 53.7307 328.8 53.6227 328.8 53.4675V52.0551C328.8 52.004 328.827 51.9775 328.878 51.9775H329.375C329.426 51.9775 329.453 52.004 329.453 52.0551V53.352C329.453 53.5281 329.515 53.6606 329.639 53.7477C329.764 53.8348 329.929 53.8802 330.136 53.8802H330.331C330.46 53.8802 330.555 53.8499 330.616 53.7912C330.674 53.7325 330.705 53.6246 330.705 53.4694V52.057C330.705 52.0059 330.731 51.9794 330.783 51.9794H331.28C331.331 51.9794 331.357 52.0059 331.357 52.057V53.3842C331.357 53.5508 331.422 53.6739 331.553 53.7572C331.682 53.8405 331.851 53.8821 332.057 53.8821H332.236C332.365 53.8821 332.459 53.8518 332.52 53.7931C332.579 53.7344 332.609 53.6265 332.609 53.4713V51.3906C332.609 51.3395 332.636 51.313 332.687 51.313H333.184C333.235 51.313 333.262 51.3395 333.262 51.3906V53.3539C333.262 53.53 333.325 53.6625 333.452 53.7496C333.579 53.8367 333.749 53.8821 333.962 53.8821H334.047C334.152 53.8821 334.229 53.9048 334.281 53.9484C334.332 53.9919 334.358 54.0658 334.358 54.1699C334.358 54.3043 334.334 54.3914 334.284 54.4293C334.235 54.4671 334.155 54.4879 334.047 54.4879H333.884C333.717 54.4879 333.573 54.4539 333.448 54.3876C333.323 54.3213 333.228 54.2191 333.159 54.0847C333.03 54.3535 332.761 54.4879 332.351 54.4879H331.978C331.811 54.4879 331.667 54.4539 331.541 54.3876C331.416 54.3213 331.321 54.2191 331.253 54.0847C331.124 54.3535 330.853 54.4879 330.445 54.4879H330.077V54.4842Z"
        fill="white"/>
      <path
        d="M334.051 54.4839C333.947 54.4839 333.869 54.465 333.818 54.429C333.767 54.393 333.74 54.3211 333.74 54.2113C333.74 54.0825 333.765 53.9936 333.814 53.9481C333.864 53.9008 333.943 53.8781 334.051 53.8781H334.541C334.67 53.8781 334.765 53.8478 334.825 53.7891C334.886 53.7304 334.914 53.6225 334.914 53.4672V49.2832C334.914 49.2321 334.941 49.2056 334.992 49.2056H335.489C335.54 49.2056 335.567 49.2321 335.567 49.2832V53.5051C335.567 53.8421 335.497 54.0882 335.356 54.2473C335.216 54.4044 334.983 54.4839 334.656 54.4839H334.051Z"
        fill="white"/>
      <path
        d="M337.313 54.4068C337.313 54.4579 337.286 54.4844 337.235 54.4844H336.738C336.687 54.4844 336.66 54.4579 336.66 54.4068V49.2837C336.66 49.2326 336.687 49.2061 336.738 49.2061H337.235C337.286 49.2061 337.313 49.2326 337.313 49.2837V54.4068Z"
        fill="white"/>
      <path
        d="M339.798 56.0289C339.747 56.0289 339.721 56.0024 339.721 55.9513V55.5007C339.721 55.4496 339.747 55.4231 339.798 55.4231H339.977C340.398 55.4231 340.607 55.2035 340.607 54.7623V51.3867C340.607 51.3356 340.633 51.3091 340.684 51.3091H341.181C341.233 51.3091 341.259 51.3356 341.259 51.3867V54.7472C341.259 55.1656 341.153 55.4856 340.94 55.7014C340.728 55.9191 340.417 56.027 340.007 56.027H339.798V56.0289Z"
        fill="white"/>
      <path
        d="M342.312 49.2837C342.312 49.2326 342.339 49.2061 342.39 49.2061H342.887C342.938 49.2061 342.965 49.2326 342.965 49.2837V53.4677C342.965 53.623 342.995 53.7309 343.054 53.7896C343.113 53.8502 343.208 53.8786 343.339 53.8786H343.68C343.887 53.8786 343.991 53.9827 343.991 54.1891C343.991 54.3178 343.967 54.3992 343.917 54.4333C343.868 54.4674 343.788 54.4844 343.68 54.4844H343.221C342.895 54.4844 342.661 54.4049 342.521 54.2477C342.381 54.0906 342.311 53.8426 342.311 53.5056V49.2837H342.312Z"
        fill="white"/>
      <path
        d="M343.731 54.484C343.627 54.484 343.549 54.4651 343.498 54.4291C343.446 54.3932 343.42 54.3212 343.42 54.2114C343.42 54.0827 343.445 53.9937 343.494 53.9483C343.543 53.9009 343.623 53.8782 343.731 53.8782H344.26C344.389 53.8782 344.484 53.8479 344.545 53.7892C344.606 53.7305 344.634 53.6226 344.634 53.4674V51.3867C344.634 51.3356 344.661 51.3091 344.712 51.3091H345.209C345.26 51.3091 345.287 51.3356 345.287 51.3867V53.35C345.287 53.5261 345.349 53.6586 345.476 53.7457C345.603 53.8328 345.774 53.8782 345.987 53.8782H346.08C346.184 53.8782 346.262 53.9009 346.313 53.9445C346.364 53.988 346.391 54.0618 346.391 54.166C346.391 54.3004 346.366 54.3875 346.317 54.4253C346.267 54.4651 346.188 54.484 346.08 54.484H345.909C345.742 54.484 345.598 54.45 345.472 54.3837C345.349 54.3174 345.252 54.2152 345.184 54.0808C345.055 54.3496 344.786 54.484 344.376 54.484H343.731ZM344.128 55.9286C344.076 55.9286 344.05 55.9021 344.05 55.851V55.2849C344.05 55.2338 344.076 55.2073 344.128 55.2073H344.657C344.708 55.2073 344.735 55.2338 344.735 55.2849V55.851C344.735 55.9021 344.708 55.9286 344.657 55.9286H344.128ZM345.076 55.9286C345.025 55.9286 344.998 55.9021 344.998 55.851V55.2849C344.998 55.2338 345.025 55.2073 345.076 55.2073H345.605C345.656 55.2073 345.683 55.2338 345.683 55.2849V55.851C345.683 55.9021 345.656 55.9286 345.605 55.9286H345.076Z"
        fill="white"/>
      <path
        d="M349.666 53.8779C349.717 53.8779 349.744 53.9045 349.744 53.9556V54.4062C349.744 54.4573 349.717 54.4838 349.666 54.4838H346.081C345.874 54.4838 345.77 54.3797 345.77 54.1733C345.77 54.0446 345.794 53.9631 345.844 53.9291C345.893 53.895 345.973 53.8779 346.081 53.8779H346.968C346.849 53.7587 346.748 53.6091 346.665 53.4274C346.581 53.2456 346.54 53.0279 346.54 52.7761C346.54 52.6152 346.562 52.441 346.61 52.2517C346.657 52.0623 346.743 51.8882 346.866 51.7272C346.991 51.5663 347.16 51.4338 347.374 51.3278C347.589 51.2217 347.866 51.1687 348.203 51.1687C348.509 51.1687 348.774 51.2236 348.996 51.3353C349.218 51.447 349.399 51.6004 349.533 51.7973C349.56 51.8389 349.552 51.8749 349.51 51.9052L349.169 52.1854C349.127 52.2157 349.091 52.2138 349.059 52.1778C348.826 51.909 348.533 51.7746 348.181 51.7746C347.858 51.7746 347.621 51.8692 347.465 52.0585C347.31 52.2479 347.232 52.4845 347.232 52.7685C347.232 52.9597 347.262 53.1225 347.325 53.257C347.388 53.3914 347.458 53.5031 347.539 53.5902C347.619 53.6773 347.701 53.7435 347.784 53.789C347.868 53.8325 347.932 53.8628 347.98 53.8779H349.666ZM347.894 50.5402C347.843 50.5402 347.816 50.5137 347.816 50.4625V49.8965C347.816 49.8454 347.843 49.8188 347.894 49.8188H348.423C348.475 49.8188 348.501 49.8454 348.501 49.8965V50.4625C348.501 50.5137 348.475 50.5402 348.423 50.5402H347.894Z"
        fill="white"/>
      <path
        d="M354.172 51.1689C354.726 51.1689 355.135 51.2769 355.401 51.4946C355.665 51.7123 355.797 52.0076 355.797 52.3787C355.797 52.5453 355.771 52.7006 355.72 52.8445C355.668 52.9902 355.602 53.1247 355.52 53.2477C355.441 53.3708 355.348 53.4844 355.243 53.5847C355.139 53.6851 355.039 53.7703 354.94 53.8365C354.997 53.8479 355.054 53.8554 355.111 53.863C355.168 53.8706 355.223 53.8744 355.274 53.8744H356.41C356.513 53.8744 356.592 53.8933 356.643 53.9293C356.695 53.9653 356.721 54.0391 356.721 54.147C356.721 54.2757 356.697 54.3647 356.647 54.4102C356.598 54.4575 356.518 54.4802 356.41 54.4802H355.251C355.101 54.4802 354.94 54.4613 354.769 54.4253C354.598 54.3893 354.445 54.3269 354.31 54.2398C354.16 54.2966 354.001 54.3477 353.836 54.3912C353.671 54.4348 353.519 54.484 353.384 54.5351C353.25 54.5862 353.138 54.6525 353.051 54.7282C352.961 54.8059 352.918 54.91 352.918 55.0387C352.918 55.1637 352.965 55.2564 353.062 55.3227C353.159 55.3871 353.333 55.4193 353.587 55.4193H354.333C354.384 55.4193 354.411 55.4458 354.411 55.4969V55.9475C354.411 55.9986 354.384 56.0251 354.333 56.0251H353.532C353.113 56.0251 352.793 55.9494 352.576 55.7998C352.358 55.6502 352.25 55.3965 352.25 55.0387C352.25 54.8153 352.297 54.6317 352.394 54.4878C352.491 54.3439 352.61 54.2265 352.757 54.1375C352.903 54.0486 353.06 53.9804 353.231 53.9312C353.401 53.882 353.565 53.8422 353.72 53.81C353.684 53.6036 353.629 53.4238 353.557 53.2742C353.485 53.1247 353.401 52.994 353.309 52.8823C353.216 52.7706 353.113 52.6722 353.001 52.587C352.889 52.5018 352.777 52.4185 352.664 52.3352C352.616 52.3049 352.588 52.2765 352.574 52.2538C352.561 52.2311 352.555 52.2064 352.555 52.1799V51.7142C352.555 51.6423 352.582 51.5892 352.633 51.559C352.696 51.523 352.777 51.4813 352.878 51.434C352.978 51.3867 353.096 51.3431 353.229 51.3015C353.362 51.2598 353.508 51.2257 353.669 51.2011C353.826 51.1822 353.995 51.1689 354.172 51.1689ZM354.172 51.7748C353.938 51.7748 353.733 51.7994 353.557 51.8486C353.381 51.8978 353.265 51.9414 353.206 51.9774C353.472 52.1269 353.703 52.3371 353.902 52.6059C354.101 52.8748 354.246 53.1966 354.333 53.5677C354.416 53.5166 354.504 53.4503 354.598 53.3689C354.691 53.2894 354.775 53.2004 354.851 53.1057C354.927 53.0092 354.987 52.9032 355.037 52.7877C355.086 52.6722 355.111 52.551 355.111 52.4261C355.111 52.2973 355.086 52.1913 355.037 52.108C354.987 52.0247 354.921 51.9603 354.838 51.9092C354.754 51.86 354.655 51.8259 354.538 51.8051C354.424 51.7861 354.303 51.7748 354.172 51.7748Z"
        fill="white"/>
      <path
        d="M356.42 54.4838C356.316 54.4838 356.238 54.4649 356.187 54.4289C356.136 54.393 356.109 54.321 356.109 54.2112C356.109 54.0825 356.134 53.9935 356.183 53.9462C356.233 53.8988 356.312 53.8761 356.42 53.8761H356.91C357.039 53.8761 357.134 53.8458 357.194 53.7871C357.255 53.7284 357.284 53.6205 357.284 53.4653V49.2812C357.284 49.2301 357.31 49.2036 357.361 49.2036H357.858C357.91 49.2036 357.936 49.2301 357.936 49.2812V51.6497C358.19 51.5153 358.473 51.4017 358.784 51.3089C359.095 51.2161 359.414 51.1688 359.74 51.1688C360.103 51.1688 360.404 51.218 360.643 51.3165C360.882 51.4149 361.072 51.5474 361.214 51.7159C361.356 51.8844 361.457 52.0794 361.514 52.3028C361.571 52.5262 361.599 52.761 361.599 53.009C361.599 53.0772 361.597 53.1397 361.596 53.1983C361.594 53.2589 361.592 53.3082 361.592 53.3498C361.592 53.5259 361.656 53.6584 361.783 53.7455C361.91 53.8345 362.079 53.878 362.292 53.878H362.377C362.48 53.878 362.559 53.9007 362.61 53.9443C362.662 53.9878 362.688 54.0617 362.688 54.1658C362.688 54.3002 362.664 54.3873 362.614 54.4252C362.565 54.4649 362.485 54.4838 362.377 54.4838H362.214C362.032 54.4838 361.871 54.4422 361.728 54.3589C361.586 54.2756 361.485 54.1563 361.429 54.003C361.339 54.179 361.214 54.304 361.051 54.3759C360.888 54.4479 360.679 54.4857 360.425 54.4857H357.811C357.686 54.4857 357.599 54.4517 357.547 54.3854C357.418 54.4536 357.244 54.4857 357.026 54.4857H356.42V54.4838ZM359.695 51.7746C359.539 51.7746 359.382 51.7898 359.22 51.8182C359.059 51.8466 358.904 51.8844 358.75 51.9299C358.596 51.9772 358.452 52.0283 358.314 52.0851C358.177 52.1419 358.05 52.1987 357.936 52.2555V53.505C357.936 53.6338 357.923 53.7587 357.898 53.878H360.201C360.347 53.878 360.467 53.8648 360.56 53.8401C360.653 53.8136 360.727 53.7682 360.778 53.7038C360.829 53.6395 360.865 53.5486 360.882 53.4331C360.901 53.3157 360.909 53.1681 360.909 52.9863C360.909 52.7951 360.89 52.6247 360.85 52.4732C360.81 52.3237 360.746 52.1968 360.651 52.0927C360.558 51.9886 360.433 51.9109 360.277 51.856C360.123 51.803 359.928 51.7746 359.695 51.7746Z"
        fill="white"/>
      <path
        d="M364.375 51.1687C364.639 51.1687 364.868 51.2028 365.06 51.2729C365.251 51.3429 365.411 51.4395 365.538 51.5644C365.665 51.6894 365.76 51.837 365.822 52.0112C365.885 52.1854 365.915 52.3747 365.915 52.5811C365.915 52.8442 365.855 53.0904 365.733 53.3176C365.612 53.5447 365.441 53.7341 365.223 53.8836C365.25 53.8779 365.288 53.8761 365.341 53.8761H366.422C366.526 53.8761 366.604 53.895 366.655 53.931C366.706 53.9669 366.733 54.0389 366.733 54.1487C366.733 54.2774 366.708 54.3664 366.659 54.4118C366.61 54.4592 366.53 54.4819 366.422 54.4819H365.388C365.2 54.4819 365.026 54.4743 364.859 54.4592C364.692 54.444 364.534 54.3891 364.385 54.2964C364.214 54.3891 364.03 54.444 363.836 54.4592C363.643 54.4743 363.47 54.4819 363.318 54.4819H362.378C362.171 54.4819 362.066 54.3778 362.066 54.1714C362.066 54.0427 362.091 53.9612 362.14 53.9272C362.19 53.8931 362.269 53.8761 362.378 53.8761H363.521C363.309 53.7265 363.142 53.5391 363.019 53.3138C362.897 53.0885 362.837 52.8442 362.837 52.5811C362.837 52.3747 362.867 52.1835 362.93 52.0112C362.992 51.837 363.087 51.6894 363.214 51.5644C363.341 51.4395 363.501 51.3429 363.692 51.2729C363.884 51.2047 364.111 51.1687 364.375 51.1687ZM364.375 51.7746C364.127 51.7746 363.922 51.8465 363.76 51.9923C363.599 52.1381 363.52 52.3463 363.52 52.6208C363.52 52.901 363.603 53.1339 363.768 53.3232C363.935 53.5126 364.136 53.6527 364.375 53.7473C364.614 53.6545 364.815 53.5126 364.982 53.3232C365.147 53.1339 365.231 52.901 365.231 52.6208C365.231 52.3463 365.151 52.1381 364.99 51.9923C364.83 51.8465 364.625 51.7746 364.375 51.7746ZM363.637 50.5402C363.586 50.5402 363.559 50.5137 363.559 50.4625V49.8965C363.559 49.8454 363.586 49.8188 363.637 49.8188H364.166C364.218 49.8188 364.244 49.8454 364.244 49.8965V50.4625C364.244 50.5137 364.218 50.5402 364.166 50.5402H363.637ZM364.586 50.5402C364.534 50.5402 364.508 50.5137 364.508 50.4625V49.8965C364.508 49.8454 364.534 49.8188 364.586 49.8188H365.115C365.166 49.8188 365.193 49.8454 365.193 49.8965V50.4625C365.193 50.5137 365.166 50.5402 365.115 50.5402H364.586Z"
        fill="white"/>
      <path
        d="M366.424 54.4839C366.32 54.4839 366.242 54.465 366.191 54.429C366.14 54.393 366.113 54.3211 366.113 54.2113C366.113 54.0825 366.138 53.9936 366.187 53.9481C366.237 53.9008 366.316 53.8781 366.424 53.8781H366.914C367.043 53.8781 367.138 53.8478 367.198 53.7891C367.259 53.7304 367.288 53.6225 367.288 53.4672V49.2832C367.288 49.2321 367.314 49.2056 367.365 49.2056H367.862C367.914 49.2056 367.94 49.2321 367.94 49.2832V53.5051C367.94 53.8421 367.87 54.0882 367.73 54.2473C367.589 54.4044 367.356 54.4839 367.03 54.4839H366.424Z"
        fill="white"/>
    </g>
  </g>
  <g opacity="0.4">
    <path d="M411.672 271.825C411.672 280.905 410.556 289.764 408.377 298.197C396.099 346.751 350.549 382.766 296.317 382.766H92.0407L137.059 329.613H299.843C323.07 329.613 343.143 316.869 352.958 298.214C357.069 290.429 359.407 281.638 359.407 272.353C359.407 262.489 356.785 253.187 352.214 245.043C349.45 240.222 345.996 235.758 341.956 231.857C332.283 222.572 319.402 216.439 304.945 215.298C303.298 215.161 301.579 215.076 299.843 215.076H100.368C87.0268 213.492 76.627 202.537 76.627 189.283C76.627 182.076 79.6211 175.603 84.5641 170.918C89.4363 166.232 96.2573 163.285 103.663 163.285H320.217C321.192 163.507 322.166 163.711 323.141 163.933C344.188 168.754 363.075 179.129 377.904 193.389C392.432 207.444 403.15 225.162 408.235 245.043C410.485 253.613 411.672 262.608 411.672 271.825Z"
          fill="#E6ECF2"
          fill-opacity="0.1" opacity="0.8"/>
    <path d="M313.395 270.037C313.395 277.243 310.401 283.717 305.458 288.402C300.586 293.087 293.765 296.035 286.359 296.035H69.8047L66.8814 295.387C45.8336 290.566 26.9473 280.191 12.1183 265.931C-2.40964 251.893 -13.1284 234.158 -18.2132 214.276C-20.4632 205.707 -21.668 196.695 -21.668 187.478C-21.668 178.397 -20.5341 169.538 -18.3726 161.122C-6.07705 112.568 39.4555 76.5532 93.6871 76.5532H297.964L252.945 129.707H90.1792C66.9522 129.707 46.8789 142.45 37.0637 161.105C32.9357 168.891 30.6148 177.665 30.6148 186.967C30.6148 196.831 33.2369 206.133 37.8078 214.259C40.5894 219.081 44.0265 223.544 48.066 227.446C57.7217 236.73 70.6196 242.864 85.0767 244.005C86.7243 244.141 88.4429 244.227 90.1792 244.227H289.654C302.977 245.828 313.395 256.782 313.395 270.037Z"
          fill="#E6ECF2"
          fill-opacity="0.1" opacity="0.8"/>
    <path d="M3.52539 328.114L77.6531 329.289L37.6482 380.058L3.52539 328.114Z" fill="#E6ECF2" fill-opacity="0.1"
          opacity="0.8"/>
  </g>
  <path
    d="M124.149 159.234C122.337 159.234 120.641 158.875 119.063 158.156L120.001 155.859C121.548 156.453 122.864 156.75 123.95 156.75C124.958 156.75 125.735 156.551 126.282 156.152C126.829 155.754 127.102 155.215 127.102 154.535C127.102 154.348 127.083 154.172 127.044 154.008C127.005 153.836 126.934 153.676 126.833 153.527C126.739 153.379 126.649 153.246 126.563 153.129C126.477 153.012 126.344 152.891 126.165 152.766C125.985 152.641 125.837 152.539 125.719 152.461C125.61 152.375 125.434 152.273 125.192 152.156C124.95 152.039 124.766 151.953 124.641 151.898C124.524 151.844 124.321 151.754 124.032 151.629C123.751 151.504 123.555 151.418 123.446 151.371C121.93 150.691 120.852 149.98 120.212 149.238C119.579 148.496 119.262 147.562 119.262 146.438C119.262 144.922 119.766 143.742 120.774 142.898C121.782 142.047 123.173 141.621 124.946 141.621C126.415 141.621 128.051 142.016 129.856 142.805L128.884 145.137C127.259 144.465 125.954 144.129 124.969 144.129C124.094 144.129 123.415 144.32 122.93 144.703C122.446 145.086 122.204 145.598 122.204 146.238C122.204 146.449 122.235 146.648 122.298 146.836C122.36 147.023 122.423 147.184 122.485 147.316C122.555 147.449 122.68 147.594 122.86 147.75C123.04 147.906 123.176 148.027 123.27 148.113C123.372 148.191 123.555 148.301 123.821 148.441C124.094 148.574 124.282 148.668 124.384 148.723C124.485 148.77 124.7 148.867 125.028 149.016C125.364 149.156 125.575 149.246 125.661 149.285C127.301 150.02 128.442 150.754 129.083 151.488C129.723 152.223 130.044 153.137 130.044 154.23C130.044 155.77 129.528 156.988 128.497 157.887C127.473 158.785 126.024 159.234 124.149 159.234ZM133.009 159V141.867H138.61C140.626 141.867 142.094 142.301 143.016 143.168C143.946 144.035 144.411 145.367 144.411 147.164C144.411 148.977 143.942 150.348 143.005 151.277C142.075 152.199 140.61 152.66 138.61 152.66H136.02V159H133.009ZM136.02 150.188H138.399C138.993 150.188 139.485 150.125 139.876 150C140.274 149.875 140.579 149.68 140.79 149.414C141.009 149.141 141.161 148.828 141.247 148.477C141.333 148.125 141.376 147.688 141.376 147.164C141.376 146.148 141.165 145.426 140.743 144.996C140.321 144.559 139.516 144.34 138.329 144.34H136.02V150.188ZM150.95 159V144.363H146.075V141.867H158.86V144.363H153.973V159H150.95ZM171.036 159C169.176 159 167.759 158.551 166.782 157.652C165.805 156.754 165.317 155.504 165.317 153.902C165.317 153.246 165.403 152.648 165.575 152.109C165.755 151.562 165.997 151.109 166.301 150.75C166.606 150.391 166.946 150.082 167.321 149.824C167.704 149.559 168.118 149.355 168.563 149.215C169.009 149.066 169.434 148.961 169.841 148.898C170.247 148.836 170.653 148.805 171.059 148.805C172.747 148.805 174.43 149.211 176.11 150.023V156.504H177.704C177.759 156.504 177.801 156.527 177.833 156.574C177.903 156.66 177.938 157.051 177.938 157.746C177.938 158.426 177.919 158.809 177.88 158.895C177.841 158.965 177.782 159 177.704 159H171.036ZM167.93 146.859V144.211H170.579V146.859H167.93ZM168.305 153.914C168.305 154.703 168.559 155.332 169.067 155.801C169.575 156.27 170.301 156.504 171.247 156.504H173.134V151.664C172.469 151.375 171.817 151.23 171.176 151.23C170.841 151.23 170.509 151.281 170.18 151.383C169.86 151.477 169.555 151.625 169.266 151.828C168.977 152.031 168.743 152.312 168.563 152.672C168.391 153.031 168.305 153.445 168.305 153.914ZM171.657 146.859V144.211H174.305V146.859H171.657ZM177.704 159C177.626 159 177.567 158.965 177.528 158.895C177.489 158.809 177.469 158.426 177.469 157.746C177.469 157.051 177.505 156.66 177.575 156.574C177.606 156.527 177.649 156.504 177.704 156.504H179.766V148.805H182.778V151.242C183.622 150.328 184.555 149.621 185.579 149.121C186.602 148.613 187.641 148.359 188.696 148.359C189.446 148.359 190.153 148.473 190.817 148.699C191.489 148.918 192.079 149.238 192.587 149.66C193.102 150.082 193.509 150.625 193.805 151.289C194.102 151.945 194.251 152.68 194.251 153.492C194.251 154.641 193.946 155.645 193.337 156.504H195.598C195.653 156.504 195.696 156.527 195.727 156.574C195.798 156.66 195.833 157.051 195.833 157.746C195.833 158.426 195.813 158.809 195.774 158.895C195.743 158.965 195.684 159 195.598 159H177.704ZM182.778 156.504H187.196C187.665 156.504 188.126 156.449 188.579 156.34C189.04 156.23 189.473 156.07 189.88 155.859C190.286 155.641 190.614 155.336 190.864 154.945C191.114 154.555 191.239 154.109 191.239 153.609C191.239 152.781 190.958 152.117 190.395 151.617C189.841 151.109 189.055 150.855 188.04 150.855C187.079 150.855 186.094 151.199 185.087 151.887C184.087 152.574 183.317 153.426 182.778 154.441V156.504ZM195.61 159C195.532 159 195.473 158.965 195.434 158.895C195.395 158.809 195.376 158.426 195.376 157.746C195.376 157.051 195.411 156.66 195.481 156.574C195.512 156.527 195.555 156.504 195.61 156.504H196.993C197.587 156.504 198.02 156.34 198.294 156.012C198.567 155.684 198.704 155.156 198.704 154.43V148.805H201.727V154.383C201.727 155.078 201.829 155.605 202.032 155.965C202.243 156.324 202.594 156.504 203.087 156.504H204.341C204.387 156.504 204.426 156.527 204.458 156.574C204.528 156.66 204.563 157.051 204.563 157.746C204.563 158.426 204.544 158.809 204.505 158.895C204.466 158.965 204.411 159 204.341 159H203.227C202.212 159 201.426 158.609 200.872 157.828C200.247 158.609 199.337 159 198.141 159H195.61ZM198.716 146.836V144.164H201.727V146.836H198.716ZM211.852 159C210.384 159 209.153 158.602 208.161 157.805C207.348 158.602 206.231 159 204.809 159H204.329C204.251 159 204.192 158.965 204.153 158.895C204.114 158.809 204.094 158.426 204.094 157.746C204.094 157.051 204.13 156.66 204.2 156.574C204.231 156.527 204.274 156.504 204.329 156.504H204.844C205.329 156.504 205.684 156.379 205.911 156.129C206.137 155.879 206.251 155.469 206.251 154.898V153.809C206.251 153.348 206.317 152.879 206.45 152.402C206.591 151.926 206.809 151.457 207.106 150.996C207.411 150.535 207.778 150.125 208.208 149.766C208.637 149.406 209.173 149.117 209.813 148.898C210.462 148.68 211.169 148.57 211.934 148.57C212.7 148.57 213.403 148.684 214.044 148.91C214.692 149.129 215.231 149.418 215.661 149.777C216.098 150.129 216.466 150.535 216.762 150.996C217.067 151.457 217.286 151.926 217.419 152.402C217.559 152.871 217.63 153.332 217.63 153.785V159H211.852ZM210.012 151.875C209.52 152.406 209.274 153.055 209.274 153.82C209.274 154.586 209.532 155.227 210.048 155.742C210.571 156.25 211.259 156.504 212.11 156.504H214.606V153.785C214.606 153.02 214.368 152.375 213.891 151.852C213.415 151.328 212.762 151.066 211.934 151.066C211.153 151.066 210.512 151.336 210.012 151.875ZM241.852 159V153.996C241.852 153.035 241.653 152.309 241.255 151.816C240.856 151.316 240.282 151.066 239.532 151.066C239.282 151.066 239.032 151.094 238.782 151.148V161.109H231.727C229.618 161.109 227.997 160.59 226.864 159.551C225.739 158.52 225.176 157.109 225.176 155.32C225.176 154.891 225.259 154.238 225.423 153.363C225.587 152.48 225.786 151.73 226.02 151.113L228.88 151.711C228.661 152.305 228.489 152.961 228.364 153.68C228.247 154.398 228.188 154.988 228.188 155.449C228.188 156.574 228.493 157.383 229.102 157.875C229.712 158.367 230.587 158.613 231.727 158.613H235.759V149.355C237.259 148.832 238.528 148.57 239.567 148.57C241.192 148.57 242.481 149.066 243.434 150.059C244.387 151.051 244.864 152.363 244.864 153.996V156.504H246.235C246.29 156.504 246.333 156.527 246.364 156.574C246.434 156.66 246.469 157.051 246.469 157.746C246.469 158.426 246.45 158.809 246.411 158.895C246.372 158.965 246.313 159 246.235 159H241.852ZM231.141 165.551V162.902H233.79V165.551H231.141ZM234.868 165.551V162.902H237.516V165.551H234.868ZM246.235 159C246.157 159 246.098 158.965 246.059 158.895C246.02 158.809 246.001 158.426 246.001 157.746C246.001 157.051 246.036 156.66 246.106 156.574C246.137 156.527 246.18 156.504 246.235 156.504H248.227C247.813 155.738 247.606 154.84 247.606 153.809C247.606 153.152 247.696 152.555 247.876 152.016C248.063 151.477 248.317 151.027 248.637 150.668C248.958 150.309 249.313 149.996 249.704 149.73C250.094 149.465 250.52 149.262 250.981 149.121C251.442 148.98 251.884 148.879 252.305 148.816C252.727 148.746 253.149 148.711 253.571 148.711C254.602 148.711 255.532 148.852 256.36 149.133C257.188 149.414 257.868 149.738 258.399 150.105V159H246.235ZM250.583 153.844C250.583 154.664 250.841 155.312 251.356 155.789C251.872 156.266 252.602 156.504 253.548 156.504H255.423V151.617C254.782 151.32 254.141 151.172 253.501 151.172C252.657 151.172 251.958 151.414 251.403 151.898C250.856 152.383 250.583 153.031 250.583 153.844ZM251.813 146.836V144.164H254.825V146.836H251.813ZM275.661 159C274.895 159 274.196 158.895 273.563 158.684C272.93 158.465 272.399 158.172 271.969 157.805C271.54 157.438 271.184 157.039 270.903 156.609C270.63 156.172 270.419 155.707 270.27 155.215C269.778 155.387 269.419 155.68 269.192 156.094C268.973 156.5 268.903 157 268.981 157.594L269.919 164.285H266.895L266.005 157.922C265.809 156.539 266.106 155.359 266.895 154.383C267.684 153.398 268.794 152.801 270.223 152.59C270.356 152.074 270.563 151.586 270.844 151.125C271.134 150.664 271.497 150.238 271.934 149.848C272.38 149.457 272.93 149.148 273.587 148.922C274.243 148.688 274.966 148.57 275.755 148.57C276.52 148.57 277.223 148.684 277.864 148.91C278.512 149.129 279.051 149.418 279.481 149.777C279.919 150.129 280.286 150.535 280.583 150.996C280.887 151.457 281.106 151.926 281.239 152.402C281.38 152.871 281.45 153.332 281.45 153.785V156.504H282.868C282.923 156.504 282.966 156.527 282.997 156.574C283.067 156.66 283.102 157.051 283.102 157.746C283.102 158.426 283.083 158.809 283.044 158.895C283.005 158.965 282.946 159 282.868 159H275.661ZM273.083 153.82C273.083 154.586 273.344 155.227 273.868 155.742C274.391 156.25 275.079 156.504 275.93 156.504H278.438V153.785C278.438 153.02 278.192 152.375 277.7 151.852C277.216 151.328 276.567 151.066 275.755 151.066C274.966 151.066 274.321 151.332 273.821 151.863C273.329 152.395 273.083 153.047 273.083 153.82ZM282.868 159C282.79 159 282.731 158.965 282.692 158.895C282.653 158.809 282.634 158.426 282.634 157.746C282.634 157.051 282.669 156.66 282.739 156.574C282.77 156.527 282.813 156.504 282.868 156.504H292.395C292.301 155.551 292.098 154.738 291.786 154.066C291.473 153.387 291.063 152.855 290.555 152.473C290.055 152.082 289.501 151.801 288.891 151.629C288.29 151.457 287.606 151.367 286.841 151.359H284.426V148.336L288.844 141.879L291.329 143.32L287.602 148.77C288.821 148.77 289.907 148.957 290.86 149.332C291.821 149.707 292.618 150.242 293.251 150.938C293.884 151.625 294.38 152.438 294.739 153.375C295.098 154.305 295.329 155.348 295.43 156.504H297.13C297.184 156.504 297.227 156.527 297.259 156.574C297.329 156.66 297.364 157.051 297.364 157.746C297.364 158.426 297.344 158.809 297.305 158.895C297.274 158.965 297.216 159 297.13 159H282.868ZM297.141 159C297.063 159 297.005 158.965 296.966 158.895C296.926 158.809 296.907 158.426 296.907 157.746C296.907 157.051 296.942 156.66 297.012 156.574C297.044 156.527 297.087 156.504 297.141 156.504H298.524C299.118 156.504 299.551 156.34 299.825 156.012C300.098 155.684 300.235 155.156 300.235 154.43V148.805H303.259V154.875C303.259 156.195 302.946 157.215 302.321 157.934C301.696 158.645 300.813 159 299.673 159H297.141ZM299.239 164.016V161.344H302.251V164.016H299.239ZM316.782 159C314.985 159 313.626 158.57 312.704 157.711C311.79 156.852 311.333 155.664 311.333 154.148V150.691H314.344V153.797C314.344 154.734 314.567 155.414 315.012 155.836C315.466 156.25 316.165 156.457 317.11 156.457H324.364C324.942 156.457 325.376 156.309 325.665 156.012C325.954 155.715 326.098 155.223 326.098 154.535V148.805H329.122V154.781C329.161 155.352 329.282 155.781 329.485 156.07C329.696 156.359 330.024 156.504 330.469 156.504H331.723V156.633C331.778 156.812 331.805 157.184 331.805 157.746C331.805 158.426 331.786 158.809 331.747 158.895L331.723 158.93V159H330.61C329.563 159 328.762 158.586 328.208 157.758C327.481 158.586 326.356 159 324.833 159H316.782ZM318.774 163.77V161.098H321.786V163.77H318.774ZM331.618 156.504H340.653C340.731 156.051 340.77 155.578 340.77 155.086C340.77 153.781 340.438 152.785 339.774 152.098C339.11 151.41 338.184 151.066 336.997 151.066C335.942 151.066 334.903 151.305 333.88 151.781L332.755 149.555C333.52 149.227 334.219 148.98 334.852 148.816C335.485 148.652 336.188 148.57 336.962 148.57C338.282 148.57 339.454 148.832 340.477 149.355C341.501 149.879 342.309 150.664 342.903 151.711C343.497 152.75 343.794 153.984 343.794 155.414C343.794 156.664 343.649 157.859 343.36 159H331.618C331.54 159 331.481 158.965 331.442 158.895C331.403 158.809 331.384 158.426 331.384 157.746C331.384 157.051 331.419 156.66 331.489 156.574C331.52 156.527 331.563 156.504 331.618 156.504ZM343.864 164.285V161.789H344.567C344.989 161.789 345.341 161.715 345.622 161.566C345.911 161.426 346.13 161.215 346.278 160.934C346.434 160.652 346.54 160.34 346.594 159.996C346.657 159.652 346.688 159.242 346.688 158.766V148.699H349.712V156.504H351.282C351.337 156.504 351.38 156.527 351.411 156.574C351.481 156.66 351.516 157.051 351.516 157.746C351.516 158.426 351.497 158.809 351.458 158.895C351.419 158.965 351.36 159 351.282 159H349.712C349.704 160.602 349.262 161.883 348.387 162.844C347.52 163.805 346.301 164.285 344.731 164.285H343.864ZM351.282 159C351.204 159 351.145 158.965 351.106 158.895C351.067 158.809 351.048 158.426 351.048 157.746C351.048 157.051 351.083 156.66 351.153 156.574C351.184 156.527 351.227 156.504 351.282 156.504H352.665C353.259 156.504 353.692 156.34 353.966 156.012C354.239 155.684 354.376 155.156 354.376 154.43V148.805H357.399V154.875C357.399 156.195 357.087 157.215 356.462 157.934C355.837 158.645 354.954 159 353.813 159H351.282ZM354.387 146.836V144.164H357.399V146.836H354.387Z"
    fill="white"/>
  <path
    d="M150.334 186.86C150.334 189.058 148.976 190.136 147.24 190.29L146.806 189.142C148.234 188.974 149.144 188.47 149.144 186.86V180.476H150.334V186.86ZM155.187 187H154.529C153.409 187 152.499 186.09 152.499 184.956V177.2H153.703V184.956C153.703 185.418 154.081 185.796 154.543 185.796H155.187V187ZM160.401 185.796C160.723 185.796 161.003 186.048 161.003 186.384C161.003 186.734 160.723 187 160.387 187H159.449C158.735 187 158.119 186.65 157.741 186.132C157.377 186.65 156.775 187 156.089 187H155.039C154.689 187 154.423 186.748 154.423 186.398C154.423 186.048 154.689 185.796 155.039 185.796H155.963C156.565 185.796 157.069 185.292 157.069 184.676V181.652H158.273V184.69C158.315 185.306 158.833 185.796 159.449 185.796H160.401ZM156.481 188.4C156.901 188.4 157.251 188.736 157.251 189.156C157.251 189.576 156.901 189.926 156.481 189.926C156.061 189.926 155.711 189.576 155.711 189.156C155.711 188.736 156.061 188.4 156.481 188.4ZM158.665 188.4C159.099 188.4 159.449 188.736 159.449 189.156C159.449 189.576 159.099 189.926 158.665 189.926C158.259 189.926 157.909 189.576 157.909 189.156C157.909 188.736 158.259 188.4 158.665 188.4ZM164.11 177.676C164.53 177.676 164.88 178.012 164.88 178.432C164.88 178.852 164.53 179.202 164.11 179.202C163.69 179.202 163.34 178.852 163.34 178.432C163.34 178.012 163.69 177.676 164.11 177.676ZM167.414 185.796V187H160.232V185.81H162.066C161.52 185.39 161.156 184.76 161.156 184.018L161.17 183.346C161.226 181.708 162.584 180.406 164.208 180.406C165.51 180.406 166.728 181.288 166.98 182.492L166.084 183.22C165.944 182.366 165.244 181.61 164.208 181.61C163.228 181.61 162.416 182.38 162.374 183.36L162.36 184.004C162.36 185.012 163.186 185.796 164.208 185.796H167.414ZM180.994 185.796V187H174.946C174.106 187 173.448 187.686 173.448 188.512C173.448 189.324 174.106 190.01 174.946 190.01H178.348V191.214H174.946C173.448 191.214 172.23 190.01 172.23 188.512C172.23 186.888 173.378 185.88 174.568 185.824L175.1 185.81L173.63 182.352L174.008 181.246C175.24 180.518 176.64 180.196 177.83 180.434C179.188 180.7 180.14 181.96 180 183.332C179.902 184.13 179.496 185.25 178.516 185.796H180.994ZM175.058 182.058L174.946 182.45L176.416 185.726C178.222 185.474 178.726 183.878 178.796 183.206C178.88 182.45 178.348 181.764 177.606 181.61C176.556 181.4 175.436 181.89 175.058 182.058ZM191.97 185.796H193.734V187H180.644V185.796H182.52V177.242H183.71V181.736L187.476 180.588C189.03 180.112 190.724 180.728 191.494 182.044C191.816 182.576 191.97 183.192 191.97 183.808V185.796ZM190.486 185.796C190.654 185.796 190.78 185.67 190.78 185.502V183.808C190.78 183.402 190.682 182.996 190.458 182.646C189.982 181.792 188.876 181.428 187.84 181.722L183.71 182.982V185.796H190.486ZM196.94 177.634C197.374 177.634 197.724 177.984 197.724 178.39C197.724 178.824 197.374 179.16 196.94 179.16C196.534 179.16 196.184 178.824 196.184 178.39C196.184 177.984 196.534 177.634 196.94 177.634ZM199.11 177.634C199.544 177.634 199.894 177.984 199.894 178.39C199.894 178.824 199.544 179.16 199.11 179.16C198.704 179.16 198.354 178.824 198.354 178.39C198.354 177.984 198.704 177.634 199.11 177.634ZM197.668 180.42H200.692V186.062C200.692 186.58 200.286 187 199.768 187H193.454V185.796H195.512C194.952 185.39 194.588 184.676 194.588 183.892V183.388C194.588 181.708 195.988 180.42 197.668 180.42ZM199.502 185.572V181.554H197.668C196.618 181.554 195.764 182.408 195.764 183.472V183.934C195.778 184.97 196.632 185.796 197.668 185.796H199.278C199.404 185.796 199.502 185.698 199.502 185.572ZM217.071 185.796C217.393 185.796 217.687 186.034 217.687 186.384C217.687 186.72 217.393 187 217.071 187C216.539 187 216.049 186.944 215.531 186.832C215.797 187.112 215.937 187.504 215.937 187.896C215.937 189.31 214.789 190.444 213.389 190.444H209.035C207.019 190.444 205.381 188.82 205.381 186.804V184.466H206.585V186.804C206.585 188.162 207.691 189.254 209.035 189.254H213.389C214.117 189.254 214.733 188.638 214.733 187.896C214.733 187.266 214.341 186.692 213.711 186.482L211.737 185.684L212.255 184.592C213.431 185.082 213.641 185.18 213.865 185.264C214.887 185.614 215.923 185.796 217.071 185.796ZM221.353 185.796C221.675 185.796 221.955 186.048 221.955 186.384C221.955 186.734 221.675 187 221.339 187H220.919C220.205 187 219.589 186.65 219.211 186.132C218.847 186.65 218.245 187 217.559 187H217.041C216.691 187 216.425 186.748 216.425 186.398C216.425 186.048 216.691 185.796 217.041 185.796H217.433C218.035 185.796 218.539 185.292 218.539 184.676V177.242H219.743V184.69C219.785 185.306 220.303 185.796 220.919 185.796H221.353ZM228.321 185.796V187H221.181V185.81H223.015C222.469 185.474 222.105 184.844 222.105 184.088L222.119 183.36C222.175 181.722 223.533 180.42 225.157 180.42C226.459 180.42 227.677 181.302 227.929 182.506L227.033 183.234C226.893 182.38 226.193 181.624 225.157 181.624C224.177 181.624 223.365 182.394 223.323 183.374L223.309 184.074C223.309 185.096 224.135 185.796 225.157 185.796H228.321ZM235.797 186.86C235.797 189.058 234.439 190.136 232.703 190.29L232.269 189.142C233.697 188.974 234.607 188.47 234.607 186.86V180.476H235.797V186.86ZM244.752 185.796V187H243.52C243.52 187.938 243.198 188.708 242.554 189.296C241.574 190.22 240.412 190.416 238.27 190.416V189.226C239.39 189.226 240.86 189.254 241.756 188.428C242.05 188.148 242.232 187.756 242.274 187.266L242.288 187H240.58C238.774 187 237.402 185.516 237.402 183.696C237.402 181.862 238.774 180.42 240.58 180.42H243.52V185.796H244.752ZM242.316 185.796V181.624H240.58C239.432 181.624 238.592 182.52 238.592 183.696C238.592 184.858 239.432 185.796 240.58 185.796H242.316ZM247.096 176.78C247.516 176.78 247.866 177.13 247.866 177.536C247.866 177.97 247.516 178.306 247.096 178.306C246.676 178.306 246.326 177.97 246.326 177.536C246.326 177.13 246.676 176.78 247.096 176.78ZM246.032 178.754C246.466 178.754 246.816 179.104 246.816 179.51C246.816 179.944 246.466 180.28 246.032 180.28C245.626 180.28 245.276 179.944 245.276 179.51C245.276 179.104 245.626 178.754 246.032 178.754ZM248.174 178.754C248.608 178.754 248.958 179.104 248.958 179.51C248.958 179.944 248.608 180.28 248.174 180.28C247.768 180.28 247.418 179.944 247.418 179.51C247.418 179.104 247.768 178.754 248.174 178.754ZM249.686 185.796C250.008 185.796 250.288 186.048 250.288 186.384C250.288 186.734 250.008 187 249.672 187H249.014C248.3 187 247.684 186.65 247.306 186.132C246.942 186.65 246.34 187 245.654 187H244.604C244.254 187 243.988 186.748 243.988 186.398C243.988 186.048 244.254 185.796 244.604 185.796H245.528C246.13 185.796 246.634 185.292 246.634 184.676V181.75H247.838V184.69C247.88 185.306 248.398 185.796 249.014 185.796H249.686ZM249.593 187V185.796H251.875L250.377 182.352L250.755 181.246C251.987 180.518 253.401 180.196 254.577 180.434C255.935 180.7 256.887 181.96 256.747 183.332C256.663 184.13 256.257 185.25 255.263 185.796H257.643V186.986L249.593 187ZM251.693 182.45L253.177 185.726C254.983 185.474 255.487 183.878 255.543 183.206C255.627 182.45 255.095 181.764 254.367 181.61C253.317 181.4 252.197 181.89 251.805 182.058L251.693 182.45ZM261.89 185.796C262.212 185.796 262.492 186.048 262.492 186.384C262.492 186.734 262.212 187 261.876 187H261.456C260.742 187 260.126 186.65 259.748 186.132C259.384 186.65 258.782 187 258.096 187H257.578C257.228 187 256.962 186.748 256.962 186.398C256.962 186.048 257.228 185.796 257.578 185.796H257.97C258.572 185.796 259.076 185.292 259.076 184.676V177.242H260.28V184.69C260.322 185.306 260.84 185.796 261.456 185.796H261.89ZM261.816 187C261.494 187 261.228 186.734 261.228 186.398C261.228 186.076 261.494 185.796 261.816 185.796H262.67C263.132 185.796 263.524 185.418 263.524 184.956V177.242H264.714V184.956C264.714 186.09 263.804 187 262.684 187H261.816ZM272.422 177.718C272.842 177.718 273.192 178.054 273.192 178.474C273.192 178.894 272.842 179.244 272.422 179.244C272.002 179.244 271.652 178.894 271.652 178.474C271.652 178.054 272.002 177.718 272.422 177.718ZM274.564 177.718C274.984 177.718 275.334 178.054 275.334 178.474C275.334 178.894 274.984 179.244 274.564 179.244C274.144 179.244 273.794 178.894 273.794 178.474C273.794 178.054 274.144 177.718 274.564 177.718ZM277.924 185.796C278.26 185.796 278.512 186.062 278.526 186.398C278.526 186.72 278.26 186.986 277.924 187H277.224C276.37 187 275.614 186.496 275.264 185.754C274.774 186.496 273.906 187 272.926 187C271.232 187 269.818 185.642 269.818 183.976V183.458C269.818 181.68 271.162 180.42 272.926 180.42H276.048V184.62C276.048 185.292 276.51 185.796 277.224 185.796H277.924ZM272.926 185.796C273.99 185.796 274.844 184.942 274.844 183.864V181.638L272.926 181.61C271.904 181.61 271.008 182.352 271.008 183.458V183.92C271.008 184.97 271.876 185.796 272.926 185.796ZM283.175 185.796C283.497 185.796 283.777 186.048 283.777 186.384C283.777 186.734 283.497 187 283.161 187H282.223C281.509 187 280.893 186.65 280.515 186.132C280.151 186.65 279.549 187 278.863 187H277.813C277.463 187 277.197 186.748 277.197 186.398C277.197 186.048 277.463 185.796 277.813 185.796H278.737C279.339 185.796 279.843 185.292 279.843 184.676V181.652H281.047V184.69C281.089 185.306 281.607 185.796 282.223 185.796H283.175ZM279.255 188.4C279.675 188.4 280.025 188.736 280.025 189.156C280.025 189.576 279.675 189.926 279.255 189.926C278.835 189.926 278.485 189.576 278.485 189.156C278.485 188.736 278.835 188.4 279.255 188.4ZM281.439 188.4C281.873 188.4 282.223 188.736 282.223 189.156C282.223 189.576 281.873 189.926 281.439 189.926C281.033 189.926 280.683 189.576 280.683 189.156C280.683 188.736 281.033 188.4 281.439 188.4ZM283.103 187C282.781 187 282.515 186.734 282.515 186.398C282.515 186.076 282.781 185.796 283.103 185.796H283.957C284.419 185.796 284.811 185.418 284.811 184.956V177.242H286.001V184.956C286.001 186.09 285.091 187 283.971 187H283.103ZM291.208 187H290.55C289.43 187 288.52 186.09 288.52 184.956V177.2H289.724V184.956C289.724 185.418 290.102 185.796 290.564 185.796H291.208V187ZM293.553 176.78C293.973 176.78 294.323 177.13 294.323 177.536C294.323 177.97 293.973 178.306 293.553 178.306C293.133 178.306 292.783 177.97 292.783 177.536C292.783 177.13 293.133 176.78 293.553 176.78ZM292.489 178.754C292.923 178.754 293.273 179.104 293.273 179.51C293.273 179.944 292.923 180.28 292.489 180.28C292.083 180.28 291.733 179.944 291.733 179.51C291.733 179.104 292.083 178.754 292.489 178.754ZM294.631 178.754C295.065 178.754 295.415 179.104 295.415 179.51C295.415 179.944 295.065 180.28 294.631 180.28C294.225 180.28 293.875 179.944 293.875 179.51C293.875 179.104 294.225 178.754 294.631 178.754ZM296.143 185.796C296.465 185.796 296.745 186.048 296.745 186.384C296.745 186.734 296.465 187 296.129 187H295.471C294.757 187 294.141 186.65 293.763 186.132C293.399 186.65 292.797 187 292.111 187H291.061C290.711 187 290.445 186.748 290.445 186.398C290.445 186.048 290.711 185.796 291.061 185.796H291.985C292.587 185.796 293.091 185.292 293.091 184.676V181.75H294.295V184.69C294.337 185.306 294.855 185.796 295.471 185.796H296.143ZM305.43 185.796C305.766 185.796 306.032 186.062 306.032 186.398C306.032 186.72 305.766 187 305.43 187H304.912C304.086 187 303.4 186.496 303.148 185.796C302.658 186.524 301.818 187 300.866 187C299.83 187 298.99 186.524 298.472 185.754C298.122 186.496 297.38 187 296.512 187H295.966C295.63 186.986 295.364 186.72 295.364 186.398C295.364 186.076 295.63 185.796 295.966 185.796H296.512C297.184 185.796 297.688 185.306 297.688 184.62V180.42H300.866C302.546 180.42 303.918 181.75 303.946 183.43V184.83C303.946 185.362 304.38 185.796 304.912 185.796H305.43ZM302.742 183.906V183.444C302.714 182.394 301.902 181.61 300.768 181.61H298.906V183.948C298.906 184.984 299.76 185.81 300.782 185.796C301.944 185.796 302.742 184.956 302.742 183.906ZM305.293 187C304.971 187 304.705 186.734 304.705 186.398C304.705 186.076 304.971 185.796 305.293 185.796H306.147C306.609 185.796 307.001 185.418 307.001 184.956V177.242H308.191V184.956C308.191 186.09 307.281 187 306.161 187H305.293ZM310.71 187V177.2H311.914V187H310.71ZM327.009 185.796H328.465V187H320.121C318.441 187 317.083 185.642 317.083 183.976V181.932H318.273V183.976C318.273 184.984 319.113 185.81 320.121 185.81H324.573V185.796H325.483C325.665 185.754 325.819 185.572 325.819 185.376V177.242H327.009V185.796ZM323.425 180.532V181.162H320.765V180.532H321.241C321.101 180.35 321.003 180.112 321.017 179.86C321.073 179.188 321.591 178.684 322.249 178.684C322.851 178.684 323.313 179.09 323.453 179.622L322.935 179.944C322.837 179.58 322.613 179.342 322.249 179.342C321.913 179.342 321.675 179.58 321.675 179.93C321.675 180.196 321.857 180.532 322.249 180.532H323.425ZM329.703 178.74C330.137 178.74 330.487 179.09 330.487 179.496C330.487 179.93 330.137 180.266 329.703 180.266C329.297 180.266 328.947 179.93 328.947 179.496C328.947 179.09 329.297 178.74 329.703 178.74ZM331.845 178.74C332.279 178.74 332.629 179.09 332.629 179.496C332.629 179.93 332.279 180.266 331.845 180.266C331.439 180.266 331.089 179.93 331.089 179.496C331.089 179.09 331.439 178.74 331.845 178.74ZM333.273 185.796C333.595 185.796 333.875 186.048 333.875 186.384C333.875 186.734 333.595 187 333.259 187H332.601C331.901 187 331.271 186.65 330.893 186.132C330.529 186.65 329.927 187 329.241 187H328.317C327.967 187 327.701 186.748 327.701 186.398C327.701 186.048 327.967 185.796 328.317 185.796H329.115C329.717 185.796 330.221 185.292 330.221 184.676V181.75H331.425V184.69C331.467 185.306 331.985 185.796 332.601 185.796H333.273ZM340.547 185.796H342.423V187H340.995V187.252C340.995 188.946 339.721 190.136 337.789 190.136C336.109 190.136 334.723 188.876 334.513 187.252L334.499 187H333.099V185.81H334.457V183.892C334.457 182.086 335.843 180.574 337.551 180.49C338.447 180.448 339.287 180.77 339.945 181.386C340.589 182.002 340.953 182.856 340.953 183.738C340.939 185.628 339.385 187 337.257 187H335.731L335.759 187.224C335.899 188.204 336.753 188.96 337.789 188.96C338.965 188.96 339.819 188.092 339.819 187.014V186.538C339.819 186.118 340.183 185.796 340.547 185.796ZM335.647 183.892V185.81H337.257C338.377 185.81 339.763 185.124 339.763 183.724C339.763 183.164 339.553 182.618 339.133 182.24C338.727 181.834 338.181 181.666 337.607 181.694C336.529 181.736 335.647 182.73 335.647 183.892ZM350.424 187H342.262C341.94 187 341.66 186.734 341.66 186.398C341.66 186.062 341.94 185.796 342.262 185.796H348.716C348.422 185.628 348.212 185.292 348.212 184.886V184.396C348.212 183.388 347.89 182.66 347.302 182.212C346.112 181.288 344.222 181.652 343.424 181.918L342.962 180.826C344.18 180.364 346.448 180.07 348.03 181.26C348.758 181.806 349.388 182.786 349.388 184.34V184.886C349.388 185.418 349.724 185.796 350.214 185.796H350.424V187ZM346.028 188.302C346.462 188.302 346.812 188.652 346.812 189.058C346.812 189.492 346.462 189.828 346.028 189.828C345.622 189.828 345.272 189.492 345.272 189.058C345.272 188.652 345.622 188.302 346.028 188.302ZM358.063 180.42V186.972C358.063 187.924 357.741 188.708 357.097 189.296C356.117 190.22 354.955 190.416 352.813 190.416V189.226C353.933 189.226 355.403 189.254 356.299 188.428C356.593 188.148 356.775 187.756 356.817 187.266L356.831 187H355.123C353.317 187 351.945 185.516 351.945 183.696C351.945 181.862 353.317 180.42 355.123 180.42H358.063ZM355.123 185.796H356.859V181.624H355.123C353.975 181.624 353.135 182.52 353.135 183.696C353.135 184.858 353.975 185.796 355.123 185.796ZM139.765 204.342C139.681 203.88 139.905 203.53 140.367 203.446C140.829 203.362 141.179 203.586 141.263 204.048C141.347 204.51 141.123 204.86 140.661 204.944C140.199 205.042 139.849 204.804 139.765 204.342ZM145.028 195.718C145.448 195.718 145.798 196.054 145.798 196.474C145.798 196.894 145.448 197.244 145.028 197.244C144.608 197.244 144.258 196.894 144.258 196.474C144.258 196.054 144.608 195.718 145.028 195.718ZM147.17 195.718C147.59 195.718 147.94 196.054 147.94 196.474C147.94 196.894 147.59 197.244 147.17 197.244C146.75 197.244 146.4 196.894 146.4 196.474C146.4 196.054 146.75 195.718 147.17 195.718ZM142.984 198.42L146.078 198.406C147.772 198.406 149.088 199.736 149.088 201.402V201.962C149.088 203.642 147.772 204.986 146.078 205C144.356 205.014 142.984 203.754 142.984 202.074V198.42ZM146.078 203.796C147.142 203.796 147.912 202.998 147.912 201.948V201.458C147.912 200.436 147.086 199.61 146.078 199.61H144.174V202.032C144.174 203.18 145.112 203.796 146.078 203.796ZM157.071 203.796V205H150.351V203.81H152.003C151.457 203.39 151.093 202.76 151.093 202.018V201.584C151.093 199.946 152.493 198.63 154.117 198.63C154.929 198.63 155.671 198.98 156.203 199.54C156.525 199.876 156.763 200.282 156.889 200.716L155.853 201.304C155.811 201.01 155.685 200.73 155.503 200.506C155.167 200.072 154.677 199.834 154.117 199.834C153.137 199.834 152.311 200.604 152.311 201.612V202.004C152.311 203.012 153.151 203.796 154.159 203.796H157.071ZM162.064 205H161.406C160.286 205 159.376 204.09 159.376 202.956V195.2H160.58V202.956C160.58 203.418 160.958 203.796 161.42 203.796H162.064V205ZM166.102 197.16C165.696 197.16 165.346 196.824 165.346 196.39C165.346 195.984 165.696 195.634 166.102 195.634C166.536 195.634 166.886 195.984 166.886 196.39C166.886 196.824 166.536 197.16 166.102 197.16ZM168.93 203.796H170.512V205H161.832V203.796H163.876C163.302 203.39 162.938 202.704 162.938 201.906V201.444C162.938 199.764 164.338 198.406 166.018 198.406C167.684 198.392 169.042 199.778 169.042 201.444V203.432C169.042 203.586 169 203.768 168.93 203.796ZM167.628 203.796C167.754 203.796 167.852 203.698 167.852 203.558V201.444C167.852 200.436 167.04 199.61 166.018 199.61C164.968 199.61 164.114 200.436 164.114 201.5V201.948C164.114 202.984 164.982 203.796 166.018 203.796H167.628ZM175.531 198.406C177.435 198.406 178.989 199.96 178.989 201.878V204.146C178.989 204.608 178.611 205 178.149 205H170.281V203.796H177.491C177.659 203.796 177.799 203.656 177.799 203.488V201.962C177.799 200.66 176.735 199.61 175.447 199.61H172.031L171.163 198.28L174.019 194.318L174.999 195.018L172.535 198.406H175.531ZM186.713 198.42V204.972C186.713 205.924 186.391 206.708 185.747 207.296C184.767 208.22 183.605 208.416 181.463 208.416V207.226C182.583 207.226 184.053 207.254 184.949 206.428C185.243 206.148 185.425 205.756 185.467 205.266L185.481 205H183.773C181.967 205 180.595 203.516 180.595 201.696C180.595 199.862 181.967 198.42 183.773 198.42H186.713ZM183.773 203.796H185.509V199.624H183.773C182.625 199.624 181.785 200.52 181.785 201.696C181.785 202.858 182.625 203.796 183.773 203.796ZM194.068 195.718C194.488 195.718 194.838 196.054 194.838 196.474C194.838 196.894 194.488 197.244 194.068 197.244C193.648 197.244 193.298 196.894 193.298 196.474C193.298 196.054 193.648 195.718 194.068 195.718ZM196.21 195.718C196.63 195.718 196.98 196.054 196.98 196.474C196.98 196.894 196.63 197.244 196.21 197.244C195.79 197.244 195.44 196.894 195.44 196.474C195.44 196.054 195.79 195.718 196.21 195.718ZM199.57 203.796C199.906 203.796 200.158 204.062 200.172 204.398C200.172 204.72 199.906 204.986 199.57 205H198.87C198.016 205 197.26 204.496 196.91 203.754C196.42 204.496 195.552 205 194.572 205C192.878 205 191.464 203.642 191.464 201.976V201.458C191.464 199.68 192.808 198.42 194.572 198.42H197.694V202.62C197.694 203.292 198.156 203.796 198.87 203.796H199.57ZM194.572 203.796C195.636 203.796 196.49 202.942 196.49 201.864V199.638L194.572 199.61C193.55 199.61 192.654 200.352 192.654 201.458V201.92C192.654 202.97 193.522 203.796 194.572 203.796ZM206.473 203.796V205H199.333V203.81H201.167C200.621 203.474 200.257 202.844 200.257 202.088L200.271 201.36C200.327 199.722 201.685 198.42 203.309 198.42C204.611 198.42 205.829 199.302 206.081 200.506L205.185 201.234C205.045 200.38 204.345 199.624 203.309 199.624C202.329 199.624 201.517 200.394 201.475 201.374L201.461 202.074C201.461 203.096 202.287 203.796 203.309 203.796H206.473ZM212.611 203.796C212.947 203.796 213.213 204.062 213.213 204.398C213.213 204.734 212.947 205 212.611 205H212.135C211.547 205 211.001 204.734 210.707 204.328V205.126C210.609 207.086 209.251 208.01 207.711 208.304L207.277 207.17C208.467 206.932 209.517 206.414 209.517 204.86V198.476H210.707V202.382C210.707 203.166 211.351 203.796 212.135 203.796H212.611ZM225.885 203.81C226.207 203.81 226.487 204.076 226.487 204.398C226.487 204.734 226.207 205 225.885 205H224.947C224.233 205 223.617 204.58 223.337 204.02C222.889 204.608 222.147 205 221.321 205C220.327 205 219.585 204.51 219.193 203.838C218.703 204.58 217.947 205 216.981 205C216.379 205 215.553 204.762 215.049 204.034C214.755 204.594 214.153 205 213.453 205H212.557C212.221 205 211.955 204.734 211.955 204.398C211.955 204.076 212.221 203.81 212.557 203.81H213.453C213.929 203.81 214.321 203.418 214.321 202.942V199.792H215.511V202.34C215.511 203.166 216.169 203.81 217.037 203.81C217.961 203.81 218.605 203.138 218.605 202.298V199.792H219.795V202.34C219.795 203.166 220.425 203.796 221.321 203.796C222.245 203.796 222.889 203.138 222.889 202.298V198.462H224.079V202.942C224.079 203.418 224.457 203.81 224.947 203.81H225.885ZM227.008 205H225.846C225.51 205 225.23 204.72 225.23 204.398C225.23 204.048 225.51 203.796 225.846 203.796H227.008C227.526 203.796 227.904 203.404 227.904 202.9V198.42H229.108V202.9C229.108 204.048 228.17 205 227.008 205ZM226.686 207.156C226.686 206.736 227.036 206.4 227.456 206.4C227.876 206.4 228.226 206.736 228.226 207.156C228.226 207.576 227.876 207.926 227.456 207.926C227.036 207.926 226.686 207.576 226.686 207.156ZM236.972 205H236.314C235.194 205 234.284 204.09 234.284 202.956V195.2H235.488V202.956C235.488 203.418 235.866 203.796 236.328 203.796H236.972V205ZM244.147 203.796H246.023V205H244.595V205.252C244.595 206.946 243.321 208.136 241.389 208.136C239.709 208.136 238.323 206.876 238.113 205.252L238.099 205H236.699V203.81H238.057V201.892C238.057 200.086 239.443 198.574 241.151 198.49C242.047 198.448 242.887 198.77 243.545 199.386C244.189 200.002 244.553 200.856 244.553 201.738C244.539 203.628 242.985 205 240.857 205H239.331L239.359 205.224C239.499 206.204 240.353 206.96 241.389 206.96C242.565 206.96 243.419 206.092 243.419 205.014V204.538C243.419 204.118 243.783 203.796 244.147 203.796ZM239.247 201.892V203.81H240.857C241.977 203.81 243.363 203.124 243.363 201.724C243.363 201.164 243.153 200.618 242.733 200.24C242.327 199.834 241.781 199.666 241.207 199.694C240.129 199.736 239.247 200.73 239.247 201.892ZM254.023 205H245.861C245.539 205 245.259 204.734 245.259 204.398C245.259 204.062 245.539 203.796 245.861 203.796H252.315C252.021 203.628 251.811 203.292 251.811 202.886V202.396C251.811 201.388 251.489 200.66 250.901 200.212C249.711 199.288 247.821 199.652 247.023 199.918L246.561 198.826C247.779 198.364 250.047 198.07 251.629 199.26C252.357 199.806 252.987 200.786 252.987 202.34V202.886C252.987 203.418 253.323 203.796 253.813 203.796H254.023V205ZM249.627 206.302C250.061 206.302 250.411 206.652 250.411 207.058C250.411 207.492 250.061 207.828 249.627 207.828C249.221 207.828 248.871 207.492 248.871 207.058C248.871 206.652 249.221 206.302 249.627 206.302ZM258.792 205H258.134C257.014 205 256.104 204.09 256.104 202.956V195.2H257.308V202.956C257.308 203.418 257.686 203.796 258.148 203.796H258.792V205ZM260.031 196.74C260.465 196.74 260.815 197.09 260.815 197.496C260.815 197.93 260.465 198.266 260.031 198.266C259.625 198.266 259.275 197.93 259.275 197.496C259.275 197.09 259.625 196.74 260.031 196.74ZM262.173 196.74C262.607 196.74 262.957 197.09 262.957 197.496C262.957 197.93 262.607 198.266 262.173 198.266C261.767 198.266 261.417 197.93 261.417 197.496C261.417 197.09 261.767 196.74 262.173 196.74ZM263.601 203.796C263.923 203.796 264.203 204.048 264.203 204.384C264.203 204.734 263.923 205 263.587 205H262.929C262.229 205 261.599 204.65 261.221 204.132C260.857 204.65 260.255 205 259.569 205H258.645C258.295 205 258.029 204.748 258.029 204.398C258.029 204.048 258.295 203.796 258.645 203.796H259.443C260.045 203.796 260.549 203.292 260.549 202.676V199.75H261.753V202.69C261.795 203.306 262.313 203.796 262.929 203.796H263.601ZM272.513 205H263.539C263.217 205 262.937 204.734 262.937 204.398C262.937 204.062 263.217 203.796 263.539 203.796H269.853C269.559 203.628 269.349 203.292 269.349 202.886V202.382C269.349 201.36 269.027 200.632 268.439 200.184C267.263 199.274 265.359 199.624 264.617 199.876L264.197 198.798C265.317 198.322 267.641 198.056 269.167 199.246C269.895 199.792 270.525 200.772 270.525 202.312V202.886C270.525 203.418 270.861 203.796 271.351 203.796H272.513V205ZM273.83 195.676C274.264 195.676 274.614 196.012 274.614 196.432C274.614 196.852 274.264 197.202 273.83 197.202C273.424 197.202 273.074 196.852 273.074 196.432C273.074 196.012 273.424 195.676 273.83 195.676ZM275.972 195.676C276.406 195.676 276.756 196.012 276.756 196.432C276.756 196.852 276.406 197.202 275.972 197.202C275.566 197.202 275.216 196.852 275.216 196.432C275.216 196.012 275.566 195.676 275.972 195.676ZM273.718 205H272.262C271.926 205 271.646 204.72 271.646 204.398C271.646 204.048 271.926 203.796 272.262 203.796H273.732C274.236 203.796 274.628 203.404 274.628 202.9V198.42H275.832V202.9C275.832 204.048 274.88 205 273.718 205ZM292.991 203.796C293.313 203.796 293.607 204.034 293.607 204.384C293.607 204.72 293.313 205 292.991 205C292.459 205 291.969 204.944 291.451 204.832C291.717 205.112 291.857 205.504 291.857 205.896C291.857 207.31 290.709 208.444 289.309 208.444H284.955C282.939 208.444 281.301 206.82 281.301 204.804V202.466H282.505V204.804C282.505 206.162 283.611 207.254 284.955 207.254H289.309C290.037 207.254 290.653 206.638 290.653 205.896C290.653 205.266 290.261 204.692 289.631 204.482L287.657 203.684L288.175 202.592C289.351 203.082 289.561 203.18 289.785 203.264C290.807 203.614 291.843 203.796 292.991 203.796ZM285.823 209.41C286.243 209.41 286.593 209.76 286.593 210.166C286.593 210.6 286.243 210.936 285.823 210.936C285.403 210.936 285.053 210.6 285.053 210.166C285.053 209.76 285.403 209.41 285.823 209.41ZM288.007 209.41C288.441 209.41 288.791 209.76 288.791 210.166C288.791 210.6 288.441 210.936 288.007 210.936C287.601 210.936 287.251 210.6 287.251 210.166C287.251 209.76 287.601 209.41 288.007 209.41ZM294.347 196.74C294.781 196.74 295.131 197.09 295.131 197.496C295.131 197.93 294.781 198.266 294.347 198.266C293.941 198.266 293.591 197.93 293.591 197.496C293.591 197.09 293.941 196.74 294.347 196.74ZM296.489 196.74C296.923 196.74 297.273 197.09 297.273 197.496C297.273 197.93 296.923 198.266 296.489 198.266C296.083 198.266 295.733 197.93 295.733 197.496C295.733 197.09 296.083 196.74 296.489 196.74ZM297.917 203.796C298.239 203.796 298.519 204.048 298.519 204.384C298.519 204.734 298.239 205 297.903 205H297.245C296.545 205 295.915 204.65 295.537 204.132C295.173 204.65 294.571 205 293.885 205H292.961C292.611 205 292.345 204.748 292.345 204.398C292.345 204.048 292.611 203.796 292.961 203.796H293.759C294.361 203.796 294.865 203.292 294.865 202.676V199.75H296.069V202.69C296.111 203.306 296.629 203.796 297.245 203.796H297.917ZM297.842 205C297.52 205 297.254 204.734 297.254 204.398C297.254 204.076 297.52 203.796 297.842 203.796H298.696C299.158 203.796 299.55 203.418 299.55 202.956V195.242H300.74V202.956C300.74 204.09 299.83 205 298.71 205H297.842ZM303.259 205V195.2H304.463V205H303.259ZM313.594 196.964C314.014 196.964 314.364 197.3 314.364 197.72C314.364 198.14 314.014 198.49 313.594 198.49C313.174 198.49 312.824 198.14 312.824 197.72C312.824 197.3 313.174 196.964 313.594 196.964ZM315.736 196.964C316.156 196.964 316.506 197.3 316.506 197.72C316.506 198.14 316.156 198.49 315.736 198.49C315.316 198.49 314.966 198.14 314.966 197.72C314.966 197.3 315.316 196.964 315.736 196.964ZM319.81 198.49V203.796C319.81 204.468 319.264 205 318.606 205H312.25C310.738 205 309.492 203.768 309.492 202.27V199.96H310.724V202.27C310.724 203.124 311.396 203.796 312.25 203.796H318.298C318.466 203.796 318.592 203.67 318.592 203.502V198.49H319.81ZM321.976 205V195.2H323.18V205H321.976ZM327.822 204.86C327.822 207.058 326.464 208.136 324.728 208.29L324.294 207.142C325.722 206.974 326.632 206.47 326.632 204.86V198.476H327.822V204.86ZM332.675 205H332.017C330.897 205 329.987 204.09 329.987 202.956V195.2H331.191V202.956C331.191 203.418 331.569 203.796 332.031 203.796H332.675V205ZM337.89 203.796C338.212 203.796 338.492 204.048 338.492 204.384C338.492 204.734 338.212 205 337.876 205H336.938C336.224 205 335.608 204.65 335.23 204.132C334.866 204.65 334.264 205 333.578 205H332.528C332.178 205 331.912 204.748 331.912 204.398C331.912 204.048 332.178 203.796 332.528 203.796H333.452C334.054 203.796 334.558 203.292 334.558 202.676V199.652H335.762V202.69C335.804 203.306 336.322 203.796 336.938 203.796H337.89ZM333.97 206.4C334.39 206.4 334.74 206.736 334.74 207.156C334.74 207.576 334.39 207.926 333.97 207.926C333.55 207.926 333.2 207.576 333.2 207.156C333.2 206.736 333.55 206.4 333.97 206.4ZM336.154 206.4C336.588 206.4 336.938 206.736 336.938 207.156C336.938 207.576 336.588 207.926 336.154 207.926C335.748 207.926 335.398 207.576 335.398 207.156C335.398 206.736 335.748 206.4 336.154 206.4ZM351.16 203.81C351.482 203.81 351.762 204.076 351.762 204.398C351.762 204.734 351.482 205 351.16 205H350.222C349.508 205 348.892 204.58 348.612 204.02C348.164 204.608 347.422 205 346.596 205C345.602 205 344.86 204.51 344.468 203.838C343.978 204.58 343.222 205 342.256 205C341.654 205 340.828 204.762 340.324 204.034C340.03 204.594 339.428 205 338.728 205H337.832C337.496 205 337.23 204.734 337.23 204.398C337.23 204.076 337.496 203.81 337.832 203.81H338.728C339.204 203.81 339.596 203.418 339.596 202.942V199.792H340.786V202.34C340.786 203.166 341.444 203.81 342.312 203.81C343.236 203.81 343.88 203.138 343.88 202.298V199.792H345.07V202.34C345.07 203.166 345.7 203.796 346.596 203.796C347.52 203.796 348.164 203.138 348.164 202.298V198.462H349.354V202.942C349.354 203.418 349.732 203.81 350.222 203.81H351.16ZM351.093 205C350.771 205 350.505 204.734 350.505 204.398C350.505 204.076 350.771 203.796 351.093 203.796H351.947C352.409 203.796 352.801 203.418 352.801 202.956V195.242H353.991V202.956C353.991 204.09 353.081 205 351.961 205H351.093ZM356.511 205V195.2H357.715V205H356.511Z"
    fill="#AFAFAF"/>
  <defs>
    <filter color-interpolation-filters="sRGB" filterUnits="userSpaceOnUse" height="274" id="filter0_d_284_201" width="585" x="-98"
            y="-89">
      <feFlood flood-opacity="0" result="BackgroundImageFix"/>
      <feColorMatrix in="SourceAlpha" result="hardAlpha" type="matrix"
                     values="0 0 0 0 0 0 0 0 0 0 0 0 0 0 0 0 0 0 127 0"/>
      <feOffset dy="8"/>
      <feGaussianBlur stdDeviation="48.5"/>
      <feColorMatrix type="matrix" values="0 0 0 0 0.725 0 0 0 0 0.725 0 0 0 0 0.725 0 0 0 0.11 0"/>
      <feBlend in2="BackgroundImageFix" mode="normal" result="effect1_dropShadow_284_201"/>
      <feBlend in="SourceGraphic" in2="effect1_dropShadow_284_201" mode="normal" result="shape"/>
    </filter>
    <clipPath id="clip0_284_201">
      <rect fill="white" height="34.0271" transform="translate(258 22.9863)" width="116"/>
    </clipPath>
  </defs>
</svg>
