<svg fill="none" height="129" viewBox="0 0 130 129" width="130" xmlns="http://www.w3.org/2000/svg">
  <circle cx="65" cy="64.5" fill="#F9FAFB" r="64.5" />
  <g clip-path="url(#clip0_299_164)">
    <path
      d="M61.4601 65.5482C58.9624 64.3046 55.949 64.8011 53.9759 66.7741L53.75 67L53.7506 48.6375C53.6761 40.8739 60 34.5 67.75 34.5H75.25C67.5 34.5 61.1761 40.8739 61.2506 48.6375L61.2501 59.5756C61.25 61.8153 62.6542 63.8136 64.761 64.5732L61.4601 65.5482ZM43.125 81.0051V46.9949C43.125 42.325 45.5666 38.2541 49.2784 36.1097C49.0914 35.612 48 34.5 48 34.5C41.0965 34.5 35.5 40.0965 35.5 47V81C35.5 87.9035 41.0964 93.5 48 93.5H54.0895C47.2055 93.5 43.125 87.9059 43.125 81.0051Z"
      fill="#F6EEFF" />
    <path
      d="M65.375 96H48C39.729 96 33 89.271 33 81V47C33 38.729 39.729 32 48 32H48.75C50.1308 32 51.25 33.1193 51.25 34.5C51.25 35.8807 50.1308 37 48.75 37H48C42.486 37 38 41.486 38 47V81C38 86.514 42.486 91 48 91H65.375C70.889 91 75.375 86.514 75.375 81V76.875C75.375 75.4943 76.4943 74.375 77.875 74.375C79.2557 74.375 80.375 75.4943 80.375 76.875V81C80.375 89.271 73.646 96 65.375 96ZM55.5177 68.7677C55.5177 68.7677 56.75 67.3684 58.5355 67.3684C59.1497 67.3684 59.7699 67.4994 60.3459 67.7861C62.6301 68.9234 65.0976 69.5 67.6794 69.4999H67.6874H80.4362H80.4441C84.8326 69.4999 88.9663 67.8101 92.0841 64.7415C95.2115 61.6634 96.957 57.5509 96.9991 53.1614C96.9991 53.1534 96.9992 53.1454 96.9992 53.1374V48.649C97.0387 44.1986 95.3449 40.0156 92.2285 36.8692C89.1186 33.7292 84.9533 32 80.5 32H67.75C63.327 32 59.1676 33.7403 56.038 36.9C52.9113 40.0569 51.2114 44.2289 51.2506 48.6491L51.25 67C51.25 68.0111 51.8591 68.9227 52.7932 69.3097C53.1026 69.4379 53.4272 69.5001 53.7494 69.5001C54.4 69.5 55.0395 69.246 55.5177 68.7677ZM67.6808 64.5C65.8781 64.5 64.1601 64.0998 62.5744 63.3102C60.5644 62.3095 58.3174 62.1196 56.2501 62.6719C56.2501 62.6719 56.2505 48.6215 56.2505 48.6135C56.221 45.5333 57.407 42.623 59.5904 40.4185C61.7739 38.214 64.6717 37 67.75 37H80.5C83.6086 37 86.5124 38.2031 88.6761 40.3879C90.8491 42.5819 92.0294 45.503 91.9994 48.6135C91.9994 48.6215 91.9992 53.1246 91.9992 53.1246C91.9329 59.3994 86.7525 64.5 80.443 64.5C80.4414 64.5 80.439 64.5 80.4375 64.5H67.6864C67.6845 64.5 67.6826 64.5 67.6808 64.5Z"
      fill="#28478A" />
    <path
      d="M83 49H65.25C63.8693 49 62.75 47.8807 62.75 46.5C62.75 45.1193 63.8693 44 65.25 44H83C84.3808 44 85.5 45.1193 85.5 46.5C85.5 47.8807 84.3808 49 83 49ZM78 55.25C78 53.8693 76.8808 52.75 75.5 52.75H65.25C63.8693 52.75 62.75 53.8693 62.75 55.25C62.75 56.6307 63.8693 57.75 65.25 57.75H75.5C76.8808 57.75 78 56.6307 78 55.25ZM56.875 79.125C55.1491 79.125 53.75 80.5241 53.75 82.25C53.75 83.9759 55.1491 85.375 56.875 85.375C58.6009 85.375 60 83.9759 60 82.25C60 80.5241 58.6009 79.125 56.875 79.125Z"
      fill="#1DBCBB" />
  </g>
  <defs>
    <clipPath id="clip0_299_164">
      <rect fill="white" height="64" transform="translate(33 32)" width="64" />
    </clipPath>
  </defs>
</svg>
