<svg width="79" height="78" viewBox="0 0 79 78" fill="none" xmlns="http://www.w3.org/2000/svg">
<rect x="0.689453" width="77.6186" height="77.6186" rx="38.8093" fill="#ECF3FE"/>
<path d="M47.8632 52.1913C49.7109 52.1913 51.2088 50.6934 51.2088 48.8456C51.2088 46.9979 49.7109 45.5 47.8632 45.5C46.0155 45.5 44.5176 46.9979 44.5176 48.8456C44.5176 50.6934 46.0155 52.1913 47.8632 52.1913Z" stroke="#28478A" stroke-width="2.23042"/>
<path d="M31.1366 52.1913C32.9844 52.1913 34.4823 50.6934 34.4823 48.8456C34.4823 46.9979 32.9844 45.5 31.1366 45.5C29.2889 45.5 27.791 46.9979 27.791 48.8456C27.791 50.6934 29.2889 52.1913 31.1366 52.1913Z" stroke="#28478A" stroke-width="2.23042"/>
<path d="M27.7899 48.799C25.9553 48.7077 24.8108 48.4347 23.9964 47.6204C23.1819 46.8059 22.909 45.6613 22.8176 43.8267M34.4812 48.8452H44.5181M51.2093 48.799C53.0439 48.7077 54.1885 48.4347 55.0029 47.6204C56.2278 46.3954 56.2278 44.4239 56.2278 40.4811V37.1355H48.3656C47.1201 37.1355 46.4974 37.1355 45.9935 36.9717C44.9749 36.6408 44.1763 35.8422 43.8454 34.8237C43.6817 34.3198 43.6817 33.697 43.6817 32.4516C43.6817 30.5835 43.6817 29.6494 43.4361 28.8934C42.9396 27.3656 41.7419 26.1678 40.2141 25.6714C39.4581 25.4258 38.524 25.4258 36.6558 25.4258H22.7715" stroke="#28478A" stroke-width="2.23042" stroke-linecap="round" stroke-linejoin="round"/>
<path d="M22.7715 32.1172H32.8084" stroke="#28478A" stroke-width="2.23042" stroke-linecap="round" stroke-linejoin="round"/>
<path d="M22.7715 37.1367H29.4627" stroke="#28478A" stroke-width="2.23042" stroke-linecap="round" stroke-linejoin="round"/>
<path d="M43.6816 28.7734H46.7282C49.1628 28.7734 50.3799 28.7734 51.3706 29.3651C52.3612 29.9568 52.9383 31.0286 54.0926 33.1721L56.2278 37.1375" stroke="#28478A" stroke-width="2.23042" stroke-linecap="round" stroke-linejoin="round"/>
</svg>
