<svg width="64" height="64" viewBox="0 0 64 64" fill="none" xmlns="http://www.w3.org/2000/svg">
<circle cx="32.0017" cy="32" r="32" fill="#28478A"/>
<path d="M31.1267 30.6667L24.2517 24" stroke="white" stroke-width="1.5"/>
<path d="M22.8767 26L26.3142 22.6666L22.1892 20.6666L20.8142 22L22.8767 26Z" stroke="white" stroke-width="1.5" stroke-linejoin="round"/>
<path d="M43.4672 27.9665C44.8572 26.6185 45.2192 24.6511 44.5529 22.9806L42.5976 24.8766H39.8476V22.21L41.8029 20.314C40.0802 19.6679 38.0513 20.0189 36.6612 21.3668C35.2707 22.7153 34.9089 24.6837 35.5762 26.3546L26.6799 34.9813C24.9567 34.3343 22.9269 34.6851 21.5363 36.0335C20.1462 37.3815 19.7843 39.3488 20.4505 41.0193L22.4057 39.1233H25.1557V41.79L23.2005 43.686C24.9232 44.3321 26.9521 43.9811 28.3422 42.6332C29.7317 41.2857 30.0939 39.3193 29.4287 37.6492L38.3274 29.0201C40.0498 29.6652 42.0776 29.3139 43.4672 27.9665Z" stroke="white" stroke-width="1.5" stroke-linejoin="round"/>
<path d="M32.2227 35.3335L39.9282 42.8055C40.6539 43.5094 41.8306 43.5094 42.5563 42.8055L43.6449 41.7499C44.3708 41.0462 44.3708 39.9052 43.6449 39.2014L35.9394 31.7294" stroke="white" stroke-width="1.5" stroke-linejoin="round"/>
</svg>
