<svg fill="none" height="452" viewBox="0 0 860 452" width="860" xmlns="http://www.w3.org/2000/svg">
  <g clip-path="url(#clip0_256_1459)">
    <path
      d="M805.783 190.071C804.451 196.591 808.054 203.306 814.536 205.68C821.703 208.327 829.654 204.688 832.317 197.564C834.569 191.531 832.278 184.914 827.147 181.449C826.423 182.15 825.659 182.792 824.876 183.415C829.399 186.023 831.514 191.55 829.634 196.591C827.539 202.216 821.233 205.096 815.554 203.014C810.169 201.029 807.291 195.287 808.818 189.896C807.8 189.993 806.801 190.052 805.783 190.071Z"
      fill="#9AA2A7"/>
    <path
      d="M800.83 121.894C799.009 126.799 801.515 132.248 806.45 134.078C811.385 135.888 816.868 133.377 818.689 128.473C820.51 123.568 818.004 118.118 813.069 116.308C808.134 114.498 802.651 116.99 800.83 121.894Z"
      fill="#354673"/>
    <path
      d="M748.566 102.646C746.744 107.55 749.251 113 754.186 114.829C759.12 116.639 764.604 114.148 766.444 109.244C768.265 104.339 765.739 98.8895 760.805 97.0795C755.87 95.25 750.387 97.7412 748.566 102.646Z"
      fill="#354673"/>
    <path
      d="M696.315 83.3967C694.493 88.3012 697 93.7508 701.935 95.5803C706.87 97.3903 712.353 94.8796 714.174 89.975C715.995 85.0705 713.488 79.6209 708.554 77.8109C703.619 76.0009 698.136 78.4921 696.315 83.3967Z"
      fill="#354673"/>
    <path
      d="M682.234 111.636L805.564 157.081C813.416 159.981 822.15 155.991 825.068 148.167L836.426 117.689C839.344 109.884 835.329 101.204 827.477 98.3042L704.147 52.8785C696.294 49.9785 687.56 53.9684 684.643 61.7729L673.285 92.2513C670.367 100.056 674.362 108.756 682.234 111.636ZM701.934 95.5794C696.999 93.7694 694.493 88.3004 696.314 83.3958C698.135 78.4913 703.618 75.9806 708.553 77.8101C713.488 79.6201 716.014 85.0696 714.173 89.9742C712.352 94.8788 706.869 97.3895 701.934 95.5794ZM754.18 114.828C749.245 113.018 746.738 107.549 748.56 102.644C750.381 97.7398 755.864 95.2291 760.799 97.0586C765.733 98.8686 768.259 104.318 766.438 109.223C764.617 114.127 759.115 116.638 754.18 114.828ZM806.445 134.076C801.51 132.247 798.984 126.797 800.825 121.893C802.646 116.988 808.129 114.478 813.084 116.307C818.018 118.117 820.544 123.567 818.704 128.471C816.863 133.376 811.38 135.887 806.445 134.076Z"
      fill="#181F3D"/>
    <path
      d="M562.646 21.3106C569.519 26.546 575.825 20.4153 582.483 23.6461C583.795 24.2689 584.813 25.1642 585.792 26.0205C588.201 28.1225 590.61 30.2439 593.018 32.3653C596.425 35.3431 602.085 36.725 605.492 35.3626C607.627 34.5257 610.681 34.7008 613.521 35.7518C614.715 36.18 615.851 36.7833 616.869 37.5035C621.98 41.1624 628.501 44.0818 635.003 45.4831C641.582 46.9039 647.986 46.7287 652.823 45.1328L554.323 8.85449L553.677 10.6061C556.928 11.7933 559.219 15.1604 559.669 17.1845C559.983 18.5663 560.981 20.065 562.646 21.3106Z"
      fill="#9AA2A7"/>
    <path
      d="M513.633 10.1985L665.142 65.9978L670.507 51.6344L652.805 45.1144C647.988 46.7104 641.565 46.8855 634.985 45.4648C628.484 44.0635 621.982 41.1635 616.852 37.4851C615.833 36.765 614.698 36.1616 613.503 35.7335C610.664 34.6825 607.609 34.5073 605.474 35.3442C602.067 36.7066 596.408 35.3442 593 32.347C590.592 30.2255 588.183 28.1041 585.774 26.0022C584.795 25.1458 583.777 24.2505 582.465 23.6277C575.807 20.4164 569.501 26.5277 562.628 21.2922C560.963 20.0271 559.965 18.548 559.651 17.1467C559.201 15.1226 556.91 11.7555 553.659 10.5683C553.091 10.3542 552.504 10.218 551.877 10.1596C548.764 9.86765 547.217 12.0864 543.3 10.5099C541.988 9.98443 540.872 9.14754 540.167 8.27172C538.737 6.44223 538.875 4.82684 539.247 3.26983L530.278 -0.0388184L513.633 10.1985Z"
      fill="#B8BEC1"/>
    <path
      d="M551.892 10.1791C552.519 10.2375 553.106 10.3737 553.674 10.5878L554.32 8.83615L539.281 3.28931C538.909 4.84632 538.772 6.46171 540.201 8.2912C540.906 9.16702 542.023 10.0039 543.335 10.5294C547.231 12.1059 548.779 9.88713 551.892 10.1791Z"
      fill="#9AA2A7"/>
    <path
      d="M789.391 186.237L794.482 188.105C798.223 189.487 802.041 190.11 805.801 190.071C806.819 190.052 807.818 189.993 808.817 189.896C814.672 189.273 820.253 187.016 824.874 183.415C825.658 182.812 826.421 182.15 827.146 181.449C830.553 178.257 833.275 174.248 835.018 169.597L858.027 107.842C864.078 91.6098 855.736 73.5874 839.424 67.5735L834.333 65.7051C848.784 71.0184 855.58 88.4958 849.529 104.728L826.5 166.483C820.449 182.714 803.823 191.55 789.391 186.237Z"
      fill="#181F3D"/>
    <path
      d="M677.439 144.995L789.391 186.237C803.823 191.55 820.449 182.714 826.5 166.482L849.529 104.727C855.58 88.4954 848.765 71.0179 834.333 65.7046L722.38 24.4634C707.929 19.1501 691.323 27.9861 685.272 44.2179L662.243 105.973C656.192 122.205 663.007 139.682 677.439 144.995ZM805.566 157.082L682.236 111.656C674.384 108.756 670.37 100.076 673.287 92.2711L684.645 61.7927C687.563 53.9882 696.297 49.9983 704.149 52.8983L827.479 98.2851C835.331 101.185 839.346 109.865 836.428 117.67L825.07 148.148C822.153 155.972 813.419 159.962 805.566 157.082Z"
      fill="#253158"/>
    <path
      d="M670.289 142.368L677.456 144.995C663.005 139.682 656.21 122.204 662.26 105.972L685.27 44.2176C691.321 27.9857 707.927 19.1497 722.378 24.463L715.211 21.8161C698.88 15.8021 680.746 24.0932 674.695 40.3056L670.485 51.6134L665.12 65.9768L661.81 74.8517L655.877 90.7527L651.666 102.06C645.635 118.312 653.958 136.354 670.289 142.368Z"
      fill="#354673"/>
    <path
      d="M636.377 83.5928L655.901 90.794L661.834 74.893L510.325 19.0742L524.855 42.5072L531.885 45.0957C534 44.7649 536.135 44.4729 538.308 44.2199C539.542 44.0837 540.893 43.9669 542.264 44.4145C544.203 45.0568 545.456 46.5944 547.277 47.4896C552.976 50.2728 558.047 44.8038 563.844 47.4312C565.959 48.3849 567.173 50.0587 568.406 51.5379C571.442 55.2552 577.551 59.3618 582.31 58.5249C583.563 58.2914 584.542 57.7464 585.894 57.6491C588.596 57.474 591.729 59.2256 593.844 61.0356C595.939 62.8456 597.623 64.9087 600.208 66.4073C605.711 69.6186 612.506 68.918 618.772 70.6307C626.566 72.791 632.186 78.1627 636.377 83.5928Z"
      fill="#B8BEC1"/>
    <path
      d="M531.883 45.1145L636.375 83.5921C632.184 78.1621 626.564 72.7904 618.751 70.6495C612.484 68.9368 605.689 69.618 600.187 66.4261C597.602 64.9275 595.918 62.8645 593.822 61.0544C591.708 59.2444 588.574 57.4928 585.872 57.6679C584.521 57.7458 583.542 58.3102 582.288 58.5438C577.53 59.4001 571.44 55.2935 568.385 51.5567C567.171 50.0581 565.957 48.4037 563.822 47.4501C558.026 44.8226 552.954 50.2916 547.256 47.5085C545.434 46.6132 544.181 45.0756 542.242 44.4334C540.872 43.9663 539.521 44.083 538.287 44.2387C536.133 44.4917 533.998 44.7642 531.883 45.1145Z"
      fill="#9AA2A7"/>
    <path d="M513.616 10.2051L665.124 66.0088L661.817 74.8783L510.309 19.0747L513.616 10.2051Z" fill="#DCE0E3"/>
    <path
      d="M721.576 120.979L740.101 71.272C740.355 70.6102 740.003 69.8707 739.337 69.6177C738.671 69.3646 737.927 69.715 737.672 70.3767L719.147 120.084C718.893 120.746 719.245 121.486 719.911 121.739C720.597 121.972 721.341 121.641 721.576 120.979Z"
      fill="#253158"/>
    <path
      d="M776.305 141.123L794.83 91.415C795.084 90.7533 794.732 90.0137 794.066 89.7607C793.4 89.5077 792.656 89.858 792.401 90.5198L773.876 140.227C773.622 140.889 773.974 141.629 774.64 141.882C775.306 142.135 776.05 141.804 776.305 141.123Z"
      fill="#253158"/>
    <path
      d="M743.782 303.482L746.425 302.45C746.406 302.392 743.88 294.918 755.609 281.801C766.536 269.578 780.91 266.503 794.813 263.506C808.952 260.47 823.56 257.336 833.704 244.413C853.796 218.8 832.921 196.535 832.725 196.321L831.256 199.279C832.04 200.077 850.016 219.053 831.472 242.681C821.974 254.786 808.482 257.686 794.226 260.762C779.872 263.837 765.048 267.028 753.495 279.932C740.433 294.51 743.645 303.132 743.782 303.482Z"
      fill="#95A4DD"/>
    <path
      d="M121.595 166.892L581.722 167.379C592.512 167.398 602.989 171.057 611.409 177.772L729.687 272.029C753.46 290.966 753.421 326.933 729.609 345.831L611.135 439.816C602.695 446.512 592.219 450.151 581.429 450.132L121.301 449.645C95.0413 449.626 73.7748 428.431 73.814 402.331L74.0098 214.089C74.0294 187.99 95.3351 166.853 121.595 166.892ZM684.334 329.308C695.692 329.327 704.915 320.18 704.915 308.891C704.935 297.603 695.731 288.436 684.373 288.436C673.015 288.417 663.792 297.564 663.792 308.852C663.792 320.141 672.976 329.288 684.334 329.308Z"
      fill="#ECB42A"/>
    <path
      d="M538.602 179.134C538.602 177.966 539.561 177.013 540.736 177.013H547.844C549.019 177.013 549.979 177.966 549.979 179.134C549.979 180.302 549.019 181.255 547.844 181.255H540.736C539.561 181.255 538.602 180.302 538.602 179.134ZM529.868 436.157H536.976C538.151 436.157 539.111 437.111 539.111 438.279C539.111 439.447 538.151 440.4 536.976 440.4H529.868C528.693 440.4 527.733 439.447 527.733 438.279C527.733 437.111 528.693 436.157 529.868 436.157ZM596.507 432.168C598.543 431.194 600.501 430.066 602.342 428.781C603.302 428.119 604.633 428.353 605.319 429.307C605.985 430.26 605.75 431.584 604.79 432.265C602.753 433.666 600.599 434.931 598.367 436.002C598.073 436.138 597.76 436.216 597.447 436.216C596.644 436.216 595.9 435.768 595.528 435.009C594.999 433.939 595.43 432.674 596.507 432.168ZM546.924 436.177H554.033C555.207 436.177 556.167 437.131 556.167 438.298C556.167 439.466 555.207 440.42 554.033 440.42H546.924C545.749 440.42 544.79 439.466 544.79 438.298C544.79 437.131 545.749 436.177 546.924 436.177ZM521.545 179.115C521.545 177.947 522.505 176.993 523.68 176.993H530.788C531.963 176.993 532.923 177.947 532.923 179.115C532.923 180.282 531.963 181.236 530.788 181.236H523.68C522.505 181.236 521.545 180.302 521.545 179.115ZM555.658 179.154C555.658 177.986 556.617 177.032 557.792 177.032H564.901C566.076 177.032 567.035 177.986 567.035 179.154C567.035 180.321 566.076 181.275 564.901 181.275H557.792C556.598 181.275 555.658 180.321 555.658 179.154ZM504.509 179.115C504.509 177.947 505.468 176.993 506.643 176.993H513.752C514.926 176.993 515.886 177.947 515.886 179.115C515.886 180.282 514.926 181.236 513.752 181.236H506.643C505.449 181.217 504.489 180.282 504.509 179.115ZM580.9 436.138C583.132 436.021 585.384 435.71 587.577 435.223C588.732 434.97 589.868 435.69 590.123 436.839C590.377 437.987 589.653 439.116 588.498 439.369C586.089 439.914 583.602 440.245 581.115 440.381C581.076 440.381 581.037 440.381 580.997 440.381C579.881 440.381 578.941 439.505 578.883 438.376C578.824 437.208 579.725 436.216 580.9 436.138ZM589.653 180.496C590.005 179.387 591.2 178.764 592.316 179.095C594.686 179.835 597.016 180.749 599.229 181.859C600.286 182.384 600.697 183.649 600.188 184.7C599.816 185.44 599.052 185.868 598.289 185.868C597.975 185.868 597.642 185.79 597.329 185.635C595.312 184.642 593.217 183.786 591.063 183.124C589.927 182.812 589.3 181.625 589.653 180.496ZM572.695 179.173C572.695 178.005 573.654 177.052 574.829 177.052H578.804C579.901 177.052 580.997 177.09 582.074 177.168C583.249 177.246 584.131 178.258 584.052 179.426C583.974 180.535 583.034 181.392 581.937 181.392C581.879 181.392 581.839 181.392 581.781 181.392C580.802 181.314 579.803 181.275 578.804 181.275H574.829C573.654 181.294 572.695 180.341 572.695 179.173ZM563.961 436.196H571.069C572.244 436.196 573.204 437.15 573.204 438.318C573.204 439.486 572.244 440.439 571.069 440.439H563.961C562.786 440.439 561.826 439.486 561.826 438.318C561.826 437.15 562.786 436.196 563.961 436.196ZM512.812 436.138H519.92C521.095 436.138 522.054 437.092 522.054 438.259C522.054 439.427 521.095 440.381 519.92 440.381H512.812C511.637 440.381 510.677 439.427 510.677 438.259C510.677 437.092 511.637 436.138 512.812 436.138ZM495.775 436.118H502.883C504.058 436.118 505.018 437.072 505.018 438.24C505.018 439.408 504.058 440.361 502.883 440.361H495.775C494.6 440.361 493.64 439.408 493.64 438.24C493.64 437.072 494.6 436.118 495.775 436.118ZM436.303 179.037C436.303 177.869 437.263 176.915 438.438 176.915H445.546C446.721 176.915 447.681 177.869 447.681 179.037C447.681 180.205 446.721 181.158 445.546 181.158H438.438C437.243 181.158 436.303 180.205 436.303 179.037ZM410.513 436.021H417.622C418.797 436.021 419.756 436.975 419.756 438.143C419.756 439.31 418.797 440.264 417.622 440.264H410.513C409.338 440.264 408.379 439.31 408.379 438.143C408.379 436.975 409.338 436.021 410.513 436.021ZM419.247 179.017C419.247 177.85 420.206 176.896 421.381 176.896H428.49C429.665 176.896 430.624 177.85 430.624 179.017C430.624 180.185 429.665 181.139 428.49 181.139H421.381C420.206 181.139 419.247 180.185 419.247 179.017ZM444.626 436.06H451.734C452.909 436.06 453.869 437.014 453.869 438.182C453.869 439.349 452.909 440.303 451.734 440.303H444.626C443.451 440.303 442.491 439.349 442.491 438.182C442.491 437.014 443.431 436.06 444.626 436.06ZM427.569 436.041H434.678C435.853 436.041 436.812 436.994 436.812 438.162C436.812 439.33 435.853 440.283 434.678 440.283H427.569C426.395 440.283 425.435 439.33 425.435 438.162C425.435 436.994 426.395 436.041 427.569 436.041ZM487.452 179.095C487.452 177.927 488.412 176.974 489.587 176.974H496.695C497.87 176.974 498.83 177.927 498.83 179.095C498.83 180.263 497.87 181.217 496.695 181.217H489.587C488.392 181.197 487.452 180.263 487.452 179.095ZM478.719 436.099H485.827C487.002 436.099 487.962 437.053 487.962 438.22C487.962 439.388 487.002 440.342 485.827 440.342H478.719C477.544 440.342 476.584 439.388 476.584 438.22C476.584 437.053 477.544 436.099 478.719 436.099ZM470.396 179.076C470.396 177.908 471.356 176.954 472.531 176.954H479.639C480.814 176.954 481.774 177.908 481.774 179.076C481.774 180.243 480.814 181.197 479.639 181.197H472.531C471.356 181.178 470.396 180.243 470.396 179.076ZM461.662 436.079H468.771C469.946 436.079 470.905 437.033 470.905 438.201C470.905 439.369 469.946 440.322 468.771 440.322H461.662C460.487 440.322 459.528 439.369 459.528 438.201C459.528 437.033 460.487 436.079 461.662 436.079ZM453.34 179.056C453.34 177.888 454.299 176.935 455.474 176.935H462.583C463.758 176.935 464.717 177.888 464.717 179.056C464.717 180.224 463.758 181.178 462.583 181.178H455.474C454.299 181.178 453.34 180.224 453.34 179.056ZM705.228 269.888C704.758 269.888 704.288 269.733 703.896 269.421L698.355 265.003C697.434 264.264 697.297 262.94 698.022 262.025C698.746 261.111 700.097 260.974 701.018 261.695L706.56 266.112C707.48 266.852 707.617 268.176 706.893 269.09C706.481 269.616 705.855 269.888 705.228 269.888ZM678.635 248.693C678.165 248.693 677.695 248.538 677.304 248.226L671.762 243.808C670.841 243.069 670.704 241.745 671.429 240.831C672.173 239.916 673.505 239.78 674.425 240.5L679.967 244.918C680.887 245.657 681.024 246.981 680.3 247.896C679.869 248.421 679.262 248.693 678.635 248.693ZM652.023 227.479C651.553 227.479 651.083 227.324 650.691 227.012L645.149 222.594C644.229 221.855 644.092 220.531 644.816 219.616C645.561 218.702 646.892 218.565 647.813 219.285L653.354 223.703C654.275 224.443 654.412 225.766 653.687 226.681C653.276 227.207 652.649 227.479 652.023 227.479ZM665.339 238.086C664.869 238.086 664.399 237.931 664.007 237.619L658.465 233.201C657.545 232.462 657.408 231.138 658.132 230.223C658.857 229.309 660.208 229.172 661.129 229.893L666.67 234.311C667.591 235.05 667.728 236.374 667.003 237.288C666.572 237.814 665.965 238.086 665.339 238.086ZM691.932 259.281C691.462 259.281 690.992 259.125 690.6 258.814L685.058 254.396C684.138 253.656 684.001 252.333 684.725 251.418C685.469 250.503 686.801 250.367 687.721 251.087L693.263 255.505C694.184 256.245 694.321 257.568 693.596 258.483C693.185 259.009 692.558 259.281 691.932 259.281ZM728.394 294.664C728.139 294.761 727.865 294.82 727.591 294.82C726.749 294.82 725.946 294.314 725.613 293.496C724.771 291.414 723.753 289.409 722.598 287.502C721.991 286.509 722.304 285.205 723.303 284.602C724.301 283.999 725.613 284.31 726.22 285.322C727.513 287.424 728.629 289.643 729.549 291.939C730.019 292.99 729.491 294.217 728.394 294.664ZM610.038 422.767L615.58 418.369C616.5 417.648 617.832 417.785 618.576 418.699C619.32 419.614 619.164 420.938 618.243 421.677L612.701 426.076C612.31 426.387 611.84 426.543 611.37 426.543C610.743 426.543 610.116 426.27 609.705 425.745C608.981 424.83 609.118 423.487 610.038 422.767ZM93.2198 206.168C92.8869 206.985 92.0841 207.472 91.2421 207.472C90.968 207.472 90.6937 207.413 90.4196 207.316C89.3425 206.868 88.8138 205.623 89.2839 204.552C90.2434 202.275 91.3792 200.076 92.7108 197.974C93.3374 196.981 94.6494 196.689 95.6481 197.293C96.6469 197.915 96.9405 199.219 96.3334 200.212C95.1193 202.1 94.0814 204.105 93.2198 206.168ZM90.6154 215.179C90.2433 217.378 90.0475 219.616 90.0475 221.855C90.0475 223.022 89.088 223.956 87.9131 223.956C86.7381 223.956 85.7786 223.003 85.7982 221.835C85.7982 219.363 86.0135 216.892 86.4248 214.478C86.6206 213.33 87.7172 212.551 88.8726 212.746C90.0084 212.921 90.7917 214.011 90.6154 215.179ZM625.43 206.284C624.96 206.284 624.49 206.129 624.098 205.817L618.556 201.399C617.636 200.66 617.499 199.336 618.224 198.422C618.968 197.507 620.299 197.371 621.22 198.091L626.761 202.509C627.682 203.248 627.819 204.572 627.094 205.486C626.664 206.012 626.057 206.284 625.43 206.284ZM612.114 195.677C611.644 195.677 611.174 195.522 610.782 195.21L605.24 190.792C604.32 190.053 604.183 188.729 604.908 187.814C605.652 186.9 606.983 186.763 607.904 187.484L613.445 191.902C614.366 192.641 614.503 193.965 613.778 194.879C613.367 195.405 612.741 195.677 612.114 195.677ZM638.726 216.892C638.256 216.892 637.786 216.736 637.395 216.424L631.853 212.006C630.933 211.267 630.795 209.943 631.52 209.029C632.245 208.114 633.596 207.978 634.516 208.698L640.058 213.116C640.978 213.855 641.115 215.179 640.391 216.094C639.96 216.619 639.353 216.892 638.726 216.892ZM402.21 178.998C402.21 177.83 403.17 176.876 404.345 176.876H411.453C412.628 176.876 413.588 177.83 413.588 178.998C413.588 180.166 412.628 181.119 411.453 181.119H404.345C403.15 181.119 402.191 180.166 402.21 178.998ZM650.025 391.043L655.567 386.644C656.488 385.924 657.819 386.061 658.563 386.975C659.288 387.89 659.151 389.214 658.23 389.953L652.689 394.352C652.297 394.663 651.827 394.819 651.357 394.819C650.73 394.819 650.104 394.546 649.692 394.021C648.948 393.106 649.105 391.783 650.025 391.043ZM730.705 311.363C729.53 311.344 728.59 310.39 728.609 309.222V308.93C728.609 306.789 728.453 304.629 728.12 302.547C727.944 301.398 728.747 300.308 729.902 300.133C731.057 299.958 732.154 300.736 732.33 301.904C732.683 304.22 732.878 306.595 732.878 308.95V309.3C732.859 310.468 731.919 311.383 730.744 311.383H730.705V311.363ZM623.374 412.179L628.935 407.781C629.855 407.041 631.187 407.197 631.931 408.112C632.656 409.027 632.519 410.35 631.598 411.09L626.037 415.488C625.645 415.799 625.175 415.955 624.705 415.955C624.079 415.955 623.452 415.683 623.041 415.157C622.297 414.242 622.453 412.919 623.374 412.179ZM636.69 401.611L642.251 397.213C643.172 396.473 644.503 396.629 645.247 397.544C645.972 398.458 645.835 399.782 644.914 400.521L639.353 404.92C638.961 405.231 638.491 405.387 638.021 405.387C637.395 405.387 636.768 405.115 636.357 404.589C635.632 403.674 635.769 402.351 636.69 401.611ZM676.677 369.907L682.238 365.508C683.159 364.788 684.49 364.924 685.234 365.839C685.959 366.754 685.822 368.077 684.902 368.817L679.34 373.215C678.949 373.527 678.479 373.682 678.009 373.682C677.382 373.682 676.755 373.41 676.344 372.884C675.6 371.97 675.757 370.627 676.677 369.907ZM663.341 380.475L668.903 376.076C669.823 375.356 671.155 375.492 671.899 376.407C672.623 377.322 672.486 378.645 671.566 379.385L666.005 383.783C665.613 384.095 665.143 384.251 664.673 384.251C664.046 384.251 663.42 383.978 663.008 383.453C662.284 382.538 662.421 381.195 663.341 380.475ZM689.993 359.338L695.535 354.94C696.455 354.22 697.787 354.356 698.531 355.271C699.255 356.185 699.118 357.509 698.198 358.249L692.656 362.647C692.265 362.958 691.795 363.114 691.325 363.114C690.698 363.114 690.071 362.842 689.66 362.316C688.936 361.401 689.073 360.059 689.993 359.338ZM727.474 318.545C727.748 317.416 728.884 316.715 730.039 316.988C731.175 317.26 731.88 318.409 731.606 319.537C731.018 321.931 730.254 324.306 729.295 326.563C728.962 327.381 728.159 327.867 727.337 327.867C727.062 327.867 726.788 327.809 726.514 327.692C725.437 327.245 724.928 325.999 725.378 324.929C726.24 322.846 726.945 320.705 727.474 318.545ZM720.737 333.064C721.423 332.11 722.754 331.916 723.714 332.597C724.673 333.278 724.869 334.601 724.184 335.555C722.735 337.54 721.09 339.428 719.327 341.16C718.916 341.569 718.368 341.764 717.82 341.764C717.271 341.764 716.723 341.55 716.312 341.141C715.489 340.304 715.489 338.961 716.331 338.144C717.937 336.587 719.406 334.874 720.737 333.064ZM711.338 272.632C712.082 271.718 713.414 271.582 714.334 272.302L715.763 273.43C717.213 274.579 718.583 275.824 719.856 277.109C720.679 277.946 720.659 279.289 719.837 280.106C719.425 280.515 718.877 280.709 718.348 280.709C717.8 280.709 717.252 280.495 716.821 280.067C715.665 278.899 714.412 277.771 713.1 276.72L711.671 275.591C710.75 274.871 710.594 273.547 711.338 272.632ZM703.329 348.751L708.89 344.352C709.81 343.613 711.142 343.768 711.886 344.683C712.63 345.598 712.474 346.921 711.553 347.661L705.992 352.059C705.6 352.371 705.13 352.527 704.66 352.527C704.034 352.527 703.407 352.254 702.996 351.729C702.252 350.814 702.408 349.49 703.329 348.751ZM121.281 434.523C123.455 435.067 125.688 435.418 127.939 435.593C129.114 435.69 129.996 436.702 129.898 437.87C129.8 438.979 128.879 439.816 127.783 439.816C127.724 439.816 127.665 439.816 127.606 439.816C125.139 439.622 122.652 439.213 120.263 438.629C119.127 438.357 118.422 437.208 118.716 436.06C118.99 434.931 120.146 434.25 121.281 434.523ZM87.8934 229.62C89.0684 229.62 90.0279 230.574 90.0279 231.742V238.806C90.0279 239.974 89.0684 240.928 87.8934 240.928C86.7185 240.928 85.7589 239.974 85.7589 238.806V231.742C85.7589 230.554 86.7185 229.62 87.8934 229.62ZM129.251 178.706C129.251 177.538 130.211 176.584 131.386 176.584H138.651C139.826 176.584 140.786 177.538 140.786 178.706C140.786 179.874 139.826 180.827 138.651 180.827H131.386C130.191 180.827 129.251 179.874 129.251 178.706ZM106.712 427.711C108.514 429.034 110.452 430.221 112.45 431.233C113.507 431.759 113.918 433.043 113.37 434.075C112.998 434.814 112.254 435.223 111.471 435.223C111.138 435.223 110.824 435.145 110.511 434.99C108.298 433.861 106.183 432.557 104.186 431.097C103.246 430.396 103.031 429.073 103.736 428.139C104.44 427.205 105.772 427.01 106.712 427.711ZM137.711 435.729H144.819C145.994 435.729 146.954 436.683 146.954 437.851C146.954 439.018 145.994 439.972 144.819 439.972H137.711C136.536 439.972 135.577 439.018 135.577 437.851C135.577 436.683 136.536 435.729 137.711 435.729ZM99.1925 189.858C100.935 188.126 102.854 186.51 104.871 185.07C105.831 184.389 107.163 184.603 107.848 185.557C108.533 186.51 108.318 187.834 107.358 188.515C105.537 189.819 103.794 191.279 102.208 192.855C101.797 193.264 101.249 193.478 100.7 193.478C100.152 193.478 99.6038 193.264 99.1925 192.855C98.3505 192.038 98.3505 190.695 99.1925 189.858ZM112.802 182.813C112.352 181.742 112.861 180.496 113.958 180.049C116.249 179.095 118.638 178.336 121.046 177.772C122.202 177.499 123.338 178.219 123.612 179.348C123.886 180.477 123.161 181.625 122.026 181.898C119.832 182.404 117.678 183.104 115.602 183.961C115.328 184.078 115.054 184.116 114.78 184.116C113.938 184.116 113.135 183.63 112.802 182.813ZM171.824 435.768H178.932C180.107 435.768 181.066 436.722 181.066 437.89C181.066 439.057 180.107 440.011 178.932 440.011H171.824C170.649 440.011 169.689 439.057 169.689 437.89C169.689 436.722 170.649 435.768 171.824 435.768ZM180.557 178.764C180.557 177.597 181.517 176.643 182.692 176.643H189.8C190.975 176.643 191.935 177.597 191.935 178.764C191.935 179.932 190.975 180.886 189.8 180.886H182.692C181.497 180.866 180.557 179.932 180.557 178.764ZM154.767 435.749H161.876C163.051 435.749 164.01 436.702 164.01 437.87C164.01 439.038 163.051 439.992 161.876 439.992H154.767C153.592 439.992 152.633 439.038 152.633 437.87C152.633 436.702 153.592 435.749 154.767 435.749ZM163.501 178.745C163.501 177.577 164.461 176.623 165.636 176.623H172.744C173.919 176.623 174.878 177.577 174.878 178.745C174.878 179.913 173.919 180.866 172.744 180.866H165.636C164.461 180.866 163.501 179.913 163.501 178.745ZM146.445 178.725C146.445 177.558 147.404 176.604 148.579 176.604H155.688C156.863 176.604 157.822 177.558 157.822 178.725C157.822 179.893 156.863 180.847 155.688 180.847H148.579C147.404 180.847 146.445 179.893 146.445 178.725ZM87.8347 280.456C89.0096 280.456 89.9692 281.41 89.9692 282.578V289.643C89.9692 290.811 89.0096 291.764 87.8347 291.764C86.6597 291.764 85.7003 290.811 85.7003 289.643V282.578C85.7198 281.391 86.6597 280.456 87.8347 280.456ZM87.8347 297.389C89.0096 297.389 89.9692 298.343 89.9692 299.51V306.575C89.9692 307.743 89.0096 308.697 87.8347 308.697C86.6597 308.697 85.7003 307.743 85.7003 306.575V299.51C85.7003 298.343 86.6401 297.389 87.8347 297.389ZM188.86 435.788H195.969C197.144 435.788 198.103 436.741 198.103 437.909C198.103 439.077 197.144 440.03 195.969 440.03H188.86C187.685 440.03 186.726 439.077 186.726 437.909C186.745 436.741 187.685 435.788 188.86 435.788ZM87.8152 314.341C88.9901 314.341 89.9496 315.295 89.9496 316.462V323.527C89.9496 324.695 88.9901 325.649 87.8152 325.649C86.6402 325.649 85.6807 324.695 85.6807 323.527V316.462C85.6807 315.295 86.6402 314.341 87.8152 314.341ZM87.8738 246.553C89.0488 246.553 90.0084 247.506 90.0084 248.674V255.739C90.0084 256.907 89.0488 257.86 87.8738 257.86C86.6989 257.86 85.7393 256.907 85.7393 255.739V248.674C85.7589 247.506 86.6989 246.553 87.8738 246.553ZM87.8542 263.505C89.0292 263.505 89.9888 264.458 89.9888 265.626V272.691C89.9888 273.859 89.0292 274.812 87.8542 274.812C86.6793 274.812 85.7198 273.859 85.7198 272.691V265.626C85.7394 264.458 86.6793 263.505 87.8542 263.505ZM87.7759 348.245C88.9509 348.245 89.9104 349.198 89.9104 350.366V357.431C89.9104 358.599 88.9509 359.553 87.7759 359.553C86.601 359.553 85.6414 358.599 85.6414 357.431V350.366C85.6414 349.179 86.601 348.225 87.7759 348.245ZM87.7368 382.129C88.9117 382.129 89.8713 383.083 89.8713 384.251V391.316C89.8713 392.483 88.9117 393.437 87.7368 393.437C86.5618 393.437 85.6024 392.483 85.6024 391.316V384.251C85.6024 383.063 86.5618 382.129 87.7368 382.129ZM87.9131 399.062C89.088 398.886 90.165 399.684 90.3412 400.833C90.6741 403.051 91.2029 405.231 91.9078 407.353C92.2799 408.462 91.6728 409.669 90.537 410.019C90.3217 410.097 90.0867 410.116 89.8713 410.116C88.9705 410.116 88.148 409.552 87.8542 408.657C87.0905 406.321 86.5031 403.908 86.131 401.456C85.9352 400.327 86.7381 399.256 87.9131 399.062ZM92.9066 415.177C93.9053 414.573 95.2172 414.885 95.8243 415.897C96.9797 417.804 98.3113 419.634 99.78 421.327C100.544 422.222 100.446 423.546 99.545 424.305C99.1338 424.655 98.6442 424.811 98.1546 424.811C97.5475 424.811 96.96 424.558 96.5292 424.071C94.9235 422.203 93.4548 420.179 92.1624 418.077C91.5945 417.084 91.9078 415.78 92.9066 415.177ZM87.7563 365.177C88.9313 365.177 89.8909 366.131 89.8909 367.299V374.364C89.8909 375.531 88.9313 376.485 87.7563 376.485C86.5814 376.485 85.6218 375.531 85.6218 374.364V367.299C85.6218 366.131 86.5814 365.177 87.7563 365.177ZM87.7956 331.293C88.9705 331.293 89.93 332.246 89.93 333.414V340.479C89.93 341.647 88.9705 342.601 87.7956 342.601C86.6206 342.601 85.661 341.647 85.661 340.479V333.414C85.661 332.227 86.6206 331.293 87.7956 331.293ZM342.308 435.963H349.416C350.591 435.963 351.551 436.916 351.551 438.084C351.551 439.252 350.591 440.206 349.416 440.206H342.308C341.133 440.206 340.173 439.252 340.173 438.084C340.193 436.897 341.133 435.963 342.308 435.963ZM334.005 178.92C334.005 177.752 334.964 176.799 336.139 176.799H343.248C344.423 176.799 345.382 177.752 345.382 178.92C345.382 180.088 344.423 181.041 343.248 181.041H336.139C334.945 181.041 334.005 180.088 334.005 178.92ZM393.477 436.021H400.585C401.76 436.021 402.719 436.975 402.719 438.143C402.719 439.31 401.76 440.264 400.585 440.264H393.477C392.302 440.264 391.342 439.31 391.342 438.143C391.342 436.955 392.282 436.002 393.477 436.021ZM197.594 178.784C197.594 177.616 198.553 176.662 199.728 176.662H206.837C208.012 176.662 208.971 177.616 208.971 178.784C208.971 179.951 208.012 180.905 206.837 180.905H199.728C198.553 180.886 197.594 179.951 197.594 178.784ZM308.215 435.924H315.323C316.498 435.924 317.458 436.878 317.458 438.045C317.458 439.213 316.498 440.167 315.323 440.167H308.215C307.04 440.167 306.08 439.213 306.08 438.045C306.08 436.858 307.04 435.924 308.215 435.924ZM316.949 178.901C316.949 177.733 317.908 176.779 319.083 176.779H326.191C327.366 176.779 328.326 177.733 328.326 178.901C328.326 180.068 327.366 181.022 326.191 181.022H319.083C317.908 181.022 316.949 180.068 316.949 178.901ZM325.271 435.943H332.379C333.554 435.943 334.514 436.897 334.514 438.065C334.514 439.232 333.554 440.186 332.379 440.186H325.271C324.096 440.186 323.137 439.232 323.137 438.065C323.137 436.878 324.096 435.943 325.271 435.943ZM376.42 436.002H383.529C384.704 436.002 385.663 436.955 385.663 438.123C385.663 439.291 384.704 440.245 383.529 440.245H376.42C375.245 440.245 374.286 439.291 374.286 438.123C374.286 436.936 375.245 436.002 376.42 436.002ZM385.154 178.978C385.154 177.811 386.114 176.857 387.289 176.857H394.397C395.572 176.857 396.531 177.811 396.531 178.978C396.531 180.146 395.572 181.1 394.397 181.1H387.289C386.094 181.1 385.154 180.146 385.154 178.978ZM368.098 178.959C368.098 177.791 369.057 176.837 370.232 176.837H377.341C378.516 176.837 379.475 177.791 379.475 178.959C379.475 180.127 378.516 181.08 377.341 181.08H370.232C369.057 181.08 368.098 180.127 368.098 178.959ZM351.042 178.939C351.042 177.772 352.001 176.818 353.176 176.818H360.284C361.459 176.818 362.419 177.772 362.419 178.939C362.419 180.107 361.459 181.061 360.284 181.061H353.176C352.001 181.061 351.042 180.107 351.042 178.939ZM359.364 435.982H366.472C367.647 435.982 368.607 436.936 368.607 438.104C368.607 439.271 367.647 440.225 366.472 440.225H359.364C358.189 440.225 357.23 439.271 357.23 438.104C357.23 436.916 358.189 435.982 359.364 435.982ZM299.892 178.881C299.892 177.713 300.852 176.76 302.027 176.76H309.135C310.31 176.76 311.27 177.713 311.27 178.881C311.27 180.049 310.31 181.002 309.135 181.002H302.027C300.852 181.002 299.892 180.049 299.892 178.881ZM291.159 435.904H298.267C299.442 435.904 300.401 436.858 300.401 438.026C300.401 439.194 299.442 440.147 298.267 440.147H291.159C289.984 440.147 289.024 439.194 289.024 438.026C289.044 436.839 289.984 435.904 291.159 435.904ZM222.973 435.826H230.081C231.256 435.826 232.216 436.78 232.216 437.948C232.216 439.116 231.256 440.069 230.081 440.069H222.973C221.798 440.069 220.838 439.116 220.838 437.948C220.838 436.78 221.798 435.826 222.973 435.826ZM214.65 178.784C214.65 177.616 215.61 176.662 216.785 176.662H223.893C225.068 176.662 226.028 177.616 226.028 178.784C226.028 179.951 225.068 180.905 223.893 180.905H216.785C215.61 180.905 214.65 179.971 214.65 178.784ZM205.917 435.807H213.025C214.2 435.807 215.159 436.761 215.159 437.928C215.159 439.096 214.2 440.05 213.025 440.05H205.917C204.742 440.05 203.782 439.096 203.782 437.928C203.782 436.761 204.742 435.807 205.917 435.807ZM240.009 435.846H247.118C248.293 435.846 249.252 436.8 249.252 437.967C249.252 439.135 248.293 440.089 247.118 440.089H240.009C238.834 440.089 237.875 439.135 237.875 437.967C237.894 436.8 238.834 435.846 240.009 435.846ZM231.706 178.803C231.706 177.635 232.666 176.682 233.841 176.682H240.949C242.124 176.682 243.084 177.635 243.084 178.803C243.084 179.971 242.124 180.925 240.949 180.925H233.841C232.646 180.925 231.706 179.99 231.706 178.803ZM274.122 435.885H281.23C282.405 435.885 283.365 436.839 283.365 438.006C283.365 439.174 282.405 440.128 281.23 440.128H274.122C272.947 440.128 271.987 439.174 271.987 438.006C271.987 436.839 272.947 435.885 274.122 435.885ZM282.856 178.862C282.856 177.694 283.815 176.74 284.99 176.74H292.099C293.273 176.74 294.233 177.694 294.233 178.862C294.233 180.029 293.273 180.983 292.099 180.983H284.99C283.796 180.983 282.856 180.029 282.856 178.862ZM248.743 178.823C248.743 177.655 249.703 176.701 250.878 176.701H257.986C259.161 176.701 260.121 177.655 260.121 178.823C260.121 179.99 259.161 180.944 257.986 180.944H250.878C249.703 180.944 248.743 179.99 248.743 178.823ZM257.066 435.865H264.174C265.349 435.865 266.309 436.819 266.309 437.987C266.309 439.155 265.349 440.108 264.174 440.108H257.066C255.891 440.108 254.931 439.155 254.931 437.987C254.931 436.819 255.891 435.865 257.066 435.865ZM265.799 178.842C265.799 177.674 266.759 176.721 267.934 176.721H275.042C276.217 176.721 277.177 177.674 277.177 178.842C277.177 180.01 276.217 180.964 275.042 180.964H267.934C266.759 180.964 265.799 180.01 265.799 178.842Z"
      fill="white"/>
    <path
      d="M698.874 323.332L700.735 321.23C697.21 317.026 696.25 312.861 697.406 308.093C702.184 288.416 743.444 270.666 743.855 270.491C746.224 269.479 767.452 259.339 782.471 214.302C786.917 200.97 793.438 193.01 801.878 190.636C815.057 186.918 829.352 197.331 829.489 197.448L831.173 195.385C830.566 194.878 815.722 183.804 801.094 187.93C791.695 190.577 784.528 199.16 779.769 213.426C767.883 249.062 750.885 264.438 742.719 267.922C742.288 268.097 699.716 286.431 694.625 307.45C693.274 313.055 694.801 318.466 698.874 323.332Z"
      fill="#95A4DD"/>
    <mask height="285" id="mask0_256_1459" maskUnits="userSpaceOnUse" style="mask-type:luminance" width="675" x="73"
          y="166">
      <path
        d="M121.595 166.893L581.722 167.38C592.512 167.399 602.989 171.058 611.409 177.773L729.687 272.03C753.46 290.967 753.421 326.934 729.609 345.832L611.135 439.817C602.695 446.513 592.219 450.152 581.429 450.133L121.301 449.646C95.0413 449.627 73.7748 428.432 73.814 402.332L74.0098 214.09C74.0294 187.991 95.3351 166.854 121.595 166.893ZM684.334 329.309C695.692 329.328 704.915 320.181 704.915 308.892C704.935 297.604 695.731 288.437 684.373 288.437C673.015 288.418 663.792 297.565 663.792 308.853C663.792 320.142 672.976 329.289 684.334 329.309Z"
        fill="white"/>
    </mask>
    <g mask="url(#mask0_256_1459)">
      <path
        d="M23.5856 387.055C24.6431 341.571 58.8731 305.098 100.897 305.176C142.921 305.254 177.014 341.882 177.856 387.366C176.896 345.911 142.823 312.572 100.877 312.494C58.9318 312.416 24.7214 345.619 23.5856 387.055ZM549.608 273.685C551.213 269.734 554.405 267.613 557.245 266.484C560.221 265.277 562.845 265.18 562.845 265.18C547.277 256.013 526.853 249.824 500.025 249.415C499.222 249.396 498.439 249.396 497.636 249.396L488.452 249.377L469.3 249.338C446.35 208.155 408.575 184.858 376.225 171.857C328.229 160.802 287.125 161.795 287.125 161.795L61.1251 161.328C61.1251 161.367 61.125 161.405 61.1446 161.425C61.1642 163.293 61.9083 165.084 63.2399 166.427L75.6356 178.786L75.616 178.805L72.992 185.5L67.9984 198.248L62.1237 213.254L57.796 224.289L54.702 232.21L50.8247 242.117L50.766 242.234C49.6889 244.978 47.7111 247.158 45.2633 248.52C43.4225 249.552 41.3469 250.116 39.1536 250.116L30.3024 250.097C29.3624 252.238 28.4225 254.417 27.5217 256.636C27.5217 256.656 27.5021 256.656 27.5021 256.675C3.67029 326.546 23.7227 349.142 23.7227 349.142L8.54633 349.103C6.2356 349.103 4.15991 350.018 2.63251 351.516C1.12463 353.015 0.184692 355.078 0.1651 357.375L0.086731 397.643C0.086731 402.216 3.80743 405.934 8.42883 405.953L36.4121 406.012C34.963 400.601 34.2189 394.918 34.2384 389.04C34.3168 352.489 64.1995 322.926 100.956 323.004C137.731 323.081 167.477 352.762 167.399 389.313C167.379 395.19 166.615 400.854 165.147 406.265L440.044 406.829C438.654 401.399 437.91 395.716 437.929 389.858C438.008 352.528 468.517 322.342 506.076 322.42C543.635 322.498 574.007 352.82 573.929 390.15C573.909 396.008 573.146 401.691 571.736 407.102L612.506 407.179C616.599 407.179 619.928 403.89 619.928 399.823L620.006 357.705C620.006 353.638 616.697 350.329 612.624 350.31L575.143 350.232C576.377 350.232 614.837 350.134 608.414 326.293H608.433C607.689 323.704 606.827 320.979 605.809 318.157C606.377 320.337 605.398 321.661 603.361 322.245C601.286 322.828 598.113 322.653 594.334 321.797C580 318.624 556.834 306.11 550.959 290.52C549.471 286.57 548.766 283.222 548.648 280.4C548.433 277.753 548.844 275.515 549.608 273.685ZM428.706 387.892C429.763 342.408 463.993 305.935 506.017 306.013C548.041 306.091 582.134 342.719 582.976 388.203C582.017 346.748 547.943 313.409 505.998 313.331C464.052 313.253 429.842 346.437 428.706 387.892ZM25.7788 341.104C22.7827 303.95 39.134 267.321 43.5596 258.174L32.2802 258.154C31.4577 258.154 30.7919 257.492 30.7919 256.675C30.7919 255.858 31.4773 255.196 32.2802 255.196L48.4161 255.235L47.2607 257.415C47.0453 257.823 25.348 299.065 28.7162 340.89C28.7749 341.707 28.1679 342.427 27.3455 342.486C27.2867 342.486 27.2475 342.486 27.2084 342.486C26.4838 342.447 25.8376 341.863 25.7788 341.104ZM88.8929 248.54C83.0181 248.52 78.9059 242.74 80.8837 237.232L82.8027 232.055L88.4229 216.816L93.201 203.853L96.8824 193.869L98.9582 188.225C100.975 182.6 106.341 178.825 112.353 178.844L118.208 178.863L134.383 178.902L141.961 178.922L166.4 178.98L229.475 179.116L245.65 179.155H248.372L265.056 179.194L279.253 179.214L303.692 179.272L311.878 179.292C311.878 179.292 396.082 179.661 441.728 249.299L380.807 249.182L356.369 249.123L342.171 249.104L325.487 249.065L262.863 248.929L246.688 248.89H243.515L219.077 248.832L204.899 248.812L188.215 248.773L151.615 248.695L135.44 248.656L123.475 248.637L100.995 248.598L88.8929 248.54ZM81.1578 300.213L81.2557 256.753C81.2557 255.935 81.9215 255.274 82.744 255.274C83.5664 255.274 84.2322 255.935 84.2322 256.753L84.1343 300.213C84.1343 301.03 83.4686 301.692 82.6461 301.692C81.8236 301.692 81.1578 301.03 81.1578 300.213ZM112.685 273.744C112.685 271.214 114.761 269.17 117.307 269.17L136.145 269.209C138.691 269.209 140.747 271.272 140.747 273.802C140.747 276.332 138.671 278.376 136.126 278.376L117.287 278.337C114.761 278.317 112.685 276.274 112.685 273.744ZM252.543 341.571L252.7 269.442C252.7 268.625 253.365 267.963 254.188 267.963C255.01 267.963 255.676 268.625 255.676 269.442L255.519 341.532C255.519 341.668 255.852 355.428 263.313 369.072C273.281 387.308 290.591 396.572 314.756 396.611C315.579 396.611 316.244 397.273 316.244 398.09C316.244 398.908 315.579 399.57 314.756 399.57C283.189 399.511 267.935 383.707 260.709 370.473C252.895 356.226 252.562 342.194 252.543 341.571ZM272.791 274.075C272.791 271.544 274.867 269.501 277.432 269.501L296.27 269.54C298.816 269.54 300.872 271.603 300.872 274.133C300.872 276.663 298.796 278.707 296.251 278.707L277.412 278.668C274.847 278.648 272.791 276.605 272.791 274.075ZM442.903 328.687L443.021 269.832C443.021 269.014 443.706 268.353 444.509 268.353C445.331 268.353 445.997 269.014 445.997 269.832L445.88 328.687C445.88 329.504 445.214 330.166 444.391 330.166C443.569 330.185 442.903 329.524 442.903 328.687Z"
        fill="#DC4048"/>
      <path
        d="M549.607 273.686C548.843 275.515 548.432 277.753 548.55 280.459L594.235 321.856C598.034 322.712 601.207 322.887 603.263 322.303L549.607 273.686Z"
        fill="#CED3D6"/>
      <path
        d="M594.236 321.856L548.551 280.459C548.668 283.281 549.373 286.629 550.861 290.58C556.736 306.169 579.902 318.684 594.236 321.856Z"
        fill="#B8BEC1"/>
      <path
        d="M603.266 322.303C605.302 321.719 606.281 320.396 605.714 318.216C605.694 318.197 605.694 318.177 605.694 318.158C605.537 317.768 605.4 317.36 605.244 316.97C605.224 316.932 605.224 316.912 605.204 316.893C603.814 313.175 602.13 309.302 600.152 305.41L557.208 266.504C554.369 267.652 551.196 269.754 549.571 273.705L603.266 322.303Z"
        fill="#B8BEC1"/>
      <path
        d="M600.172 305.391C599.252 303.581 598.273 301.771 597.215 299.961C589.852 287.311 578.965 274.66 562.829 265.162C562.829 265.162 560.205 265.259 557.228 266.466L600.172 305.391Z"
        fill="#CED3D6"/>
      <path
        d="M72.4096 360.917C56.7045 376.467 56.6458 401.73 72.2921 417.339C87.9188 432.948 113.337 432.987 129.042 417.456C144.747 401.905 144.786 376.642 129.159 361.033C113.533 345.444 88.1146 345.385 72.4096 360.917ZM74.6029 415.062C60.2294 400.718 60.2881 377.518 74.7203 363.233C89.1526 348.947 112.514 349.006 126.868 363.349C141.242 377.693 141.202 400.893 126.751 415.178C112.318 429.445 88.9763 429.406 74.6029 415.062Z"
        fill="#29355F"/>
      <path
        d="M100.799 355.234C100.799 355.234 90.6946 355.214 92.4766 359.788C94.2782 364.381 97.6464 374.346 100.76 374.346C103.874 374.346 107.3 364.401 109.102 359.827C110.923 355.253 100.799 355.234 100.799 355.234Z"
        fill="#697179"/>
      <path
        d="M76.6148 365.121C76.6148 365.121 69.4476 372.225 73.9711 374.21C78.5142 376.195 87.9921 380.866 90.1853 378.686C92.3982 376.507 87.7179 367.067 85.7597 362.552C83.7819 358.036 76.6148 365.121 76.6148 365.121Z"
        fill="#697179"/>
      <path
        d="M71.1952 380.867C66.5933 379.057 66.5738 389.119 66.5738 389.119C66.5738 389.119 66.5542 399.181 71.1757 397.391C75.7775 395.619 85.8232 392.252 85.8232 389.158C85.8037 386.063 75.7775 382.677 71.1952 380.867Z"
        fill="#697179"/>
      <path
        d="M73.9152 404.066C69.3721 406.032 76.5197 413.155 76.5197 413.155C76.5197 413.155 83.6477 420.278 85.6451 415.763C87.6229 411.267 92.3422 401.828 90.149 399.648C87.9558 397.468 78.4583 402.12 73.9152 404.066Z"
        fill="#697179"/>
      <path
        d="M92.3604 418.564C90.5588 423.138 100.663 423.157 100.663 423.157C100.663 423.157 110.787 423.177 108.986 418.603C107.204 414.01 103.816 404.045 100.703 404.045C97.5889 404.025 94.162 413.971 92.3604 418.564Z"
        fill="#697179"/>
      <path
        d="M111.257 399.707C109.064 401.886 113.725 411.326 115.702 415.841C117.68 420.357 124.847 413.253 124.847 413.253C124.847 413.253 132.015 406.149 127.472 404.164C122.948 402.198 113.47 397.527 111.257 399.707Z"
        fill="#697179"/>
      <path
        d="M130.311 381.004C125.689 382.775 115.663 386.142 115.663 389.236C115.663 392.331 125.67 395.737 130.272 397.527C134.874 399.337 134.893 389.275 134.893 389.275C134.893 389.275 134.932 379.213 130.311 381.004Z"
        fill="#697179"/>
      <path
        d="M115.816 362.611C113.819 367.107 109.119 376.546 111.313 378.726C113.506 380.925 123.003 376.273 127.546 374.327C132.089 372.361 124.942 365.238 124.942 365.238C124.942 365.238 117.794 358.095 115.816 362.611Z"
        fill="#697179"/>
      <path
        d="M100.645 423.158C100.645 423.158 90.5401 423.139 92.3417 418.565C94.1629 413.991 97.5702 404.027 100.684 404.046C103.797 404.046 107.166 414.011 108.967 418.604C110.769 423.178 100.645 423.158 100.645 423.158ZM100.801 355.234C100.801 355.234 110.925 355.253 109.104 359.827C107.303 364.401 103.876 374.366 100.762 374.346C97.6485 374.346 94.2803 364.381 92.4787 359.788C90.6772 355.214 100.801 355.234 100.801 355.234ZM124.848 413.271C124.848 413.271 117.681 420.356 115.703 415.86C113.726 411.344 109.065 401.905 111.258 399.725C113.471 397.545 122.949 402.217 127.473 404.202C132.016 406.167 124.848 413.271 124.848 413.271ZM134.914 389.254C134.914 389.254 134.894 399.317 130.292 397.507C125.69 395.716 115.664 392.31 115.684 389.215C115.684 386.121 125.71 382.773 130.332 380.983C134.933 379.212 134.914 389.254 134.914 389.254ZM115.821 362.61C117.818 358.114 124.946 365.218 124.946 365.218C124.946 365.218 132.074 372.341 127.551 374.307C123.008 376.273 113.51 380.905 111.317 378.706C109.104 376.526 113.824 367.106 115.821 362.61ZM66.5517 389.118C66.5517 389.118 66.5713 379.056 71.1732 380.866C75.775 382.657 85.8012 386.063 85.7816 389.157C85.7816 392.252 75.7358 395.599 71.134 397.39C66.5321 399.18 66.5517 389.118 66.5517 389.118ZM74.698 363.213C60.2658 377.499 60.2266 400.698 74.5805 415.042C88.954 429.386 112.316 429.445 126.728 415.159C141.161 400.874 141.219 377.674 126.846 363.33C112.492 348.986 89.1302 348.947 74.698 363.213ZM73.9734 374.21C69.4499 372.225 76.6171 365.121 76.6171 365.121C76.6171 365.121 83.7842 358.036 85.762 362.532C87.7398 367.048 92.4005 376.487 90.1876 378.667C87.9944 380.866 78.5166 376.176 73.9734 374.21ZM76.5191 413.174C76.5191 413.174 69.3716 406.051 73.9147 404.085C78.4578 402.119 87.9552 397.487 90.1484 399.686C92.3417 401.866 87.6419 411.306 85.6445 415.801C83.6471 420.278 76.5191 413.174 76.5191 413.174ZM89.6197 389.177C89.6393 383.085 94.6132 378.161 100.743 378.18C106.872 378.2 111.826 383.143 111.807 389.235C111.787 395.327 106.813 400.251 100.684 400.231C94.5741 400.212 89.6197 395.249 89.6197 389.177Z"
        fill="#ABB2B6"/>
      <path
        d="M100.74 378.16C94.6103 378.141 89.6364 383.084 89.6168 389.157C89.5972 395.248 94.5711 400.192 100.681 400.211C106.81 400.231 111.784 395.287 111.804 389.215C111.823 383.143 106.888 378.18 100.74 378.16Z"
        fill="#B8BEC1"/>
      <path d="M72.935 185.5L75.5591 178.805C75.4024 178.98 73.7575 180.693 71.1139 183.846L72.935 185.5Z"
            fill="#181F3D"/>
      <path
        d="M408.754 177.171L415.941 183.691C423.382 186.493 430.765 189.646 437.991 193.189L433.565 189.199C426.085 184.975 417.84 180.927 408.754 177.171Z"
        fill="#334370"/>
      <path
        d="M433.562 189.199L437.988 193.189C442.511 195.407 446.956 197.801 451.304 200.351C445.938 196.575 440.044 192.819 433.562 189.199Z"
        fill="#253158"/>
      <path
        d="M315.27 155.899C315.27 155.899 342.881 158.449 376.191 171.858C389.174 174.836 402.646 178.709 415.962 183.692L408.776 177.172C384.141 166.973 353.397 158.916 315.27 155.899Z"
        fill="#253158"/>
      <path
        d="M415.936 183.691L488.411 249.378L497.595 249.397C497.595 249.397 496.831 247.782 495.108 244.96L437.986 193.189C430.76 189.628 423.377 186.494 415.936 183.691Z"
        fill="#253158"/>
      <path d="M229.52 179.097L246.752 248.87L262.908 248.909L245.695 179.136L229.52 179.097Z" fill="#CB3536"/>
      <path
        d="M129.156 223.102L133.229 239.587L135.462 248.637L151.637 248.676L141.121 206.033L136.304 186.59L134.404 178.902L118.229 178.863L129.156 223.102Z"
        fill="#CB3536"/>
      <path d="M88.425 216.816L82.8048 232.055L101.016 248.559L123.497 248.618L88.425 216.816Z" fill="#253158"/>
      <path d="M96.8988 193.869L93.1978 203.873L132.754 239.704L133.224 239.587L129.151 223.102L96.8988 193.869Z"
            fill="#253158"/>
      <path d="M136.302 186.59L141.119 206.033L188.254 248.754L204.938 248.773L136.302 186.59Z" fill="#253158"/>
      <path d="M142 178.922L219.116 248.812L243.574 248.851L166.439 178.98L142 178.922Z" fill="#253158"/>
      <path d="M248.392 179.136L325.527 249.026L342.211 249.065L265.076 179.175L248.392 179.136Z" fill="#253158"/>
      <path d="M279.277 179.195L356.412 249.085L380.87 249.143L303.735 179.253L279.277 179.195Z" fill="#253158"/>
      <path
        d="M437.99 193.189L495.112 244.96C490.06 236.766 476.94 218.394 451.306 200.352C446.959 197.783 442.494 195.408 437.99 193.189Z"
        fill="#181F3D"/>
      <path
        d="M415.937 183.69C402.621 178.688 389.148 174.815 376.165 171.857C408.535 184.858 446.289 208.155 469.24 249.338L488.392 249.377L415.937 183.69Z"
        fill="#181F3D"/>
      <path
        d="M80.8869 237.232C78.9091 242.74 83.0214 248.54 88.8961 248.54L101.018 248.559L82.8059 232.055L80.8869 237.232Z"
        fill="#181F3D"/>
      <path
        d="M93.2007 203.873L88.4226 216.816L123.495 248.618L135.459 248.637L133.227 239.587L132.757 239.704L93.2007 203.873Z"
        fill="#181F3D"/>
      <path
        d="M98.9803 188.244L96.9046 193.888L129.157 223.121L118.23 178.883L112.375 178.863C106.363 178.844 100.997 182.62 98.9803 188.244Z"
        fill="#181F3D"/>
      <path d="M141.117 206.034L151.632 248.677L188.251 248.755L141.117 206.034Z" fill="#181F3D"/>
      <path d="M134.401 178.902L136.3 186.59L204.937 248.773L219.114 248.812L141.999 178.922L134.401 178.902Z"
            fill="#181F3D"/>
      <path d="M166.444 178.98L243.579 248.851L246.751 248.87L229.519 179.097L166.444 178.98Z" fill="#181F3D"/>
      <path d="M245.687 179.136L262.9 248.909L325.524 249.026L248.389 179.136H245.687Z" fill="#181F3D"/>
      <path d="M265.076 179.175L342.211 249.065L356.409 249.085L279.274 179.194L265.076 179.175Z" fill="#181F3D"/>
      <path
        d="M303.733 179.252L380.868 249.143L441.789 249.259C396.143 179.642 311.938 179.252 311.938 179.252H303.733ZM381.28 228.415C379.635 223.394 383.571 218.236 388.877 218.567C406.874 219.657 418.094 227.169 424.635 233.884C428.61 237.971 425.751 244.783 420.033 244.783L392.128 244.725C388.858 244.725 385.96 242.623 384.941 239.548L381.28 228.415Z"
        fill="#181F3D"/>
      <path
        d="M505.864 378.997C499.734 378.978 494.76 383.921 494.741 389.994C494.721 396.085 499.695 401.029 505.805 401.048C511.934 401.068 516.908 396.124 516.928 390.052C516.947 383.96 511.993 379.017 505.864 378.997Z"
        fill="#B8BEC1"/>
      <path
        d="M481.718 365.958C481.718 365.958 474.551 373.062 479.094 375.047C483.617 377.032 493.115 381.703 495.308 379.523C497.521 377.343 492.841 367.904 490.882 363.389C488.904 358.873 481.718 365.958 481.718 365.958Z"
        fill="#697179"/>
      <path
        d="M476.294 381.703C471.693 379.893 471.673 389.955 471.673 389.955C471.673 389.955 471.653 400.017 476.255 398.227C480.877 396.455 490.903 393.088 490.903 389.994C490.922 386.899 480.896 383.513 476.294 381.703Z"
        fill="#697179"/>
      <path
        d="M479.031 404.903C474.488 406.868 481.635 413.992 481.635 413.992C481.635 413.992 488.783 421.115 490.78 416.619C492.778 412.123 497.477 402.684 495.284 400.504C493.071 398.305 483.554 402.937 479.031 404.903Z"
        fill="#697179"/>
      <path
        d="M497.46 419.402C495.639 423.976 505.763 423.995 505.763 423.995C505.763 423.995 515.867 424.015 514.085 419.441C512.303 414.848 508.915 404.883 505.802 404.883C502.708 404.863 499.281 414.809 497.46 419.402Z"
        fill="#697179"/>
      <path
        d="M516.377 400.543C514.164 402.723 518.844 412.162 520.802 416.678C522.78 421.193 529.947 414.089 529.947 414.089C529.947 414.089 537.114 406.985 532.591 405C528.067 403.034 518.57 398.363 516.377 400.543Z"
        fill="#697179"/>
      <path
        d="M535.413 381.82C530.811 383.592 520.785 386.959 520.766 390.053C520.766 393.148 530.772 396.554 535.374 398.344C539.976 400.154 539.996 390.092 539.996 390.092C539.996 390.092 540.035 380.03 535.413 381.82Z"
        fill="#697179"/>
      <path
        d="M520.917 363.447C518.92 367.943 514.22 377.382 516.414 379.562C518.607 381.761 528.104 377.11 532.647 375.164C537.19 373.198 530.043 366.075 530.043 366.075C530.043 366.075 522.915 358.932 520.917 363.447Z"
        fill="#697179"/>
      <path
        d="M505.92 356.071C505.92 356.071 495.796 356.051 497.597 360.625C499.379 365.218 502.767 375.183 505.881 375.183C508.994 375.183 512.421 365.238 514.223 360.664C516.024 356.09 505.92 356.071 505.92 356.071Z"
        fill="#697179"/>
      <path
        d="M477.526 361.753C461.821 377.304 461.782 402.566 477.409 418.175C493.055 433.784 518.473 433.823 534.178 418.292C549.883 402.741 549.922 377.479 534.296 361.87C518.649 346.261 493.231 346.222 477.526 361.753ZM479.719 415.898C465.346 401.554 465.385 378.355 479.837 364.069C494.269 349.784 517.611 349.842 531.985 364.186C546.358 378.53 546.3 401.729 531.867 416.015C517.435 430.281 494.093 430.242 479.719 415.898Z"
        fill="#29355F"/>
      <path
        d="M471.668 389.956C471.668 389.956 471.687 379.894 476.289 381.704C480.891 383.495 490.917 386.901 490.898 389.995C490.898 393.09 480.872 396.437 476.25 398.228C471.648 400.018 471.668 389.956 471.668 389.956ZM520.918 363.448C522.915 358.952 530.043 366.056 530.043 366.056C530.043 366.056 537.191 373.179 532.647 375.145C528.104 377.111 518.607 381.743 516.414 379.544C514.22 377.364 518.92 367.944 520.918 363.448ZM540.01 390.092C540.01 390.092 539.991 400.155 535.389 398.345C530.787 396.554 520.781 393.148 520.781 390.053C520.781 386.959 530.807 383.611 535.428 381.821C540.03 380.03 540.01 390.092 540.01 390.092ZM505.761 423.996C505.761 423.996 495.637 423.977 497.458 419.403C499.259 414.829 502.686 404.864 505.8 404.884C508.914 404.884 512.282 414.849 514.083 419.442C515.885 424.016 505.761 423.996 505.761 423.996ZM505.917 356.072C505.917 356.072 516.022 356.091 514.22 360.665C512.419 365.239 508.992 375.203 505.878 375.184C502.765 375.184 499.397 365.219 497.595 360.626C495.793 356.052 505.917 356.072 505.917 356.072ZM529.945 414.09C529.945 414.09 522.778 421.174 520.8 416.678C518.822 412.163 514.162 402.724 516.374 400.544C518.568 398.364 528.065 403.035 532.589 405.02C537.112 407.005 529.945 414.09 529.945 414.09ZM479.716 415.9C494.09 430.244 517.432 430.302 531.864 416.017C546.296 401.731 546.336 378.532 531.982 364.188C517.608 349.844 494.266 349.805 479.834 364.071C465.382 378.337 465.323 401.536 479.716 415.9ZM479.09 375.048C474.566 373.063 481.714 365.959 481.714 365.959C481.714 365.959 488.881 358.874 490.859 363.37C492.836 367.886 497.497 377.325 495.284 379.505C493.111 381.704 483.613 377.013 479.09 375.048ZM481.616 413.992C481.616 413.992 474.488 406.869 479.011 404.903C483.554 402.938 493.052 398.306 495.245 400.505C497.438 402.685 492.739 412.124 490.741 416.62C488.763 421.116 481.616 413.992 481.616 413.992ZM494.736 390.015C494.756 383.923 499.729 378.999 505.859 379.018C511.988 379.038 516.942 383.981 516.923 390.073C516.903 396.165 511.929 401.089 505.8 401.069C499.69 401.05 494.736 396.087 494.736 390.015Z"
        fill="#ABB2B6"/>
      <path
        d="M100.855 327.986C66.8596 327.909 39.2289 355.254 39.1505 389.06C39.0722 422.867 66.5855 450.328 100.6 450.387C134.615 450.465 162.245 423.12 162.304 389.313C162.363 355.526 134.85 328.064 100.855 327.986ZM72.2839 417.339C56.6376 401.73 56.6963 376.468 72.4014 360.917C88.1065 345.386 113.505 345.425 129.151 361.034C144.778 376.643 144.739 401.906 129.034 417.456C113.329 433.007 87.9302 432.948 72.2839 417.339Z"
        fill="#181F3D"/>
      <path
        d="M567.427 390.15C567.505 356.343 539.992 328.881 505.977 328.823C471.963 328.745 444.332 356.09 444.273 389.897C444.195 423.703 471.708 451.165 505.723 451.223C539.718 451.301 567.348 423.956 567.427 390.15ZM477.406 418.176C461.78 402.567 461.819 377.304 477.524 361.754C493.229 346.222 518.647 346.261 534.293 361.87C549.92 377.479 549.881 402.742 534.176 418.293C518.451 433.843 493.053 433.785 477.406 418.176Z"
        fill="#181F3D"/>
      <path
        d="M117.325 269.171C114.779 269.171 112.703 271.215 112.703 273.745C112.703 276.275 114.759 278.338 117.305 278.338L136.143 278.377C138.689 278.377 140.765 276.334 140.765 273.803C140.765 271.273 138.708 269.21 136.163 269.21L117.325 269.171Z"
        fill="#971C22"/>
      <path
        d="M277.433 269.502C274.888 269.502 272.812 271.546 272.792 274.076C272.792 276.606 274.849 278.669 277.414 278.669L296.252 278.708C298.798 278.708 300.874 276.664 300.874 274.134C300.874 271.604 298.817 269.541 296.272 269.541L277.433 269.502Z"
        fill="#971C22"/>
      <path
        d="M287.067 161.795C287.067 161.795 328.17 160.802 376.167 171.857C342.857 158.447 315.246 155.898 315.246 155.898C304.906 155.061 293.999 154.613 282.543 154.594L68.2923 154.146C64.2975 154.146 61.0468 157.357 61.0468 161.328L287.067 161.795Z"
        fill="#E06C76"/>
      <path
        d="M100.902 305.176C58.8778 305.099 24.6478 341.571 23.5903 387.056C24.7261 345.6 58.9365 312.416 100.882 312.494C142.827 312.572 176.901 345.912 177.86 387.367C177.018 341.883 142.925 305.274 100.902 305.176Z"
        fill="#971C22"/>
      <path
        d="M506.016 306.013C463.993 305.935 429.763 342.408 428.705 387.893C429.841 346.437 464.051 313.253 505.997 313.331C547.942 313.409 582.016 346.749 582.975 388.204C582.133 342.72 548.021 306.111 506.016 306.013Z"
        fill="#971C22"/>
      <path
        d="M612.543 350.349C612.543 350.349 612.289 340.209 608.353 326.333H608.333C614.756 350.155 576.296 350.272 575.063 350.272L612.543 350.349Z"
        fill="#971C22"/>
      <path
        d="M443.022 269.831L442.905 328.686C442.905 329.504 443.57 330.165 444.393 330.165C445.215 330.165 445.881 329.504 445.881 328.686L445.999 269.831C445.999 269.014 445.333 268.352 444.51 268.352C443.707 268.352 443.022 269.014 443.022 269.831Z"
        fill="#971C22"/>
      <path
        d="M388.878 218.587C383.571 218.257 379.635 223.414 381.28 228.435L384.941 239.568C385.96 242.663 388.858 244.745 392.128 244.745L420.033 244.804C425.751 244.823 428.61 238.011 424.635 233.904C418.094 227.19 406.874 219.658 388.878 218.587Z"
        fill="#CB3536"/>
      <path
        d="M260.688 370.492C267.913 383.727 283.168 399.511 314.735 399.589C315.557 399.589 316.223 398.927 316.223 398.109C316.223 397.292 315.557 396.63 314.735 396.63C290.57 396.572 273.259 387.308 263.292 369.091C255.831 355.447 255.498 341.687 255.498 341.551L255.655 269.462C255.655 268.644 254.989 267.982 254.167 267.982C253.344 267.982 252.678 268.644 252.678 269.462L252.522 341.59C252.561 342.193 252.894 356.226 260.688 370.492Z"
        fill="#971C22"/>
      <path
        d="M81.2545 256.754L81.1565 300.214C81.1565 301.032 81.8223 301.693 82.6448 301.693C83.4672 301.693 84.1331 301.032 84.1331 300.214L84.231 256.754C84.231 255.937 83.5651 255.275 82.7427 255.275C81.9202 255.275 81.2545 255.937 81.2545 256.754Z"
        fill="#971C22"/>
    </g>
  </g>
  <defs>
    <clipPath id="clip0_256_1459">
      <rect fill="white" height="451.221" transform="matrix(-1 0 0 1 860 0)" width="860"/>
    </clipPath>
  </defs>
</svg>
