<svg width="424" height="316" viewBox="0 0 424 316" fill="none" xmlns="http://www.w3.org/2000/svg">
<g clip-path="url(#clip0_19_3102)" filter="url(#filter0_d_19_3102)">
<path opacity="0.2" d="M119.665 54.8643L13.1502 114.001C9.23629 116.178 4.41376 116.19 0.476524 114.046L-13.1757 106.595C-16.3907 104.845 -16.4023 100.39 -13.2106 98.6168L93.3044 39.4796C97.2184 37.3027 102.041 37.2915 105.978 39.4348L119.63 46.8858C122.857 48.6364 122.869 53.0801 119.665 54.8643Z" fill="black"/>
<path d="M121.656 0.126057C121.761 0.395372 121.831 0.687135 121.831 1.04622C121.831 2.75189 120.584 4.82786 119.058 5.68069C118.732 5.86023 118.429 5.95001 118.138 5.99489C118.511 6.9936 119.536 7.29658 120.747 6.62329C122.285 5.77046 123.52 3.69449 123.52 1.98882C123.52 0.642245 122.739 -0.0647081 121.656 0.126057Z" fill="#474747"/>
<path d="M116.425 7.63322C117.054 9.27155 118.743 9.7653 120.747 8.64315C123.286 7.22924 125.348 3.79547 125.348 0.967659C125.348 -1.86015 123.286 -3.00474 120.747 -1.59084C118.743 -0.47991 117.054 1.88782 116.425 4.23311V7.63322ZM120.747 6.62328C119.209 7.47612 117.974 6.78038 117.974 5.07472C117.974 3.36905 119.221 1.29308 120.747 0.440253C122.284 -0.41258 123.519 0.283149 123.519 1.98881C123.519 3.69448 122.284 5.77045 120.747 6.62328Z" fill="#5C5C5C"/>
<path d="M122.39 -2.7691C122.32 -2.81399 122.262 -2.84765 122.192 -2.88132L122.029 -2.97109V-2.94865C121.225 -3.26285 120.2 -3.17308 119.059 -2.53345C117.055 -1.42253 115.366 0.945208 114.737 3.2905L114.562 3.975L110.252 6.33152L110.812 10.6518L115.786 7.93619C115.855 7.98107 115.902 8.0484 115.972 8.08206V8.09329L117.498 8.94612C117.02 8.6768 116.648 8.23916 116.415 7.64443V7.59954V4.25554C117.044 1.92147 118.733 -0.446258 120.736 -1.56841C122.006 -2.27536 123.147 -2.34269 123.986 -1.88261L122.39 -2.7691Z" fill="#474747"/>
<path d="M86.7449 67.7579L34.7222 96.6981L13.5916 84.9492L65.626 56.009L86.7449 67.7579Z" fill="#707070"/>
<path d="M22.9714 85.2521L31.3002 64.6158L42.3198 70.7315L40.3628 75.5792L22.9714 85.2521Z" fill="#AD4800"/>
<path d="M21.7562 80.2136L20.3118 83.8045L22.9677 85.2521L24.7732 80.7859L21.7562 80.2136Z" fill="#F0751F"/>
<path d="M34.9219 13.3785V25.6997L44.5902 20.3246V18.7536L34.9219 13.3785Z" fill="#AD4800"/>
<path d="M32.2424 8.48596V24.2073L34.9216 25.6997V13.3785L44.59 18.7536V31.0748L47.7002 32.8141V17.0928L32.2424 8.48596Z" fill="#EB6200"/>
<path d="M68.5745 5.47871L47.7002 17.0929L32.2424 8.48606L53.1168 -3.11694L68.5745 5.47871Z" fill="#FF7C21"/>
<path d="M94.7026 9.01343L49.6807 67.713L59.3374 73.0768L104.348 14.3773L94.7026 9.01343Z" fill="#EB6200"/>
<path d="M-3.92651 63.864L41.177 72.2913L50.8337 77.6552L5.71855 69.2279L-3.92651 63.864Z" fill="#EB6200"/>
<path d="M104.348 14.3772L59.3374 73.0767L62.6689 76.7462L107.679 18.0354L104.348 14.3772Z" fill="#FF7E33"/>
<path d="M5.71879 69.2278L50.8339 77.6551L47.5141 85.0276L2.39893 76.6003L5.71879 69.2278Z" fill="#FF7E33"/>
<path d="M103.483 1.09107H103.46C102.983 0.79931 102.412 0.642212 101.748 0.642212L95.9001 0.687095L94.4674 4.70438L55.8289 4.98492L68.5608 10.3263L104.136 10.1244L105.545 6.05096L112.884 6.3315L103.483 1.09107Z" fill="#FF7E33"/>
<path d="M98.743 12.7838L3.11938 65.9736L5.96165 69.0259L99.3021 17.1041L98.743 12.7838Z" fill="#474747"/>
<path d="M111.409 6.00609L105.561 6.05098L104.128 10.0683L65.49 10.3488V17.755L101.484 17.4969L100.051 21.5142L105.899 21.4693C108.951 21.4468 112.632 18.0019 114.135 13.7826L114.193 13.6255C115.707 9.39498 114.449 5.98365 111.409 6.00609Z" fill="#FF9142"/>
<path d="M111.163 13.7152C110.441 15.7687 108.659 17.4295 107.168 17.4407C106.434 17.4407 105.921 17.0592 105.688 16.4083C105.758 16.442 105.851 16.442 105.933 16.442C107.412 16.4308 109.206 14.7476 109.94 12.694C110.324 11.6504 110.336 10.6966 110.056 10.0345C111.349 10.2141 111.85 11.7851 111.163 13.7152Z" fill="#91481D"/>
<path d="M109.937 12.7054C109.203 14.7589 107.409 16.4309 105.93 16.4533C105.837 16.4533 105.755 16.4533 105.685 16.4197C105.406 15.7576 105.441 14.8038 105.802 13.7602C106.536 11.6954 108.33 10.0346 109.809 10.0122C109.902 10.0122 109.984 10.0122 110.054 10.0459C110.333 10.7079 110.322 11.6618 109.937 12.7054Z" fill="#B05723"/>
<path d="M36.7167 14.3772L-2.7489 58.242L-5.16017 56.9066L-10.9845 63.3702C-14.0248 66.7478 -15.2595 71.5394 -13.7452 74.0867L-13.687 74.1764C-13.419 74.6141 -13.0929 74.9507 -12.7085 75.2088L-12.6968 75.22C-12.6036 75.2874 -12.4988 75.3323 -12.394 75.3884L-2.59747 80.8308L3.99565 63.6058L5.94097 64.6943L44.6261 21.7385L44.5911 18.7648L36.7167 14.3772Z" fill="#FF7C21"/>
<path d="M-1.33898 68.7454L4.49699 62.2706L5.94142 64.6832L44.6265 21.7274V29.156L8.5973 69.1494L10.0417 71.562L4.20577 78.0368C1.16548 81.4145 -2.52714 82.0877 -4.04146 79.5517L-4.0997 79.4619C-5.61402 76.9146 -4.37927 72.1231 -1.33898 68.7454Z" fill="#FF8C3B"/>
<path d="M2.93591 75.4334C1.45653 77.0717 -0.337359 77.3971 -1.07122 76.1628C-1.12947 76.073 -1.17606 75.9832 -1.22266 75.8822C-0.372306 76.0057 0.745962 75.5007 1.70115 74.4234C3.06404 72.8973 3.68142 70.8101 3.18053 69.5084C3.63482 69.5645 4.01923 69.789 4.26385 70.2266C5.00936 71.4722 4.40363 73.795 2.93591 75.4334Z" fill="#91481D"/>
<path d="M1.70069 74.4346C0.745501 75.5119 -0.372768 76.0168 -1.22312 75.8934C-1.73566 74.6029 -1.11828 72.5045 0.256259 70.9784C1.22309 69.9011 2.32971 69.3961 3.18006 69.5196C3.68096 70.8213 3.07523 72.9085 1.70069 74.4346Z" fill="#B05723"/>
<path d="M68.5736 21.1999L47.6992 32.8142V17.0929L68.5736 5.47864V21.1999Z" fill="#FF8C3B"/>
<path d="M79.6169 68.8351L36.6685 92.7256L46.3718 68.7117L69.9136 55.6162L79.6169 68.8351Z" fill="#FF8C3B"/>
<path d="M30.0192 59.7905L26.1052 69.4747L29.1106 70.0357L30.8812 65.6594L41.9823 71.8312L34.0146 91.278L36.6705 92.7256L46.3738 68.7116L30.0192 59.7905Z" fill="#EB6200"/>
<path d="M53.0246 75.9047C53.0246 77.846 51.6151 80.1913 49.8678 81.1675C48.5166 81.9194 47.375 81.6052 46.9324 80.5167C47.4216 80.6177 48.0157 80.5055 48.6447 80.1464C50.3804 79.1813 51.7898 76.836 51.7898 74.906C51.7898 74.4683 51.72 74.0868 51.5685 73.7726C52.4538 73.896 53.0246 74.6703 53.0246 75.9047Z" fill="#91481D"/>
<path d="M51.7869 74.9059C51.7869 76.8472 50.3774 79.1925 48.6417 80.1463C48.0127 80.4942 47.407 80.6176 46.9294 80.5166C46.8013 80.2249 46.7197 79.8433 46.7197 79.4169C46.7197 77.4756 48.1292 75.1303 49.8649 74.1765C50.4939 73.8286 51.088 73.7052 51.5656 73.7837C51.717 74.0867 51.7869 74.4682 51.7869 74.9059Z" fill="#B05723"/>
<path d="M56.1564 19.7523C56.1564 21.6936 54.747 24.0389 53.0113 25.0152C51.6484 25.767 50.5069 25.4528 50.0642 24.3643C50.5535 24.4653 51.1475 24.3531 51.7766 23.994C53.5239 23.029 54.9333 20.6725 54.9333 18.7536C54.9333 18.316 54.8634 17.9344 54.712 17.6202C55.5857 17.7661 56.1564 18.5404 56.1564 19.7523Z" fill="#91481D"/>
<path d="M54.9457 18.7535C54.9457 20.6724 53.5363 23.0401 51.789 23.994C51.1599 24.3418 50.5542 24.4653 50.0766 24.3643C49.9485 24.0725 49.8669 23.691 49.8669 23.2646C49.8669 21.3233 51.2764 18.978 53.0237 18.0241C53.6527 17.6763 54.2468 17.5416 54.7244 17.6314C54.8759 17.9344 54.9457 18.3159 54.9457 18.7535Z" fill="#B05723"/>
<path d="M66.6526 13.9285C66.6526 15.8474 65.2431 18.2151 63.4958 19.1689C62.1562 19.8983 61.0147 19.6178 60.572 18.5517C61.0613 18.6415 61.6437 18.5068 62.2727 18.159C64.0084 17.1939 65.4178 14.8486 65.4178 12.9185C65.4178 12.4809 65.348 12.1106 65.2082 11.8076C66.0818 11.9423 66.6526 12.7053 66.6526 13.9285Z" fill="#91481D"/>
<path d="M65.4197 12.9186C65.4197 14.8599 64.0102 17.2052 62.2746 18.159C61.6455 18.5069 61.0515 18.6415 60.5739 18.5518C60.4224 18.2376 60.3525 17.856 60.3525 17.4184C60.3525 15.4771 61.762 13.1318 63.4977 12.178C64.1267 11.8301 64.7208 11.7067 65.21 11.7964C65.3498 12.1106 65.4197 12.4809 65.4197 12.9186Z" fill="#B05723"/>
<path d="M69.9041 66.5235C69.9041 68.4423 68.4946 70.8101 66.7589 71.7639C65.4077 72.4933 64.2661 72.2127 63.8235 71.1467C64.3127 71.2365 64.8952 71.1018 65.5242 70.7539C67.2715 69.7889 68.681 67.4436 68.681 65.5135C68.681 65.0871 68.6111 64.7056 68.4713 64.4138C69.3566 64.526 69.9041 65.2891 69.9041 66.5235Z" fill="#91481D"/>
<path d="M68.6894 65.5023C68.6894 67.4436 67.2799 69.7889 65.5326 70.7427C64.9036 71.0906 64.3095 71.2253 63.8319 71.1355C63.6805 70.8213 63.6106 70.4398 63.6106 70.0021C63.6106 68.0833 65.0201 65.7155 66.7674 64.7617C67.3964 64.4138 68.0021 64.2904 68.4797 64.3914C68.6195 64.6944 68.6894 65.0759 68.6894 65.5023Z" fill="#B05723"/>
<path d="M86.7474 69.845L34.7246 98.774V96.698L86.7474 67.7578V69.845Z" fill="#4D4D4D"/>
<path d="M104.123 10.0683L94.478 4.6932L95.9108 0.687134L105.556 6.051L104.123 10.0683Z" fill="#FF9952"/>
<path d="M46.3718 68.7117L30.0171 59.7906L53.7104 46.6166L69.9136 55.6162L46.3718 68.7117Z" fill="#FF7C21"/>
<path d="M34.7222 98.774L13.5916 87.0251V84.9491L34.7222 96.698V98.774Z" fill="#383838"/>
<path opacity="0.2" d="M33.3002 133.886L88.0021 103.363C92.3471 100.973 92.3238 94.9249 87.9556 92.5684L87.7575 92.4562C81.7352 89.2019 74.3732 89.2244 68.3859 92.5347L13.6839 123.057C9.33895 125.447 9.36225 131.496 13.7305 133.852L13.9285 133.964C19.9509 137.219 27.3011 137.185 33.3002 133.886Z" fill="black"/>
<path d="M77.8309 92.1756L79.8112 91.0759C79.8112 91.0759 79.8112 91.0759 78.4134 90.3016C77.2485 90.2006 76.1652 90.2118 75.175 90.2791L75.7924 91.9511L77.8309 92.1756Z" fill="#828282"/>
<path d="M17.7249 117.963L25.3896 116.818V123.259L17.7249 124.404V117.963Z" fill="#757575"/>
<path d="M87.627 95.7442C86.7068 96.3614 85.9147 96.698 85.9147 96.698C85.9147 96.698 80.8126 98.9536 75.5241 98.1905C75.5241 98.1905 72.2275 97.4387 67.1953 100.244C67.1953 100.244 39.7628 115.494 34.8937 118.198C35.6625 119.119 36.0585 120.106 36.0702 121.105L31.4573 126.525C26.5649 128.724 19.3894 128.556 14.8347 126.031C14.6833 125.952 14.5435 125.863 14.4037 125.773L11.1887 121.105V127.624H11.2004C11.2237 129.375 12.4351 131.126 14.8347 132.472C19.6922 135.176 27.5783 135.176 32.4358 132.472C34.8471 131.137 36.0469 129.386 36.0702 127.624V123.977C43.106 120.061 67.1953 106.674 67.1953 106.674C72.2275 103.88 75.5241 104.62 75.5241 104.62C80.8126 105.383 85.9147 103.128 85.9147 103.128C85.9147 103.128 90.3411 101.299 90.4576 98.0783H90.4693V91.5586L87.627 95.7442ZM36.0702 121.239V121.217C36.0702 121.217 36.0702 121.228 36.0702 121.239Z" fill="#757575"/>
<path d="M74.2444 87.7319L79.8124 84.6348V91.0759L74.2444 94.173V87.7319Z" fill="#757575"/>
<path d="M27.4415 124.404L25.3914 123.259V116.818L30.9943 119.938L28.9442 124.202L27.4415 124.404Z" fill="#666666"/>
<path d="M17.7272 123.36L15.677 122.227L17.7272 117.963V123.36Z" fill="#5E5E5E"/>
<path d="M75.5124 98.1792C80.8009 98.9422 85.903 96.6867 85.903 96.6867C85.903 96.6867 91.4244 94.42 90.3178 90.4812C88.92 89.7069 88.92 89.7069 88.92 89.7069L83.3403 92.8041L75.792 91.94L74.231 87.732L79.8107 84.6348C79.8107 84.6348 79.8107 84.6348 78.4129 83.8606C71.3189 83.2434 67.2419 86.3181 67.2419 86.3181H67.2535C67.2535 86.3181 63.1998 89.1571 64.5743 92.0971C64.5743 92.0971 65.9256 93.9262 60.8934 96.7316C60.8934 96.7316 33.0648 112.228 28.5218 114.765C23.9789 113.687 18.5273 114.17 14.823 116.235C9.96556 118.939 9.96556 123.326 14.823 126.031C19.6805 128.735 27.5666 128.735 32.4241 126.031C36.2332 123.91 37.0486 120.768 34.882 118.198C39.7511 115.494 67.1836 100.244 67.1836 100.244C72.2275 97.4273 75.5124 98.1792 75.5124 98.1792ZM30.9913 119.938L28.9412 124.202L21.288 125.346L15.685 122.227L17.7352 117.963L25.3883 116.818L30.9913 119.938Z" fill="#C2C2C2"/>
<path d="M64.9973 99.8174C64.8925 99.7164 64.776 99.6379 64.6245 99.5481L64.5896 99.5257C63.6228 98.9983 62.0735 98.9983 61.1067 99.5257L35.037 114.035C34.8856 114.125 34.7575 114.203 34.6643 114.304C34.1051 113.777 34.2216 113.092 35.037 112.632L61.1067 98.1342C62.0735 97.6068 63.6228 97.6068 64.5896 98.1342L64.6245 98.1567C65.4399 98.6055 65.5564 99.3012 64.9973 99.8174Z" fill="#757575"/>
<path d="M64.9954 99.8176C64.8905 99.9186 64.7741 99.9971 64.6226 100.087L38.553 114.596C37.5862 115.124 36.0369 115.124 35.0701 114.596L35.0351 114.574C34.8837 114.484 34.7555 114.405 34.6624 114.304C34.7672 114.203 34.8837 114.125 35.0351 114.035L61.1047 99.5258C62.0716 98.9984 63.6208 98.9984 64.5877 99.5258L64.6226 99.5483C64.7741 99.638 64.8905 99.7278 64.9954 99.8176Z" fill="#828282"/>
<path opacity="0.2" d="M6.68345 214.355L64.018 182.61C67.5359 180.657 67.5359 175.753 64.018 173.846L63.0395 173.318C57.6346 170.401 51.0181 170.446 45.6248 173.442L-11.7097 205.187C-15.2276 207.14 -15.2276 212.044 -11.7097 213.951L-10.7312 214.479C-5.32628 217.396 1.29014 217.351 6.68345 214.355Z" fill="black"/>
<path d="M38.8585 176.292C37.6354 175.102 37.0529 173.767 37.0995 172.432H37.0879V177.268L38.8585 176.292Z" fill="#828282"/>
<path d="M63.7131 172.432C63.7131 172.488 63.7243 172.544 63.7243 172.6V172.432H63.7131Z" fill="#828282"/>
<path d="M59.8244 177.841C55.4795 180.264 48.8631 180.646 43.7726 179.019L7.7667 199.038C9.8751 201.361 9.23443 204.267 5.73984 206.208C1.38326 208.632 -5.68746 208.632 -10.044 206.208C-12.1641 205.03 -13.2358 203.493 -13.3057 201.955V208.363H-13.294C-13.2474 209.912 -12.1641 211.46 -10.0324 212.638C-5.67581 215.062 1.3949 215.062 5.75149 212.638C7.94143 211.415 9.01311 209.822 8.97816 208.228V204.806L43.7726 185.449C48.8631 187.076 55.4678 186.683 59.8244 184.27C62.4803 182.8 63.7617 180.848 63.7151 178.918H63.7267V172.589C63.7267 174.497 62.4221 176.393 59.8244 177.841Z" fill="#757575"/>
<path d="M3.86592 198.488L-4.33472 197.265V203.706L2.93403 204.795L3.86592 204.278V198.488Z" fill="#757575"/>
<path d="M3.86377 204.278V198.488L6.05371 203.055L3.86377 204.278Z" fill="#5E5E5E"/>
<path d="M57.4138 175.147L47.8386 173.711V167.27L57.4138 168.706V175.147Z" fill="#757575"/>
<path d="M47.8408 173.711L43.2746 176.258L40.8284 171.175L47.8408 167.27V173.711Z" fill="#666666"/>
<path d="M59.9899 174.036L57.5437 175.394L57.4155 175.147V168.706L59.9899 174.036Z" fill="#666666"/>
<path d="M40.9908 167.36C36.6459 169.784 35.947 173.453 38.8708 176.281L2.86487 196.3C-1.31699 195.122 -6.53558 195.481 -10.0302 197.433C-14.3868 199.857 -14.3868 203.785 -10.0302 206.208C-5.67358 208.632 1.39714 208.632 5.75373 206.208C9.24832 204.267 9.88899 201.361 7.78059 199.038L43.7865 179.019C48.877 180.646 55.4817 180.253 59.8383 177.841C65.0453 174.945 65.0453 170.255 59.8383 167.36C54.6197 164.476 46.1861 164.476 40.9908 167.36ZM6.05659 203.055L0.0575466 206.399L-8.14309 205.176L-10.3447 200.62L-4.34564 197.276L3.855 198.499L6.05659 203.055ZM59.9897 174.037L52.9773 177.942L43.4021 176.516L40.8394 171.186L47.8519 167.281L57.4271 168.706L59.9897 174.037Z" fill="#C2C2C2"/>
<path opacity="0.2" d="M10.8292 172.14L83.1788 132.034C85.2872 130.867 85.2756 127.927 83.1555 126.771L81.6179 125.941C79.0319 124.538 75.8635 124.561 73.2892 125.986L0.939526 166.092C-1.16888 167.259 -1.15723 170.199 0.962824 171.354L2.50044 172.185C5.09809 173.576 8.25486 173.565 10.8292 172.14Z" fill="black"/>
<path d="M79.4495 124.729C79.4495 124.089 79.9038 123.315 80.4745 122.99C81.0453 122.664 81.5113 122.922 81.5113 123.562C81.5113 124.202 81.057 124.976 80.4862 125.301C79.9271 125.616 79.4611 125.357 79.4495 124.729Z" fill="#0F0F0F"/>
<path d="M81.8754 121.677C81.5026 121.475 80.9784 121.509 80.4076 121.834L77.2975 123.585L77.3091 126.412L75.6317 127.355L75.6084 122.653L78.7186 120.903C79.2894 120.577 79.8136 120.544 80.1863 120.757L81.8754 121.677Z" fill="#0F0F0F"/>
<path d="M77.2952 123.573L77.3185 128.275L80.4286 126.525C81.5819 125.874 82.5138 124.314 82.5021 123.023V122.979C82.5021 121.699 81.5586 121.183 80.4053 121.823L77.2952 123.573ZM79.4502 124.729C79.4502 124.09 79.9045 123.315 80.4752 122.99C81.046 122.664 81.512 122.922 81.512 123.562C81.512 124.202 81.0577 124.976 80.4869 125.301C79.9278 125.616 79.4618 125.358 79.4502 124.729Z" fill="#1F1F1F"/>
<path d="M81.8984 121.699L81.9092 121.71C81.9092 121.699 81.9092 121.699 81.8984 121.699Z" fill="#0F0F0F"/>
<path d="M47.3254 134.514L69.4462 122.092C72.4632 120.398 76.3305 121.385 78.0895 124.291L78.1594 124.392C79.9183 127.299 78.8932 131.024 75.8762 132.719L53.7555 145.141L47.3254 134.514Z" fill="#303030"/>
<path d="M55.0601 142.324C55.0484 139.553 53.0099 136.186 50.5171 134.806C48.0126 133.426 45.9974 134.559 46.0091 137.331C46.0207 140.103 48.0592 143.469 50.5521 144.849C53.0565 146.229 55.0717 145.096 55.0601 142.324Z" fill="#474747"/>
<path d="M43.3425 136.758L46.1848 135.165C47.0002 134.705 48.1301 134.772 49.3765 135.457C51.881 136.837 53.9078 140.203 53.9195 142.975C53.9195 144.367 53.4186 145.343 52.6148 145.792L49.7726 147.385L43.3425 136.758Z" fill="#303030"/>
<path d="M51.0772 144.558C51.0655 141.786 49.027 138.419 46.5342 137.039C44.0297 135.659 42.0145 136.792 42.0262 139.564C42.0378 142.336 44.0763 145.702 46.5691 147.082C49.0736 148.463 51.0888 147.329 51.0772 144.558Z" fill="#474747"/>
<path d="M4.30876 163.757L0.686033 167.539V169.155L-0.490479 168.515V166.9L3.13225 163.118L6.77827 162.703L45.7895 140.798L46.966 141.449L7.95478 163.354L4.30876 163.757Z" fill="#C2C2C2"/>
<path d="M4.3029 163.757L7.94892 163.353L46.9602 141.449L46.9718 143.289L7.96057 165.183L4.3262 168.852L0.680176 169.155V167.539L4.3029 163.757Z" fill="#757575"/>
<path d="M73.0076 128.466L73.5202 128.174C74.056 127.871 74.2424 127.198 73.9279 126.67L73.9162 126.659C73.6017 126.132 72.8912 125.963 72.3553 126.266L71.8428 126.558C72.3903 126.255 73.0775 126.423 73.4037 126.951L73.4153 126.962C73.7415 127.49 73.5551 128.163 73.0076 128.466Z" fill="#9E7D22"/>
<path d="M58.3313 136.702L73.0086 128.466C73.5561 128.163 73.7308 127.49 73.4163 126.962L73.4047 126.951C73.0901 126.424 72.3912 126.255 71.8437 126.558L57.1665 134.795C56.619 135.098 56.4443 135.771 56.7588 136.298L56.7704 136.31C57.0966 136.837 57.7839 137.005 58.3313 136.702Z" fill="#DBAE30"/>
<path d="M58.251 141.719L73.4524 133.19C73.9882 132.887 74.4309 132.147 74.4309 131.552L74.4192 131.529C74.4192 131.226 74.3144 131.013 74.128 130.923C74.1397 130.968 74.1397 131.024 74.1397 131.069V131.092C74.1513 131.698 73.697 132.438 73.1612 132.741L57.9597 141.27C57.6918 141.416 57.4472 141.427 57.2725 141.337C57.3424 141.82 57.7617 141.999 58.251 141.719Z" fill="#9E7D22"/>
<path d="M57.9714 141.258L73.1728 132.73C73.7087 132.427 74.1513 131.686 74.1513 131.08V131.058C74.1513 131.002 74.1513 130.957 74.1397 130.912C73.965 130.822 73.7203 130.834 73.4524 130.979L58.2626 139.508C57.7151 139.811 57.2841 140.551 57.2725 141.157L57.2841 141.191C57.2841 141.247 57.2958 141.292 57.2958 141.337C57.4588 141.427 57.7035 141.415 57.9714 141.258Z" fill="#DBAE30"/>
<path d="M70.2152 124.46C70.2268 124.258 70.0871 124.067 69.8075 123.91L69.7842 123.899C69.2367 123.596 68.3514 123.607 67.8156 123.899L52.6141 132.427C52.1249 132.696 52.0783 133.134 52.4976 133.437C52.4976 133.235 52.6258 133.044 52.8937 132.887L68.0951 124.359C68.631 124.056 69.5163 124.056 70.0638 124.359L70.0871 124.37C70.1336 124.392 70.1802 124.415 70.2152 124.46Z" fill="#9E7D22"/>
<path d="M54.6252 133.527L69.815 124.999C70.0829 124.853 70.211 124.651 70.2227 124.46C70.1877 124.426 70.1412 124.404 70.0946 124.37L70.0713 124.359C69.5238 124.056 68.6385 124.067 68.1026 124.359L52.9012 132.887C52.6333 133.033 52.5051 133.235 52.5051 133.437C52.5401 133.471 52.5867 133.493 52.6333 133.527L52.6566 133.538C53.1924 133.83 54.0777 133.83 54.6252 133.527Z" fill="#DBAE30"/>
<path opacity="0.2" d="M75.5396 162.613L121.074 137.645C122.74 136.725 122.74 134.402 121.062 133.493L118.64 132.18C116.391 130.968 113.654 130.98 111.417 132.203L65.8829 157.171C64.2172 158.091 64.2288 160.414 65.8946 161.323L68.3175 162.635C70.5657 163.847 73.3031 163.836 75.5396 162.613Z" fill="black"/>
<path d="M118.634 131.4C119.037 130.722 119.032 129.99 118.625 129.766C118.217 129.541 117.56 129.908 117.158 130.586C116.755 131.264 116.76 131.996 117.167 132.22C117.575 132.445 118.232 132.077 118.634 131.4Z" fill="#0F0F0F"/>
<path d="M119.29 128.522C118.917 128.32 118.393 128.354 117.822 128.679L114.712 130.43L114.723 133.258L113.046 134.2L113.023 129.499L116.133 127.748C116.704 127.423 117.228 127.389 117.601 127.602L119.29 128.522Z" fill="#0F0F0F"/>
<path d="M114.714 130.43L114.737 135.132L117.847 133.381C119.001 132.73 119.932 131.171 119.921 129.88V129.835C119.921 128.556 118.977 128.04 117.824 128.679L114.714 130.43ZM116.869 131.574C116.869 130.935 117.323 130.161 117.894 129.835C118.465 129.51 118.931 129.768 118.931 130.407C118.931 131.047 118.476 131.821 117.906 132.147C117.335 132.461 116.869 132.214 116.869 131.574Z" fill="#1F1F1F"/>
<path d="M119.315 128.545L119.326 128.555C119.315 128.545 119.315 128.545 119.315 128.545Z" fill="#0F0F0F"/>
<path d="M89.4739 138.711L106.865 128.949C109.882 127.254 113.75 128.242 115.509 131.148L115.578 131.249C117.337 134.155 116.312 137.881 113.295 139.575L95.9039 149.338L89.4739 138.711Z" fill="#303030"/>
<path d="M97.2083 146.51C97.1966 143.738 95.1581 140.372 92.6653 138.992C90.1608 137.612 88.1456 138.745 88.1573 141.517C88.1689 144.288 90.2074 147.655 92.7002 149.035C95.2047 150.415 97.2199 149.282 97.2083 146.51Z" fill="#474747"/>
<path d="M85.4756 140.944L88.3179 139.351C89.1333 138.891 90.2632 138.958 91.5096 139.643C94.014 141.023 96.0409 144.389 96.0525 147.161C96.0642 148.553 95.5516 149.529 94.7479 149.978L91.9056 151.571L85.4756 140.944Z" fill="#303030"/>
<path d="M93.2234 148.755C93.2117 145.983 91.1732 142.616 88.6804 141.236C86.176 139.856 84.1608 140.989 84.1724 143.761C84.1841 146.533 86.2226 149.899 88.7154 151.279C91.2082 152.66 93.235 151.526 93.2234 148.755Z" fill="#474747"/>
<path d="M110.415 135.311L110.928 135.019C111.464 134.717 111.65 134.043 111.336 133.516L111.324 133.505C111.009 132.977 110.299 132.809 109.763 133.112L109.25 133.404C109.798 133.101 110.485 133.269 110.811 133.796L110.823 133.808C111.149 134.335 110.963 135.008 110.415 135.311Z" fill="#9E7D22"/>
<path d="M100.48 140.9L110.428 135.311C110.975 135.008 111.15 134.335 110.835 133.808L110.824 133.796C110.509 133.269 109.81 133.101 109.263 133.404L99.3149 138.992C98.7674 139.295 98.5927 139.968 98.9072 140.496L98.9189 140.507C99.2334 141.023 99.9323 141.203 100.48 140.9Z" fill="#DBAE30"/>
<path d="M100.386 145.916L110.858 140.036C111.394 139.733 111.837 138.992 111.837 138.397L111.825 138.375C111.825 138.072 111.72 137.859 111.534 137.769C111.545 137.814 111.545 137.87 111.545 137.915V137.937C111.557 138.543 111.103 139.284 110.567 139.587L100.095 145.467C99.8268 145.613 99.5822 145.624 99.4075 145.534C99.489 146.005 99.8967 146.185 100.386 145.916Z" fill="#9E7D22"/>
<path d="M100.106 145.455L110.579 139.575C111.114 139.272 111.557 138.532 111.557 137.926V137.903C111.557 137.847 111.557 137.802 111.545 137.757C111.371 137.668 111.126 137.679 110.858 137.825L100.398 143.694C99.8501 143.997 99.4191 144.737 99.4075 145.343L99.4191 145.366C99.4191 145.422 99.4308 145.467 99.4308 145.512C99.5939 145.613 99.8385 145.601 100.106 145.455Z" fill="#DBAE30"/>
<path d="M107.634 131.305C107.646 131.103 107.506 130.912 107.226 130.755L107.203 130.744C106.655 130.441 105.77 130.452 105.234 130.744L94.7738 136.624C94.2845 136.893 94.2379 137.331 94.6573 137.634C94.6573 137.432 94.7854 137.241 95.0533 137.084L105.525 131.204C106.061 130.901 106.947 130.901 107.494 131.204L107.517 131.215C107.552 131.238 107.599 131.271 107.634 131.305Z" fill="#9E7D22"/>
<path d="M96.7624 137.713L107.223 131.844C107.491 131.698 107.619 131.496 107.631 131.305C107.596 131.271 107.549 131.249 107.502 131.215L107.479 131.204C106.932 130.901 106.046 130.912 105.511 131.204L95.0384 137.084C94.7705 137.23 94.6423 137.432 94.6423 137.634C94.6773 137.668 94.7239 137.69 94.7705 137.724L94.7938 137.735C95.3412 138.016 96.2149 138.016 96.7624 137.713Z" fill="#DBAE30"/>
<path d="M71.8702 152.491L67.036 157.002L67.0476 160.616L65.8478 159.953L65.8362 156.351L70.6704 151.829L75.5162 151.627L87.8171 144.715L89.017 145.377L76.716 152.289L71.8702 152.491Z" fill="#C2C2C2"/>
<path d="M67.047 160.616L67.0354 157.002L71.8696 152.491L76.7154 152.289L89.0164 145.377L89.028 147.554L76.7271 154.466L71.8929 159.695L67.047 160.616Z" fill="#757575"/>
<path opacity="0.2" d="M218.423 203.796L146.225 244.092C139.842 247.649 131.967 247.649 125.572 244.103L91.5232 225.195C86.6657 222.491 86.6541 215.735 91.5116 213.031L163.71 172.735C170.093 169.178 177.968 169.178 184.363 172.724L218.4 191.632C223.269 194.336 223.281 201.091 218.423 203.796Z" fill="black"/>
<path d="M214.298 205.131L206.854 209.272L200.506 186.234L207.949 182.094L214.298 205.131Z" fill="#616161"/>
<path d="M206.856 209.272L201.638 206.366L190.071 183.272L200.508 186.234L206.856 209.272Z" fill="#4F4F4F"/>
<path d="M96.9036 216.543L104.359 212.403L115.926 202.169L108.482 206.309L96.9036 216.543Z" fill="#474747"/>
<path d="M91.6863 213.648L96.9049 216.543L108.484 206.309L98.0348 197.658L91.6863 213.648Z" fill="#4F4F4F"/>
<path d="M152.794 239.345L145.339 243.486L138.99 220.448L146.445 216.297L152.794 239.345Z" fill="#616161"/>
<path d="M145.341 243.486L140.123 240.58L128.556 217.475L138.993 220.448L145.341 243.486Z" fill="#4F4F4F"/>
<path d="M141.727 173.464C132.804 163.118 122.053 159.168 115.192 162.893L96.5889 173.251C103.462 169.716 114.085 173.688 122.915 183.934C133.841 196.603 137.907 214.063 131.989 222.928C130.999 224.421 129.776 225.554 128.401 226.385V226.396L147.062 216.027V216.016C148.507 215.185 149.776 214.007 150.813 212.459C156.719 203.594 152.665 186.133 141.727 173.464Z" fill="#474747"/>
<path d="M207.509 136.882C198.586 126.536 187.834 122.586 180.973 126.311L162.371 136.669C169.243 133.134 179.867 137.107 188.696 147.352C199.623 160.021 203.688 177.481 197.771 186.346C196.781 187.839 195.558 188.972 194.183 189.803V189.814L212.844 179.445V179.434C214.289 178.604 215.57 177.425 216.595 175.877C222.501 167.012 218.435 149.551 207.509 136.882Z" fill="#474747"/>
<path d="M188.836 147.251C179.913 136.905 169.162 132.955 162.3 136.68L133.971 152.458L115.368 162.815C122.241 159.28 132.864 163.253 141.694 173.498C152.62 186.167 156.686 203.627 150.768 212.492C149.778 213.985 148.555 215.118 147.181 215.949V215.96L194.171 189.803V189.791C195.616 188.961 196.897 187.783 197.922 186.234C203.839 177.38 199.774 159.92 188.836 147.251Z" fill="#E0BC31"/>
<path d="M128.102 226.544C136.893 221.654 136.893 205.799 128.102 191.131C119.311 176.463 105.057 168.537 96.2658 173.426C87.4743 178.316 87.4741 194.171 96.2653 208.839C105.056 223.507 119.31 231.434 128.102 226.544Z" fill="#333333"/>
<path d="M126.166 219.225C121.518 225.577 111.267 223.13 103.043 213.603C94.6797 203.897 91.5579 190.543 96.1009 183.754C96.9629 182.475 98.0229 181.521 99.246 180.881C99.1528 180.994 99.0713 181.117 99.0014 181.229C94.4701 188.018 97.5686 201.383 105.944 211.09C112.735 218.956 120.901 221.986 126.166 219.225Z" fill="#171717"/>
<path d="M126.412 218.877C126.33 218.99 126.249 219.113 126.167 219.225C120.902 221.986 112.736 218.956 105.945 211.079C97.5696 201.372 94.4594 188.007 99.0024 181.218C99.0839 181.106 99.1655 180.983 99.247 180.87C104.512 178.121 112.678 181.151 119.469 189.017C127.833 198.724 130.943 212.088 126.412 218.877Z" fill="#262626"/>
<path d="M207.626 130.991L191.365 140.035V124.527L207.626 115.483V130.991Z" fill="#808080"/>
<path d="M188.639 104.923L172.377 113.968L191.364 124.527L207.626 115.483L188.639 104.923Z" fill="#ABABAB"/>
<path d="M191.364 140.035L172.377 129.476V113.968L191.364 124.527V140.035Z" fill="#636363"/>
<path d="M182.339 126.031C181.407 124.954 180.3 124.55 179.59 124.931L171.156 129.622C171.867 129.252 172.973 129.667 173.893 130.733C175.023 132.046 175.454 133.864 174.837 134.784C174.732 134.941 174.604 135.053 174.464 135.143L182.909 130.452C183.061 130.362 183.189 130.239 183.294 130.082C183.888 129.151 183.469 127.344 182.339 126.031Z" fill="#AD7A1E"/>
<path d="M173.88 130.733C175.01 132.046 175.441 133.863 174.823 134.784C174.206 135.704 172.797 135.39 171.655 134.065C170.513 132.741 170.094 130.935 170.711 130.014C171.317 129.094 172.738 129.42 173.88 130.733Z" fill="#917441"/>
<path d="M145.641 130.318V141.562C145.641 143.817 147.19 146.073 150.289 147.801C156.474 151.246 166.515 151.246 172.713 147.801C175.811 146.084 177.36 143.828 177.36 141.562V130.318H145.641Z" fill="#383838"/>
<path d="M172.702 136.635C166.516 140.08 156.475 140.08 150.278 136.635C144.093 133.19 144.093 127.613 150.278 124.168C156.463 120.723 166.505 120.723 172.702 124.168C178.899 127.602 178.899 133.19 172.702 136.635Z" fill="#787878"/>
<path d="M161.493 137.6C168.647 137.6 174.447 134.375 174.447 130.396C174.447 126.417 168.647 123.192 161.493 123.192C154.339 123.192 148.54 126.417 148.54 130.396C148.54 134.375 154.339 137.6 161.493 137.6Z" fill="white"/>
<path d="M161.495 130.396C166.55 127.579 170.651 125.302 170.651 125.302C173.167 126.693 174.425 128.522 174.448 130.362L161.495 130.396Z" fill="#FF4040"/>
<path d="M152.167 135.592C147.018 132.73 147.018 128.073 152.167 125.212C157.315 122.35 165.679 122.35 170.828 125.212C175.976 128.073 175.976 132.73 170.828 135.592C165.679 138.442 157.315 138.442 152.167 135.592ZM170.49 125.403C165.539 122.642 157.467 122.642 152.516 125.403C147.565 128.163 147.565 132.64 152.516 135.401C157.467 138.161 165.539 138.161 170.49 135.401C175.441 132.64 175.441 128.152 170.49 125.403Z" fill="#4D4D4D"/>
<path d="M162.193 130.677L173.702 131.855L162.333 130.306C162.275 130.127 162.018 129.97 161.669 129.936C161.203 129.88 160.749 130.037 160.644 130.295C160.539 130.553 160.83 130.811 161.296 130.867C161.657 130.912 162.007 130.823 162.193 130.677Z" fill="#404040"/>
<path d="M161.401 130.632C161.168 130.598 161.028 130.475 161.075 130.351C161.121 130.217 161.354 130.138 161.587 130.172C161.82 130.205 161.96 130.329 161.914 130.452C161.867 130.576 161.634 130.665 161.401 130.632Z" fill="#242424"/>
<path d="M169.274 126.244L168.878 126.031L170.078 125.369L170.474 125.582L169.274 126.244Z" fill="#2E2E2E"/>
<path d="M173.937 130.306H172.143V130.419H173.937V130.306Z" fill="#2E2E2E"/>
<path d="M161.587 136.355H161.389V137.297H161.587V136.355Z" fill="#2E2E2E"/>
<path d="M150.72 130.318H149.031V130.43H150.72V130.318Z" fill="#2E2E2E"/>
<path d="M161.563 123.45H161.365V124.393H161.563V123.45Z" fill="#2E2E2E"/>
<path d="M165.758 124.875L165.571 124.83L166.224 123.966L166.41 124.011L165.758 124.875Z" fill="#2E2E2E"/>
<path d="M157.349 124.875L157.163 124.92L156.475 124.034L156.662 123.989L157.349 124.875Z" fill="#2E2E2E"/>
<path d="M151.396 128.208L151.326 128.309L149.789 127.995L149.858 127.883L151.396 128.208Z" fill="#2E2E2E"/>
<path d="M151.418 132.506L151.488 132.618L149.927 132.955L149.857 132.854L151.418 132.506Z" fill="#2E2E2E"/>
<path d="M157.486 135.951L157.673 135.996L157.09 136.849L156.892 136.804L157.486 135.951Z" fill="#2E2E2E"/>
<path d="M165.478 135.951L165.665 135.906L166.294 136.759L166.096 136.804L165.478 135.951Z" fill="#2E2E2E"/>
<path d="M171.407 132.618L171.477 132.517L173.084 132.865L173.014 132.977L171.407 132.618Z" fill="#2E2E2E"/>
<path d="M171.557 128.298L171.487 128.186L173.071 127.86L173.141 127.961L171.557 128.298Z" fill="#2E2E2E"/>
<path d="M168.878 134.694L169.286 134.458L170.556 135.165L170.148 135.401L168.878 134.694Z" fill="#2E2E2E"/>
<path d="M153.806 134.481L154.237 134.716L152.932 135.446L152.501 135.199L153.806 134.481Z" fill="#2E2E2E"/>
<path d="M154.028 126.076L153.643 126.289L152.444 125.627L152.84 125.403L154.028 126.076Z" fill="#2E2E2E"/>
<path d="M218.865 160.458C218.865 160.458 218.458 157.855 217.736 155.499L222.861 152.648C224.83 151.549 226.053 149.517 226.053 147.329V118.389C226.053 117.772 225.622 117.469 225.435 117.357C225.249 117.256 224.76 117.043 224.201 117.357L166.854 149.259C158.642 153.827 148.438 153.827 140.214 149.259L127.82 142.369C124.314 140.417 122.217 136.927 122.217 133.033C122.217 129.128 124.314 125.638 127.82 123.686L184.188 92.3328C186.133 91.2444 188.463 91.2444 190.42 92.3328C192.365 93.4213 193.53 95.3626 193.53 97.5284V107.628L188.532 104.912V97.5284C188.532 96.9112 188.101 96.6082 187.915 96.496C187.729 96.395 187.239 96.1818 186.68 96.496L130.313 127.849C128.367 128.926 127.214 130.867 127.214 133.022C127.214 135.176 128.379 137.118 130.313 138.195L142.707 145.085C149.381 148.799 157.675 148.799 164.35 145.085L221.696 113.182C223.641 112.094 225.971 112.094 227.928 113.182C229.873 114.271 231.038 116.212 231.038 118.378V147.318C231.038 151.223 228.86 154.859 225.354 156.811L218.865 160.458Z" fill="#C2C2C2"/>
<path d="M203.081 128.309C203.081 127.22 202.289 125.907 201.31 125.358C200.798 125.066 200.332 125.066 200.017 125.279L164.361 145.107C157.686 148.822 149.392 148.822 142.718 145.107L130.324 138.217C128.378 137.14 127.225 135.199 127.225 133.044C127.225 130.879 128.39 128.948 130.324 127.871L165.141 108.514C165.153 108.514 165.153 108.503 165.165 108.503C165.479 108.323 165.677 107.942 165.677 107.414C165.677 106.326 164.885 105.013 163.907 104.463C163.417 104.194 162.975 104.171 162.66 104.34L127.831 123.708C124.325 125.661 122.228 129.15 122.228 133.056C122.228 136.961 124.325 140.45 127.831 142.392L140.225 149.282C148.437 153.849 158.641 153.849 166.865 149.282L202.568 129.42L202.58 129.409C202.883 129.218 203.081 128.836 203.081 128.309Z" fill="#121212"/>
<path d="M121.423 248.177L119.42 244.844L220.041 188.77C223.768 186.694 225.981 182.98 225.981 178.839C225.981 174.699 223.756 170.984 220.029 168.919L219.12 168.336C219.12 168.336 219.342 165.766 219.237 163.926L222.032 165.575C227.006 168.347 229.977 173.296 229.977 178.828C229.977 184.36 227.006 189.32 222.044 192.092L121.423 248.177Z" fill="#1A1A1A"/>
<path d="M121.162 245.45C120.591 244.788 119.904 244.541 119.461 244.777L111.26 249.355C111.703 249.13 112.379 249.389 112.938 250.039C113.637 250.847 113.893 251.969 113.52 252.531C113.462 252.62 113.381 252.699 113.287 252.755L121.5 248.177C121.593 248.121 121.674 248.053 121.744 247.952C122.117 247.38 121.861 246.269 121.162 245.45Z" fill="#AD7A1E"/>
<path d="M112.947 250.039C113.646 250.847 113.902 251.97 113.529 252.531C113.156 253.103 112.283 252.901 111.584 252.093C110.885 251.285 110.629 250.163 111.001 249.602C111.374 249.03 112.248 249.232 112.947 250.039Z" fill="#916719"/>
<path d="M112.793 250.275C113.329 250.892 113.527 251.756 113.236 252.194C112.945 252.632 112.269 252.475 111.733 251.857C111.198 251.24 111 250.376 111.291 249.939C111.582 249.501 112.258 249.658 112.793 250.275Z" fill="#422F0C"/>
<path opacity="0.2" d="M406.836 253.282C403.225 251.274 393.172 245.686 386.66 242.061C401.769 224.432 396.212 202.707 369.98 188.108C336.676 169.581 282.685 169.581 249.381 188.108C216.078 206.635 216.078 236.663 249.381 255.179C276.662 270.35 317.805 273.088 350.107 263.404C356.444 266.928 368.279 273.515 369.688 274.3C375.198 277.364 386.09 276.129 398.682 269.116C411.286 262.114 412.334 256.346 406.836 253.282Z" fill="black"/>
<path d="M392.631 157.349C392.991 131.465 356.003 110 310.015 109.407C264.028 108.813 226.455 129.315 226.095 155.199C225.735 181.083 262.724 202.548 308.711 203.142C354.699 203.735 392.271 183.233 392.631 157.349Z" fill="#333333"/>
<path d="M250.675 249.456C283.221 268.016 335.955 268.443 368.431 250.387C384.297 241.578 392.381 229.987 392.73 218.283H392.742L392.625 157.328C392.474 169.189 384.378 180.96 368.315 189.892C335.827 207.936 283.105 207.521 250.559 188.961C234.961 180.062 226.854 168.616 226.178 157.126H226.155L226.271 217.542H226.295C226.924 229.055 235.043 240.535 250.675 249.456Z" fill="#474747"/>
<path d="M250.582 191.699C283.128 210.259 335.862 210.686 368.338 192.642C384.203 183.833 392.288 172.241 392.637 160.526L392.625 157.328C392.474 169.189 384.378 180.96 368.315 189.892C335.827 207.936 283.105 207.521 250.559 188.961C234.961 180.062 226.854 168.616 226.178 157.126H226.155L226.178 159.785C226.178 159.774 226.178 177.818 250.582 191.699Z" fill="#575757"/>
<path d="M250.56 211.438C283.106 229.998 335.839 230.424 368.316 212.38C384.181 203.571 392.265 191.98 392.615 180.264L392.603 177.066C392.452 188.927 384.356 200.699 368.292 209.631C335.804 227.675 283.083 227.26 250.536 208.7C234.939 199.801 226.831 188.355 226.156 176.864H226.133L226.156 179.524C226.144 179.513 226.156 197.557 250.56 211.438Z" fill="#2B2B2B"/>
<path d="M250.617 231.838C283.164 250.399 335.897 250.825 368.373 232.781C384.239 223.972 392.323 212.38 392.672 200.665L392.661 197.467C392.509 209.328 384.413 221.099 368.35 230.032C335.862 248.076 283.14 247.661 250.594 229.089C234.997 220.19 226.889 208.745 226.213 197.254H226.19L226.213 199.913C226.213 199.925 226.225 217.957 250.617 231.838Z" fill="#2B2B2B"/>
<path d="M247.67 201.507L262.592 201.181L271.958 211.662L286.227 207.622L297.352 217.004L310.748 209.665L323.083 218.249L334.767 207.645L347.883 213.469L357.657 201.394L368.432 203.459L379.812 188.378L387.524 186.032C387.524 186.032 391.356 172.488 392.102 168.617C392.381 167.18 392.544 165.733 392.591 164.285H392.602L392.626 161.693C392.602 163.825 392.311 165.946 391.775 168.044C390.925 171.377 387.547 183.889 387.547 183.889L379.603 186.436L368.443 201.316L357.738 199.217L347.755 211.359L335.058 205.457L323.456 216.072L310.771 207.51L297.678 214.871L286.798 205.569L272.552 209.676L262.988 199.184L248.579 199.745L242.37 187.917L233.599 187.009L229.79 173.756L226.167 170.12L226.144 172.174L229.114 174.62L233.016 188.512L241.729 189.578L247.67 201.507Z" fill="#333333"/>
<path d="M247.741 222.816L262.663 222.491L272.028 232.972L286.298 228.932L297.422 238.313L310.818 230.974L323.154 239.559L334.838 228.954L347.954 234.778L357.727 222.693L368.502 224.758L379.883 209.676L387.594 207.331C387.594 207.331 391.427 193.786 392.172 189.915C392.452 188.479 392.615 187.031 392.661 185.583H392.673L392.696 182.991C392.673 185.123 392.382 187.244 391.846 189.343C390.996 192.675 387.618 205.187 387.618 205.187L379.673 207.735L368.514 222.614L357.809 220.516L347.826 232.657L335.129 226.755L323.527 237.37L310.841 228.809L297.748 236.17L286.869 226.867L272.622 230.974L263.059 220.482L248.649 221.043L242.406 209.193L233.634 208.284L229.825 195.032L226.202 191.396L226.179 193.45L229.15 195.896L233.052 209.788L241.765 210.854L247.741 222.816Z" fill="#333333"/>
<path d="M247.776 243.924L262.698 243.598L272.064 254.079L286.333 250.039L297.458 259.421L310.854 252.082L323.189 260.666L334.873 250.062L347.989 255.886L357.763 243.812L368.538 245.876L379.918 230.795L387.63 228.449C387.63 228.449 391.462 214.905 392.208 211.034C392.487 209.597 392.65 208.15 392.697 206.702H392.708L392.732 204.11C392.708 206.242 392.417 208.363 391.881 210.461C391.031 213.794 387.653 226.306 387.653 226.306L379.709 228.853L368.549 243.733L357.844 241.635L347.861 253.776L335.164 247.874L323.562 258.489L310.877 249.927L297.784 257.289L286.904 247.986L272.658 252.093L263.094 241.601L248.685 242.162L242.441 230.312L233.67 229.403L229.861 216.151L226.238 212.515L226.215 214.568L229.185 217.015L233.087 230.907L241.8 231.973L247.776 243.924Z" fill="#333333"/>
<path d="M368.452 157.037C368.708 138.67 342.461 123.438 309.827 123.017C277.194 122.596 250.533 137.144 250.277 155.511C250.022 173.879 276.269 189.11 308.902 189.531C341.535 189.953 368.197 175.404 368.452 157.037Z" fill="#1F1F1F"/>
<path d="M360.951 156.94C361.174 140.902 338.259 127.603 309.769 127.236C281.278 126.868 258.001 139.57 257.778 155.608C257.555 171.645 280.47 184.944 308.961 185.312C337.451 185.68 360.728 172.977 360.951 156.94Z" fill="#919191"/>
<path d="M296.479 163.443C289.339 159.37 289.327 152.872 296.456 148.911C303.573 144.95 315.129 145.051 322.27 149.113C329.41 153.187 329.422 159.684 322.293 163.645C315.164 167.606 303.608 167.505 296.479 163.443Z" fill="#707070"/>
<path d="M305.973 158.169C304.086 157.092 304.086 155.375 305.962 154.331C307.837 153.288 310.889 153.31 312.776 154.387C314.663 155.465 314.663 157.182 312.788 158.225C310.901 159.269 307.849 159.246 305.973 158.169Z" fill="#575757"/>
<path d="M306.401 163.611C306.11 163.342 305.935 163.017 305.947 162.669C305.947 161.603 307.461 160.761 309.337 160.784C311.212 160.784 312.738 161.659 312.738 162.725C312.738 162.949 312.68 163.174 312.54 163.353C311.969 162.759 310.863 162.377 309.593 162.355C308.125 162.343 306.855 162.871 306.401 163.611Z" fill="#4F4F4F"/>
<path d="M306.403 163.611C306.869 162.871 308.127 162.343 309.606 162.355C310.876 162.377 311.971 162.77 312.554 163.353C312.088 164.094 310.818 164.61 309.35 164.61C308.08 164.588 306.974 164.206 306.403 163.611Z" fill="#2B2B2B"/>
<path d="M295.022 156.98C294.731 156.71 294.557 156.385 294.568 156.037C294.557 154.982 296.071 154.141 297.958 154.152C299.833 154.174 301.348 155.038 301.359 156.093C301.359 156.318 301.301 156.542 301.15 156.744C300.579 156.149 299.472 155.768 298.203 155.745C296.746 155.7 295.488 156.228 295.022 156.98Z" fill="#4F4F4F"/>
<path d="M295.022 156.98C295.488 156.239 296.746 155.712 298.214 155.745C299.483 155.768 300.578 156.16 301.161 156.744C300.683 157.473 299.437 158.012 297.969 157.978C296.699 157.945 295.593 157.563 295.022 156.98Z" fill="#2B2B2B"/>
<path d="M306.613 150.684C306.322 150.415 306.159 150.078 306.171 149.731C306.159 148.676 307.673 147.834 309.561 147.857C311.436 147.857 312.95 148.743 312.939 149.787C312.939 150.011 312.857 150.224 312.741 150.415C312.158 149.843 311.063 149.439 309.817 149.428C308.361 149.405 307.079 149.944 306.613 150.684Z" fill="#4F4F4F"/>
<path d="M306.614 150.684C307.079 149.944 308.361 149.405 309.817 149.428C311.075 149.439 312.158 149.843 312.741 150.415C312.275 151.156 311.04 151.694 309.537 151.672C308.291 151.661 307.196 151.268 306.614 150.684Z" fill="#2B2B2B"/>
<path d="M317.971 157.283C317.679 157.013 317.505 156.688 317.516 156.34C317.505 155.285 319.054 154.444 320.929 154.466C322.805 154.488 324.354 155.341 324.354 156.396C324.354 156.621 324.296 156.845 324.144 157.047C323.574 156.452 322.455 156.059 321.174 156.048C319.706 156.026 318.437 156.542 317.971 157.283Z" fill="#4F4F4F"/>
<path d="M317.97 157.283C318.436 156.542 319.706 156.026 321.174 156.059C322.455 156.071 323.573 156.463 324.144 157.058C323.678 157.776 322.42 158.326 320.941 158.281C319.659 158.27 318.553 157.877 317.97 157.283Z" fill="#2B2B2B"/>
<path d="M328.034 179.4C326.554 176 328.15 172.286 332.856 169.682C339.251 166.125 349.176 165.822 356.34 168.684C355.571 169.637 354.697 170.58 353.696 171.5C346.928 169.761 338.774 170.412 333.241 173.486C330.259 175.125 328.535 177.223 328.034 179.4Z" fill="#575757"/>
<path d="M330.798 182.879C329.481 181.802 328.561 180.623 328.037 179.4C328.538 177.223 330.262 175.125 333.244 173.475C338.777 170.412 346.943 169.75 353.699 171.489C351.59 173.498 348.958 175.383 345.883 177.1C341.398 179.591 336.272 181.521 330.798 182.879Z" fill="#2B2B2B"/>
<path d="M258.169 159.28C256.993 153.737 258.647 148.07 263.132 143.02C270.948 144.613 276.19 149.046 275.351 153.871C275.328 153.983 275.304 154.129 275.269 154.241C273.825 150.841 269.399 148.036 263.504 146.813C260.056 150.718 258.262 154.993 258.169 159.28Z" fill="#575757"/>
<path d="M259.368 163.006C258.821 161.771 258.413 160.537 258.168 159.291C258.261 154.993 260.044 150.729 263.492 146.824C269.386 148.047 273.812 150.853 275.257 154.253C274.15 158.977 267.487 162.501 259.368 163.006Z" fill="#2B2B2B"/>
<path d="M272.926 176.516C272.391 176.213 271.855 175.888 271.342 175.574C276.642 171.848 286.066 170.647 294.011 172.948C301.209 175.046 304.984 179.4 303.97 183.653C302.735 180.792 299.392 178.222 294.36 176.752C287.872 174.867 280.382 175.327 274.953 177.605C274.266 177.268 273.59 176.898 272.926 176.516Z" fill="#575757"/>
<path d="M274.964 177.616C280.392 175.338 287.882 174.867 294.371 176.763C299.403 178.233 302.746 180.792 303.981 183.664C303.852 184.136 303.689 184.607 303.456 185.067C293.182 184.315 283.176 181.846 274.964 177.616Z" fill="#2B2B2B"/>
<path d="M289.06 133.302C287.767 132.371 286.742 131.327 286.043 130.183C297.133 127.097 309.83 126.435 321.7 128.174C321.479 129.42 320.838 130.609 319.871 131.675C309.574 130.463 298.81 131.002 289.06 133.302Z" fill="#575757"/>
<path d="M289.058 133.302C298.808 131.002 309.583 130.463 319.868 131.675C317.154 134.761 311.772 136.972 305.214 137.275C298.796 137.589 292.808 135.973 289.058 133.302Z" fill="#2B2B2B"/>
<path d="M337.424 145.837C335.677 141.831 338.345 137.6 344.192 135.154C344.74 135.446 345.287 135.737 345.811 136.029C354.431 140.944 359.359 147.116 360.617 153.445C360.361 153.501 360.104 153.523 359.836 153.546C357.658 148.552 353.127 143.783 346.196 139.822C345.66 139.519 345.124 139.238 344.565 138.958C340.558 140.641 338.042 143.132 337.424 145.837Z" fill="#575757"/>
<path d="M338.872 148.036C338.231 147.329 337.754 146.566 337.428 145.837C338.045 143.132 340.561 140.63 344.568 138.969C345.127 139.238 345.663 139.53 346.199 139.833C353.13 143.783 357.673 148.563 359.84 153.557C351.639 154.69 342.833 152.48 338.872 148.036Z" fill="#2B2B2B"/>
<path opacity="0.2" d="M191.076 317.301C226.968 317.301 256.064 301.119 256.064 281.157C256.064 261.195 226.968 245.012 191.076 245.012C155.184 245.012 126.088 261.195 126.088 281.157C126.088 301.119 155.184 317.301 191.076 317.301Z" fill="black"/>
<path d="M210.016 256.761C201.139 248.917 181.15 248.816 172.181 256.559C167.673 260.453 167.649 265.649 172.111 269.598C172.903 270.305 173.823 270.923 174.778 271.495C183.62 266.299 198.472 266.378 207.243 271.663C208.21 271.091 209.13 270.485 209.934 269.789C214.465 265.884 214.5 260.7 210.016 256.761Z" fill="#575757"/>
<path d="M167.279 241.814L152.509 233.499L138.204 241.354L152.975 249.669C152.684 249.927 152.439 250.185 152.171 250.443C149.888 252.62 148.21 254.932 147.209 257.333L139.707 257.3L126.253 257.232L126.195 268.454L147.15 268.566C147.535 269.52 148.059 270.451 148.641 271.383C149.713 273.077 151.076 274.727 152.823 276.298L137.971 284.456L139.556 285.353L151.915 292.311L152.183 292.457L167.035 284.299C168.374 284.77 169.76 285.196 171.158 285.578C174.28 286.442 177.518 287.104 180.85 287.542L180.827 290.953L180.78 299.201L200.944 299.302L200.99 291.054L201.014 287.643C204.345 287.239 207.607 286.599 210.729 285.769C212.138 285.398 213.513 284.994 214.864 284.534L229.634 292.849L229.879 292.715L242.343 285.87L243.939 284.994L229.168 276.679C230.939 275.131 232.325 273.504 233.409 271.809C234.003 270.889 234.527 269.958 234.923 269.015L255.879 269.127L255.937 257.906L242.483 257.838L234.981 257.805C234.003 255.403 232.36 253.069 230.1 250.87C229.832 250.612 229.588 250.342 229.308 250.084L244.172 241.926L229.961 233.925L215.097 242.083C210.787 240.557 206.104 239.469 201.282 238.829L201.352 227.17L181.188 227.069L181.118 238.728C176.295 239.3 171.613 240.333 167.279 241.814ZM209.948 269.789C209.144 270.485 208.224 271.091 207.257 271.663C198.428 276.859 183.576 276.78 174.793 271.495C173.837 270.911 172.917 270.294 172.125 269.598C167.652 265.649 167.687 260.453 172.195 256.559C181.176 248.816 201.165 248.917 210.03 256.761C214.503 260.7 214.468 265.884 209.948 269.789Z" fill="#9C9C9C"/>
<path d="M137.959 284.433L152.182 292.445L152.089 309.255L137.866 301.254L137.959 284.433Z" fill="#6B6B6B"/>
<path d="M167.034 284.287L166.94 301.097L152.088 309.255L152.182 292.445L167.034 284.287Z" fill="#575757"/>
<path d="M180.783 299.18L180.688 316.001L200.852 316.107L200.947 299.286L180.783 299.18Z" fill="#6B6B6B"/>
<path d="M180.849 287.53L180.756 304.351C180.756 304.351 173.976 303.6 166.94 301.108L167.034 284.287C171.181 285.982 180.849 287.53 180.849 287.53Z" fill="#6B6B6B"/>
<path d="M147.149 268.555L147.091 279.428L137.958 284.433V285.32L126.088 285.264L126.182 268.443L147.149 268.555Z" fill="#575757"/>
<path d="M147.149 268.555C147.149 268.555 148.931 272.999 152.822 276.275L147.091 279.417L147.149 268.555Z" fill="#878787"/>
<path d="M229.635 292.849L229.542 309.659L214.772 301.344L214.865 284.534L229.635 292.849Z" fill="#6B6B6B"/>
<path d="M243.937 284.994L243.844 301.804L229.54 309.659L229.633 292.849L243.937 284.994Z" fill="#575757"/>
<path d="M214.861 284.534C214.919 283.423 214.767 301.355 214.767 301.355C214.767 301.355 208.081 303.79 200.917 304.464C200.917 303.465 201.01 287.643 201.01 287.643C201.01 287.643 208.955 286.644 214.861 284.534Z" fill="#575757"/>
<path d="M255.891 269.116L255.797 285.937L243.939 285.87V284.994L234.876 279.877L234.935 269.015L255.891 269.116Z" fill="#6B6B6B"/>
<path d="M234.933 269.015L234.874 279.889L229.178 276.679C229.167 276.668 232.708 273.728 234.933 269.015Z" fill="#575757"/>
<path d="M244.184 241.904L244.091 257.872L234.993 257.782C234.993 257.782 233.583 253.956 229.32 250.062L244.184 241.904Z" fill="#575757"/>
<path d="M152.974 249.669C148.64 253.619 147.207 257.333 147.207 257.333L138.11 257.288L138.203 241.354L152.974 249.669Z" fill="#575757"/>
</g>
<defs>
<filter id="filter0_d_19_3102" x="-34.087" y="-45.2745" width="457.283" height="379.775" filterUnits="userSpaceOnUse" color-interpolation-filters="sRGB">
<feFlood flood-opacity="0" result="BackgroundImageFix"/>
<feColorMatrix in="SourceAlpha" type="matrix" values="0 0 0 0 0 0 0 0 0 0 0 0 0 0 0 0 0 0 127 0" result="hardAlpha"/>
<feOffset dy="4"/>
<feGaussianBlur stdDeviation="6.6"/>
<feComposite in2="hardAlpha" operator="out"/>
<feColorMatrix type="matrix" values="0 0 0 0 0 0 0 0 0 0 0 0 0 0 0 0 0 0 0.25 0"/>
<feBlend mode="normal" in2="BackgroundImageFix" result="effect1_dropShadow_19_3102"/>
<feBlend mode="normal" in="SourceGraphic" in2="effect1_dropShadow_19_3102" result="shape"/>
</filter>
<clipPath id="clip0_19_3102">
<rect width="430.883" height="353.376" fill="white" transform="translate(-20.887 -36.0745)"/>
</clipPath>
</defs>
</svg>
