<svg fill="none" height="183" viewBox="0 0 220 183" width="220" xmlns="http://www.w3.org/2000/svg">
  <path
    d="M7.44558 56.2245C9.62386 55.5144 10.8158 53.1673 10.1077 50.9822C9.39972 48.7972 7.05992 47.6016 4.88163 48.3118C2.70335 49.0219 1.51146 51.369 2.21947 53.554C2.92749 55.7391 5.2673 56.9347 7.44558 56.2245Z"
    fill="#ECF3FE"/>
  <path
    d="M17.8044 45.2836C19.2856 44.8007 20.0961 43.2047 19.6146 41.7188C19.1332 40.233 17.5421 39.42 16.0609 39.9029C14.5797 40.3858 13.7692 41.9819 14.2506 43.4677C14.7321 44.9535 16.3231 45.7666 17.8044 45.2836Z"
    fill="#ECF3FE"/>
  <path
    d="M2.82019 88.863C4.37774 88.863 5.64038 87.5965 5.64038 86.0341C5.64038 84.4717 4.37774 83.2051 2.82019 83.2051C1.26264 83.2051 0 84.4717 0 86.0341C0 87.5965 1.26264 88.863 2.82019 88.863Z"
    fill="#05B5B4"/>
  <path
    d="M199.335 60.7343C201.905 58.3783 202.084 54.3784 199.736 51.8003C197.387 49.2222 193.399 49.0422 190.829 51.3982C188.259 53.7542 188.08 57.754 190.428 60.3322C192.777 62.9103 196.765 63.0903 199.335 60.7343Z"
    fill="#ECF3FE"/>
  <path
    d="M189.782 87.5318C189.782 107.335 183.146 125.806 172.031 140.45C165.893 148.438 158.594 155.427 150.133 160.919C136.53 169.905 120.107 175.064 102.522 175.064C54.4126 175.064 15.2617 135.957 15.2617 87.5318C15.2617 39.2728 54.2467 0 102.522 0C120.107 0 136.364 5.15872 150.133 14.1449C158.594 19.6364 165.893 26.6256 172.031 34.6133C183.146 49.2574 189.782 67.5625 189.782 87.5318Z"
    fill="#ECF3FE"/>
  <path d="M4.64062 154.428H204.045" stroke="#D6DEE8" stroke-linecap="round" stroke-linejoin="round"
        stroke-miterlimit="10" stroke-width="3.40082"/>
  <path d="M134.712 46.0195V152.812H37.2475C33.4989 152.812 30.5 149.804 30.5 146.043V46.0195H134.712Z" fill="white"/>
  <path d="M171.635 46.0195V146.043C171.635 149.804 168.636 152.812 164.887 152.812H134.523V46.0195H171.635Z"
        fill="#DAE1ED"/>
  <path d="M171.643 46.02V83.0589H144.84C142.403 83.0589 140.529 81.3668 140.154 78.9226L134.719 45.832H171.643V46.02Z"
        fill="#C5CDDB"/>
  <path
    d="M171.635 46.0195H134.523L153.267 74.9738C154.579 76.8539 156.64 77.982 158.889 77.982H187.754C189.628 77.982 190.94 75.7258 189.816 74.2217L171.635 46.0195Z"
    fill="#DAE1ED"/>
  <path
    d="M134.524 46.0195L130.026 80.6142C129.838 82.3063 128.339 83.6224 126.465 83.6224H30.5V47.3356L30.6874 47.1476L134.524 46.0195Z"
    fill="#DAE1ED"/>
  <path
    d="M30.4992 46.0195H134.523L115.968 74.9738C114.656 76.8539 112.594 77.982 110.345 77.982H14.3802C12.5058 77.982 11.1938 75.7258 12.3184 74.2217L30.4992 46.0195Z"
    fill="white"/>
  <path
    d="M82.418 113.518H42.6827C41.3707 113.518 40.2461 112.39 40.2461 111.074V96.5965C40.2461 95.2804 41.3707 94.1523 42.6827 94.1523H82.418C83.73 94.1523 84.8546 95.2804 84.8546 96.5965V111.074C84.8546 112.39 83.73 113.518 82.418 113.518Z"
    fill="#DAE1ED"/>
  <path
    d="M82.9803 123.671H41.933C40.9958 123.671 40.2461 122.919 40.2461 121.979C40.2461 121.039 40.9958 120.287 41.933 120.287H82.9803C83.9175 120.287 84.6672 121.039 84.6672 121.979C84.6672 122.919 83.9175 123.671 82.9803 123.671Z"
    fill="#DAE1ED"/>
  <path
    d="M82.9803 132.128H41.933C40.9958 132.128 40.2461 131.376 40.2461 130.436C40.2461 129.496 40.9958 128.744 41.933 128.744H82.9803C83.9175 128.744 84.6672 129.496 84.6672 130.436C84.6672 131.376 83.9175 132.128 82.9803 132.128Z"
    fill="#DAE1ED"/>
  <path
    d="M60.8635 140.402H41.933C40.9958 140.402 40.2461 139.65 40.2461 138.71C40.2461 137.77 40.9958 137.018 41.933 137.018H60.8635C61.8006 137.018 62.5504 137.77 62.5504 138.71C62.5504 139.65 61.8006 140.402 60.8635 140.402Z"
    fill="#DAE1ED"/>
  <g filter="url(#filter0_d_859_11964)">
    <path
      d="M205.134 133.421C204.44 136.376 203.4 139.331 202.186 141.938C198.891 148.195 193.863 153.236 187.621 156.365C181.205 159.668 173.575 160.884 165.772 159.32C147.739 155.496 136.121 137.94 139.936 119.863C143.751 101.785 161.264 90.1393 179.298 93.9633C185.713 95.3539 191.435 98.4827 196.117 103.002C204.093 110.998 207.388 122.47 205.134 133.421Z"
      fill="#05B5B4"/>
  </g>
  <path
    d="M183.087 123.672H175.457V116.024C175.457 114.459 174.243 113.068 172.509 113.068C170.949 113.068 169.562 114.285 169.562 116.024V123.672H161.932C160.371 123.672 158.984 124.889 158.984 126.627C158.984 128.365 160.198 129.581 161.932 129.581H169.562V137.23C169.562 138.795 170.776 140.185 172.509 140.185C174.07 140.185 175.457 138.968 175.457 137.23V129.581H183.087C184.648 129.581 186.035 128.365 186.035 126.627C186.035 124.889 184.648 123.672 183.087 123.672Z"
    fill="url(#paint0_linear_859_11964)"/>
  <defs>
    <filter color-interpolation-filters="sRGB" filterUnits="userSpaceOnUse" height="93.9663" id="filter0_d_859_11964" width="93.8237"
            x="125.608" y="88.1351">
      <feFlood flood-opacity="0" result="BackgroundImageFix"/>
      <feColorMatrix in="SourceAlpha" result="hardAlpha" type="matrix"
                     values="0 0 0 0 0 0 0 0 0 0 0 0 0 0 0 0 0 0 127 0"/>
      <feOffset dy="8.50205"/>
      <feGaussianBlur stdDeviation="6.80164"/>
      <feColorMatrix type="matrix" values="0 0 0 0 0.1125 0 0 0 0 0.295916 0 0 0 0 1 0 0 0 0.22 0"/>
      <feBlend in2="BackgroundImageFix" mode="normal" result="effect1_dropShadow_859_11964"/>
      <feBlend in="SourceGraphic" in2="effect1_dropShadow_859_11964" mode="normal" result="shape"/>
    </filter>
    <linearGradient gradientUnits="userSpaceOnUse" id="paint0_linear_859_11964" x1="180.9" x2="166.601" y1="135.031"
                    y2="120.766">
      <stop offset="0.0113208" stop-color="#C2D1FF"/>
      <stop offset="1" stop-color="white"/>
    </linearGradient>
  </defs>
</svg>
