<svg fill="none" height="62" viewBox="0 0 63 62" width="63" xmlns="http://www.w3.org/2000/svg">
  <rect fill="#FC181D" fill-opacity="0.1" height="61.7266" rx="30.8633" width="61.7266" x="0.636719"/>
  <path
    d="M40.5625 23.0098L39.8137 35.1234C39.6223 38.2183 39.5267 39.7658 38.751 40.8785C38.3673 41.4285 37.8736 41.8928 37.3008 42.2416C36.1425 42.9473 34.5921 42.9473 31.4912 42.9473C28.3863 42.9473 26.8338 42.9473 25.6747 42.2403C25.1016 41.8908 24.6077 41.4257 24.2242 40.8747C23.4487 39.7604 23.3552 38.2107 23.1681 35.1115L22.4375 23.0098"
    stroke="#EE0909" stroke-linecap="round" stroke-width="3"/>
  <path
    d="M20.625 23.0085H42.375M36.4006 23.0085L35.5758 21.3068C35.0279 20.1764 34.7538 19.6113 34.2812 19.2588C34.1765 19.1806 34.0654 19.111 33.9493 19.0508C33.426 18.7793 32.7979 18.7793 31.5417 18.7793C30.254 18.7793 29.6102 18.7793 29.0781 19.0622C28.9602 19.1249 28.8477 19.1973 28.7417 19.2785C28.2636 19.6453 27.9966 20.2312 27.4625 21.4029L26.7306 23.0085"
    stroke="#EE0909" stroke-linecap="round" stroke-width="3"/>
  <path d="M28.4785 36.3008V29.0508" stroke="#EE0909" stroke-linecap="round" stroke-width="3"/>
  <path d="M34.5215 36.3008V29.0508" stroke="#EE0909" stroke-linecap="round" stroke-width="3"/>
</svg>
