<svg fill="none" height="63" viewBox="0 0 63 63" width="63" xmlns="http://www.w3.org/2000/svg">
  <rect fill="#F79009" fill-opacity="0.1" height="63" rx="31.5" width="63"/>
  <g clip-path="url(#clip0_565_6101)">
    <path
      d="M44.9817 40.9111L32.9746 20.3602C32.6569 19.8408 32.1086 19.5234 31.5025 19.5234C30.8961 19.5234 30.3192 19.8411 30.0305 20.3602L18.0234 40.9111C17.7058 41.4309 17.7058 42.0944 18.0234 42.6142C18.341 43.1339 18.889 43.4799 19.4954 43.4799H43.4807C44.0871 43.4799 44.6643 43.1622 44.9528 42.6142C45.2993 42.0944 45.2993 41.4595 44.9817 40.9111ZM31.5025 40.0741C30.5499 40.0741 29.7995 39.2947 29.7995 38.3713C29.7995 37.4184 30.5791 36.6683 31.5025 36.6683C32.4551 36.6683 33.2056 37.4476 33.2056 38.3713C33.2056 39.2947 32.4548 40.0741 31.5025 40.0741ZM33.2056 28.2977L32.4837 34.0704C32.4259 34.5612 32.022 34.9077 31.5314 34.9077C31.0405 34.9077 30.6366 34.5324 30.5788 34.0704L29.8572 28.2977C29.8572 28.2399 29.8283 28.1533 29.8283 28.0667C29.8283 27.1144 30.608 26.3639 31.5314 26.3639C32.484 26.3639 33.2344 27.1433 33.2344 28.067C33.2056 28.1536 33.2056 28.2111 33.2056 28.2977Z"
      fill="#F79009"/>
  </g>
  <defs>
    <clipPath id="clip0_565_6101">
      <rect fill="white" height="28.875" transform="translate(17.0625 17.0625)" width="28.875"/>
    </clipPath>
  </defs>
</svg>
