<svg fill="none" height="21" viewBox="0 0 20 21" width="20" xmlns="http://www.w3.org/2000/svg">
  <path clip-rule="evenodd" d="M9.20389 1.74149L12.3322 3.30696C12.551 3.41646 12.685 3.48201 12.7786 3.52323L12.7907 3.52312C12.9139 3.52312 13.0297 3.55507 13.1302 3.61114C13.232 3.61732 13.3838 3.61888 13.6478 3.61888L15.6309 3.61888C16.4657 3.61885 17.1638 3.61882 17.7184 3.69552C18.3061 3.77679 18.8348 3.95582 19.2577 4.39076C19.6778 4.82294 19.8482 5.35874 19.926 5.95372C20 6.52021 20 7.23481 20 8.09646V8.87195C20 9.25727 19.6876 9.56963 19.3023 9.56963C18.917 9.56963 18.6047 9.25727 18.6047 8.87195V8.14404C18.6047 7.2227 18.6033 6.59996 18.5424 6.13456C18.484 5.68726 18.3819 5.49173 18.2572 5.36339C18.1351 5.23781 17.9529 5.13658 17.5273 5.07771C17.0795 5.01579 16.4787 5.01423 15.5814 5.01423L13.4884 5.01424V7.94172C13.4884 8.32704 13.176 8.6394 12.7907 8.6394C12.4054 8.6394 12.093 8.32704 12.093 7.94172V4.74434C11.9878 4.69509 11.8781 4.64012 11.7597 4.58082L8.6086 3.00391C7.9501 2.67438 7.49853 2.4492 7.12638 2.30469C7.074 2.28435 7.02423 2.26605 6.97674 2.24963V14.7501C7.44474 14.8341 7.8738 15.0133 8.25003 15.1984C8.45726 15.3004 8.659 15.4097 8.84594 15.5113L8.87395 15.5265C9.05411 15.6245 9.21952 15.7145 9.38199 15.7958C9.72657 15.9682 9.86612 16.3873 9.69368 16.7319C9.52125 17.0765 9.10213 17.216 8.75755 17.0436C8.57316 16.9513 8.38839 16.8508 8.21391 16.7559L8.17944 16.7372C7.99076 16.6346 7.81232 16.5382 7.63391 16.4504C7.27426 16.2734 6.956 16.1529 6.65372 16.1114C5.96175 16.0163 5.39687 16.3461 4.52903 16.8528L4.47673 16.8833C3.90097 17.2194 3.42246 17.4988 3.02618 17.6789C2.62547 17.861 2.18976 17.9999 1.72969 17.9173C1.23243 17.828 0.786953 17.5593 0.471499 17.1654C0.18262 16.8047 0.0866402 16.3586 0.0431142 15.9137C-2.31303e-05 15.4727 -1.24134e-05 14.9087 5.67337e-07 14.2258V6.5131C-1.35778e-05 5.99681 -2.55294e-05 5.56057 0.0348087 5.19927C0.0717661 4.81595 0.151652 4.46264 0.34322 4.12422C0.535374 3.78476 0.796757 3.53644 1.10604 3.31167C1.39594 3.10099 1.76634 2.88475 2.20177 2.63056L3.40047 1.93073C4.00234 1.57934 4.49536 1.29149 4.92412 1.0922C5.37253 0.883772 5.79662 0.749272 6.26782 0.73389C6.7391 0.718505 7.17084 0.825104 7.63146 1.00397C8.07177 1.17494 8.58165 1.4301 9.20389 1.74149ZM5.51227 2.35754C5.53583 2.34659 5.55886 2.3361 5.5814 2.32607L5.5814 14.8148C4.95605 14.9814 4.41487 15.3004 3.95676 15.5705C3.90556 15.6007 3.8554 15.6303 3.80627 15.659C3.18899 16.0194 2.77236 16.2616 2.44897 16.4085C2.12245 16.5569 2.00956 16.5499 1.97636 16.5439C1.81717 16.5153 1.66888 16.4284 1.56062 16.2932C1.53112 16.2564 1.4679 16.1466 1.43183 15.7778C1.39615 15.413 1.39535 14.918 1.39535 14.1889V6.54519C1.39535 5.98828 1.3961 5.61965 1.42372 5.33318C1.44993 5.06127 1.49639 4.91957 1.55752 4.81159C1.61806 4.70464 1.71283 4.59559 1.92635 4.44042C2.15296 4.27573 2.46218 4.09427 2.93369 3.81899L4.0759 3.15215C4.71271 2.78036 5.14963 2.52609 5.51227 2.35754Z"
        fill="#28478A"
        fill-rule="evenodd"/>
  <path
    d="M15.1163 13.5231C14.6025 13.5231 14.186 13.9396 14.186 14.4534C14.186 14.9671 14.6025 15.3836 15.1163 15.3836H15.1246C15.6384 15.3836 16.0549 14.9671 16.0549 14.4534C16.0549 13.9396 15.6384 13.5231 15.1246 13.5231H15.1163Z"
    fill="#28478A"/>
  <path clip-rule="evenodd" d="M10.2326 14.4188C10.2326 11.7492 12.4742 9.56963 15.1163 9.56963C17.7583 9.56963 20 11.7492 20 14.4188C20 15.787 19.4185 16.9256 18.6308 17.8449C17.8489 18.7574 16.8399 19.4835 15.9116 20.0516L15.9011 20.058L15.8904 20.064C15.6541 20.1974 15.3874 20.2673 15.1163 20.2673C14.8452 20.2673 14.5784 20.1974 14.3422 20.064L14.3299 20.0571L14.3179 20.0497C13.3945 19.4781 12.3859 18.7544 11.6038 17.8447C10.8152 16.9276 10.2326 15.7914 10.2326 14.4188ZM15.1163 10.965C13.2276 10.965 11.6279 12.537 11.6279 14.4188C11.6279 15.3662 12.0229 16.1919 12.6619 16.935C13.3033 17.681 14.1653 18.3129 15.0359 18.8531C15.0605 18.8654 15.088 18.872 15.1163 18.872C15.1449 18.872 15.1728 18.8652 15.1977 18.8525C16.0674 18.3192 16.9299 17.6854 17.5712 16.9369C18.2102 16.1912 18.6047 15.3626 18.6047 14.4188C18.6047 12.537 17.005 10.965 15.1163 10.965Z"
        fill="#28478A"
        fill-rule="evenodd"/>
</svg>
