<svg fill="none" height="19" viewBox="0 0 20 19" width="20" xmlns="http://www.w3.org/2000/svg">
  <path
    d="M2.48047 8.26172V12.0071C2.48047 14.3611 2.48047 15.5381 3.21351 16.2695C3.94654 17.0008 5.12635 17.0008 7.48596 17.0008H10.823"
    stroke="#28478A" stroke-linecap="round" stroke-width="1.5"/>
  <path d="M5.81836 13.6719H9.15538" stroke="#28478A" stroke-linecap="round" stroke-width="1.5"/>
  <path
    d="M15.412 10.7588C17.0246 10.7588 18.3319 12.0385 18.3319 13.6172C18.3319 15.4029 16.5669 16.2808 15.7249 17.6193C15.5454 17.9046 15.2916 17.9046 15.0992 17.6193C14.2309 16.3316 12.4922 15.3656 12.4922 13.6172C12.4922 12.0385 13.7994 10.7588 15.412 10.7588Z"
    stroke="#05B5B4" stroke-linejoin="round" stroke-width="1.5"/>
  <path d="M15.4121 13.6719H15.4196" stroke="#05B5B4" stroke-linecap="round" stroke-linejoin="round" stroke-width="2"/>
  <path
    d="M14.8305 1.16911L5.12567 1.19201C3.67719 1.12151 3.30581 2.17666 3.30581 2.69246C3.30581 3.15378 3.24294 3.8263 2.35518 5.09031C1.46742 6.35431 1.53413 6.7298 2.03474 7.60486C2.45021 8.33108 3.50699 8.61483 4.058 8.6625C5.80817 8.70016 6.65969 7.27017 6.65969 6.26516C7.5279 8.79041 9.99712 8.79041 11.0973 8.50166C12.1996 8.21241 13.1439 7.17683 13.3667 6.26516C13.4966 7.39812 13.891 8.05924 15.056 8.51349C16.2629 8.98408 17.3007 8.26483 17.8215 7.80383C18.3422 7.34279 18.6764 6.31931 17.7481 5.19439C17.108 4.41862 16.8411 3.68778 16.7535 2.93032C16.7027 2.49142 16.6581 2.01979 16.3318 1.71969C15.8548 1.28109 15.1705 1.14801 14.8305 1.16911Z"
    stroke="#28478A" stroke-linecap="round" stroke-linejoin="round" stroke-width="1.5"/>
</svg>
