<svg fill="none" height="42" viewBox="0 0 41 42" width="41" xmlns="http://www.w3.org/2000/svg">
  <rect fill="#F1FBFB" fill-opacity="0.5" height="40.7631" rx="20.3816" transform="matrix(-1 0 0 1 40.8242 0.894531)"
        width="40.7631"/>
  <path
    d="M11.5977 19.8037V24.7023C11.5977 27.4732 11.5977 28.8587 12.4582 29.7196C13.3187 30.5806 14.7038 30.5805 17.4738 30.5805H23.3499C26.1199 30.5805 27.505 30.5806 28.3655 29.7196C29.2261 28.8587 29.2261 27.4732 29.2261 24.7023V19.8037"
    stroke="#28478A" stroke-linecap="round" stroke-width="1.46903"/>
  <path
    d="M23.3488 26.166C22.6788 26.7607 21.6122 27.1454 20.4107 27.1454C19.2093 27.1454 18.1426 26.7607 17.4727 26.166"
    stroke="#28478A" stroke-linecap="round" stroke-width="1.46903"/>
  <path
    d="M18.5849 17.7685C18.3088 18.7659 17.3044 20.4863 15.3961 20.7357C13.7112 20.9558 12.4333 20.2203 12.1069 19.9128C11.747 19.6635 10.9267 18.8656 10.7259 18.3669C10.525 17.8682 10.7593 16.7877 10.9267 16.3472L11.5959 14.4097C11.7593 13.923 12.1417 12.772 12.5337 12.3827C12.9258 11.9933 13.7195 11.9764 14.0462 11.9764H20.9071C22.6731 12.0013 26.5345 11.9606 27.2978 11.9764C28.0611 11.9921 28.5198 12.632 28.6537 12.9063C29.7926 15.6649 30.2356 17.2449 30.2356 17.9181C30.0869 18.6363 29.4717 19.9905 27.2978 20.5861C25.0384 21.2051 23.7575 20.001 23.3557 19.5388M17.6559 19.5388C17.974 19.9294 18.9717 20.7158 20.4179 20.7357C21.8642 20.7556 23.113 19.7466 23.5565 19.2396C23.6821 19.09 23.9533 18.6462 24.2346 17.7685"
    stroke="#28478A" stroke-linecap="round" stroke-linejoin="round" stroke-width="1.46903"/>
</svg>
