<svg fill="none" height="15" viewBox="0 0 20 15" width="20" xmlns="http://www.w3.org/2000/svg">
  <path
    d="M16.2507 12.0833C16.2507 13.2339 15.3179 14.1667 14.1673 14.1667C13.0167 14.1667 12.084 13.2339 12.084 12.0833C12.084 10.9327 13.0167 10 14.1673 10C15.3179 10 16.2507 10.9327 16.2507 12.0833Z"
    stroke="#28478A" stroke-width="1.5"/>
  <path
    d="M7.91667 12.0833C7.91667 13.2339 6.98392 14.1667 5.83333 14.1667C4.68274 14.1667 3.75 13.2339 3.75 12.0833C3.75 10.9327 4.68274 10 5.83333 10C6.98392 10 7.91667 10.9327 7.91667 12.0833Z"
    stroke="#28478A" stroke-width="1.5"/>
  <path
    d="M12.0827 12.083H7.91602M16.2493 12.083H16.8853C17.0686 12.083 17.1603 12.083 17.2373 12.0734C17.8051 12.0027 18.2523 11.5554 18.3231 10.9876C18.3327 10.9106 18.3327 10.8189 18.3327 10.6357V8.33301C18.3327 5.34147 15.9076 2.91634 12.916 2.91634M1.66602 0.833008H9.99935C11.1778 0.833008 11.7671 0.833008 12.1333 1.19912C12.4993 1.56524 12.4993 2.1545 12.4993 3.33301V10.4163M1.66602 8.12467V9.99967C1.66602 10.7785 1.66602 11.1679 1.83348 11.458C1.94319 11.648 2.10099 11.8058 2.29102 11.9155C2.58108 12.083 2.9705 12.083 3.74935 12.083"
    stroke="#28478A" stroke-linecap="round" stroke-linejoin="round" stroke-width="1.5"/>
  <path d="M1.66602 3.33301H6.66602M1.66602 5.83301H4.99935" stroke="#05B5B4" stroke-linecap="round" stroke-linejoin="round"
        stroke-width="1.5"/>
</svg>
