<svg fill="none" height="14" viewBox="0 0 13 14" width="13" xmlns="http://www.w3.org/2000/svg">
  <path
    d="M7.60666 2.11553L8.6203 4.24475C8.75854 4.54114 9.12712 4.82544 9.43816 4.87988L11.2754 5.20047C12.4503 5.40614 12.7268 6.30138 11.8801 7.18452L10.4518 8.68464C10.2099 8.93868 10.0775 9.42864 10.1523 9.77952L10.5612 11.6365C10.8837 13.1064 10.1408 13.675 8.90254 12.9068L7.18047 11.8361C6.86949 11.6426 6.35691 11.6426 6.04011 11.8361L4.31808 12.9068C3.08558 13.675 2.33686 13.1003 2.65939 11.6365L3.0683 9.77952C3.14317 9.42864 3.01071 8.93868 2.76881 8.68464L1.34049 7.18452C0.499626 6.30138 0.770317 5.40614 1.94522 5.20047L3.78246 4.87988C4.08771 4.82544 4.45631 4.54114 4.59453 4.24475L5.60817 2.11553C6.16107 0.960188 7.05951 0.960188 7.60666 2.11553Z"
    fill="#FFC107" stroke="#FFC107" stroke-linecap="round" stroke-linejoin="round" stroke-width="0.577312"/>
</svg>
