<svg fill="none" height="24" viewBox="0 0 22 24" width="22" xmlns="http://www.w3.org/2000/svg">
  <path
    d="M1.14453 5.29297H3.24219M3.24219 5.29297H20.0234M3.24219 5.29297V19.9766C3.24219 20.5329 3.46319 21.0664 3.85658 21.4598C4.24996 21.8532 4.78351 22.0742 5.33984 22.0742H15.8281C16.3845 22.0742 16.918 21.8532 17.3114 21.4598C17.7048 21.0664 17.9258 20.5329 17.9258 19.9766V5.29297H3.24219ZM6.38867 5.29297V3.19531C6.38867 2.63898 6.60967 2.10543 7.00306 1.71205C7.39645 1.31866 7.93 1.09766 8.48633 1.09766H12.6816C13.238 1.09766 13.7715 1.31866 14.1649 1.71205C14.5583 2.10543 14.7793 2.63898 14.7793 3.19531V5.29297M8.48633 10.5371V16.8301M12.6816 10.5371V16.8301"
    stroke="#D91414" stroke-linecap="round" stroke-linejoin="round" stroke-width="2.09766"/>
</svg>
