<svg fill="none" height="18" viewBox="0 0 18 18" width="18" xmlns="http://www.w3.org/2000/svg">
  <path clip-rule="evenodd" d="M16.9497 1.0503C15.8827 -0.0167669 14.1526 -0.0167657 13.0855 1.0503L3.36945 10.7664C2.40084 11.7347 1.80884 12.3266 1.40167 13.0553C1.17455 13.4617 0.97615 14.0782 0.800595 14.709C0.619997 15.358 0.442208 16.1047 0.272492 16.8175L0.27041 16.8263C0.210086 17.0796 0.285522 17.3462 0.469685 17.5303C0.653848 17.7145 0.920368 17.7899 1.17373 17.7296L1.18242 17.7275C1.89518 17.5578 2.64204 17.38 3.29098 17.1994C3.92183 17.0239 4.53832 16.8255 4.94476 16.5983C5.67342 16.1912 6.26526 15.5992 7.23365 14.6306L16.9497 4.91448C18.0168 3.84742 18.0168 2.11736 16.9497 1.0503ZM14.1462 2.11096C14.6275 1.62968 15.4078 1.62968 15.8891 2.11096C16.3703 2.59224 16.3703 3.37254 15.8891 3.85382L15.0176 4.72525L13.2748 2.98239L14.1462 2.11096ZM12.2141 4.04305L13.957 5.78591L6.25343 13.4894C5.17932 14.5636 4.73822 14.9955 4.21305 15.2889C3.98259 15.4177 3.52868 15.5763 2.88884 15.7543C2.61543 15.8304 2.32217 15.9064 2.01767 15.9823C2.09362 15.6778 2.1696 15.3846 2.24568 15.1112C2.42374 14.4713 2.58232 14.0174 2.7111 13.787C3.00456 13.2618 3.43647 12.8207 4.51057 11.7466L12.2141 4.04305Z"
        fill="#05B5B4"
        fill-rule="evenodd"/>
  <path
    d="M8 16.25C7.58579 16.25 7.25 16.5858 7.25 17C7.25 17.4142 7.58579 17.75 8 17.75H14C14.4142 17.75 14.75 17.4142 14.75 17C14.75 16.5858 14.4142 16.25 14 16.25H8Z"
    fill="#05B5B4"/>
</svg>
