<svg fill="none" height="16" viewBox="0 0 16 16" width="16" xmlns="http://www.w3.org/2000/svg">
  <path d="M5.33203 11.334H10.6654" stroke="#05B5B4" stroke-linecap="round" stroke-linejoin="round" stroke-width="1.5"/>
  <path d="M5.33203 8.66602H7.9987" stroke="#05B5B4" stroke-linecap="round" stroke-linejoin="round" stroke-width="1.5"/>
  <path
    d="M8.66797 1.66732V2.00065C8.66797 3.88627 8.66797 4.82908 9.25377 5.41486C9.83957 6.00065 10.7824 6.00065 12.668 6.00065H13.0013M13.3346 7.10525V9.33398C13.3346 11.8481 13.3346 13.1053 12.5536 13.8863C11.7726 14.6673 10.5154 14.6673 8.0013 14.6673C5.48714 14.6673 4.23007 14.6673 3.44902 13.8863C2.66797 13.1053 2.66797 11.8481 2.66797 9.33398V6.30454C2.66797 4.1412 2.66797 3.05952 3.25868 2.32687C3.37802 2.17886 3.51284 2.04404 3.66086 1.9247C4.39351 1.33398 5.47518 1.33398 7.6385 1.33398C8.1089 1.33398 8.34404 1.33398 8.55944 1.40999C8.60424 1.4258 8.6481 1.44398 8.69097 1.46448C8.89704 1.56302 9.0633 1.72932 9.3959 2.0619L12.5536 5.2196C12.939 5.60498 13.1316 5.79766 13.2332 6.04269C13.3346 6.28772 13.3346 6.56022 13.3346 7.10525Z"
    stroke="#28478A" stroke-linecap="round" stroke-linejoin="round" stroke-width="1.5"/>
</svg>
