<svg fill="none" height="20" viewBox="0 0 20 20" width="20" xmlns="http://www.w3.org/2000/svg">
  <path d="M5.83464 17.5013H14.1679C16.1321 17.5013 17.1141 17.5013 17.7244 16.8911C18.3346 16.2809 18.3346 15.2988 18.3346 13.3346C18.3346 11.3705 18.3346 10.3884 17.7244 9.77814C17.1141 9.16797 16.1321 9.16797 14.1679 9.16797H5.83464C3.87049 9.16797 2.88841 9.16797 2.27822 9.77814C1.66803 10.3883 1.66801 11.3704 1.66797 13.3346C1.66793 15.2988 1.66791 16.2809 2.27811 16.8911C2.8883 17.5013 3.87042 17.5013 5.83464 17.5013Z" stroke="white" stroke-linecap="round" stroke-linejoin="round" stroke-width="1.5"/>
  <path d="M3.33203 9.16536C3.33207 7.99851 3.3321 7.41508 3.55922 6.96941C3.75895 6.57749 4.07761 6.25885 4.46953 6.05914C4.91521 5.83203 5.49864 5.83203 6.66549 5.83203H13.332C14.4988 5.83203 15.0822 5.83203 15.5279 6.0591C15.9199 6.25884 16.2385 6.57755 16.4383 6.96955C16.6654 7.4152 16.6654 7.99859 16.6654 9.16536" stroke="white" stroke-linecap="round" stroke-linejoin="round" stroke-width="1.5"/>
  <path d="M5 5.83333C5.00003 4.6665 5.00005 4.08308 5.22716 3.63742C5.42689 3.24548 5.74556 2.92682 6.13751 2.7271C6.58317 2.5 7.16659 2.5 8.33342 2.5H11.6667C12.8334 2.5 13.4168 2.5 13.8625 2.72707C14.2545 2.92681 14.5732 3.24552 14.7729 3.63752C15 4.08317 15 4.66656 15 5.83333" stroke="white" stroke-linecap="round" stroke-linejoin="round" stroke-width="1.5"/>
  <path d="M13.3346 12.5L13.0846 12.8333C12.5939 13.4876 12.3486 13.8148 11.9966 13.9908C11.6447 14.1667 11.2358 14.1667 10.418 14.1667H9.58464C8.7668 14.1667 8.35789 14.1667 8.00594 13.9908C7.65404 13.8148 7.40868 13.4876 6.91797 12.8333L6.66797 12.5" stroke="white" stroke-linecap="round" stroke-linejoin="round" stroke-width="1.5"/>
</svg>
